<mxfile host="app.diagrams.net" modified="2024-04-04T19:48:04.273Z" agent="Mozilla/5.0 (Windows NT 10.0; Win64; x64) AppleWebKit/537.36 (KHTML, like Gecko) Chrome/122.0.0.0 Safari/537.36" etag="e_QdUaX8tLUuCB-YGqjP" version="24.2.2" type="github" pages="2">
  <diagram name="PÃ¡gina-1" id="cBlNzyiXiJaAslNul5K1">
    <mxGraphModel dx="1197" dy="457" grid="0" gridSize="10" guides="1" tooltips="1" connect="1" arrows="1" fold="1" page="0" pageScale="1" pageWidth="827" pageHeight="1169" math="0" shadow="0">
      <root>
        <mxCell id="0" />
        <mxCell id="1" parent="0" />
        <mxCell id="dBRUW4xj8wiHjo1s9nPw-1" value="" style="shape=image;imageAspect=0;aspect=fixed;verticalLabelPosition=bottom;verticalAlign=top;image=data:image/png,iVBORw0KGgoAAAANSUhEUgAABLAAAAKjCAYAAAANs/bAAAAAAXNSR0IArs4c6QAAIABJREFUeF7snQV8leXbx39nBSNGd4coKCBgYAAqKoIJiggKgoIYGFhg/C2wUTFQsQtBFCREQlKQDgmlQ7oGg20MWJz3/d5nzzjgYMRKve7PyyvbnvPE93nO+e/+8ruu26fSN/llwwgYASNgBIyAETACRsAIGAEjYASMgBEwAkbACORCAqEhks8EVi68M3ZKRsAIGAEjYASMgBEwAkbACBgBI2AEjIARMAKOgAksexCMgBEwAkbACBgBI2AEjIARMAJGwAgYASNgBHI1ARNYufr22MkZASNgBIyAETACRsAIGAEjYASMgBEwAkbACJjAsmfACBgBI2AEjIARMAJGwAgYASNgBIyAETACRiBXEzCBlatvj52cETACRsAIGAEjYASMgBEwAkbACBgBI2AEjIAJLHsGjIARMAJGwAgYASNgBIyAETACRsAIGAEjYARyNQETWLn69tjJGQEjYASMgBEwAkbACBgBI2AEjIARMAJGwAiYwLJnwAgYASNgBIyAETACRsAIGAEjYASMgBEwAkYgVxMwgZWrb4+dnBEwAkbACBgBI2AEjIARMAJGwAgYASNgBIyACSx7BoyAETACRsAIGAEjYASMgBEwAkbACBgBI2AEcjUBE1i5+vbYyRkBI2AEjIARMAJGwAgYASNgBIyAETACRsAIpAqs1n5DYQSMgBEwAkbACBgBI2AEjIARMAJGwAgYASNgBHIjASew6l7ewwRWbrw7dk5GwAgYASNgBIyAETACRsAIGAEjYASMgBEwAvL5JN/CJStNYNnDYASMgBEwAkbACBgBI2AEjIARMAJGwAgYASOQawn4Uvx+E1i59vbYiRkBI2AEjIARMAJGwAgYASNgBIyAETACRsAI+Pz+FBNY9hwYASNgBIyAETACRsAIGAEjYASMgBEwAkbACORaAj7/iSSw/FJcfLziYuOUnJKcay/KTswIGAEjYASMgBEwAkbACBgBI2AEjIARMAJGIPcRCA0JVYGCBVQgf37Jd+zzC05cHbfASkpK0po1a5ScnKwCBQooNDQ091GwMzICRsAIGAEjYASMgBEwAkbACBgBI2AEjIARyLUE8EpxcXHOK1WtWlVhYWHHca5+HZfAQl4tXbpUhQsXVunSpd3OfbSAz5SBTzv6vo7900w5AduJETACRsAIGAEjYASMgBEwAkbACBgBI2AEjEA2EKAQEM+0detWxcTEqGbNmsclsTIUWOx448aNSkxMVOXKlRUSEpIdlxN0jMwSZdlw2nYII2AEjIARMAJGwAgYASNgBIyAETACRsAIGIEMCaSkpGjdunUKDw9X+fLlMwxKZSiwDh48qNWrV6tSpUrKly9fhieQ1RtYIiurCdv+jYARMAJGwAgYASNgBIyAETACRsAIGAEjkPUE4uPjtX79elWrVk0RERHHPGCGAoudYcRq1aqVoQ073kv7u4RKCXopiSufDt/GtNXxsrXtjIARMAJGwAgYASNgBIyAETACRsAIGAEj8E8gQNXfsmXLVKVKFeXNm/fUBNauXbvEn+rVq5/ytXvd431KcvvyK0x79+7Xlu0xik9IUHhYmIoXjVLJ4lEKC0Vq8YpQ+VN7ZFkx4SnfAtuBETACRsAIGAEjYASMgBEwAkbACBgBI2AEcg2BtWvXqmzZssqTJ8+pCawdO3YoNjbWdYY/lZHiT9G+uFhtjU7QxOl/atyE3zV97lJt3b47VVChp/yiN3xUgUjVPauqLru4tq654hxVKV9IUQULuKZe2LnMayB/KldkrzUCRsAIGAEjYASMgBEwAkbACBgBI2AEjIAROBUCf/31l8qUKXPqJYQ7d+7U3r17T15g+f3aHr1XU2b+qeFj5mvspPnauSvWLTwY4vOpYIFIFSyQV2HhYUpJTlFCwgHtid2ngweThc2KiAhVo/PO1A3NG6hZ4zo6rVqZY65aeCrQ7LVGwAgYASNgBIyAETACRsAIGAEjYASMgBEwAtlHIJcILL9+nf6H3v5snKbM+FPRu2MVGiLVqlFeF59fS/VqVVTJkoVVIF9eRYSHKikFgZWo6F2xWr56i2bMW+FSWvv3JysyMlx1z6yq9jc2VPvWl6pgfmojj+yVlX2AM+tIdN1fsWKFWzqyQYMGrvu+jeMjwOqYJUuWzNDSHt/ebCsjYASMgBEwAkbACBgBI2AEjIARMAJGILsJ5LjASk5KVp8PRujV93/Wnr175PdLF597hh7v1lIN61dS/nx5lCdPfoWEgMbrdxVo4J7i9ykp8aAS9u3TX5vj1PeTEfp+xEzt27dPefPl1w3NGui1p9qqbNkSJ6WwoqOjNW7cOFdf2apVq7/dmz179mjs2LGqU6eOzjjjjCy9d6zy+Oabb2rRokX64IMPVKhQoSw9XkY737Ztm0aNGqUrr7zSLWN55Jg/f75WrVrlfl64cOGMdpdlP+ccuHft27fXY489lmXHsR0bASNgBIyAETACRsAIGAEjYASMgBEwAllHIEcFVvTuvXr+je/1wdeT5U/er+pVKqrHvdfqthsvUngETdlDlJiUrJiYPVq9bqdmz1+lrTtinNSqXbOy6teuoOLFCilvnjzy+fxSSop+m7tSPXoP1LxFK7X/QJKuaFJXH7zcUdWqlDthin/++ac6deqkefPmacKECWrSpMlh+1i9erX7edeuXXXrrbee8P5P5AUIrJdfflkLFizQF198kaNSiPOeM2eObrnlFn3++edq3Ljx3y6lb9++GjJkiPt5ZjT2PxFWwdtu377dyavOnTurdevWJ7sbe50RMAJGwAgYASNgBIyAETACRsAIGAEjkIMEckxgxeyJ13N9BuvjARN1IClRLa9qqCe7Xat6tavI7wsRPmrbjmgNGTVbX/4wTXN/X6GUFGJYvsD/+fyqVL6Y2lx3kW6/6SLVrFHZfZ8G73v2xqnPB6P02aBJ2rx1ty46r6b6v9pJZ55RObBg4XEuU+gJLMr2ChYsqB9++EGVK1dOu10msHK/wDrae8ua/Ofgp44d2ggYASNgBIyAETACRsAIGAEjYASMwAkSyBmB5U/RUy8PUt9PxygpKVkPdrlKj9x1tUqVLJp2+jt2xuixXt9o6Og5io09oEJReXRu3eoqVbKw4hMOaPGfa7X6r50KDfWpfu1q6vP0LWp84Vmpdsqv/QcSNWDIr3r+zR+1YdN2Nbmojj59/U5Vq3L8zd09gXX33XfrmWeeUbt27fTss88qX7587jzTE1hbt27Vjz/+6Er9kCQ1a9ZUmzZtVLp0afcaShJnzpzpEkEDBgzQypUrFRkZqUsuuUTNmjXT7NmzNXr0aLGqY8WKFXXzzTe7fSQmJroE1sKFC9WzZ0+NGTNGGzZsUNGiRXX11VenpaDYP4mx7t27a+jQofr1119Vo0YNPfzww65/1s8//6zffvvN7a9evXpq2bJl2rmdyLNzogks+lANGjTI9fGin1eFChV06aWXumO//fbbLsF24YUXpp1CXFyc+/65556ryy+/3LH8/fffNX78eMedr2vXrq0bb7xR5cqVcwsIfPTRR65k8cCBA+5YrEJ5ww03aPDgwWrRooWuuuoqt/81a9Y4Gcl+6CUGBzgjKW0YASNgBIyAETACRsAIGAEjYASMgBEwArmPQI4IrG+HTlGnhz9TcmKCut1xlZ5/rLUKRQXLA79uvfdtDR45S8kpKbr9pgv11ENtVLxoPoWHhSglxa+9cQc1aNg0vdpvpHbsilH1KhU05OOHVKdWpVTKfiUmJuvzgeP1yAsDlXAgQZ3aXK43n2+vgvkjj+tOeALr9ddfd+KlV69e+uSTT3TFFVekK7DWrl2rhx56SIsXL3bCBIEyadIkJ0noF1W2bFknZRBRVatWVfHixXX66adr6tSp4rXnn3++k1JIm/z58+uXX35RsWLFXCleVFSUe93333+vhIQEV86I/Jk1a5aWLFmi9957z5XIsX9KDNu2basvv/xSdevWdfu76667nHz76aef3PnT14v+XWeddZbrqXWifapORGCVKlVKjRo1cqKO805OTnalkBybMsTrr7/e9fcKLsNkVUt6V3FN9957r2JjY91/+f55553n+pyNHDlSTZs2VZ8+fdzX7IvrRdLRkwy2/PyOO+7Qo48+6qQevPiae4MYQ5QhDM8++2x9/fXXTgjaMAJGwAgYASNgBIyAETACRsAIGAEjYARyF4HsE1ippXur1mxW0za9tWFztK5sUlf9X71TFSuUCqrq8+vr76eowwP9FRkZosfubaUn7r/G9bk6cpDC+X7EdHV7+mvt2hWtW29son4v36kCQYIK2fXwc1/p3U/HqEjhSH348p1qee2FCvX9vY7wyOpCT2C9+OKLOuecc1y/K8bHH3/s5FNwAgvRgkgZOHCghg8f7gQVA8DNmzd3KShSP/369dOTTz7p9vXOO+8oJCRE9LdC5pAi6t+/v6677jonWOi7xXZfffWVSychsDiX7777ziWnGLyWZBhN02fMmOGSR88995wTOGxHiovBvhBAyCqST+x/2rRpbv+9e/d2KbETGScisP744w8n0JB4cGRw70hikapC9mUksDhfxB0SDGa8/ttvv3VSbsqUKU4Ssp9NmzY5cUcSy+MPOwRWx44dXfKNBvTIOyQhAwGI6ILP//73P7d/G0bACBgBI2AEjIARMAJGwAgYASNgBIxA7iGQTQIroIYSEg7oyZcHqd8XY1S0cJS+fuceXXHJ2YfRoDfWpTc+p4VLN+j6Kxvo/Vc6qUyp4kcl5vcn6aW3R+jpVwepcoVS+uLtu9T4gtqHtbmKj4/T1R3e1JQZf+jyRmdq4PsPqXixqAzvgiewSF6RWiJNdc8994iSQtI8wQKL8jQkFgmjJ554QhEREWn7J8GFoEEikapCYCGAatWqlbYNcmX9+vUuPeVJp+XLlzvp0qVLF912221OYFGeSJlgyZIl016LwKFUjobp3FD2T/kgJYneQFTxM+SWVyq3a9cuJ4CqVavmpM+JjBMRWKScKHPkHEhZIfNCQ0Pd4Sh3PB6BxfZIKyQfKaz9+/c7AYd847+ILe7BxRdfrFdeeSWtzJNr9gTWBRdc4HgiGq+55prDLve+++5z9xOGZcpQZmrDCBgBI2AEjIARMAJGwAgYASNgBIyAEcgtBLJNYPnl09wFy3X7Q/21dOVGPdT5ar3+v3YKCw8PYuHXhKmL1brru0pMPKj3Xrxdt7e+NLXp+tE7ryO9al/6sLbs2Ks3n+ug+zpemSZIAjv367dZS3XDHW8oNi5BX77zgNpcf478CksVXel3dg8WWCR6KFNDIiF7SDchkbxVCC+77DKXbKI/1e233+4STt5AWpFwoucVpYgIJuQRZXzeQIpt2bLFCawiRYq4b69atSpN+lD2xrEpgWM/3jZsR6IICYUoI5HF/ll9z0sYsQ1ld5Qn0k+Lc/MSUHyPVBTX4w0EET2zvEH5IiWKweNEBFaVKlVcioxrS0pKUoMGDVzvKsoKKSU8HoEVHx+vTz/91Mkq9oGw4jw5D/qNeQKLpBd/vBRVsMCipBAZSF8weAUPUnX00EJgkYazYQSMgBEwAkbACBgBI2AEjIARMAJGwAjkHgLZJLCkxOREvfPxOPXo/ZUK5MujlTPeU4m/paD8+uCLMXq49yAVyR+uCUOeU83q5Y5j2cAktb2nnwYNm677OzfXq0+2VmRkoDyMVQf9PikhLl73P/OVPhs0UefVP0OzfnpOfoWmCSwE25GK7EiBxe5ork7vJBq5U4734IMPOmGCwCJ99fTTT6tDhw6H3WGSV6SzggUWPZ2CS9UQWIgoBIrXj+pUBNaR+0dSVa9e3SXBguUaJ0pajF5b3oiOjnYiztsOgUVqKXggjSh1RErRgP7I8dprr7leVFwPAou+Vwgn+n317dvXyTkkWePGjdPtgQVnemPRy4vSvkceecQl2Ei38RpKBhFR7CM4gXX//fenlXpyTsECi+QXJYSUWgavJsl2yLEPP/zQBFbu+WyyMzECRsAIGAEjYASMgBEwAkbACJwSAVt9/pTw5boXZ4PA8gs5FBOzx0mmsZN/V7fO1+rdF26RfMHpqwCb1/r9qP/1+VEli+TV3LF9VKpExqV+8ifroWe/0dsfj1Gntk30bq/2Ln10WK7KL/04aqY6PfyB9sTFa9HEt1T7jPLHlGPpCSzOEXFCDypWrlu6dKlL9dDniq8pYUOyBKer3njjDfGH0j8kDAmpkxVYlBCyAqG3qiHnw8p8CDKSYTSDT2//lCAiphBKwa892SeS5BYJKlJhNE8PlmLIKkoFSYMhhoLTYhyPDxHOERY0vacck/2QMvMG+0cI8jPKNhFsSL5XX33VbcI+KJPke3Pnzk1LYB1LYFFKSAkh+0C+BQ9eRzrus88+c6sa2jACRsAIGAEjYASMgBEwAkbACBiBfzYB5qa0n0lMTHQXEhYW5uaOXosaKn28n/Fz5rVskzdvXvdfbzD/ZA7P/vgZ+zjWoPUN2+IF2PbIEMnJUqUvNNfDONp5cFy2o3LJu+Yjrye943ONzOHZP/2qPQ6ER4IH+6c6jf9yXVwj+8+OkQ0CK3AZq9Zt1fnNeyouIVGThzyrCxpUl+Q1y0Y1ucdFH3411q0aWDBfuMZ//4zOOr3CcXBIVuvOffXDz7P1UJcWevmJ1sqTN19QoirFHWvZyvXq+FB/zVqwWs8+cqOe+/8/fD/9AkLpaAKLE6LZN+kjHnbkFAKJpuysGEj6CFnCA0CDcEoKSf/QdPz9998/JYFFfyeOQzIJSUfT8gceeEBr1qxxq+kNHjw43f3zM9Ji9HpCZrHaHg/1xo0bnRwKTmAdB3DXiwrpQ6niU089pTp16rgHF0lGyeRjjz2mF154QV27dnXb8oBTcskHBW8KZBsrOnI9pKLoT/Xuu+862bV7924nkhCBsEVSlS9f3pUdwrZAgQLueunnRdP6lStXHpfA4j4gxDZv3uya6ZNI4/5Rltm+fXt3Hog1rz/X8XCwbYyAETACRsAIGAEjYASMgBEwAkYgdxFArhA2oVqH6iHmrcgW5r0seEYYg57Ub7/9tqvQ8ZJayBrmpLTeIVDBPJfvMadlQbVly5bpoosu0uOPP37UC2a+yxyWuTG9oJmHBgdcToUUrXmGDRvmrgUHQZjEGxyXBdSmT5/uPARVTVwXc3+uFUdRt27ddGVTTEyMC+rQoofe0EgsOOAxYEBQB/8A04kTJ2rhwoXiNVxXpUqV3Da0CqJVT1YuipZNAitZQ0cv0I13vKpap5fXhO+fVekShdO5b35Nmr5EN3V5RwcOHtDbz3fQne0uD9QB/q3A79DLd++J0xkXP6jomDi93esO3d3+8r/1wOL1+xL2686H+2vQ8Blq0rCGJg994Zj7PpbAol8VDyKy5ptvvnGJI5qwI1V4g/DAc+PYR6lSpVzpHjefN8ipJLB4czEoYaTUkGOuW7fOleXRmPxo+8cscw70uuIB42FEYPFGfumll9wb+EQGbwT6VyHykGCUCVKKiHzigSfphODiODzgiCqSX5z3nj17tHjxYseMbSjF5Oe8KVjdkTca7CipZIVFSghppI8wpJcXTegRd7yBeOOQ5PJ6YB0rgYW84pwpR+QNedpppzmZxkqICDSOYemrE3kKbFsjYASMgBEwAkbACBgBI2AEjEDuI/D111+7uTHhhfr167v5KoO588yZM928nRADPa2ZrzLnZBw4cMDNbydPnqwKFSq4AAUtc5BRVPEw/2Q+iiBi7preoEKKCi3mx1QZUQHEPDgzBi6B9j7Ml/n7M88843bLvJbADNfMuXnpK++YhDTwEVQ3UUEWnJjienv06OHm1fgB5vreQJSxyNlvv/3mWgKxHW2BglNrbFuoUCH3M/78owVWQD0d0P9eHaHefYfopmsa6JM37lWhqNQeVUfcRVYqPL/Fk1qyYr2aN22gT1/votKlvP5MwSLL+7vfrUD44tvDVLVSKX35Vldd1PDMdHRX4Caw7ev9RqhsyUJaMPFNFY4i+pd+g3gECgkfVrejAXjw4KZiJyljw3xiG/keK+7xfW4q49xzz9X555+flnDCatIbipK54Bjh999/716LQfXiiDwgAwcOdPtmHzxQvAmwp7wpsL9IId4cSCkelKPtn3NB2rCyIW/QrVu3OrnUsGFDt++MIpDpvdmIFSKjKOHjQ4D9cx70A+PN7llmRBnniygiiYX1btq0qTPfHJcPCU9EsQ+ul/Ni1ceyZcs6w80+YIrAw4BjwznWTz/95NJofK9///5OxCG5vIFQI7HGhw6v4ZwxxeyLFRA5vmfWSXbZMAJGwAgYASNgBIyAETACRsAIGIF/LoGRI0e6sATChhAHqSPm0czXES/MBwmDMB9HYM2fP9/NrRneNkigm266Sc2aNXNSiDkrAov9sD3zeaqb0hu0GyIFRRqJuW12CKwpU6a4NkfMfxl4AhaZowyQFBqthhjMeQng0G+aQVlkq1atnCNgrkxIhPkx83AYEAAhXcV8nvAKi7uxHUKQOTaL0zG35ntUWR3Zqiezn6IsTWAdKgxM0m3dPtSAodP0UOdmeumJdoqMPLQC32EX5fdr0LBp6vDQR/IpWY/fe50evqu5ihQpFHiggjY+sH+/ho2eo65PfKH4+L3q1OZy9X2hg/LnS68eNfDKD78cr0df+EoFC+TTlKHPqEY1+h0dO+GV2dBtf0bACBgBI2AEjIARMAJGwAgYASNgBIxA5hIgBEJlD2KG9jqEIY42KAtEYCFpaFETPPgZaSWqixBiyC7kDNLmhx9+EAudIYaO7P1ECR9hDSqJZs+erXr16mW5wCJtRXkgQRpCLW3atNHHH3/sZBQDaffoo4+6dkZsi1jjPJFxLGRG+x8qtgjt0GoH8cV+kFIETQiTIAMRZFyz18qI1JW3fyQWVU0nE4w5kScgSwWWJ5wQUS1ufVWjJ/2uZ7rfqCcfbKU8EX9v4O6deMr/r1jX7enP9NnAKU4utbnuArW5vqFqVCmtqIL5dfBgov7atF1jJv+hzwZO1Oatu3Ve/Rr65PXOql2r8lGunz5YPn374zTd0+NjReTJozEDeqhBnWqp26efwjoRmLatETACRsAIGAEjYASMgBEwAkbACBgBI5AzBCijQzyRwELYHGscj8CiZQ8LqTEQWFQ/kdIilcWxSGileYz/TzC9/vrrrr3PqFGj3HlQHZTVCSwqnSiT5LyQUCweV7FixcMuneqya6+91kkuBttQLUYfaKrKqJ4iYUUJYHo9oSmhJJFGaSUpLlopnXPOOYc1us+OO55tAqtZm5c0bupiPf9oa/Xs1lIREYc6+qd3oTujd6tX36H6dOBkxe/br5LFC6tapVKKKpBXBxKTtWlLjP7asFWJiclqdEEtvfVsW9Wve3iZX2C/XroqWVKoBg+fri6P91dERB6N+uoxnVfvNLcNKyWawsqOR86OYQSMgBEwAkbACBgBI2AEjIARMAJGIPMJ0Fz9rbfecgucXX45/bSPPo4lsCgBZPEzFhJjcTISSggshFWHDh1caSA9tBBWJJkY9MlGCJUoUcJ9v0WLFq41TlYLLFJUyDIGvahpoUOfruBBKx8WX0OuMbgmhBTbkxTjnEeMGOHON71Bqx96RnMtNMinrRGlhyTNkGZZ2fcq+HyyWGAdkkc33PGmho+eq57drtOzj96svHmOnsCSkrRk6WY99sJXGj9tsZKSUljPMrVXVerKhX6EVGBUKldYLz7RQTdff57C3VKX3uqG/PRQrywSWF9+N1kPPPWZIiPzadx3T6hOrUqZ/66xPRoBI2AEjIARMAJGwAgYASNgBIyAETAC2UaABBJN01n8i55PlSsfrTorcEqewCJV9PTTT7sEE6KG8jp6PiFpWHAMQeM1cUdg9ezZU127dnX9pT///HPX25lBqokG6fTRZsX77BJYNHJHLjFo7E6S6sjSRsoI6QfGuTNYJZHySQQWKwvS8wqRdaxFzVatWuVeR78sWCHuEF/sBzl25DGz4sZnucAKJJsOqtuT36jfF+N0xy2N9XavTiqQ/+99qoCwKyZW7372i155+wcdSEpRZJ5wFS6UT8WLFlTNaqVVpEh+Jew/qDV/7dRfG6MVExuv2Pj9CvOF6porG6jX4zerVo2KCgl2WI5cQGS91m+4nu0zWMUKF9Cs0a+oXOkiWcHV9mkEjIARMAJGwAgYASNgBIyAETACRsAIZBMBfAIyhWbiJyKwSB7R9JzBan700UKEkaKi2TuD73kJrCeeeMKV4vE1PaPoOcXrXnzxRbeo2pAhQ1z/qGMJrB07drgF0bxBs3XkEYuTHWuktwohKyo+//zz7mWcG0IrPYH1xhtvuJ8HCyx4/fnnn+7Ys2bNOqbA8jjAhfJJmCD8GPQaGzBggFtoLStHlguswAp/iXr/yym6r+dHatLwDA359FEVKxrlriutfbrfrxWrN+uZ1wdr6OhZkt+nc86urmuvqKfml9VT7ZoVFRqKlQoU+vlT/Fq/OVoTpi3ST78s0PipixQbl6Bzzq6qV3reoqaN6/5tdcHk5BTd/+Sn+uib8ap5WlnNH/+GwsP+Zrqykrft2wgYASNgBIyAETACRsAIGAEjYASMgBHIAgKPPPKIK6EbO3asLrvssmMewUtgIaNYxY+xceNG3XnnnS5ZhIjyxNaRAovXUl542mmnubK8uLg4t7IfZXkPPfSQW+nwWAILEfXpp5+mnV/JkiU1bNgw12D9WCM9gUXD9rvuusu97Pbbb9e7776bbgkh8go2DBJbNGUngTV37lxxfMou6aV1PIM0FsJq4MCBWrlypeub9eCDD+qll17KUMIdz/6Ptk0WCyzvsCmat3C9Lrimp6IKRmr26FdVtVJJ90NPYNHz6q7HP9Wo8Qvc97vf1UIdb26s6lXLKiw0NG3LQ+sFHvrbjug9GjV+nl55b4SWr96k6lXK6+PX7tAlF9VO3X+gx9XRnyJVAAAgAElEQVS2bdHq+NCHGjt5sTq2aaTP+94bJLlsJcJTeZDstUbACBgBI2AEjIARMAJGwAgYASNgBHKSwCeffKLu3bu7XlT0wjrWSK8HFikuygZZtY9k08MPP+walR8psFiVkP2TwKIEkdX6EEQfffSRGjVqJBJWxxJYlO0hY7xBE3UavnsrBx7tvNMTWEuWLFGdOnVcWR+rBVLKeGQSauvWrbr66qs1f/58t2vKAGvXru0EFg3n8+XL5+TTAw884FZcPJ5B6uy7775Tt27dXDnmNddc40oqixcvfjwvP6ltskFgBeTR9u3RuuzmF/Xnio36+I171bntRUpRuMtT+ZSobk9+pQ+/nuBk1Xsv3aEOrRoqPG+kfE5B8efwpBQ3JwA2IJ6Sk/36dcYi3fvkl1q2aoPOOK2ia9JetRJRwGT5FappM5eo40P9tWb9dg3u312trz3vb/s9KYr2IiNgBIyAETACRsAIGAEjYASMgBEwAkYgRwmsW7dOF198sXMFP/30k+rWpTIr/XG0Ju4HDhxQ06ZNRePzzz77TGefffbfBBb9nygXpNTw/vvvd4kvJBDbR0VFZSiwThZSegKLpupNmjTRb7/95pqp01wdkcRqgQyuh3Pk3NiWnl6LFy92Yq53796u9BEZhQTr37+/E2mexOK1lBgixJCDN998s/u793MY09R+9+7drqSS4xYtWvRkLy/D12WbwNqfEK/Hew/We5+PcSv/TRv2P4WH53ECauzkhbqq7SvKkydEPe9vqSe6XaeIPHlS5dXh9u/oOamAKPt++DTd8+SXzgB27XCF+jzTXnnz5FFiUqLe/OhnPfnitypSKFLr5/ZXvnwc3xt/3zP1nDy03uBhwIhmVJeaIfUc3ADxxzXxIBLz402W09eTkJDgVmyoWrXqUcls3rzZ1R9zvsGD66F2uFChQmlvIr5HhDMpKcldG6/JrlUR0p4mv999yPHBxrnZMAJGwAgYASNgBIyAETACRsAIGIGsJ0BJH03FKYd75ZVXXJN1Ek4Mmpkz/yxWrJibE9MDasGCBVqzZs1hJ4YMIkF13333uZ5SzC+De2Axz9u1a5dLelGCSMnga6+9lrYaYEYJrJOlkJ7AYl+cL+Jq+/btbteUBNKXijn/jBkztGnTJvd95tSU/nFtjPXr17vSx99//919zdyVBFmpUqXca+bNm6cyZco4GYjggh1C76yzznL8Jk2a5LaDL+cGq6wc2SCwOH2//H6fho+dpS6PfqToXbEa/NEjuuma8xSzJ14tbntZM+et0uWNaqv/651VuWJp+ZQSlI7KqLzv0M+Tk5L1aK+v1fej0apetbS+eOsuXXjemdq0aYuu69RXCxavVY/7b9QrT7aSPzUBFtSJK401TdeoAR0+fLh7uDGM3ExqWjOqS83KG3Yq++ZNR7yR1QV44yJ66tWrpxtuuCHtDX0q+z/Z1xJ55M3+1VdfHXUXxB2Jgh65FCo1yn369HEN9pBVvIlGjhzp6ni5Z7xhuWe8ybJzYLBpHoidvvLKK7Pz0HYsI2AEjIARMAJGwAgYASNgBIzAf5YAQQbml8zHYmNj1aBBA1WoUMHNDxE89G8ijcS8/mgCi7kzZYSU133//fduVcEjBRaA6TfFyn4InwkTJqhKlSqOe3YLLOafnOfbb7/thBwMggdpqzPPPNMJORJTntBjGwQX4on/xsfHH/Y6mCG0WFmRlBfs8AjBAymGBCPJdaxVDDPjgcwmgRU41a3botX50Y/084QFql+nqoZ9/pjm/r5KHbu/r+Qkqe/zt6pTuyvSkjTHV3nJng8XXFu379I5Vz2lbTt267nH2ujxe5rrxbd/Uu++P6h8mSIaPeAp1axR7pj9r4jWUfvKDWrbtq0TIVhWHsiCBQtmBvts3QfCCtNKPSxmtnz58s6eIn2ICHJtOTWQTtTkHmvFgqMJLCKKvEG9ZnTTpk1zy4Y+/vjjzi4TZeSDiZhkdg7e1Bwbvv/E5yU7WdmxjIARMAJGwAgYASNgBIyAETACmUkAoUN6aObMma4EjoQUczP6M9WsWVO33HKLW6nvvffec+kr5v7Bg/kcoYgPP/xQ5557rtq1a+fSXAQjmE8jhBi8ljI85pvMQRE+vJaKMHpK0ZPqtttuy7TACHN6Vk3kODSRb926ddppM+dftmyZW01w0aJFTqJxLgRy6Hd1/vnnq1atWumeC2KIuTRzaxJVBHqKFCnizp/rxxlMnTrV9dCiaTvXh0OoWLGi+zllm1nZ+8q7yGwQWJ5cIoUlfTd8hrr26K+E/Ynq3qW5YmP36aMBE1WuTFHNG/uqiqeuTnjiD2+wxDqoHr1/1Gv9hqhZk9rq1qmpbrqnvxIPJOip7jfpqQdaKk/EsZen9AQWZYSsIuA9oJwX1pIbSTpr27Zt7sG58MILXSd/ytnuvfdet3IBxheJQYM0anGpFyVFRE0oPyeZg4BBsPDQE7kjgkccD5OLgGFlAlYVoOyPmF+PHj3c37G8JJdYFYH0EQ/NsQam+e6771aXLl101VVX/a0xGw/rs88+6x5WzCr7RCy9+eab7sFlmUzK8GjqRrkfbxzKKZFFzZs3dw84Vhbjy5uE8+R6aWqHmCL5RSyRNzFvCmpr2T8siXbSIG/MmDHuD8dcvXq1+3CAKW+y9AQWAu6ee+5xKy7An8F5cl9oJhc8vvnmG23YsCFt2VCWVcUQ03gPlhdccIFbQYHvX3vtte48ud6ff/5ZL7/8clo8tGvXrlq+fLm7roYNG7oPvMjISNfcj+v1PsRIfWHoSbgR3YQb0VJYwoZjDB482N1n3vwsvcoHHqWSnBcfcsReeU74V4Hg5+/E3xv2CiNgBIyAETACRsAIGAEjYASMwH+PAEkkZBbze69CB/FCQIV5K/N9fub1iwomxPf5OYO2NMw/eV1weol9kFpivoYQ84bXusfb/ngbo2d0h5hDcz0MriP4XLzXMjdnOy+Fxbl513ys/fM69o0IY3ghnuC5KD9jG7blmpCC7Duzri+j688GgXX4KQCxfbd3NGjEHBUqGCmfL0kxexLV9voG+vbDR93GGRUMZnRRUopmzF2ti67/nwoVyKuQ0BDtjolTwwan65M+nVXr9EoZ7sITWJSo0Zmfm8cDSTSQpSmRGEgSHmK67VeuXNkJK+pgic8hopBTWN/333/fvSEQJeecc46QIDSFoy4V8YEMY8UCZBRff/311/rxxx+d0EK8IHEoX6Q+lT5RxBk5PlFIjslymzSNO9ZYsWKFa9yGECN9FTyQRVwDdpkmdwgkJBOShnMlBkiZHsYVEcP1Pf/88y4iCQO2YxUFjDSvhRWptTfeeMPFEIkyIs8QOlzXDz/84BJTJJOQRDyEiCxsLlKONyERT2Kf3AfYIAmPLCFke0QY8o9lThlcCzLo1ltvdcuCwpgPG1aDwI5zjgysMSKJe8S5kbSDO/eJOmak0xVXXOHOAUkHM7Zv1qyZs8wcA7HEs4D8Q95Rusj1wAYRCDfqrWHAm9r7PtfHuSAJ+cMzxb3mv+yXPzwnPC9wyGgligwfZtvACBgBI2AEjIARMAJGwAgYASNgBIzAP5xAtgsseG3ZslM33vWOZsxd5npd+RWhPs+01iP33OAasQdWHjz+AsL07sHGLdGqd/lj2rkrzimxkiWL6N3eHXXTNRco5DiWhfQEFoKIiCFGkaQUCSYkE8kaEjMM+jIhHfgZgzTQ008/7RqpkT5CiCA2aHxGwoiEDVE/YojIMeKM1KMigpAjWE32R/IHEUZcj7QPsUSv4TpxQJqEI3xeeOEFt4oAgxpfUkSIQtI+iDXOnfgjAiW9ZS05H0SdF5vE1pLoQt6QMOK/pKDYL6KJ1BAskEAkp5BbiCGOQz0tg31x7dhaZBvHZb8wQm6R2vIGsU5SawgpzptyQphw7TygHAMewQKL+0PPLDg8+OCDh5lnmHDfSDNRq4xoonTyWAIr+H5yXGQf6S6WQ2VlCbhz/0i/kWDjeySqiEnC/JJLLnHHRDjxPJBE45gILBJWU6ZMcVKNtBmiimvh3FhylIFAQ1ghDNk30utI0fgP/6yx0zcCRsAIGAEjYASMgBEwAkbACBgBI3DSBLJVYB3SUn7NXbhKd/f4XPMWrZD84XrsnuZ66YlbFBbu9WIKbuJ+/NcXOEayps9dres7vqKd0XHKmzeP+r7QXp3aXKqIDEoHvSN5Aos4IDIDEYOEIl2EeCKJg3xiUNpHqRcpIQYyA8mFNEJgsD0DMULZGOVplIhRmkjKB7FCmgqp4fWiQighdUh4IT9IOJHU4jgkmqjjJY0VHR3tUlBIIgYJJJJEnDdShrI2zh1BgiwhDXbkan+cB3WxJI28QRkhyaQhQ4a4VBVijQTYY4895pJVyBWORbM3UkTsAz5es3TOC1nDa4gXkqKivBKZhEijBvdIgTV+/HgnutiO5BT1u+wTwUaNcrDAQgoh7ijDTK9JOiKMa0YKUuKHLAoWWOyb1JOXwEI6wZYBy8suu8yVJpJEo1YYOcd5nXbaaY4f1+ut1MBrKL8kJYfoI8lGiSVcuP+UC/7yyy/ueeC+wpX7gMRD5jGQbTwzfE3Si/OzYQSMgBEwAkbACBgBI2AEjIARMAJGwAgECGSrwAqG7k+Rps1e4iTW0pVrVTB/IXW8pZGe6d5KxYpGya8Ql8Hyp2ayMrphaZ22UpI1YOg0PdprgHbsiFGevHn1/kuddOtNFys87Nh9r4KPcaweWEgGUjiUjzEQWKSsaObG8AQWKRqWnCS1hPgaOnSok1gIrGAhQ10tKS96N3lyCWFCySKvo8YU8fHqq6860UXfJoQIPbJYUZAEkpfAQtyQEqLmltQQ5XMM0lqcI+IM0RZco4rkIS1G/ygG0owlMum9xc8QWCSLkFGkzkhcHSmwSGVREkiJoTc4PkuYcixex7mRwIJXcLM5L4FFiovyQno/kWyiOR0M0xNY9BRDiiHTypYte9THAwGH0KN8EUawY7DCJNfnCSyvDxk/oySTYyKakF6IJa+2mGsiKeaVPHoHZt+cP7wvvfRS9yx4S7Zyr70aaGQjzwCLAVCu6KX4PKEGP8QlgtKGETACRsAIGAEjYASMgBEwAkbACBgBIxAgkH0C629VgYGlF2fPX6F7en6phUvXKjkpxa1O+PwjrXV+g4oqUjBKYcezOl6KX3tj92jpqh3q88FIDRs3T8nJSapQrqR6PXqj2rW6SGEnIK84L09gUSaHgPAamCGYKPM6HoFF93/6I5E4IgWEPLnhhhtcKopUTnCiiD5XNBkn1UXqiHQTpYgIFGQRCR1EDK8j9URZH3KMnlaUtlHel95AnCCQSEEhZhBKHJ90FIkiJBipIs6L60Jc0VeK7UkVIVSOR2DR+4sSOBJWpJ0QbrBCynE9nqjha86B9BO9neBCWozj8H1KFhFyJNEQZZRBkmQ6MoGFWKMxPWyDB83i6T+FkKK0Dz70GyONxjE5D0Qbggop9cknnzhRReoK4cQ5IcZIY9GHiv5aJKVIlnFNlGTC7UiBxfWTyiIpB2cSbZ7A4u8ck4QWCTyul/uMqCPlRUkhIo4yURJ5yC8TWPYRbQSMgBEwAkbACBgBI2AEjIARMAJG4BCB7BNYR+1r5df6jTv1+vvDNXzcfG3YvEuhIX5ddF4tNbukjs6uVVEVyxVT8WKFVLBApEsVJSenaN++/doVs1ebtuzSyrXbNGHaHxo/dZGid8Upf94IXdb4LD1w51W69MKzFBoWesJdtRA4lO6xMp03kCkIGpqZs1IgK9cxaEjOspFIIQbihRK0UaNGpckjejXRGJxm6SRvSCxRtkbyikFqCrlBugfhxL5IclEuiJwi2YNIady4sSi1I0FEQou0DykspFZGg95aSDV6M3E+SBX22ahRI7dKItfK9ymDa9++vUtM0ZyctBQrJyJpSEjxNSzYFiHFinvsi30j01h5kf5XSCevFA7hx4ArfcBoAM/fSWOxLcmkRx55xDVCR/ohe2goDyuukbRUMC++pk+XV7LoXTtlfQgkVodEjiGFSF/BlAbyJLo4V1Y1pLE9Mo+eU/CmRxfXRM8xUnaIN5Yf5XX05aJRPL242C8lgsEll7Dl2hGNPCM8p9wjJCPCi7+zfwQYfcKQWh4vhBbPEhKR3l/0DztSzGV0b+3nRsAIGAEjYASMgBEwAkbACBgBI2AE/s0EslFgHRtjwr4DmjLzDw34cbqGjZ6luH0HFRriU/GihVSmTBEVL5xfBfLlUXhYqJL9fiUkHNSuPfu0bfsebdoarcSkJEWEh6lhgxq6o80luqLJWSpbuniO3TvKAoNLyHLsROzAGRI4siQ0wxfYBkbACBgBI2AEjIARMAJGwAgYASNgBIxAthLINQKLq07xS/sT4rV2w2599u1E/TDqN23ctEspvhCaYf19YUJXhehXZGSoWjQ9R3e0baoL6ldWoahCgZUGT20hw1O6ESawTglftr7YBFa24raDGQEjYASMgBEwAkbACBgBI2AEjIAROGECuUpgBXQU3on/n6yDB6XFyzZp1vwVWrF6g7Zuj1F8wn6XwipetLCqVS6terWr6sJzT1eByFBJIRLiyo30jNcJ8znpF9BDi1XnKLVj9UAbuZcAJY2U9rFioA0jYASMgBEwAkbACBgBI2AEjIARMAJGIPcRyHUCS0pxIuqQfuJrvgo5IoLF9wKN4AM/O3zkrL7KfTfazsgIGAEjYASMgBEwAkbACBgBI2AEjIARMAL/VAI5JLCORy8dzzb/VOx23kbACBgBI2AEjIARMAJGwAgYASNgBIyAETACx0sghwTW0U/v5LTVyb3qeCHZdkbACBgBI2AEjIARMAJGwAgYASNgBIyAETACOUcg1wmsnENhRzYCRsAIGAEjYASMgBEwAkbACBgBI2AEjIARyI0Ecr3A8vv98qU1Zs+NCAPnlNF5rl+/XikpKa5ZuA0jYASMgBEwAkbACBgBI2AEjIARMAJGwAgYgeMnkGMC68CBA5oxY4Z27drlzjY0NFRFixZ1K8EVL17cSas5c+bol19+Ubdu3RQVFXX8V5XNW86bN09ffvmlnn32WRUrVizdo/fu3Vv79+9Xr169/hFCLpsR2uGMgBEwAkbACBgBI2AEjIARMAJGwAgYASNwVAI5JrCio6PVtm1brVq1Svnz51diYqJ2796tAgUK6KWXXlKbNm00YsQIffLJJ/rss8+c1MqtY/To0erevbsmTJigcuXKpXua99xzjxISEvT555+bwMqtN9LOywgYASNgBIyAETACRsAIGAEjYASMgBHIlQRyTGDt3LlTrVu3VpcuXdSuXTsHh+/973//08CBA7V69WoVLFjQpZaQWiEhIW6bgwcPat++fe7v+fLlU0REhPs72yUnJysyMlLx8fFOiOXJk8dt472GFBdJL2+wDdvyffZPKox983eO7R1z7969bl9hYWFue46TN29edyzvnPh+oUKFDjtPvsfxOH9SZOzbE1iUHPI158Z+kXje8XLlk2InZQSMgBEwAkbACBgBI2AEjIARMAJGwAgYgRwikKsEFgwmT56sm266SSNHjnR9pUaNGqXHH3/cyaENGzZoyJAh+vPPPx2uWrVqOQlG6mn48OFaunSpTj/9dP3666/as2ePe82NN96oIkWK6OWXX9YTTzyhM888072Wff/2229uf88884y2b9+u77//XgBhXHjhhbrhhhvca3v27Kmzzz7bSTLKBdl3+fLlXUqsTp06rhTyo48+0htvvOFKCFesWKHvvvtOa9ascWKqQYMGbhtkFQILAfbzzz+7a42JiXESrlGjRrr66qtVuHDhHHoU7LBGwAgYASNgBIyAETACRsAIGIGcI8DcaNq0adq6dasLGZx//vmqVKlSzp1QJh6ZOSzzU+au/J3+yGedddZJHYG5ZsuWLfX777+rQoUKKlOmzEntJ7NfxP3btGmTTjvtNDfHXblypTsEX/9XRlxcnJv70wMbN8A8/2hthv4rTDLzOnOdwPr666/15JNPavbs2Zo+fbr69evnZBCJp6eeesqJJgQXPbJIalWrVs0JqP79++vNN99Uq1at1LhxY/eGQRItX75cX3zxhZNDHTt21KOPPur4kbaiL9XGjRtd7yqSYHyYIK1IRrEvShwffPBBNW3a1Emryy+/XBdddJFLSlHWiJzq27ev+5C9//77NWvWLJfU4jjIqq5du7p01bhx4zRmzBh3XgisAQMG6JVXXtHtt9+umjVrumv64IMPnIzjeOzDhhEwAkbACBgBI2AEjIARMAJG4L9EYMmSJXrvvfd0zjnnaNu2bW4OxhwQ8XMqY8GCBW7O1axZs1PZzSm9lrklMuPee+91cz+qgfgeAQnmiVQOHe9gDjl//nwX9qhdu7YLcWQ0aNczfvx4F/DIqsofgiTvv/++3nnnHZUsWVLffPONO63bbrtNffr0cW13giuiMjrn4/n50KFDHdcSJUocc3Pm/wRY8AdZJUUJvHD9CFjkJJw5t1M9HuzwBOHh4ceD5F+9TY4KLN48GON69eq5VBJlg3/88Yd7sBFRPIyewNqyZYs6dOigt99+273BGQgqUlW8cUlPIaromXXuueemNYFHTH311VcuabV48WJ9+umnLlW1Y8cOJ4zuvPNO9+HIg4YwK126tEtnIcf4YEE4edtgUnktY+HChe58OB7JME9gkari4eKDiAcV0YaFJS122WWXuTdzw4YNnSh7/vnn3UOIfadZPR/OnF/dunX/1Q+dXZwRMAJGwAgYASNgBIyAETACRuBIAosWLXJzQOZThAqoonnooYfcHI35HK1ZmFMRQiBMMGnSJFdhg/Cix/JPP/3k5peXXHKJa/0yc+ZMN+8bO3asaAvD3LBJkyZO5CDHrrzySpeOofqH7a+66qosSTOtW7fOzW8vuOAC1+/522+/dcfjugg3UP3DuTGHJLnDfNerHIJRbGysu36umVAF2zMfnTt3ripWrOiqgwhVUJHEtfP11KlTnSyC1fXXX+8qhugxTW9mzoVjedtXr179lPs0I+RY2Iz5OnNrxI0nsAh1UFXFfPfiiy92837O67zzznPVSsyZGdwr7g3zYxJmVDQhnaiGYls4sg3zegQZ502rHpJ6l156qUqVKuWCMKT3CL3wTHj7gzXnxmt4pgiNBD8vXmuiU3lXIhVxElwr4RiuA8ZcP66BZxcBQwKPv+MLOF/EbdWqVV1whmujtRLPJ75iypQpLvjywAMPuPtOUOZo28MgmB8JuGAeWSUuT4XZib42RwUWDyVvRu/mcpNYifCWW25xDxxiyhNYvGFJZ/EhxoPJ4MYjsJBMyCVuFn/3fk76ijTUa6+95prAY37fffddd+PZng/Gjz/+WD169HAPFz/zBmB4M7A/jsEHIR8u3kBaIaF4E2DzPYHFm5WHjDda8OCaSJHxgXHttde6kkc+wLyBoOODhR5g/NyGETACRsAIGAEjYASMgBEwAkbgv0QAgYX0YC6IDCDcwFyMOR2JFuaLpI+Y4CNskAAspEUwgO2YwCMMEFNIoM6dO+u6665zVTmEChABBA5IyjA/JCnDXBShgjCqUqWKS0Vl9nj66addEILzZq6HfELQlS1b1l0v0ol0GHNJygERXFwHwgHRxTyRlBUSpnnz5mrfvr3mzJmjDz/80Akh5sXsh6AE0oKV75EhVCHBjGtkPoscZI7LeTC/9rZnzo0QOpWBLGLezXUyVyZJx/yZcAjiDQHDeSFzuK/0nOYakVrcUwQjf0fQsD1Skqon5swsmkZbH1JkzM9btGjh5v6wIAhClRQhFvablJTk7jHMli1b5pJu7I8yRqqizjjjDMevU6dOjjvnAHvm86c6CNjwDOMZvH7Z3BdCKrgPro37RhsituV6EUyIWSQrYu3HH390boJzomURXoFnEmfB/UdecT1Hbg8nfsb1cxx41q9fP40H10wA558+clRgHdnEnYeLDyA+oCjhw4p6AoukE7II+3qkHX3hhRc0ceJE1/uKB9pLSfFBxYNJuR4PCR9gfKjdfffdaVafNxYffAikI5NPvIl5iO677z6XoCKRlZHAIt5HDyweyOBx1113uQeJD03PpAZbdVJgPNQPP/yw+8C2YQSMgBEwAkbACBgBI2AEjIAR+C8RYPLP3I15IP2dSPQgmxACzBFJ7SB+mOAzd+N7zBGZC5KkQniwD1rSkHTia1q+kIohdHDzzTc70cXEnkoYJvzIHSb7JHyQPqcqco68X4gdhBrng1jheEgd/lxxxRWukgh5QgqJIARyiVY3SCkkCG1qmGOynTcQPsECC0HG+ZPGov3OW2+9pTvuuMO9lv1w7Ndff92FQZj/IkeCt4czrz2VQdqNObzXtoc2OlwvgyAJ83jOedeuXS5MQq8sRB7zZGQVXz/33HPuXCkH5N4h36jOYj9UMiGueDbYH9e5efNml9Li+ahcubJLleEASJ/BjmfH2x/3mPk8CTbm/si84OeFNNapDkQb4pVz9kpCEViIN+4H95XnF7fglXMiUknd4TJ4/khq8fwiHL1BxRp8KYNEeKW3PbIT98GzxrF5X3BfPR4kz5CA//SRqwQWMCklROxgEK+55po0gYUQ8iQWkcjgQeNz3ojHElikrjDUPBCvvvqqE1mY+ltvvdVFKHlzYLq9+CL75yEgfshDjvHHiHvjaAkszpFoJg9u8KBcEstMDy72h2jDGHuDD2Oulw9soqs2jIARMAJGwAgYASNgBIyAETAC/yUCXgkhfaKYgFNihahi4o3oYDCxZ26IEEFIMbdDRDGPY8LO3xEAL774ovuahbYQWKStqIqh/zFzQ+Z5VP/QQ2rVqlVunsj8j/KvzBw//PCDm8cyv0XSEGqoUaOGS90gsAYPHuzSSVTocP2U1CGkOCdKAJFQzBERLt5clRQR5YNeAoue0MwxYcM1kEjy0jvsB2kHB2QO82ZEUPD2zENJ9ZzKIKGDBBwAACAASURBVIiBGOLcmJdzbd68HeHEfUS+ILmQd6SJmDPTrgdBAxuug3Okoor5MvKP+TMCi/MmUcac2qvWQs4hNODH90kpkapClCFxaCrv7Q+BxXye8yI8MmjQINdqiJI9nhfKSE91IOR4brkOhBoDgUX6jwQUzyq+A7dAKIfzIzWGUOUaEVgkrnjeg50HfHg+2YbEWfD2JBG5vzwbBHVIHPJscUxEHt4D7iTQuEf/9JHrBBYPITeOBuh8mHgJLB44bgYfRMQBg0UTN4E3wrEEFhFSTO9jjz3mhBUGlzc9xpNoI28MxBPRwyMHddJIteMRWLwJsavYV29fWGaMJ+dPySLXh1XGGhOhZHCdvImwwP+lVRr+6W8gO38jYASMgBEwAkbACBgBI2AEMoeAJ7CogmECTskZgoNSK+ZITMwpe2PORdoGEYCwQs4QTEBMIWyobOHvnsAaNmyYExkIL5JdiCHmZ97iWcw1EVykr9guswYVRqRxvMW7EhISnCBD0CBZKA0jicPXpIkoF6SMkVY6lDVynnyPxBTfJ72FxGGfJG1I8yDluGbSRcgZ5BApKKQRMsQTWCTR+B5zbBqZI87YnjQbYoNQyMkO2gJR1cR5I47oU0WAg3JFyvbYPwISuYTkQUxyzaSnkHUIGgIlbIfgY45OTyhSZyTFYETVFULLE1hITOQPiTUSTlwHaSOeD54NenAREvH2hw8gxYQoI0hCqi34eUH+nOqgfA/PQD9tjsH9hw3PKdcPc+b8eAJSVCTPEGfcE1wFfdDSE1hwQwASouEY7I9rCd6ehQ5oR8T7BjlIWott6A/G+wVJaQIr6A7z4PDG50E7nsH2XhN3LDMPHCaUhxOpwwNJhNITWNwQBBL2mjcHdpkPGR5W4pB8OGUksDCc3k2mjA87yuBNTtyONxNvYuKnPBy8+fiAQXgdbwKLDz0EFnKMD1H6XiGzeNBgg0nmQxYjTlkjJp4PJ66XB4661CPl3PHwtG2MgBEwAkbACBgBI2AEjIARMAL/ZAIICuZGTNYp8UM2MZ+ivI2JPukVRAQ9hZh7ksIibIAQoUSQsjUkD32h+Dk9kPg7czHkgZfoouSQ7ZEjSDGSKiSQSCadyGqAGbFGXiDlSMx4PZFYEZH5HnNCQhJILWQGQor5LKkw5qdIDu9cmMdS4sY5cv3ILiQNXChHQ1ggQAiDMG/lD3NQkkqIIdI7JK5I63gMeb23PfNxL1iR0TWl93POn/tG2scbHJ8UEj2mmPdyHmznlcMxv0dKck30/WJwT2jMDx+kHddJAg3BA0PuJ88F8pEkDs8LIow2RPwcWUUPMOQVDd/ZztsfVU74Bq4bFnAIfl4yo4m75xa4xxyH6yK4wjVyTxBapKEQbyTV4M694VlFpuFICL/wfZ5Lb9CiiPuLO+C62Z6UHaIweHt4kNJCevK+4OtgHhzjnz5yLIGFGcQS86B7gzc1cUqMuRcp5AYgnTCtGGakFh8wvInpdYVR5OHme9wc7Lb3RucBJS6KgPJSTUQzeVBJePFG8gY32Sv94zg8aJhOHgxEFw322rVrl7Y94gyhhojigwmTSnQPc821YV29umWkGG807Dc2nMFDSAwUA8x1kMrijfZvWBngn/6msPM3AkbACBgBI2AEjIARMAJGIPcSoAwQ+UOiyoYRMAL/HQI5IrD8SpFPIf8dynalRsAIGAEjYASMgBEwAkbACBgBI5ApBOhbRILnVBuPZ8rJ2E6MgBHIBAJ+Sb4M95MjAivDs8oFG/j9ki9jfrngTO0UjIARMAJGwAgYASNgBIyAETACRsAIGAEj8E8jcHziyruqnBdYh50vX9gwAkbACBgBI2AEjIARMAJGwAgYASNgBIyAEfh3E/BSQwExlJHOyhGB5WmqwKlmdIr/7ttlV2cEjIARMAJGwAgYASNgBIyAETACRsAIGAEjcGwCOSKwYmPjtfavjdq0ZbMSEhIlPyrLRJY9rEbACBgBI2AEjIARMAJGwAgYASNgBIyAEfi3E6BlU2RkhMqVKa3KlSqoYMHIDPtgZY/ACnJTq1ev0/jJ0zV09HzN+3OHDhxMSr0v1nDq3/6A2vUZASNgBIzAP4vAyf3TUoqU3Qu18A9hvvTaEKR3Ljlwfhne9sC5++U7jvalGe4sCzcI/INjcNg/Cw8WtGvvHzqDj3boexQc+Px+pbjmpQGGh56G9F6bPWdtRzECRsAIGAEjYASOTSBPRKjOObOkWl51ti6/5GJVq1bpmC/IHoHFLxL+FK1cvV6ff/uz+n87Q7v38AtkYurJWe8re7CNgBEwAkbACOQqAt5KJkf5n2ikQdqPstARsGoxqxc7QeVEVarq8Qf6JBxmfPyscMy2/OIR0Cw+pQSJIc45+B/MUrfPSfBOvIXwi9LhZ5H9luhwYeRLSWUII1a2CUiiANaQwN9T8Wel0jr6o3XoPoaGhqpAgfxK9qcobm9s4Drc+XqPQeq29utmTj7pdmwjYASMgBEwAukQ4He7UBWJCtfd7Rrq9rYtVKN6JfmOsqJetgms+H0H9PEXP+itT6do/ZYY+fyBXyhtGAEjYASMgBEwArmDQOB/lQPCiL+HhvkUEoLAOPZITvYrJZn/Xc+6ESwyQnw+FSlSQAn7DijhQJKiCuZVcnKK4uMPKKpgpHwhPsXs3afCUfnc+e/aHatCUfncL0Mxe+IPT+hkoXw7Oo30fv/JSnoncV8OE2g+lSgepSoVSmnpqo2KjU1IlVq+NJF1Ekc4zpccStc5IRV893w+hYaE6qJza+iqS85UeFiI+n87VavWbk7bd+A1NoyAETACRsAIGIFcScD7h0n5VKFsYXW/41J16dhS+fNRTvj3kW0Ca8HCpXr29YH6edJyJad4/zqaKxHaSRkBI2AEjIAR+E8ROOQqAuVX+QvkVetrzledWpUz6EVAMkdOHo0eP19TZixVUnJyprJLC1N5cSufX3VqVtWNzesqX/6C6vP+SD1+39WK3hWnb36crifvv1Zr1+/QlJkr1apFfSklRcN/WagLGlTVaZXL6Lk3h2jLtpjUdW5S5Odf+HLAcASuK0ShIX7liQjXvv20VAikng5Lt2UqzaPsLL20ly+QvCoSFan6darqikZnKX5frIoXK6FBw37T8tVbtCtmn7v//KMkw38o8pSJZx2SmqLzdsnJhkg+nyLCQnTdVefqqsana9KsDSpfMkL1alfXe5+N1pxF63XgIH1WeV3mPpOZeHG2KyNgBIyAETAC/3kCXmY+JNSnqy85Xc892lb1zq6ZEwLr0HqDI0dP0OMv/qhlq3ccFu8P/MNnDvzm+J9/TAyAETACRsAIGIG/E/D5/Lr2ynN1etUSGjB0lg4mer0q06eFbClerIC6dWqm3m8P15ZtuzMfa5BgKVa0oF7q2UZT56xRm+ubKGbneq3YkKBSJQqrYslQLV9/QJs2b1ObaxpoxIQ/tHtPvDq2bqhh435XaFheVSsjPd1nrDZv3Smllcll/ikfa4+B331C1LBBdfV/tYsKFMyvb3+YpJfe+0n7E/YFpFqgCi77f0PySfnyRqhcqfzauStB9915rc6sXlRTZ63Qtz8t1v0dGqrmaRU17tcl+uXXhSoQGap1m2J14ADPSUBoZuZJH7m7vHnzqGH9SsqbJ1yNzztL9c4qr5G/LNAPo2YrLDRF3bveoMrlimj6vDVavvIv7d2XqNkL1upgIhLLft/M3ifdjmYEjIARMAJGIAMCaf9DH/iHszOql9DrPVvpmqub5oTA4piBfhMDBg5Tj1dGaPP2uLQGoIf9GpHJv/DYg2IEjIARMAJGwAicAAEf5WApisiTX7fd0EDrt+3ThCkLlJKarvnbnlzyJvC/8fxP+FPdW2v0hJmat2hT4B+qMnm4VJIvQr0fv1YVy5XS9LlLdcNVjfTVoBGqf/ZZiggP05p1G1XzjKpavmqjKpUvqb2x+xQbG6dKFUprw6btKl68qPxJcUpWQT318jdKSUmWX6FZcr5Hv3zSQylOuI3+pqfuf/JTLV+zWW88014/jJqpkeMXS/7kTBdBGd4OH32tEpU3f2E9fX9znVmjsr76YZrq1a6smfNXa9KMZalSLUWXNa6vYlFSsWIldM5ZZbVlx1499dK3SjhwMLWBfybf/9TyAimPej1ync6rf7rWbdylujVLauSEpfpk8HSFpPZVzRseqXtuv0Rn1iitjVt2q1zpKI2d/Ife/XS0CawMHwLbwAgYASNgBIxADhBI7QfK75VlSxbQa0/eqHZtrslZgfXl10P1xGsjtTU6/u+NSnOAkR3SCBgBI2AEjIARCCLg8ykyIlQ339BEjc6tqujd+zRy/HxNm7X0KJgwWJS8BUq8et5/k8ZPnac5v6/PZCGUmkbyJcvvz6sPXr5NoycvVoM61RS9a6+Gj5un229urF274zRy/O/q0u4S1/9q3KRFanX1eQoLDdH3I2fq0ovOVJnSRTR45Ezd1OIcPfv69zqYlJQ1oZx0G7Af4oXxa1i/mh6/7zq1uvNdJ6w633qZShcNV+93J8nn2+cSWoGO6ek0d8+SIBH3MVFRRUrowQ4Xa8CwuVr912bd3eFKVa9YSBu3xrjOaKFKVpnSJTRr/ioNHztfhYsUVJe2jTV64hLt25egFeu2Zf7vea53Pz3WItXvhZs1fPwijZuyROfXr6autzbWrj370sou6Y+2/0CSvhj8m1as3aoWl9ZSw3Nq6ZnXvnPPcVhYqFJSUpRC0/xDXejto8AIGAEjYASMgBHIEQLBv0/6VbpEAb36RCu1b3ttTgmswO8HaQJr575M/sU2RyjbQY2AETACRsAI/LsI+HzKEx6iSxs10BUXnaZtu+I1euLvWvznutQlVwKdmfJFhmpfQqCnkFcKh8jqeX8rTfh1nuYs3CAdLbV10sRIeSEwIvRF3y6KCJOiYxK0a/eegLg4rI9VatPvoHRY4DeREJUqVVR5w0MUn5Cs7s99rsSDiakJrMw2QkcarEOrJ3oIShSL0sAPuuvzQRO1bsNO3Xt7M305eKLG/fqHJMrx6M11hMByK+vRZD+zz5fDwThJhQqV0AO3N9I3w2drzV9bVLRIYVWuWNq19ndSTT7Xy3Tdhm2KiYlRRHioqlcpq87tmqju6WX0av+JGjdp7knf6b+/MMAgcP/zql+vNho2YZF+mbzYISpdoohCw8IVws9Te3DFJ+xXTMw++f0hanHZ6Tq/QW09+/ogFSqUV08/eIP6ff6L1m3ckTP9xjKRjO3KCBgBI2AEjMC/hwD/kIbAym8C699zU+1KjIARMAJGwAhkHQGfkhUWEanbWp6rvzbv1cRpv0v+UCcKKpQtoXd7dVKRwgU0bfZSvdZvhPbExqedTM/7b9SEqXM15/eNWdA02xNY4er3cgdt3b5Xq9fvdr2PUhTmkkOBjE6YQpWUqncoDUxKTeaEu3O6u8Pl8iXvVVThkur1xoCAwPKFZYFwO8o9ci4GCZSiwoUK6MNX79DVTespbt9BxcbFq8OD/TVz7sqj/kNfms7KirYLqSWkhQsXU7eOF+ubYXN1Uf3Kuuby+lqzfrO+HjJDzRrVVMGC+VPXqQzVwBEztPqvaDVpeJqaXFBHd7ZtqiYtn9TaDdGZ+pAGilQp94zUe71aa8T4xRr3K6WWUsWyhZQ3T6hWro12ItPnT1aZUkXU8aZGuqxxXZUtXUjr1m9X9+e+1uWNz1W3DhdqxV979MTLA7V0+dpUKZepp2s7MwJGwAgYASNgBE6YgAmsE0ZmLzACRsAIGAEj8J8kkBoYCguRqlappJZX1tbG7XH6Zcrv2r4jRiEhUu8e7TRu0kxNm79V9912gdZu3KMRv8xx4ojgCwJrPAIrKxJYTkyQAArXey/epvWbtmnVup0u/VO+ZB5NX7BJRQvlV53TS+i3BRt18MABXdGoln6Z9qfiEw6q5ZX1NXnGMtU/+3QlHYhRiVIV1fut75R48GAWCSwvBRaQVWkjtZdTiaKF9HLPNtq2Y5f69B+r+H37ddnFtdTr8dZ65PmB+tWVbfI6b4XEoERXuuWJp/jUeks9+pJVqHBRPXB7Yw0YNl/3dWisXbHJKhyVRwOHz9G5tUoqX8EoMliK3r1XYyfOV0TewupxzxWKS0hWfGysXnhnlOQ/duP/EztbeoaRwKKENJ/e632jJs5YrT9XbFBScoj6v3yber0zSgkJ+1S+dBEVLRqlKxrV1vQ5yzRhxkolJSbp7LMq6taWjVSyeCHtT0jQnIVr9OI7P2r37tisyLKd2OXZ1kbACBgBI2AEjIBLylsCyx4EI2AEjIARMAJG4PgI+HzKHxmqHg+0Ub2a5RQTm6Bho+dqyKgZCg8LUa/Hb9GAH3/T0hUb1b51Y+3ZG68fR892xV1EYVwC61cSWBsyuVVAQAYdEljttX7TDq1cF63b2zRV3J7tWrR8h8qVKaHTKubX/D93avPWHerUpom+HTbDiZYH72yhb4dNky8kTAfjd6l4qQrq/dZAJSbul98fkcnne7ivClQBplonX6AIr+XVDXV2rfJ66b3R2r8vLjUFFKoLz62ql3q209UdXlF8/IGgHdGvKTV2lRXpK3ckck7JKlSkmB7oQAnhPDVrVEOnV6+gvbFxGjhirlpcVleFChWUPyXZ9R77Y9lm9XrseiWnhCgs1K/XPhytHTt3Hbre43vyMtgqUH55SGC10syFm3XWaWVcg/nPv5us4WN/V4umZ+u6K+rpjOrl9L/XvlOZUkVVvkyU6Im1Nz5RNaqUVt2a5TXil/nq+/FYt7pmoCg2y4BmytXbToyAETACRsAI/DcImMD6b9xnu0ojYASMgBEwAplCICAwwvNEqn3L81wJ4YSpC+VPlS9NG9VW5zYXKHpvsvzJ+9X3s4lavY4VB1m9LiCwsiaBFSSwfBHq1/s2/ZUqsBIS9qtEkTAtXr5DUQUjVa1SIS1atlOJiQfVsF4VzZq/VgkHEnXphadr7qK/dHHDOvIf3JMmsJIOHkwtQaS/UiYOn0+Nzq+pttc3VFhEHk2atliDhk11JW+hrJLX4RJt3bFXP4ycLnqJe93EfL5QjR7QU92f/UJLV25V/sgwJRxMVIprOeZPbZrvRbAy8XzdKZByS1KhwvTAulgDhs9RckqSKpQurtj4BK1Yu0U+n08hxPH8fse18y2XqNbpCK59+nXWMk34dZGSUzKVZOAivSbufkoIb9aI8Yu0bNVWVa1cQouX/qWIsBBt2R6nL97qosGjZqt86cKKKlhAK9dsVqFCUWrZvIGKF43SI89/recfuVFt733HNfr3VtHMmk7+mXx/bHdGwAgYASNgBP7VBExg/atvr12cETACRsAIGIHMJRDoMxUWkVftbzhP67bs1cSpC509qFWjnJ57tLVKlCiuxMQDisybV7Pn/qnn3hii2H0JbptAE/f5mrPwr8zvKeUcVqCEsN+L7Z3AooTw6isa6oxqRfT10JmqWK6EWlxypr4eOkt798bq4XuuU9+PflJ0TJxe7NFWH3wxRiHh4Ura5yWwBmVZCSEk77+juUoUy6slK3fo4z5dFLM3wfXcGjF6pr4YPFnrNu4O6iF2SEpVqVBce2L36dZWF+rBztdr1dqNanvfu9q9h0VwUlfOy9wbH/BnrhQ0SVFOYF2kAcPnqdNNDV1T/81bt+t/b/yo6O3bFRIS7s7vrJoV9Uz3m/XdiN9Us3pZ9Xp7qA4mJmf+CoRHCqzeN2n05KWaPOMPsYjkd+/fp4++nayVazbo074P65Yur+nhe67V9Hmr1LXtRapevbqG/zxVBQrkV5/+P6lru6YaOnqGfptDrzF+Waa3VhZJwcy+T7Y/I2AEjIARMAL/WgImsP61t9YuzAgYASNgBIxAphPw+RSVP0IvPd1RNauVVlx8goaNma8RY2frqQeu1ZDRczVj7jKlpIQoPDxEHW9uokpli+jpN0bI5z+ont0oIZyv2QvXZ35Jnkvg+OX30wPLKyHcoVYtLtSKFX9oT3yYShQvrKi8idq6O1mbNu/UdVfW07ipf2j3nli1vf5CjZm0UFFRhXTQCSx6YFFCeCC1hDCwqmLmDZ8e6NxcB/YnaMbv6/XoXc31wNOfKjIyrzq0bqRrLj9HMXvjlZREqiqwpuDGzdF666MxKlMyv7p1aq7Y2H168+MxeuGxm/TxgPEaP3VJatotSX5faOaKojSBlaKoIkVcD6xvhs3Tfbc11uoNO1WmZJR+nrREnds2UYF8kfr+p9lqckEtTZmxWJ3aXq6uj36gzVtjUlNsWZDACqx9KL/yq1/vllqyMkb1z6qoYsUK689lq/R6/3F6/O6r1PjCs9Xm7jfU457rtGLtNtWoVEg1atTQ7AXLXXLsp1/m6rKLztSCxWs0ZvIix1M+pJsJrMx79m1PRsAIGAEjYAROhoAJrJOhZq8xAkbACBgBI/AfJeBTiC9F1auWU8tmZ2vTtliNnbRAlcqXUNeOzdXv87FK8dOLKlDSFRFOGqqTLm/zrPbGHXAlhBOnzNPsReuzMIEV4Zq4b9i0QyvW7VS+fPlUt2YZjfxloSsRa3z+aRrxy0IlJSWqVYvzNWTULMXH71eHmy/RzxPm6cwzKiv5YIxKlCyv3m8OUlJioIRQvpTMrSLz+fTAnQGBNXPBX7r/jmbq/MgHAWESIpUvVVh1alVSnjwRLlkWEhqqO265TPv2xytmT4J+Gj9fMXv26+rL6ih//jx67s0fXTN9TjKwIl9AemXqSF3BL4oeWLc30oBhc3Vm9dJqdGFtbdq8Q4NGzNT27dEKDc+jttefryoVSqhGtfIaMPRXJadIU2cu1f79++X3BUoMM3UcWUI4YZH2xu7XJRfUUL8vJsvvT1JiUpLGfPs/3dH9XXVu11RzF63TeXUru1b4s+av0VWX1NEr/UY6Idjngx+1ZPnmwP2QCaxMvVe2MyNgBIyAETACJ0XABNZJYbMXGQEjYASMgBH4bxIIlBCGRBRQh5YNtG5zrCZN/V1nVC+rdi3PV3R0TGqfpFTX45MqlCulF976UXvjEg41cc+SVQhTSwh9EXqvN6sQBpq4N7v0bG1Yu1w7YsNUoliUihZI1MYdfm3ZukPXXF5Xv0xd6prN33JdQ5e4KVasuBITSGAFCSxfWBYIN58eRGAlJGjGwoDA6vLw++6x8vv8Oq1KBXW48QIVLcyKfikuABTi82vC9FVasHitWl9zjmpULaXRk/7U+GkLtTsm7tAjmZYWymRJ5NRYoAfW/R0RWHNUqlg+1T2zsnZG79XE35Zr955dKlK0pJ7u1kJ58ubRgkUrNGLCUj1056V6o/8Y1zA/cJGZ/A5KKyGNVL9erTVy0mJNmLpEKf4Q/e/BqzVp+nLNW/KXnu9+rXbG7Ne8RX+pVbN6+mPVFqWkJLtneMGS9fpr4051adtEHbp/qIMHEzP/PDP5sm13RsAIGAEjYAT+OwRMYP137rVdqREwAkbACBiBUybgU2SET+1uvEQXn1NN0TH7NHLcfE2ds9I1dg94Ca/UKiXtbwf375P8yerxwE2aOGWuZiOwXO4lE8cRJYQbNm7Xqr926OorL1TtM0rps0G/qmL5/2PvPuCjqvL3jz93Jr0HQu+9CUpHQEVFwI5l1bVhWd217/7WhmBZUdG1r66r69p2rYguKgKydhSQZqH3YoAkkN7bzP9/751JJjGQMhlkmM+81iUkc++c8z6X5OaZc76nlc4+ZbBeeucr5ecV6vabztNjf/+vMnPy9PC0K/X3l+fK4TBUWmLOwDJ3IXzbXkKo8OafhWNUB1iLf9ylW648RVff+rwkc8fDSmvHvpjoKGtXRLuulaHSyjAd0ydZT913uT5fvEHPvvY/padnyuUyA67as5q849CcSZEdYCUlpehGK8BaqWsvHiO3EaHocEP/fOtrbdi4Td26ddA3799n7f4389m5iokO1y2/m6DHXvhY2dl5crvNWU3N+bBnnFlBn+L09wfO1vrteerbo7W1nLVlUpj+b8ZsTb3xLE0YN0RhDpfue+wdLf1xt8aP7mHtrPnVsh0Kc7j11H2Xacotz2nzzozA1RNrzq5zLgQQQAABBEJGgAArZIaajiKAAAIIIOC/gKHoKKcuOmeMxg7rqazsIs393/f6atkGKzyomlVjLbfzhhRuux6T3Jp6k1kDa6WW/WDWwGrGYMWT1Vg1sOSpgZW6X9tS8/ThJ0vlcFfIZYZQhhlyVMhtLgm0Ao9Kud3mx576SYZD1195pipLMtXKnIFlBVhl9vPdzRy4yaGbrp6opIQIrd6QoX89do227EjXmnWb9emidVq5epcycwpVVFQsh9Ohtq2SdMnkYTr5hGG6/4l39cW36602WYGhtWbTS2qHOYF52DPwrBpYlx+vN+as0hXnD1Pr1i1UUV6uZ1/7Shs371SXzm113Ki+evfDpSopLVHrlBb64+8m6PEX5ikrKy8gBdHtEl0uud3mDKzz9cFnq5WYEKtLzxml397wooqK8z1Ghtq0StBfbrtQOdk5+mLpZmuW1rGDu2hA386a+cwc/bC21vUZKM7ADBJnRQABBBBA4AgVIMA6QgeWbiGAAAIIIBAIATvAMMKjddk5I5SRXaL5n660ZldZRa/qmvRjhkZuw5rZdO9tF2r2h1/rp/V7m3cGljezMYMcq4j7Jdq4dY/atW6prTv2yG0uqfNpm+EJfMw5YuanrcPdhszPDx/cS0uWr1XPnt014wkzwCqXW81cEN0TmY0b3V+/OWOkVTNq2cqNWvD5Kg0a0E3HDuulNikJSsvI1M7UTMVERapP7w7alZqtV9/5QvuzzOWCLmu5ZtVMNisw9BQfC2iAVaHE5BTd5KmBFe6UunZurby8Iq3e8LMKC4s9oZp3UFxqndJSf7r6FD32wnxl5uTa4gEIhQwzwFKUnp3xG32wcI3+t2iNwsMMlZdXeK7P6heNjYnWyME9dFS/rjqmX3sZhlO3zXhd+7MLSUt7SAAAIABJREFU7N0sa13LgYwFA/EvlXMigAACCCBw5AkcNgGW+Y6podf+876m/vUjpWUWNn9xzyNv9OgRAggggAACh1bAsxOdQy6NHt5P550+wloOWFRS7tMOb4hifsr+2JwZ1b5Nsnp1baEH/zbHqpdkp0ZVyZN/s4Y8p7EDjEjdfdMkxScmq6xCCnNWzwSzWmTWkjJzrqoWV0VYVZ/Jys5RbEyk/vL4LKsovfUIQOBihnrhYU7LoqLCpcpK+0UcDrdapSSrQ9sWigg3Z3+5lZ1XqO27MlRu1mUKTHMOfi1V7UJYqdiEJE27fqKKyhxK25/jmW1XvXi0+kRmf9yKj49Tl3aJuuuRt62dKwPSAW8NrP+/nPGRqecouWUrbdiy11PO3tsic0fH6plq5nVpFujv1z1JG7dm6PHnP7Rn6dW4Pg7tPzFeDQEEEEAAAQTqEPDuEOSW2raK1V+nnqfLfntmnVQ7d+5Uu3btFBFhlmU48MNwuw++pcz+/fuVl5en7t271zpLrQBrf+GvcWvGdYIAAggggAAC9QlYAYBDzjCHWiZGKdxZZs9YqXGcPTOoaj6QuYueI1z5pU7l5RdLLns5XnNmQt4qSGb60CIhXpNO6K2kBLsuV90P76t79+yrflZ+YYkWLNqkfZm5npCtPpRm/vrBpvtY6YqZ1nimCDX3bn513TP6Zo1mJGkY6tguST07J9rP9s5W8hnU6nzSIZfbpR27C7Rzd6aPp2dJZnNMbapxDkPx8ZFKiguT23OdVQep9t6MdqRqNtv8m9PqT3Z+RXW41szDyekQQAABBBBAwA8B6z7DvP+xZ5u3axWnR6ae+ysFWJ67W/OPqhlYBFh+jC6HIoAAAgggECgB33V43lTDrCHlqcNk3lgYnuWE3viqKicyZ7aY9afMKUaGDJdnmVazpVhVhbBkWLWhIs0X+iWE9x08b9hSR/hi1lKS23dWmc9SvQDQ2mGPd1mdOUvI5+bI9/Ws0MqeHlQV2DVrDHiAzvkaWW6eWWvW7oy1jqlKrsyAyqc+lyqqZ9fX1b9aS/Yay1xzGM2/ecfee114Z9J5p+v5pHLWU8zrtplT1cZ2gucjgAACCCCAQB0C5v2EeW/mtN58Mmdg/XoBlqd5VoD1+nua+shclhBy0SKAAAIIIHBYCtg1sKrClqoswA6jqmqJ++YWVsJhFnG3C45bs19qFB1vpo76BiDmTY75SlYO5LJqcNXIWaysyJ6HY83IqbErnp0Oub0BiGeZY3NMFKrR01pZoJ0L2fXCrLZ6X7B2eFQVsnjxzcY2WwpY52BUZVLer3pqipkz73wq99dKf7yO3s7Y41G1qNSbeXpGwp4b5c+jxgXgmWNlXwfW9eo5u+nrta7xaj6bDvjTCo5FAAEEEEAAgeYW8AZY9ptT7VrF6JHDYgmhGWD9da7S9hU1b3HX5vbjfAgggAACCISYgJkBjB97jI7q01rzvlyvTVvMndq8wYDLqtlk7uqXsT+/KvxxqEJdOrVRQUGh9meXeIIrM8gwQzBHs68hNCOpyy4Yp5gI6ePPflTqnkwlJ0bpjAnH6t+zv/SEWpWe0ltODR3YRQ6jUst/+tkTZjkUHSkNHtRbi5dvqi6UXlWrq7kH3Q4EnREROmVsf/Xs1k4lZdJXi5bKERGvDZtTPW2usNrcs2s7q08lpZ6i5Gb4Y+28V8dMs2ZsqjnK7dq11IVnHKtX3/1GOTlZSoiLVnx8lLp0bKXv1+xUUUmF+vRor8z9+1VQ5tRxQ7to1ertyswttmZsde7QUp3bt9B3P+6oquNlt90MN61IqVa9qsZ2oCoRsw40La+8aJw2bdmt12Z/IcPabdKnOLsla4aq9nV4KBwb2yOejwACCCCAAAJW7QJPPmT/zG7bOkaP3nm+Lv3tGXXyHLIaWP+dM0//N2OOdu41C4L69z4cA40AAggggAACzSeQmBCtay4ep3fmrVdSdInu/NMUfbXoO514/EiVlZUpNydLP6cVqLKyUgN6tdX8L7/XkGMGqE2LWBUXFyltX4FiY6MV6axQQVGpHv3HXOUXeAp6+91MO0hr3yZet994nqY9Mke9u7XUdVMm6j/vLNAfrztfBfnFWvDZEp1x6skqLyvS+i2pOn7U0Xr1rfnq36+HKsuKFREZZe1EmJzcUukZ+xQXE6WZz8xWTq75xloAHoYZ5lWqRYsUXf3b0Xpt9lL96dqztGTJIl143lkqLy3SS69/pNv/71pt27Zd7du01LzPV2ncsQO0YdM2JcTHaPOuPL30xicBaJzPKQ23Thx9tH5z2gDN+vgHDRnYS0MG9ZThMJSbl6cfVm9Ty5Yt1b93e7357gJdc9XF2rFtmzZu2aNxY47SUy++r2n/N0UrV/6g9u07KNJZosJS6f15K/TV4tWqqPQGoU2796trdlxYeJim33K+Xnv3a11xwVhrJ8KoiAiVVbrVs0trbdu5R6UlxVYh+s4dW2ndhm16479LVVJSGlhLzo4AAggggAACjRTwzJq3yi241bVDkh6bfp7Omzzp1wuwzPfBPv3iG937+BwtXmW+q8sWMI0cVZ6OAAIIIIBAwAQiIsN105UTtHrDbiXEuDVy6DHauWuHunXvqcXfrdHQQZ20Oy3Xmr3UOiVZCz/7RnszS9W+baKKC/OVktJKURFObd6WoQknHqM7H/yP9qbnetrbtOCiqrOeNW5xMeF64r4r9Oo7X2jwgM4649Tj9PzLs/T7K85VUUml3v/ocw0aOEA//rRWo4b1UlGpobTUHRp73HFK3Z2qPXsz9fGnK3XDVacrdc9+RUWE6e+vfaKMzMI6CtU3B7V5Q1apuIQk/e7CY7V+8x6NHnW0ln23RDdde7H27ivWm7Pe0/jxE/TjD6s05tih+vyr7/S7yybr40+XqbS0WH17ddH/3ftKczSm+hxVyxbNDyoVFhalS84eoeNGH63c/CJFhDm0eMVatWyRqE5tk/XOB9/q5t+dqZwCl1YuX6RBQ8Yoe/8etWndUv379dW/33hHAwceo8z9ezV29Eht2LTLCj03bN6ptz5cocpyM8g0Z2I1dRmhua22vWmA92G2/JZrTtd3q9br1uvP087d+7Rn734tXb5e02+9TNt2ZijMKFd5ZaW+XbldvTon68l/LVBeXoDCyuYdIc6GAAIIIIBASAnYZR/MWqtujRnSWff++VydcuKYQx9geXcoMm9a0jOyNOOx1/Ta+6usd2drPKx6C2bhrsBOkw+pq4DOIoAAAggg0AiBVimJGtS3vdZtTlfXTi2UujdT8XGxys4pVHJijCLCnUpMSlJeXrb2ZxapfVv7OT27tFH6vlw5w5wKC3coLjpKS1dttmZr/fJRV9Gnehrpc3/QpWOKenRprfT9eUpMjNP27bvVunUrxcWEaU9GlqKjopWTW6DkpFglxsdoT1q2undpq73pmaqocCl9X441I6e8okJhTqc2btmrCpdZgLwJ7aqv2Z7AxmEYateuhbp0aKWCwjKlZaSrfbu2SoiL1PqNO9W6TWvl5uTK9M/PL1SLFkmqrKiwds/LLyzVxi27GzGK9T3VEwP57HLoDAtXp7YJ2pdVqH69Oiljf5ZlZG7yV1xcqm0709S2dZLkcCojfZ/69++p/Lx8RUZEyukwtHl7qhW0mcaJCXFqkRSr4pIy7dq9T6l7syxb+8bUfDSfc8+ubZWRmaOhR/fQ3vRsVVRWamdqloYc1VVhYU6VlpSorEKKjHCouLhcazenyu3yM0ytj5evI4AAAggggEAjBbwVNF2KjYvWFecO1vQ/T7HeKKvrcQiWENovW1FRoS8XLddfn/tQny/docrKCusdNfum0QyuPFsuN+PNTSPleDoCCCCAAAIhK2DfPti/4NtF2+2/ecpiW++KWcXRzc9bFbvtYKK6VpaH7qAV0RsfYNjFz6vbVFUt3Nsyq61V2yHWqIVUvSGe2e5fPsfui/f4xrft4BdLrZpMPhvleevc+1pX13DyBfQUq2+mq7KqwL7vUFnj6C0y73Wu/rPqCjDHwS6LX3Wn5rMJZfV1Y3XK93jTwduP5ja2O+J7PdqvVX1dVr929dXcTJycBgEEEEAAAQT8FjCLVTrkdIbppGM767brz9a4sSOsN6PqehyyAMt88cLCIn256Du9Pvtrvfe/9Sq3drE21zp6C3f53XtOgAACCCCAAAJNEbBm5ZhvKJm/6HvfWKpjuzzP7n/Wc3yCAvslvQFFXbOvmtIo8xjfN7nMjz1/981CvIXYa3/Om2BVLUCzt2m2K3v7JC3W15trdo55Yl83e7c8u0ipz8N3a0cr8TGnztdqhpXced/ga6pf7eNqja3VLu9uh97x97S1emvBWhsSer9uttdj6d1escq1rvY2p7PPtVr1mvZNcPXDE1pZbTMdm2uMm2ssOA8CCCCAAAKhLGBv0hIZ7ta5EwbokvPGatxxx1p1VQ/0OKQBlnX7UOnW6jXrtPKn9Vqzca8yMgvkclXvThOY9+ZC+aKg7wgggAACCDRUwPwl3zfE8J214jOrxZqF452NU/s55ms1709z37lTtZIUn455X7N2taTq2kueuUY1jql57oY6Ne55vrPb6j6yOrmq3hSxeqZT417twM+uPV/ul/Fk9UK/asW6p9RVf9b3LN6jvNdG814HNXtWx+y/OvY6DKRnc40L50EAAQQQQCAUBRwOh9q0jNOAPu01+Og+GnhUPzkdBy8rtWPHDrVv314REREHJTPc7oNvHZiXl6c9e/aob9++dZyo+tbNe8Nr1sZI25uu0tIyn7KeB113EIpjSp8RQAABBBA4hAIHCiu8iwu9TTl0M1nsFh38/qDu5xzsmNrBSqD7U1e4Vtew+j4v0PdEjWlTU33M1/CGomZ/m3qeg/0T8HWqa5lgoB0P4T9PXgoBBBBAAIEjSMCcBB4VEam27VrL4QzzefvzwMv+N23apM6dOysqKsq/AKukpERbtmyxAqywsLAaJ6tZMcH35rf2jdoRNBp0BQEEEEAAAQQQQAABBBBAAAEEEECgEQJ1B1hmXfWNGzeqR48e/gdY5oyq7du3Kz4+Xm3atGlE43gqAggggAACCCCAAAIIIIAAAggggAACdQukp6crPz9f3bp1k9NZd5F375H1LiE0n5ibm6uff/7ZmtJlBlnmFtA8EEAAAQQQQAABBBBAAAEEEEAAAQQQaKyAWc3KDK527dqlTp06KTExsd5TNCjAMs+yf/9+mclYXFycFWJFRkbKLM7FAwEEEEAAAQQQQAABBBBAAAEEEEAAgfoEXC6XSktLZdZbLywstFb6paSk1HeY9fUGB1jmk4uLi5WTk2P9WV5ernrqvzeoATwJAQQQQAABBBBAAAEEEEAAAQQQQODIFzBX9IWHhys6OlpJSUnWnw19NCrA8p7UTMzM/3gggAACCCCAAAIIIIAAAggggAACCCDQUAFzNV9TVvQ1KcBqaKN4HgIIIIAAAggggAACCCCAAAIIIIAAAv4KEGD5K8jxCCCAAAIIIIAAAggggAACCCCAAAIBFSDACigvJ0cAAQQQQAABBBBAAAEEEEAAAQQQ8FeAAMtfQY5HAAEEEEAAAQQQQAABBBBAAAEEEAioAAFWQHk5OQIIIIAAAggggAACCCCAAAIIIICAvwIEWP4KcjwCCCCAAAIIIIAAAggggAACCCCAQEAFCLACysvJEUAAAQQQQAABBBBAAAEEEEAAAQT8FSDA8leQ4xFAAAEEEEAAAQQQQAABBBBAAAEEAipAgBVQXk6OAAIIIIAAAggggAACCCCAAAIIIOCvAAGWv4IcjwACCCCAAAIIIIAAAggggAACCCAQUAECrIDycnIEEEAAAQQQQAABBBBAAAEEEEAAAX8FCLD8FeR4BBBAAAEEEEAAAQQQQAABBBBAAIGAChBgBZSXkyOAAAIIIIAAAggggAACCCCAAAII+CtAgOWvIMcjgAACCCCAAAIIIIAAAggggAACCARUgAAroLycHAEEEEAAAQQQQAABBBBAAAEEEEDAXwECLH8FOR4BBBBAAAEEEEAAAQQQQAABBBBAIKACBFgB5eXkCCCAAAIIIIAAAggggAACCCCAAAL+ChBg+SvI8QgggAACCCCAAAIIIIAAAggggAACARUgwAooLydHAAEEEEAAAQQQQAABBBBAAAEEEPBXgADLX0GORwABBBBAAAEEEEAAAQQQQAABBBAIqAABVkB5OTkCCCCAAAIIIIAAAggggAACCCCAgL8CBFj+CnI8AggggAACCCCAAAIIIIAAAggggEBABQiwAsrLyRFAAAEEEEAAAQQQQAABBBBAAAEE/BUgwPJXkOMRQAABBBBAAAEEEEAAAQQQQAABBAIqQIAVUF5OjgACCCCAAAIIIIAAAggggAACCCDgrwABlr+CHI8AAggggAACCCCAAAIIIIAAAgggEFABAqyA8nJyBBBAAAEEEEAAAQQQQAABBBBAAAF/BQiw/BXkeAQQQAABBBBAAAEEEEAAAQQQQACBgAoQYAWUl5MjgAACCCCAAAIIIIAAAggggAACCPgrQIDlryDHI4AAAggggAACCCCAAAIIIIAAAggEVIAAK6C8nBwBBBBAAAEEEEAAAQQQQAABBBBAwF8BAix/BTkeAQQQQAABBBBAAAEEEEAAAQQQQCCgAgRYAeXl5AgggAACCCCAAAIIIIAAAggggAAC/goQYPkryPEIIIAAAggggAACCCCAAAIIIIAAAgEVIMAKKC8nRwABBBBAAAEEEEAAAQQQQAABBBDwV4AAy19BjkcAAQQQQAABBBBAAAEEEEAAAQQQCKgAAVZAeTk5AggggAACCCCAAAIIIIAAAggggIC/AgRY/gpyPAIIIIAAAggggAACCCCAAAIIIIBAQAUIsALKy8kRQAABBBBAAAEEEEAAAQQQQAABBPwVIMDyV5DjEUAAAQQQQAABBBBAAAEEEEAAAQQCKkCAFVBeTo4AAggggAACCCCAAAIIIIAAAggg4K8AAZa/ghyPAAIIIIAAAggggAACCCCAAAIIIBBQAQKsgPJycgQQQAABBBBAAAEEEEAAAQQQQAABfwUIsPwV5HgEEEAAAQQQQAABBBBAAAEEEEAAgYAKEGAFlJeTI4AAAggggAACCCCAAAIIIIAAAgj4K0CA5a8gxyOAAAIIIIAAAggggAACCCCAAAIIBFSAACugvJwcAQQQQAABBBBAAAEEEEAAAQQQQMBfAQIsfwU5HgEEEEAAAQQQQAABBBBAAAEEEEAgoAIEWAHl5eQIIIAAAggggAACCCCAAAIIIIAAAv4KEGD5K8jxCCCAAAIIIIAAAggggAACCCCAAAIBFSDACigvJ0cAAQQQQAABBBBAAAEEEEAAAQQQ8FeAAMtfQY5HAAEEEEAAAQQQQAABBBBAAAEEEAioAAFWQHk5OQIIIIAAAggggAACCCCAAAIIIICAvwIEWP4KcjwCCCCAAAIIIIAAAggggAACCCCAQEAFCLACysvJEUAAAQQQQAABBBBAAAEEEEAAAQT8FSDA8leQ4xFAAAEEEEAAAQQQQAABBBBAAAEEAipAgBVQXk6OAAIIIIAAAggggAACCCCAAAIIIOCvAAGWv4IcjwACCCCAAAIIIIAAAggggAACCCAQUAECrIDycnIEEEAAAQQQQAABBBBAAAEEEEAAAX8FCLD8FeR4BBBAAAEEEEAAAQQQQAABBBBAAIGACjQpwHJ7mmQEtGmcHAEEEEAAAQQQQAABBBBAAAEEEEAAAalJARZwR55AdShpfkQ0eeSNMD1CAAEEEEAAAQQQQAABBBBAIHgFmhhgeeMO346boUddnw9enNBsOeFVaI47vUYAAQQQQAABBBBAAAEEEEDg8BVoQoDllpsZOofviDayZbVjR8MKIQmxGsnI0xFAAAEEEEAAAQQQQAABBBBAIIACjQqwSspKlZdXqC1btmrfviy53YbchluG2w48zI95BJmA25AZWjkMQ+07tFWPbl0VFxet8PAwgqwgG0qaiwACCCCAAAIIIIAAAggggMCRKtDgAGt/Zpa+W/6jZn+8VBu3ZSozp0SVFZUsGjwsrwzvDKqagaKZM9aZMRpSRHiY2rSI0cC+bXXuaaM1bOhRio+LPSx7R6MQQAABBBBAAAEEEEAAAQQQQCC0BA4aYHkXk2Vl52jO3C/07Gtfac3mdJWXVYSWUtD11rMw0DD/9HzsdlevDLRyrTpqlhmGoqMjNHZIZ90w5SSdOuEERUQwEyvohp8GI4AAAggggAACCCCAAAIIIHCECdQ7A6uiolxff7NCU2e+qxWrU+V2u6iBdThfBOYUK7fTKqhvyCWnyq3/d5v/GQ7J7aqj9dUztgxVyuEM1+TxfXXfbRfpqAH9PMX5qYt1OA87bUMAAQQQQAABBBBAAAEEEEDgSBaoJ8Byq6CwVA88+rKee32JCgpLJMMpt7vySDY5Avpmh02RUVFKSkpSQX6eCguLrEDLLUcdu0V6Z2OZawzNL7vVIilWD/55gq69+mI5rHWHBFhHwIVBFxBAAAEEEEAAAQQQQAABBBAISoGDBFh2aLFz127dPO15ffjpRslwWTWU2IXwcB3r6mWBUVGRuvHKiUpJjtSe9Hy9/v63ysrJk+E2Z2J5ZmF5S2R5simzGL/9NcMcZF1/6Sg9cNdVSk5Otjps7z9JkHW4jj7tQgABBBBAAAEEEEAAAQQQQOBIFah3CeHS5d/rzgff0VfLtlqhBo/DWcAbYDk0/Jiu+ucjV+jTxdvUr3uyHvvnQn25eJ25VaQ9E8u3BJa3ZFaNuVkOnX/aUXrgtgvVu29vq9NEV4fz2NM2BBBAAAEEEEAAAQQQQAABBI5cgXqLuC9ZskJ3zpylRcu3S4Yhw23Ow+FxWAoYbkWEhevic47Vzb87XWs2pmnztt3q1qWNhg3qolfe+UxPvbCgYeNnGJo8ob8evP0i9e/f97DsLo1CAAEEEEAAAQQQQAABBBBAAIHQEKh3Bta3S8wC7rO0aMX2hs3AqjGzx1yK5om7amx6V8cOeHV4G4Yht/f4Wl8/8Bl8vlLXk6x6TubDuzufd/2cOf3IrAFlrZGsflh/r2PuUZ0NqC6GXnWChnW1Ga42w9ox8MYrJ2lA73aa8dQc7UjdV+XftnWy/vLnc1Thcmjaw28rJ6/A068DxZGGJk8coAduv9AKsJh91QxDxCkQQAABBBBAAAEEEEAAAQQQQKBJAn4EWLXXndWxDs2waynZeVF1MHSgLMtc3GY4JVelfZAdmrhlmLvnSXLJU5/J/JwnVPKWF6/+s2aAVf2y9ucdTodcruoaUFXPtl7sl4Gb/fWqIlHV3bBOXLsguo+B3XS7356aUk0aoUYcdN7po/Sb04boxnve1P6s3Orw0HOO8PAI3fens7Q/p0TPvDxfFRWmAwFWI4h5KgIIIIAAAggggAACCCCAAAII/AoCTQ+wvMmP4VbL5CQNHdRN3y7fqMLCYk/yZOiYAV1UVFKuTVv3esIU8yAzNHF4dsSzAx6reLgM9e/dXtddMVE3T3tFLZLjdfPVE9W3d1eVFJfolbc/05dL1vqERp4d88zzmUGS1R63tcyxetaXT4AmQwN6t9V1Uybpxukve1M1z3M9QVRV2lW9G1/N83lDruoJXGZhe7M/dtZmhkG+oZYnvKo9q6u5B9owFB0ZpgVv3a0/3Pac1m9Nrw6mqmaV2bWvOnVqpzv+MEmPvbBA239OO8isOmZgNfcwcT4EEEAAAQQQQAABBBBAAAEEEGiaQBMDLDMMcctt1cSq1LDB/fTqo5fpjQ++00PPzPOEU049MvVMpWUU6smXPpOhCiu8chtO6xi3NavK0DmnjlB5RaXmLvxBKS3jdMb4o/XqO1/rj9ecrkF9Wum2mR9q+MB22rU7V+s275ahSjsrMoMiz/I+wzA/Zy43NIOxSrnltJ5jGBXVH7ulVi3jdNr4Ydb57SjK/nrV8d4gyprhZdb6Ms9n9tN8ttlecxdG8/P2MW63+Tpm9GaGWPbuflb73GENqzPVtDHzhHVmyOYJz9xuHd2/s+679Xyd87unzSlsNc/smS1m9jcqroVuvfoEfbVsm75eurru5ZEeHZYQNnWAOA4BBBBAAAEEEEAAAQQQQAABBJpToGkBlreYu+GQw12hYUMH6M/XTNKIwd114bVPatlP263A59Fp52tvRoGe+Od8JSbGqmPbZEVEOJSVW6q9aZlqnRKnZx+8Sl8vWav5n/+g3fsK1KlNktIzc/X4vZdp09ZUzVnwk4qKC5WTV6zs3HzFx8WpU7sW1nly80u14+c0JSclql3rBEWEO5SXX6ZduzNUXlGhVikpatsqVk7D0N59uSouLFH7DinasPlnRYSHq2O7VkpMiFBJaaVS07KUn1+s5IQoJSTEyeFwKjkhQoXFbu3avU/FJcWKioxUl05tFG31oUSpezOsGKx925ZKSY62QqvMnBKl7jZnQPksIayrhpY/o2jNNvPsJqgwyajUuNEDdNEZw/WHu96UoRIrzLNXPnpreJl/r1RUZIxunHKiVm/aq0+++P4grWAGlj9DxLEIIIAAAggggAACCCCAAAIIINB8Av4FWHLKoVINH3KUzj11sFLT8nX2KUfpslte1N6MHD06/TylpRfo9Tnf6bpLx6lFi0RVVFQqNjpMH3/2k1Xv6oHbL9K6Tbu1aNkmbdy8U4/ee4X+cPvzemT6ZcrMzNbyNWnq0CpK3yzfpA8XrtL9t56rxIQ4FZWUKXX3Pj35r4U6dVx/jR01QE5nmHp3TdGTLy6wXv/WP5ym4tJKuV3SZ4tWKyunQE/PuEojTrtTvzljpE4c3U/5RRWKiYrQ7r0ZevKlL3TaCX30u8sm6rtVmxQTE6tuHRKstr45Z7FuuXqCenVrr7yCUiUnRukf//5UmdmFmnbL2crOLZbhMLQrNV1Pv2ju9FerGHzzjVnVDCxz5pfbE2CdOHqAfnO7NTXHAAAgAElEQVT6UF1/19syjFK7bpcVYnnrfZmBV6UiouJ10xUnaPVGAqzmHBLOhQACCCCAAAIIIIAAAggggAACgRNoWoBlhiNmMOIOl2GUaMTggbrgjKH66/PzrCLhezLyNfPZuZp5xzlK25evbanZGn9sL/3lmXnKycrQ+BNG6LxTB+v2B97SMw9dqdkfLtb781dq1NBeeu7hqzTklDv19ANXatnKtXp3/lpNv/FUrduSofLyIl0/5VRddvOzys4pUEREuPIKipUQF62KCreKyyp123WnKTEu2qqFVVxcoqde+kSu8gprkd8x/bvquZlX6rxr/6YZt56jv728UCt/2qo2rZL02D2X6oX/fKE2rRN11QXH6drbX9TutCwdP6q/rrt8gv711he6+49n67fXP6+0fTm65uJxGjqws97871L94fKTdO3t/1JxSZliYyKVmZUfuBGrOrN3DJzWWPwiwPLM+qouaW/IMFyKiIz1BFhpzMA6BKPESyCAAAIIIIAAAggggAACCCCAgP8CTQywvLsKhskwyjRiSH9deMZwzXh6juJio/X8zCl64JmF+s2k3tqbVSmnIRUUFOnv//5ccpWpY6d2+ttfLtHNd7+iR6ZfqtkfLvEEWD31j5lXa/CEO/T0jCu1bNU6zZq/RtNvnKR1W/Zr7JD22pcn3f/4256C7Q6Z06uSk+I0ZlhPdevS3lrGWFpaoeSkGM148n39sGaXvYzOMDRqSC/9Y+YVuuWe13XpuaN0x8zZys7OlSGH7r/9AuUUFOrn1GydOKavrr/zX9Ysqs4d2uipv0zR96u36/STB2nOpz/K4Xare+fWGj28u8ZMflDPPTRFbVKS9LeX5mnOAnNZXq0aVP6PU60z+BawN5cQujRu9FG68PQhum7aWzLcZZ6dE30KyltJlkuRUd4AK0MLv1hpzxSr88ESwmYfNk6IAAIIIIAAAggggAACCCCAAAJNEmhigOUp4m4tISzT8CEDdOGZZoD1X+UXFOmqi07WwH5drK/t2J2jcjPPqSzTM698pkpXibp1bq/H7r5Ut9zzqv569yWa/ZFnBpYVMJkB1p16esYVWrZyg2bPX61pN03S2i0ZGnl0OxWXhWn6zDes2MUssN6nV0c9df8Uffvdeq3b9LOOG9FbsfEJSk6I0aPPfaDvfthqF1p3Gxo5tLf+MfNKXT/tNV114VhNffBd7TcDLEN66K6LtCc9V2npuTphVB/dNO0VC7RTxxQrwFr+43aNH9tXr836sqrUe36xW+/NW6Lw8HCNHdpdt1xzukpKK3TFH/+hkrJye0AOlA81abg8B9WogWXPwDppTH+df+pQXW8GWCrzbJNoPr9qu0irCH1EVKxuvGKc1m7cqwVffm/XwbeLZdV6EGD5M0QciwACCCCAAAIIIIAAAggggAACzSfQtADLnABkBR/eGlgDdeGZQzXj6Q+Uk5urtm1S9PBdl6hPt2TNmrtK6zbv1bmTjtGDz8xXWlqqzj7teI0f3Ud3zJylx+69TCtWbdSLb32l4Ud313NmgDXRMwNr5TrPEkJzBla68vNzNfWW8zXl5ueUlp6pxKRknTCyu844Zbiuue1FRUZG6/F7LlFeQb5ycgsVHxOth575QGVlpXKGR6h/r3b6+4NX6Ywpj+qhOy/Qm3OW6LNFP6lrp9Z6+K6L9NgLC9WlXYKOGzVAN017SW7DnIHVSk/dN0UvvPGZ7rr5bN1yz9tav3mXYqLCFRMdqfyCYkVESFnZRerWuZUWvjVdYyffrb3puV6k5hst75k8uy96/xoTE6XfX3aSEqKc+svfFshQqVX/yg75PBmaNWnLpbCwKF1zyfGKjIrSP175RCWlnqDN97nWiQmwmn/gOCMCCCCAAAIIIIAAAggggAACCDRFwI8Ay1x8FiaHSjRs6CBdeMYwPfD0+8rOKbJmNI0dOUCzX7hOM59bqFfe+kyXnjtaY0b0U2RklLKzs/Wf97/Vou826IzxQ/THa0/V+k0ZmrtwqR6ceomGTLxVT9//Oy1btUbvzlunaTdN1PotezVnwUr93zUTNHxwbxkOp9au36FXZ32tR+++WG4jTPv352pveoZi45P09Isf6vY/nKGO7Vtby+Tem7tUO/dk6en7p2jYpDt1wrF9dck5Y5SUlKxKV7m+WbpW/3xrsSaPH6CxowbqpukvWjv9demQoifvv1I3Tn9F447tozPHD1N0TKzKykr0/ryl2rAlTXfccKbCI6NUWV6iVau364kX5qm8wpx2FqBC7p4ZWOaAR0VF6veXjbdCOLOm1/Yd5s6I3mlf9tLJqiTLc4V069JWN191ijVWDz/7nsrKK2S4ay8mJMBqyj8ojkEAAQQQQAABBBBAAAEEEEAAgeYXaFqA5W2HZ3qP0+lQeJhDpWWVcrvN0MTMTQzFRYertLxSZWWVcoZFKCrCIafDpbIK87llcrtccjgdio4Kt+ozlZa5FBnhVGFRmaIiw1TpqlR5hRQZ7pTL5bZCIWdYuKIjnDKs8xgqK61QZFS4IhwuVbrdKitzy+l0q6SsUuHhkYoMt5c7lpS75HJVKMo6f4UMh0OREZEKD6uQy+Wwnl9ZWakIp0MOp1RSatexcjgM6xhzN0M5HNZrhztdcrnNY9xWu6KiwhVmVKjCOo9LlZXl9g6AVun4AD2s3QXD9ftLj9cNlx6vl9/5Vvsyc6zwyvyK2Wuz3+byQGuBoNuQ2zrG/ntMbIxuvXaiPvl6nW6+521rGaLhNnc1tJckmu2fPLG/Hrj9QvXv37fORYYB6hmnRQABBBBAAAEEEEAAAQQQQAABBGoI+BdgHQDTDE7sR/VH1ppDT5Bif+ypu9SQGlG+JZrsfMxTt8lzcK0ldVXNqvPz1fvyVT/P89GB65l72u4tXu8pju49v0/77JlMddWUas4rr7oG2ejhvXX6yUN8Zl3Zrx0bG6WSkjKVu1yKDAtTWJhDxSVmsGaGVHaIZf654sfNmjN/WR3LHQ1NnjBAD9xBgNWcI8e5EEAAAQQQQAABBBBAAAEEEECg8QINDrC+Wb5Nbjk8s3oa/0IccQgEPNmcOfvt3NNGKDoqTN+vSdXQQV2UlZ2nBV+uU2VFqdzeZYUHbZKhcyYM0IwaAZZP8HgIusNLIIAAAggggAACCCCAAAIIIIAAAqZAvQHW4iUrdOfMWfpm+Q57ZpG1vAy8w1KgasNBQz26ttPFZw9X65QEpWfkaPb877Vpy26ZKzzN4vT1j6FDkyf01wN3XKD+/ftZ3Q30vLLD0pRGIYAAAggggAACCCCAAAIIIIDAry5wkADLnm2zeOlKTZ05S4uWbfcsjQtgXadfnSPIG+CzZNIwXHKExSrM4VSFq1yuihK5zbpcnjpYVk8PFkQa0nkTB2nG7ReoX78+noL01laGPBBAAAEEEEAAAQQQQAABBBBAAIFDKlDvDKzNm7fpj/e8rPlfbmrgzJ1D2n5e7IACZp0ruxC9XYusscs/DV19wVDNuPNytWvXznMelhBywSGAAAIIIIAAAggggAACCCCAwKEXqDfAyi8o0rQHXtCL7yxXSalZBPzQN5JXbIqAp9B71bLCemZc1XqJ+NhI3XvzyfrTTVfKwayrpgwAxyCAAAIIIIAAAggggAACCCCAQDMJ1BtglZdXaN4nX2n6o+9p7eZ9VoBFhtVM+gE6TY19Fg+w6aJdB8uzm2KtdhgOh04a1U0P3nGBRo4wdzjkgQACCCCAAAIIIIAAAggggAACCPx6AgcNsKwFY24pI2O/3pz9iWY8+6mycoskt8v+gtuQHYG4zQ+tv/MILoHqCMscQ6fV+P49W+vO35+i88+dpOjocMq3B9eQ0loEEEAAAQQQQAABBBBAAAEEjjiBemdgeXucmrpbCz9fqtfeX6ZN2/artNwtl9stw23YtbFkL1njEVwCdg5pWMsEoyINDR3QXpefN1onjRutFi0Sg6sztBYBBBBAAAEEEEAAAQQQQAABBI5IgQYHWGbv8/LytX3HLm3Ztls7d+9TWXmFJ8Cybawci0dwCXjCx6jICPXo1kY9unVUl04dFBMTzcyr4BpJWosAAggggAACCCCAAAIIIIDAESvQgACr9s5zbpWWVqikpNiagWUFV42rD37EYgZnx+yZc2bdq9iYaIWFhQVnN2g1AggggAACCCCAAAIIIIAAAggcsQL1BFh2eGXHVG5rkaD9MD/DdKsj56rwjqs91tVLQalpduSMMT1BAAEEEEAAAQQQQAABBBBAIHgFmjADK3g7S8sPLFB7nh1WCCCAAAIIIIAAAggggAACCCCAwOEi0IAA63BpKu1AAAEEEEAAAQQQQAABBBBAAAEEEAhFAQKsUBx1+owAAggggAACCCCAAAIIIIAAAggEkQABVhANFk1FAAEEEEAAAQQQQAABBBBAAAEEQlGgSQFWZWWlzP/cnl0IQxGOPiOAAAIIIIAAAggggAACCCCAAAIINFzAMAw5nU7rv8Y+DhJg/bKsd2lpqTIyMlRcUqZKV2VjX4vnI4AAAggggAACCCCAAAIIIIAAAgiEoIBh9dmQw2EoOipSbdq0UURERIMlGjwDKzsnR1u2bFVcQqIio2MVFhYmMzmzG8ADAQQQQAABBBBAAAEEEEAAAQQQQACBAwu43G5VVlSopLhQBXm56tWzh5KSkhpE1qAZWPkF+Vq3YZPad+yiqJgYORp0ap6EAAIIIIAAAggggAACCCCAAAIIIIBATQFzzV9xUZHSUneqb5/eio+Pr5eo3hlYZq2rrdu2Sc4ItUxpVe8JeQICCCCAAAIIIIAAAggggAACCCCAAAL1CWTtz5AqKtS9R3c5nQefLlVvgFVSUqq16zeoY5du1rJBHggggAACCCCAAAIIIIAAAggggAACCPgrUFFert27dqh/vz6Kioo66OnqDbBycnK1dcdOde3e0992cTwCCCCAAAIIIIAAAggggAACCCCAAAJVArt2bFPfXj0UHR3tX4CVnp6u9P3Z6tCpM7wIIIAAAggggAACCCCAAAIIIIAAAgg0m0DanlT16NrZ/xlYVoCVma0OHQmwmm10OBECCCCAAAIIIIAAAggggAACCCAQsgJmvSuX1XsCrJC9COg4AggggAACCCCAAAIIIIAAAgggcPgKmLsQGp7m7TVnYHXrrOhIP2tgMQPr8B1wWoYAAggggAACCCCAAAIIIIAAAggEm4BvgMUMrGAbPdqLAAIIIIAAAggggAACCCCAAAIIhJgAAVaIDTjdRQABBBBAAAEEEEAAAQQQQAABBIJNgAAr2EaM9iKAAAIIIIAAAggggAACCCCAAAIhJkCAFWIDTncRQAABBBBAAAEEEEAAAQQQQACBYBMgwAq2EaO9CCCAAAIIIIAAAggggAACCCCAQIgJEGCF2IDTXQQQQAABBBBAAAEEEEAAAQQQQCDYBAiwgm3EaC8CCCCAAAIIIIAAAggggAACCCAQYgIEWCE24HQXAQQQQAABBBBAAAEEEEAAAQQQCDYBAqxgGzHaiwACCCCAAAIIIIAAAggggAACCISYAAFWiA043UUAAQQQQAABBBBAAAEEEEAAAQSCTYAAK9hGjPYigAACCCCAAAIIIIAAAggggAACISZAgBViA053EUAAAQQQQAABBBBAAAEEEEAAgWATIMAKthGjvQgggAACCCCAAAIIIIAAAggggECICRBghdiA010EEEAAAQQQQAABBBBAAAEEEEAg2AQIsIJtxGgvAggggAACCCCAAAIIIIAAAgggEGICBFghNuB0FwEEEEAAAQQQQAABBBBAAAEEEAg2AQKsYBsx2osAAggggAACCCCAAAIIIIAAAgiEmAABVogNON1FAAEEEEAAAQQQQAABBBBAAAEEgk2AACvYRoz2IoAAAggggAACCCCAAAIIIIAAAiEmQIAVYgNOdxFAAAEEEEAAAQQQQAABBBBAAIFgEyDACrYRo70IIIAAAggggAACCCCAAAIIIIBAiAkQYIXYgNNdBBBAAAEEEEAAAQQQQAABBBBAINgECLCCbcRoLwIIIIAAAggggAACCCCAAAIIIBBiAgRYITbgdBcBBBBAAAEEEEAAAQQQQAABBBAINgECrGAbMdqLAAIIIIAAAggggAACCCCAAAIIhJgAAVaIDTjdRQABBBBAAAEEEEAAAQQQQAABBIJNgAAr2EaM9iKAAAIIIIAAAggggAACCCCAAAIhJkCAFWIDTncRQAABBBBAAAEEEEAAAQQQQACBYBMgwAq2EaO9CCCAAAIIIIAAAggggAACCCCAQIgJEGCF2IDTXQQQQAABBBBAAAEEEEAAAQQQQCDYBAiwgm3EaC8CCCCAAAIIIIAAAggggAACCCAQYgIEWCE24HQXAQQQQAABBBBAAAEEEEAAAQQQCDYBAqxgGzHaiwACCCCAAAIIIIAAAggggAACCISYAAFWiA043UUAAQQQQAABBBBAAAEEEEAAAQSCTYAAK9hGjPYigAACCCCAAAIIIIAAAggggAACISZAgBViA053EUAAAQQQQAABBBBAAAEEEEAAgWATIMAKthGjvQgggAACCCCAAAIIIIAAAggggECICRBghdiA010EEEAAAQQQQAABBBBAAAEEEEAg2AQIsIJtxGgvAggggAACCCCAAAIIIIAAAgggEGICBFghNuB0FwEEEEAAAQQQQAABBBBAAAEEEAg2AQKsYBsx2osAAggggAACCCCAAAIIIIAAAgiEmAABVogNON1FAAEEEEAAAQQQQAABBBBAAAEEgk2AACvYRoz2IoAAAggggAACCCCAAAIIIIAAAiEmQIAVYgNOdxFAAAEEEEAAAQQQQAABBBBAAIFgEyDACrYRo70IIIAAAggggAACCCCAAAIIIIBAiAkQYIXYgNNdBBBAAAEEEEAAAQQQQAABBBBAINgECLCCbcRoLwIIIIAAAggggAACCCCAAAIIIBBiAgRYITbgdBcBBBBAAAEEEEAAAQQQQAABBBAINgECrGAbMdqLAAIIIIAAAggggAACCCCAAAIIhJgAAVaIDTjdRQABBBBAAAEEEEAAAQQQQAABBIJNgAAr2EaM9iKAAAIIIIAAAggggAACCCCAAAIhJkCAFWIDTncRQAABBBBAAAEEEEAAAQQQQACBYBMgwAq2EaO9CCCAAAIIIIAAAggggAACCCCAQIgJEGCF2IDTXQQQQAABBBBAAAEEEEAAAQQQQCDYBAiwgm3EaC8CCCCAAAIIIIAAAggggAACCCAQYgIEWCE24HQXAQQQQAABBBBAAAEEEEAAAQQQCDYBAqxgGzHaiwACCCCAAAIIIIAAAggggAACCISYAAFWiA043UUAAQQQQAABBBBAAAEEEEAAAQSCTYAAK9hGjPYigAACCCCAAAIIIIAAAggggAACISZAgBViA053EUAAAQQQQAABBBBAAAEEEEAAgWATIMAKthGjvQgggAACCCCAAAIIIIAAAggggECICRBghdiA010EEEAAAQQQQAABBBBAAAEEEEAg2AQIsIJtxGgvAggggAACCCCAAAIIIIAAAgggEGICBFghNuB0FwEEEEAAAQQQQAABBBBAAAEEEAg2AQKsYBsx2osAAggggAACCCCAAAIIIIAAAgiEmAABVogNON1FAAEEEEAAAQQQQAABBBBAAAEEgk2AACvYRoz2IoAAAggggAACCCCAAAIIIIAAAiEmQIAVYgNOdxFAAAEEEEAAAQQQQAABBBBAAIFgEyDACrYRo70IIIAAAggggAACCCCAAAIIIIBAiAkQYIXYgNNdBBBAAAEEEEAAAQQQQAABBBBAINgECLCCbcRoLwIIIIAAAggggAACCCCAAAIIIBBiAgRYITbgdBcBBBBAAAEEEEAAAQQQQAABBBAINgECrGAbMdqLAAIIIIAAAggggAACCCCAAAIIhJgAAVaIDTjdRQABBBBAAAEEEEAAAQQQQAABBIJNgAAr2EaM9iKAAAIIIIAAAggggAACCCCAAAIhJkCAFWIDTncRQAABBBBAAAEEEEAAAQQQQACBYBMgwAq2EaO9CCCAAAIIIIAAAggggAACCCCAQIgJEGCF2IDTXQQQQAABBBBAAAEEEEAAAQQQQCDYBAiwgm3EaC8CCCCAAAIIIIAAAggggAACCCAQYgIEWCE24HQXAQQQQAABBBBAAAEEEEAAAQQQCDYBAqxgGzHaiwACCCCAAAIIIIAAAggggAACCISYAAFWiA043UUAAQQQQAABBBBAAAEEEEAAAQSCTaAZA6wMpWdmqUPHzsFmQHsRQAABBBBAAAEEEEAAAQQQQAABBA47AUOSW5KhvXtS1aNbJ0VHRh20lYbb7TaPOOAjI2Of9mbsV8fOXQ677tIgBBBAAAEEEEAAAQQQQAABBBBAAIFgEjDDK8ltuGW4pT2pqerRo7Nimh5g2UlYQUGB1m/crO69+gSTBm1FAAEEEEAAAQQQQAABBBBAAAEEEDjMBbZv3az+/XorJir6oC2tdwZWaWmp1m7YqDbtOyoyMkp2TsYDAQQQQAABBBBAAAEEEEAAAQQQQACBpgm4DamspFTpe3arf99eioyM9C/Acrlc+jk1VflFJWrdrr0chlOGtU6RBwIIIIAAAggggAACCCCAAAIIIIAAAo0XMPOm9LQ9io+JUqeOneRwHHzKVL0zsMwmlJWVadPmzap0O9S+U2c5DOZhNX5oOAIBBBBAAAEEEEAAAQQQQAABBBBAwOWWdv+8U07Drd69eioyIqJelAYFWOZZzFrvmzdv1rYdO9S+YxclJibI6Qyr9wV4AgIIIIAAAggggAACCCCAAAIIIIAAApWuSuVmZ2vP7lR179pFvXr1ktHASVINDrC8zKVlZUpLS1N+QYFclZW1FhMyM4vLEQEEEEAAAQQQQAABBBBAAAEEEECgpoBDbjmdTsXFxalt27aKaMCsK98zNDrAYgAQQAABBBBAAAEEEEAAAQQQQAABBBA4lAIEWIdSm9dCAAEEEEAAAQQQQAABBBBAAAEEEGi0AAFWo8k4AAEEEEAAAQQQQAABBBBAAAEEEEDgUAoQYB1KbV4LAQQQQAABBBBAAAEEEEAAAQQQQKDRAgRYjSbjAAQQQAABBBBAAAEEEEAAAQQQQACBQylAgHUotXktBBBAAIHDUsAtqbn30bXPWX3mQLzGYYlJoxBAAAEEEEAAAQQQCIBAgwKs6ptulyRz40PvTbn5EQ8EEEAAAQSCWMBtSIb355lvzOSQZP7ck+R2SIbn4wZ31Ty+5sP7Ks0dljW4STwRAQT8F6g3jTafwD2y/9CcAQEEEEDgyBQw74SbdjfcoADLRKuoqFBmVo6+WbxSP6zZpvT9eap08QP6yLyg6BUCCCAQWgJmfmXmWObDm2VZf/cJt9xyyDADLetzZphlyHAbchtuua2PPQdbB7oUHh6u7p1baczIgRrQr5eSkuKb/MM6tEaD3iIQfAI5uXlas26zFi9bre0701VW7vbcmxNkBd9o0mIEEEAAgYAJuN1yOp1qk5KgwUf10JgxQ9QiOVHhYeENeskGBVjl5WVas3azXn3rE326ZLu27dqnkrIKz424920on7v/Br00T0IAAQQQQOBXFPANqKwfZYbk9pkjZSdSighzyOVyqaLSE1xZv5faoZX9G6rnmKpZXPbnDBlKjI/SUb3a6uLJI3TmacepY/s2hFi/4pDz0gg0v4BbqbvT9NH8r/XGB8u1dlO6cvNLqudfkV81PzlnRAABBBAIcgG3oiLD1KNzK510bDddcfFEDezf23rzt75HvQGW2+3Stu2peuRv7+jteatVUFBkvfvsfafaegGfDKu+F+TrCCCAAAIIHBYC1owrb2gVpratoq2ZxfuyiiVVKiI8UheeNVK/OXO0IiPC9d7HS/XKrC9VXl4uucPUIilCkeFOpWcWy+WqtLtkTeXynNczrctwGOrQJkF333iKzj9nglokJx0W3acRCCDgv0Bmdq7ee3+e7v/759qbliuXN7ryfh9gKaH/yJwBAQQQQODIE/BU8IiPj9GFpw/QHTf/Vt27dbTeAK4OmH7Z7XoCLJdKSiv02hsf6IFn/6fde7PkltNzk24uozjyHOkRAggggEAICRhuxcbF6l8zp+jkE0eqqLBIL721UI/843+aOLaHrrl0vG6++xUVFpbr+Ueu1JdLt+gfry3UQ1Mv0O8umaC8gjJ9vHCpbn9wlgoLC+uAM38Mm7O1HBrQs4VeeOQKjRk98mA/l0MIn64iEGwCvyx+tfjbZbrmjpe1bmuODFVa/9araucFW/doLwIIIIAAAgEWqLkAwimHytS+fYqm3zhBl198pqIjIw/agnpnYGVl5ermu57R23N/UmWlZz1/jTof5vl9llD40+EGncZ3uUatF6svUPOtE1bfc/3pR2OOrd3nBhk05gV4LgIIIIDAgQQcDoem33KOzNnGDz3zgVomx+vhaZfojfe/1tW/PVn//PdCfbl0g7WBSdfOLXX3H8/Txq1p6t4pUX+6f7bCneW699aLtHrtVr367lJJ5T5LBM3ZWGbxd/Mbe6XiYmI148+TdOXFpysxkXpYXJUIBLeAWzm5+Xrlrfm657GPVFhY6vO+rudt5dr3mt679jrfAa7jBtB733q43LMG94DRegQQCFUB3wk9fD/95VVQ2+dXyCOcTod+e8ZAPT3zJqseVvXjl28cHTTAMp++du1G/fm+17Twmy32eczCtTXWD9YysH7Yem7aDzRFy+cHco2fzVVVdGv9xPYg2p+1C+baj1r7OR3wgvStzOuDcDhcwL+4YPysJVbnP9Bf4SoM1W+Q9BsBBIJHwJBio6L07Myrdf8Ts7Rj1z7r58tVF41Xq+RwDRl8jJ5+frYWr9wqGU517thC0286W4mJifrbP9/Tt6tSJZVq4rihOmfi0frD1Desv5thl2+hd6vYuyoVFhGtGy4dqWl/ulgpLVsGjxMtRQCBGntXd+8AACAASURBVAL2naRb+zOz9cCTb+j51xertNSsDVvXww6z7Ftczz1oVc0973vAZs08t9xWHT6fcxBgceUhgAACTRTwDRzq+P3fenPRjBPqfKfB85remqb1Lzzz/W07aH7z/sVKPZ+fUU1U9+ewCcf11pP3Xq5+A/ocdH/CemdgLV66UnfNnKWvlm+rf+SsfMm34w38yWtdQN66IbW6bX3N/IHus3151UyqgxxX5z2E98bgcEiufBtYK3UyzF9+zDY2oZ3WTZINVH100Pwz8uea51gEEECgcQKGZL7j8/C0y7Xyh416+4MVioxy6ME7LtKSFRsUFR2r8aN76d7HZqmkXJp+81nanZ4nhyNMrspiPfL3hXI4Xfrz70+3lgw9+twCGSrz/BJqzrzyLrW3i7+Hh0XqmouG6/47L1PLFgRYjRssno3A4SLg2XXUCrCydM/D/9ZL73ynsnJPHbxfNNP7Jqq9c6lZP8/8PtGyZZwS42JUWFSifZkFqnSZJTpcMgyX3G5zx1Mz0GrareDhIkU7EEAAgV9X4ADfRGtsN11z4rz1fbqqnqkVbjTgG7F5z2c+13Pf15BDfl2YX7561Rsov15x8+NHdtfDd/5Go0YNa3qAZTZ/8dIVVoD19fLtDcxTPNuM15gf5Q1UPJGK9Vfzh7ghh1Xu0uW54a9KpqpQzUoC1tet7ctr1ou3ag1YYc8vj6vr/sGwQiHzXM4GXYqH5Lqq6pQZPNl1UgzDrKHgbKB37cDP9PDcJDUlADskneZFEEAAgcNAwAqwwnTDlPFWTav/fb1G8bGR6t+7o2655w1dP2W82rdNUXJygiLCwrRmwzYVl1boi29W684bTtWyH3appKRMY0b00e9vf0GzPvpeMswlhHXc6xhuO8C60BNgMQPrMLgAaAICTRGoDrAyM7M0febrennWkgMHWNYbsebsrEh1aJOkP1w6Thedf5KKCkuUkZmj5MR4tW6ZpI//t1jPvLxA67ZkSCqTFC7Dbd6zBuNvQk1x5RgEEECg+QTqnUZjZgjWBJq6Jox4ahl6d6e28gafyTS+zTQkhzUPx/49vmm/wDdfvxt9Jiusc0pGhf3Gifmx9Tj0P3uOG2EGWOfr2GOHW22pbkfNXtU/A2vJCk19uIEBVu1paFV5lf0F+68+U/HMXx4cTqsWSF5+gSrKK3y2Mbcvu+joSEVFRSg7O6+q5dacLMNQ23ZtlJGxXxUV5rte9c1WMhSfGKswh1PZObk+O081epgDckBsTLSioyKVnZuvpMQ45eYX2h6NfHi3dj/0l1wjG8rTEUAAgV9ZwPzZcv2UU9SvZ3s9//pnatMyQaVlZRrQt7tumnK87n7sA82au8S6uTFrZDmdETr31KGaevNkzXhqjnLyChTuNFRS5tKNU07RTxt26vEX5quoqKTWz33fGVjDdP8dU9SyZYtfufe8PAIINE3AN8DK1vSHX9PLB5qB5XlHOyUlWedOOkajhvTW59+s0dxPVygnv8S6FzV/d4iOdOik4wbqzFOGa8uOPXrno5XatXtv1Zu91mxO643fprWYoxBAAIHQFvDMqrIWi1UvJ6yaA2N9b/WNvOzfpMOcDg0Z2E27dmcqbV/OAQgdio6OsH6Pz8o2M4ZfJftp/PBWhQX2B1HRUYqKiFBufoHcLp/JMIcwVDh+RHfNrBFg1T1JqVkDrLi4aP3+spP1xnuLlZaR7RlAu2aWb9+Tk+OtVC0rp0AtEuN1zcXH640Plmv37nTP7CgTzbxBcOqEkb00aEBXPfvKJ3J75lKb5woLd+j1Z2/WH6e/or37zXDrAEsQq64hpy45d4RaJMbomVe+sJd2mI/D4mbA0Imj+2vM0E565vXluu63IyyPn3fvb+TFaKhf707asHmn/Y7dYdG3RnaBpyOAAAKHSGD08L664oKxuu+J/2pPWpb1s8p80+Qvt56vVT9t1tsfrvAUZa+uaRUeFqHrppyipLgI3f/UXM/MCkMJCTF68p7fav5XqzV77lJPDSzfejfeJYQEWIdoeHkZBAIm4K2BlZlZf4DVrVNr3XjFSdq1J1dvfbBYGeY9q/lOvqfuq3efUvOXp8T4GJ01caiOHdxVz7z2hdZvTvXMzveU6GjIioOA9ZoTI4AAAsEoYL+J2KFdK50zaYhSWiSpvLxSO3fvs95Q2JNu3/+Zvzhb/299bzaXBLo1/OgeevDO3+jWGe/qp7VbDxhgnTCql47u31V/e2VB9f3f4fz92ruy3YpPzFVuFRp+TG8NOaqDXn1vhUqL8834zl4SWVWjPPBj38wB1rtatGxbvXnIRZOP00O3n6V7n5qv/8z6whNAemdeefIsw9CZE4ZaIB998r3CI5zq3rm1du3OUlGx/W5U9bpTQ61T4pUQH6MtO9I8QZh9vsgIpzZ9+3eNO3e6tqdmHjTAsgNVp6beeLratorXLfe+be0IZYdeDVh+GPDxcuiCs0bqzJMH6orb3lDvzvHauTtbRcVmMeCGP5wO6b+v3qHJVzwst8tRNeet4WfgmQgggEDoCMycdol+XLtd73yw2PpB7XCXqmfPrrrh8hP04N8WaN/+DM8PcHMHXs87Am5D7dokau5/7tKIU+9QpbfsjSENGdhVv7tkvP7v3ldVUupdSui9SzADrChdc+Ew3X/n5czACp3LjJ4egQI1AqyZ/9bLs5bWuYSwRVKcbr/hDC1dtV0ff7pK5RUV1ozOmm9oe39xspefhIU5NHp4H9105QTdcve/tcd6Q9j7/ecIxKRLCCCAQIAE7O+uThlGuUYMHqA7rp+otz5croryco0b0896g2DaX99XQX6+Vc6ouvSVIYfD0BmnDNPejEwt/8GsBX6gmSG18wpvZw7h1CW//Ox2mj+vkpKitTM1W5XmzyrvT6pD2I1fBlhmx36Z1dQ7A+tbqwbWu/raKuLuXQ/qUfIZR3NJ31dzZujfb87V2LGjdN3t/1BJcYl10bRpnajTThpqBVG79mTopqsmKTevWN+v+1mzPvhKfbp3VlxcjDZt3WVfIKpQZHi4rrvyLK34cYPiYmO14PPl1nLD35w1Ri1bJOjzRd9r/pt368Rzpmtveq6OHdZLw4b0VUZ6rv67YIny84usG4GB/Tpr/HGD9OP6XRoztLtSkmN0y31vKSEuUpMnjVBSUoLmfbrCmrJt9u/Y4b01dng/ZWbnad5nK5WWYU4XNEM16ZzTR2vVT1t1VJ+O6tG1veZ/ulybt6dbqW58XLTOmTTKGvyPPl2prTv2qlPbZA0f2l9r1m/VpBOHKCunSLM+WKQyz0XRpX1LTT5jjPbuzbSOHzeym66ZNksTjuulb5dtUmZWvrp2StFZpwzXrj2Zmvf593JVVmjooF7WEsN+3duqZ69O+mbpeq3duFNTbzpX111+sp54aaEWL1unL75dr87tE3TGKaP085791vFlZSVqmZSoiScOVucOKVqzfoc++3aNikvKDvIP069/FRyMAAIIHD4CVbMe3Prvy7fqvsdm6cf1O+V2h8mhUo0YOlATj+ulx1/6WkX5mXIZYXYdGuu9FXMXXHtHwe//97gm/fYvSttfaBdedktt2rbUvTefrfuenKP0fZmSEV5VM8GcdRwWbhZxH6a/3DlFKS1YQnj4XBS0BIHGCFQXuLVmYPkEWN71BtYzDEPnn3msOrdL0DOvfKnyskK5jbCqe62Y2FidfcogLV6xTbtS98ptfr8wa2VZb6w6dd6pR2vwMX11z8NvyWV97gD1VxrTdJ6LAAIIhIyAZ36r4ZDDXabhQ47SNRcfpzseeleZWbnq0a2tnp1xua654xWNHtZbS1dt1vCju8vtduv9eUvVJiVJp548VInxsfpowTJtT83QhBMHq7CoWN8s3WjdC44be4ycDkO703PUpWNLrfhho04aO1RLVqzW5IkjrdVm789bps4dWmjSyUOsCTtm7mCWq2iTkqCTTxiszu1aadF3G/TtsjVW3jCgT2crNyguLdcX3/ygjVv2yOWyU6TRIwZYm4c4nGE6fnhfzf/iBxWVlOrCM8eosLRE8z5dqX378zX06G5KSozXZ4t+sEa7ZVK8Tjp+sD5asFSnjx+uVas3q1f39jqqXxd9uXitVv24RT26tVO3zq311ZKNclWWaVD/rjph9EClZWTqvblLrFlrY0YepYzMLCXFxeq4Y/tr9dqd+nrxWpVWlikqMkonjT5K/ft11meLftL3P9kz1vr36aTTThxqvbH7mdmfrWlyuere9KRmgHXgC7VpAZY3CbOW4dm7powZ3ld3//FsXXzji7r/z6frtdnfacX3G9W7Z2c9ce/FWrNxp3Kyc+UIi1L/Xh2UnZurLxat1vpt+3TnDadr265MDerbWuf+/hUZ7iKNP36I7rnlNP39tc81dkQfTX9ktv79txu0PyvbDpH6dtPF55+oo0+8WSkpKZo8YbB27NqjEUN6yuGM1C33/FvnTBqqW64+VW+8/5Vat0rRSaP7aPGqLXrqXwv14O3na2dqujIzczR25FF64sWFGtSvnc4/baRmz12itq0TtXLNLn2w4AfrAjXfL5v1jxsUFx+jlT9uU3FJiS6YfJymPvSm1m1Ot8636+c07csq0HEj++nxFz+Vu6JQbz3/J3208Htt2pqq0UO7KTahhc676lGNHdlXM++6RO999LXCwiJ00tijlJ2To+vvnq0npp2hB59dqJ5dW2vazZP13txv1adnBzkcEfrjva/p1t9P0gnHDtRni1aqoNilU08cpDfnLFW4060Hp16m625/Vhu37lOPbu019cYzNXvuYut4p8OhWx98Xw/efpaKi8u1ZdvP6tSpnd54/1ut2fCzXYvBZ54dKxBD5js8HUUgBARqzu5NTorTlAtO1jfL1ignr8T61dCctxoREa6IcKcKiko9v2jaG45Yy9q9k6nk1oWTj9eced+qtMxe8m7+LzYmUkMHddfHn61Sxr6sqmXv9vtHBFghcJHRxZAQqC/AMv/BVyg+oaVuvfYkzZ7/o1av3SR3raLsCQnxuu6ysfrgf+u0afNWuRTpWZLssELzxKQWuu33J+utD5ZrzcYdnjeRuTMLiUuMTiKAQDMKmJu3mQHWAF178Vjd+dAs7c/KswKbJ++7VNdPfU2vPnGVUvdm/b/27gM8qjJt4/g96R2SAKFKFWyIBbuIHV17Xwv2tnb9VFaxu/a6dlGxF1wLFhC766qgrr1SpLcE0khCeubbc2YmhAgeVDye877/XNcW5M28z/N7xmTmnlPcU7wnfzZV388o1Y2XHKqvvpupysrl+stuQ3XfY+9o5qz5+ufVx+nkUQ8qNT1Do04doctvelabDR6gYVuvp7sffkOvPHa+myFM+eQ77bjdxurcKVcLipfrwymfa7fhQzTly3m64a7x+uu+W2ud7h1VVl6low8drn8+9LaWVdXqwlNHaNzLH6tDbpqKS2v01PhPVVe33PX4+xn7a71+HRRJK9BHk/+rpeUNOuekv2ji258qNydLfXp21tlXPa+Ddx+oPn16aNQ1T7uvYQf266QbLxmpY865Xw/ccKxysrPcA4kqKyt1/F931YXXPKX6xhbtsf0Ajb79LR174CbaY6ct9M4HX7qh1rr9euvkC+/TkQdtr922HahvZ5Rpzpy52mfE1nphwmQ99OwnuvSsPdWlU54+/2qW9hkxRONe/UKlZcv0fyfH+8lJV3FZtZ4eP0V1das+y+yPD7AiibvmJSslJaKrLjhMU6fP0pMvfa7Tjxmu+oZmjXlyii49a2dFUrJ09W0vuIejpaSladTf9tbC/yWVD497T107d9ANow/Tg898qLuuPkKHnHKnfpqzWNf+/XDNmrtYSysateNW/TXpvS91zkl76S8jb1BDQ5M2GtRLbz97ibba6yLNnl8Wv21lRD27F+jmS4/Qlbe/pGfuPk3/d9XTeus/3yopKUnP3HO6FpWU6ZOv5mqT9bvr8lteUEN9g045ehd17JDn3n2qMD9LV98xUfPmF7sX7Y3dAcY58iyicfeepnnF1brgysfcWxwffci2OvGInfTgU+9po/V66spbnlN9faNOOXpX5XfI0fsfT9OTd56mrfa6RAtLKpWXm6av375Fuxx8pS44fV99/MVMPfz0u4okRXTRmftrk/W66PTLx+vm0fvp1jFvaMxNJ+nKW57SxLe/U8e8DH084R866qx7deCeW6qqqkY33TdRTS3NOuXIXVRYkKOXJn2uVx4fpf5bnq7ktFR9+OJluuKWf2niO1+pY26mpky4SqeMelRHH7SN3p0yQy9M+EjLlzunuazu1s9r8WcHD4UAAgj8qQLO9Qya428CkzR8q77ab8RQ9e/XXd//OE8tzjVp4u8Nu3Tu6P7MnTqzxP0AY0Vy5XyUEdGG6/XRrDmLVOOEXO43OfFUROsP6Kal5dV66On39MnXzhvO2DUgCbD+1MGzOQJrWWB1AdbKR0gN7Fekk0fupktuGKf6uoZ4Dh47ot85FSUvL0+njRyml978VlPdACtNkajzgalzPZKokpJTdfTB22lZTZ1emPBx/OwVAqy1PEweDgEEjBVIXGEwSUlq0tDN19eFp+yhx56foqamRvdgkvSUiC6/7VW98vCZmvTeN7rl/glyTpS6/Jx9paQkXXP7eDn3ittuaH+decIeOuOSx7T7DuvryIN20tQZ8/TV9/P0xIsf6KA9NtewrTfU3Y9M0lvPXqrt9h2tOfMqtcO2G+ipO0/UJntcoaVLKzRix431f6fsrd3/ek38xnXO741UnTJye/Xr3d09oGSvXTbUFf98S9Onz1SzczF198d+7Gf/3884QDtuO0gHnnSnGurrdOuVx+j7H2bpvic/UFaGdP8NJ+jpV75Qr67Z6rNOd1107ROxAKtvka6/9Ggdd849uv+GE1W8pExnX/GU1BLR6LP2dIOv5177UiOGDdL1972pd5+9QEedeZ+++GaWezbB3f84XNNmL1FGRro237CnDj1tjBRt1GH7bqND9t5cF13/om4cfYjOvfwJzZ63VFsM6a0LzzhAH3w6Tdtt0kuX3RHvpzn+oe9qnnN/cICVuJik80u2WX1699Ajt56knNw8VVbVqqhznptQHnH2I7r/H/vplXem6+kX/+P+wk5JS9eo0/6ihYucAOt9FXXJ042jD9O1d03SSX/dWsvrGvXAUx/o+osO1qW3vKjNB6+jHbbaQN9Pm+3e2vzMS55yw6rszBR9//4/tdOBlyotPUNHHTRcvboXKSMjWR1yknTNna/q6XvO0IbDz1VllXM74iRdce7e6tSpo3shzeMP21Ez55WrJSp17ZStDz/9Trc/9JaO2HeoNh08UD/OmKtb75+gsgrn2gPOUWZJGnfv3/T6+9M09ql33Cfd+v0L9ca//qGxT07SofsP1yzn8Vpa3EMCP/r0e738+me67cqR2niX/2u9e8z0yXfq8FNv08VnH+ieuvL1DwvcER5+wDbaa8dBOvcfE3TL6H01dtyHeuKuMzR9Volq6pwLqEW05cbdddpFj2nwet017acF7pFTztdRB26vAf266YWJn+qlRy5Q363OVJfOHfTZ69dp+sxiLa9rcd90DR3SQydf+IBKy2piqe863TTu+Xc17hXnX2TnDpBtLjhs7A8zGkMAATsFEkdgxU7ycU5bHzSgl+6/6ST3w4QHnnxDxUuq3L87bL9tVZAT1R1PfaE0LXc/sIh9V+xn8ZXnH6KXJn2s/347TxG1uKdjjzx4uHbYcl1dfP2/9NZ/vtTy5bUrXZuRI7DsfNbRtYkCqwuwnH8eVSTSomg0XfvvPlA9evXR3WNfjb/3WHG5duf1Vl5uB502cge99ObX+nHaLEUjaVLU+UAxFnI5H6DuOnwz91IQjz3vnL7hHBUahOu2mjhTekIAAXMF4hcp32wDXXvhAfpu2jxVVFbrpzlL9e7kHzRv0TK99vi5+ueDb7oHzDjv+5+44yRNfOcbPTXeuRN1RD2KcnXrlSN16c0vatachXp2zIVKVp1O+fujWlRcocP22VLbb72R7nl4osY/epEGbX+G+zjOtVEfvuUkDdntEvc1pHOq4nUXH67dDrtGI3Yaoj132VJZWVnq0yNbn38zR1ff9rwO329bDd92Q5VV1ujOhyboh2kL3NManZ/+o87Y3w3drvznq8rLSdUjt5+m7l0LtaSiQZFIVIP6FLpnlbU01arvOkX6u3MEliIa1K9Q111yrI51AqwbT9A773+lB57+wP27Uw7fTsO221CPPzdFuw9bT488P0UTHj1X6w07381lnD5O/OvWGrxBf7fX1ORGXX3HW/+L0+q0x46b6PRjR+iWMRP1zL1n6asfFqmxKaqM9GQ1Ntbp4uue1Tab9tLwbTZR2bIa3fXQBH3v9rPqU+L/2ADLPfrKmadzSF6T9tljG+2wxbq6d+xEVdU2KL9jtm6+bKRGXTte5500TJO/WKCHn5zohl3JqVm68PT9tHDxUj067k116dxZ148+XNfdNVEtjcv18hNX6u/XPKZhWwzQZbdN0D47DtR2W2+sz7/5SdtvuYFOPO9uJalBOR3y9e3bt2q/E2/W30/bSy9N+I+ef/UjFXTu5u59+4Ov67kHztVWe12skuJFaomm6R8XHaW87BTNmF3mvAfRPWPHq7mlUdGoE1Alq8U90koq7JCmqy881L0ewekXP+amti2RZP3rnlP1/ueLdPcDz7qvIbbaZD09ce95umfsq2qJJruPF21pVLNS1KJUbbtZP9113anafMT5rbfsnPbR3Tr4pFt08VkH6bYHJuiTz79xP6QfeeieGrF9X53tBlh76Z7H3tez95+nLfa8QEuXlMQ/4U9WWkaWLjpjf/0wY6HGjf+3ez2Wow7YQQP6ddeLEyfrxUdHa92tjleHnGx98e6d2mKPUSpd6ny/kx+mukcJxI4hiGqD/vkae8d5unXMJI17abIb0nE0lrk/vukMAQRiAom7zCRFW1SYn6PRZ+yplqRUnXfVs+51Eo4/Yjd1zE7WzQ+++7/bf9S7AVbrVySq264+Uc+99K4+/HS2klJa9ODNf9PcOfN04/1vqMa9+UZS6/ckrn1JgMWzDwFTBFYfYMUuw9CsaCRbZx2zheaVNOjF15y7kra7Dm1Uck4hdI7AevHNqZox7Qc1K9N9TR17mxJ7wzV0k/U0sG++nn3tSzWu5pQLU1TpAwEEEFi7AokPDZKVpEb3CKyTD99B51/7sirKKt27TMd+5qbqtcfP0c0PvOEGO85Nfe659mh9/v18jX3yNffDhK7de+jOq47W/131lDLTmvTGczfq08++0n2Pv6fX//2FDtt7Gw3begPd/fAkPf/QBdpo+LnuzdQ2HdxXY24+WUP3uMy9UdDWQwfp+tFH6ZIb/6UrztlPp466QzPmVOjow3bVxuv30XlXPOwGZulpLTr5iJ21zZYb6bSLH1dlRbmikSRddPp+bvhz/T2vKSsjqrG3n6Xb73tFn3z5vZKizWpxM4hsnTpyG/XrvY5GXeNcmilJm28yUBedtb+OO+dejbnheL32zhd69F8fuR+6nHjEDtppu8F69LnJ7hFYt499Rx+8dIU2HzFK5UsXq0nZOvvEEepaVKDKyhpFoo267u63lKQa95pgpx+3h6687UVdcOq+Ov6cf6qhrtrNRZrd68DGPnRJT2uO9zNYp41+TBXly1Y56j84wIq/CfgfYEZmni45+y/64rt5ev7Vj+MHuEV1/ql7uRdb/+9Xs3TQnpvppvveVPXyOjl3yttth/VV1LnAPcpILY264rz9de1dr+rHGfP1/EPnK1nNenHS53rsuQ90yN5DNWyrjXTf42/o0VtP0pmXP+VeNHebzXrrzquO1F9G3qYL/ranHnp2in6YvlDDh/bRUQdvq9MuflKXnL2nFixepgfHTVFOVrLuvOpwffHtXD0/8TMdf+i2euCZj7SopMo9mmvJ0lL3IvNKSpZz86g9dxqiLQd30Qn/94QizhsYJevpe89Wfl6Gzv/HODU0yj3kbuGiJZr47g867rDt9OAzH2hhSZVyMpO1pKRC/XoX6q7rT9bmu18QezESbdHUj+7R3kf9Q3vvvqkG9u2uW8a8oZTkZJ134q7q2DFdp13yvG4Zvb+uuWuC/nb0zmpurNcDz3ziHupYkJem76bN1QWn7a8fZyzQMy996D4xjjxwe63br5t7SuZ7z12ug0+5Q7PmLtEV5+2rxoZGPfDMZDU1NSs/L13f/DBTfXp3VV1DVJEkZ9899MU3P2rsM++7p9a41/uKOLeM5zD1tftDlEdDAIFACLQeaRo7NTwpOaK9dhuqg/YYomPPHStFm7TlJuvqojP20JHnPKra6sr4aeSxN6A9u3XS1RcepNE3PK9Fi0qUm5erW6840v3Q4fMvf2xzoeV4dNX6P1wDKxDzpwgEfrfAL51C6MRPzuuoHJ117Baat7hR41+bvMq7eKelp+q4Q4arS2GOHnlusuYtcE5Zdl7WOaeMOHfNatJmQ9bXen076l8Tv1JDQy1HYP3u2fEACCBgnYB7wE2DtnSugXW4cw2scVpaXhk/ut6JmZwA61zdMuZ197JDzou9PXbaSEfsv61uGfOmqmqb9Ne9BruXG7rrkbf0wE0n6J5HJrnXoT5s76G64taXtP0WzjWwNtA9D7+m58ZeqI12ONvNDjbduI8euukEbTbicvfDjW2HrqvrRx+pux5+QwfsuYUuuekFpaWm6/KzdtWipct1870vKyc3173g+eD1+2vfXQbp7zc8r7Kycvd9+qgz9nM/aL3u7relSJ1OOWp3bTGkl2576D+q+98phXnZafphxgLtvPUgnXDUbrrs5hfU2NCsU47aXn16Fem488ZozA0naNK7n+mRf01xnwqOyfDtNtSjz01xb2J06W2v654rDtSXPxbr5be+Vm52mm66+ADddN/r2mzj/kpyAqx73lQk2qAROw7RGcftqmPOG6vbLjtEwkhNbQAAIABJREFUr7z9vT77ZrbSUlLU1FTr3iQuJydHdXWN2miD/tpvl0G66HrnIvp+BVifOHcHdK4hsuKQL+fUiY55+frb0dtr3KvOnfcWt15DZMOBPXXOSbvqgmue08gDt3cvUtbU1KAfZy7R51/P1TGHbKuamhq9/OZXGjF8iJ58cYrmLlysvXffRgeOGKyb7n9D30+br522GaiNN+irO8a+roP32krDtuzv3jlgSVmttttyfY2+/mntvP3G2mBAZy2rrFZdc5rUXKenXv6vUpKlM47bQ3W11VpeH1VjY4Pq6hr04NMfap/dNtXQIb3cgMcJcsZP+lx9ehdp40FFbtiTkZ6u5yd9oU+/mBH/9zxJz9x3hkpKa7R0SamyMlPUrCTdPuYNVdXUar/dNtNmQ3qrqaFeSUkpenHSl6qprdY5J+6tky58IP7pW1RP3nmmRl37tBoaW/S3o3dSRkpENbWNbiCWltqsOx+fojOO3EaPj/9Ey2vrdOoxuyrX2aupSdFIuq674wUdss/Wmrug1L17oPOqaLdhg9Wje4GefvEjnXfq3uqSn6HX3vtK3/xYopOP2CFWa3OTokmpuuXeVzXy4GEq7JDuvhlraU7WmKff08ListbZWfeDjYYRQMA+gUjUvbOtc7v6ow7YWm/+53s9N+ET92jZ1NRUXXvxX1VfV6c7H3lbi0vK3KOOnWsNnnr07u5NPO5+5G33xUJaapoO2XtLjdhhI40d94Hem/xd3DJ+yqLzp6jzKWBL610Irxp1jAoLuQuhfU86OjZDYDUBVlPs2h6xu5Zm6pA911NBp666/7HXW9tecauc2IeEOdmZ2n/E5tpiSB8988qnmvzZNPdnkHsUVqRZO2+/qfp0z9PjL37ino7BKYRmPIPoAgEE/BBoexfCRq03sI/23mUj3f/k+6pcVhO7BpVzaYhoqm4cfYDGvfyZPvt2tvszOCMzVYfvv5369ypQS0uTmqNpeuRf72voxr3Vv3eRbrhnorIyUnTKyF3ca2Etr4tqyPo9NH7Sf3XVhYfpmHPucs/uWrdvV1146p46adSj7jUONxzUQycftbOuu2uCzj1xdzU1NqimrkmVy+rcn/vf/DhXu263rpxLRaWnpWryF7M16d2v1djknMonHbn/tu6p5k+O/0wRNSovL0fHHrqTenbLVKNzU6FIqm5/8FU3VzjrxN3dg3Sqly3X0soGdczL1D/HvqHzTxmhTz+fodfe+8F9zH122UibDF5Hr//7R20xuIcefO4z9eqcqSMOHKaUpBZlZqbq66klemb8h+7rXSdAe+KlLxWJ1muLTQe4N80bfeN4bT90gEbsNNjt07kL7xffLVBx6TLtvM0AOZfySktL0cdfzHHvnNjY2LTKJ8BaPwLrP5/MjH8K7eCs2DMlKUUd8/PcQ8Gamp3rKMUu+5GcnKyios5aXFyslORU5ed3cP9ZRUWle+V5J8XMzMpUaVmZsjIz3YuSNzY1KD09Ux065Kq8rFyNTc3Kzkx3r3FVXl6hpKSICgvzlZqSqvLyZcrNy3YTyaTkZBXk57tbl5WXKz09Xctrl6u5sVlZ2VnubSRramrV0Ngo5xOvivIq9458Tk2ZGemqra9XReUyJScnqaBjvpKSk1RdXaNlVdVOwhPvO0nj7jtFE96Zqlff+swNuMoqKlRX2xA7KS85WfkdOygzM1319fUqr1jm1luQX6DFxU6wF0Pr3rVIJaWl7jWnMtLSVViQr/rGBvd6KRkZae45ufkd8ty9nSdrWmqqCgry3Xqdf+bU5TxZnVtZLl8euyNBdlaWUlKTtWxZtdLT09z1zjrHNC01RQUFHd2L2LvfX1Ot3Jxc5ebkyLk8fUVZhftmzP1qe5MuP36usAcCCCDwJwo4QdVZJ+ymppZk91Mz5+ey+8YxKuXn5+rUI3fQ1kPX16x5S9TcHNWGA3vo3x99rbHPfqiSJeWtF1tOSU3RqDMPUpcOUZ112fPup2xOYOUezereoZAA608cM1sjsJYFVhdgJW6I4/x9kjYYUKTjjxihUdc84X6I6L7Ian9we0RKSUnRJhv20+kjh2nS+9/r+QmfuK+nI5Fk982KcxHfZ16eErtmCAfHr+VZ8nAIIGC8gHvdIyktPd29+155ZaWiTqKSCDSiEXXqXKDqqpqV7o6XmurkCx2VnJyi8vJy1dU3uH+uq69XjfMePCrl5uYoPTVNNXW1ykhPU3X1cnUqLNCi4mJFohH3fXx+QQcVF5e4l/3JSEtThw55KllSqpzcbOXl5rgZQHXVcmXnZLkH9xR07KDU9HTV1daqvHKZmptX3GwtLzfX3XdZdVXr7wPnTK6CwgKlpqZoeU2tKpdVqiUadXMWJ1NobGhSeUWFW2tlZZWbf9TX1bvZiPMg2dnZSstIc7/XyTeWVVW5lzfKyspQh465amhoVFlp7LrhTgbh/BqqXlbl/q9zUXcnU1haWuZeoCg3L0e5OdluzWXllWppaVZ+x45u/lJbW+/e9bDJ6Wc1v8v+0ACr/SdIzmHOzvmibYtx76DiXDvKvS2wcxHx+EXCoymxQCjSFLtmeDzxcr4//plT/HxU58/OX7coKeo8QnL8IuPOcU9O9JKspGg0ft2qSPw6Vc4TNFVR505Tzh5OaOR+v/NGIn7tJ+eTrYhzzSvn4RKP5V6dRNFI1F3rprHuLs4hh05VzpuQJD177yma8O6PevzZN92BO+eZtg3zYolj7K6F7l1k3Nc4zpBS3P3clzQR55pbzp8TqbDjENOKRJoVjaa5iWpLJO7pXsvTWeN8d+w6Xc4bIyfZdFSdB3X+X+zxY9dpSXLn4QRmqe4LHmcOsd3j3x9xvtO5w2JUze4+8bvitP0Jxosk43+e0yACCES0y7BNdelZuyunQ5F6dE7XMeeO0Rv//ir+eyBDhQXp2naTdZScHNH7n8xUWUWjFIndGGTj9XrqxUcuVGlZlXuBz7+MvMm9I03sE722ugRYPNcQMEdgdQGW81ordmpyJNqkjgWdNeqUnfXws1M0deYc97VgLNiOS7T+jHB+PjQpp0MXnTlya7301rf6bups5eR01HknDNfE937QZ19OXXEqszmQdIIAAgj4I+D+3I29z3czhbZfSRFFWpwznWI/vxPXLHTexyfyi9h1pGPvud2f4e5ld5wv5z11VC3/u8GPew1E9587B/ukuBded7KF5GiTmpUaP1DEebfe4lwV3E0LYteedr7TyRycDCHinj4ee2Mfzyfc0CIROTS7uUEsg2jzWjPSGEsBorH8IvYtiVPaY//PzU3c0ylX3JE7tk1TvPZY7uE8dixbcHqLZSpuJuIeseYc2OPU7VzfKpZ4OP+sdc9I7ANcx64l4vyt8/sw1rNj1D4vaj/8PzTAat0sdrJ+awgV1479j9Ok+3exuza1vQ157PpKsYtUtv69O/T4P289pM95oMTFcxOnLjrhV+wWxCv+N1GD88/bJKqtV81MnMoRf/zW6zslHjvxKsJ5zPgri3i4tuLFRpIuP2c/Tf5ijt5w71AQ+xdh5dSuTZ+t717iBq1o8U/k3Sed00viX5S2tbWp1/3HThiXCIrj37fS3on+470nHtO1b2Po9t2mR7cFkip/fnKyCwIIBE4gIvco3yEb9HaP2s3KytaZx+2uUdc+o7nzSxVp/cDB+QDF+XnpfEjh/OJPdl/ovP/CZbrzoYmaPmuROhfm6833v47//ovf6KTNL8vWUwgPG6qr/s4phIF7LlAQAmss8AsBlvuBYOx1X3Jymo7Yf2tlZaZp7Lj346dMxI4E+PnraOfuhdH4TYViC3bfcbCGb7OBrr7tBdXXNXDw1RrPh4UIIIDAqgTi75fbBj+J04/cA1/ava93X/glkqNEWBR/H9+aciUigfi6tvmE+1dt36O3+7P7fr1tzpG4aGqbTznav09fKV9J5DDx9/atn44kMpNE/YnfO/HHbz3lKv7LyP2d5dSSeJz235/IV+KZxEqZTaL/eC6TyG3cX5PxbCeRY6wqO2k3Jh8DrNazBlf970q7T5rcI5paQ6L4X8YOxVrxSz3hu8rnXvwv3VMyYhngz77aPWzrQ8dundjmdUNrKhRPU2NppfvfrafTrSgmVrszj9iqlV+BJL63bX9r8OOjzXNplc3EE+PY0Y+JfznW4HHbLYlljSv6b/2z+/xq38+vf3y+AwEEEAinQOwXtxMw9epZpEvO3k+X3Pise9j3Ot3z9d30BbFrJSjqXq9mUP8eWlxSoQXFyzT+wbN03V2v6OPPf4p/UhX/NRY/XL3t74hEgHXiYUN1NQFWOJ8qVI1A64vV2Iu30tJyXXLdYxr77BQ1NK44zSMB1aNboc46ble9/dHU2JGdP3szEl/pvm+IvYFwXutttem6Ov3YnWM3OJo+P/5hJx848gREAAEEfrNA/D31z07nbn2rn8gW2r73X9VnDu3eTycKWlV+0e7yPO3fj8cONElcaqLNa0g3UGoXorRJMOKnYLUWl8gvYmlEu98V8ff/bctbOY9pF2m0/5ClNUhJHEwT7781w0h4OH6xvKE1t1jp9LzEafSr/13mT4DVHrL9MyoRmMS6WXHElLPOnUmb6wG0fcHf7gmw0h/d8CueJK4USLV5hrRZE1u98sgS017xd20nkzhEL/YiYpX50iqfT4lTAtukoa3nF7YZVPwFygq6tsNcTZr1s/JX82/ISkd9/dKzL2a/2gDwN/9k4BsRQACBEAms9KM0SX/ZeWMde8gw/fPhN3TR6XtpfnHs2gM33TdJ8xcUa/zDo9xrDTbU1+nKO17TFWeP0H+/XaQ7H5rU5lTuVf985gisED0vKBWBXxRYcQSWc92Py65/XA+NSwRYK79AdEKpgf176LJz99Okdz7Xk+P/qxb3elhtXxfG/+icghJJ1ogdNtAJfx2ua++eqC+//YkD5Xk2IoAAAmtLoN3BLCsetu3P7nZvvFf6ULL9a7xEVpA4Myxx5FHi8dr+uc3aVSYMiSwh8fshEWKt5j39SiXHTl+MfbVb31r/yjnDSjGde1TaygfKrOrV7M8PW2ofUrQ7MS9+YFDsjLZVXAey3VzXWoD1yWdf6e/XjNN7k6evuIj72noSeQVga32f+AOuLtBss1/rONo8/9bO8dvx0yb/qN54XAQQQACBXy8QiSonK0vXXXykDtp7Sx13zt3695SZOu+knfTZNwtVVVGii//vaO0z8loddciOuvOqI/T8pK90/hWPqLyiyt3vZ7/s2/wicQOstAydesRWuuKCI1VQwF0If/2Q+A4EgiDQ5hTC/93a/Iobn9KYpz9UQ0P8Qu0/ewMhpWek6YEbTlZLS6Muu/l5zVtY6h61mfig1HnDkZudoQtP21eDBvTS6Zc+oiXFZa1nB8R+vjjXE1lxJ/AgSFADAggggAACMYE1CFg8qHbaZl3dOPowbb75kLaXGf/Zd0WizhXGfuGrZOlSnX3RPXp24rdqcS4/zxcCCCCAAAJGCcR/6UZa5NyZMCc7VZXLGtxrXh26z7baadgQ5Wa06J3JM/Xgk2+7F87s26OTZi1Ysoa3tY+dopiZla1LTt9Zpx67n/ILOholSDMI2CcQVVlZpe595GVdd/frqlnu3NzB+Vni/KfNHbtjV/x1T0vec6eNtf8eW2ppRY1+mrVQFctq3FOT+/TqogF9uuqNf3/p3oWwsip2l2m+EEAAAQQQsEEgKSlJh/5lI91x3Wnq1Kmw9bJOq+rdI8CKqra2QXePGaebH3xPJUuXxU/HW/FQqz68zAZmekQAAQQQCL2A+0us7SnobS+KKRV1ytemg/soPS1VH3w8VaXly+Ln+Le9bmPi/P/EBTDjKvFfkIm72Q7qV+geubXT8G2UktLuLjihh6QBBOwTaGps1rv/nqwzL39CU2dVxO4otdIlMxLheOJarxFlpKeo7zpFKizoEANzboleVa3psxaqtr4pfvYHHxjb92yiYwQQQMAWgRUXcnLuUejcIKlLYQedd/JwnXXioUrPTI9fyGnVHp5HYLVEW/TNt9N1zW1P68W3pqmp0bmFeOKOefHzOm2xpk8EEEAAASMF3CsPtN41JXEn2FirsV95zuk+iesLtL17bBuORBDmvimN30rZ/QwpSblZabrglB100jEHqGtRJyMNaQoBGwUWFy/RA4++oBvHfKDqmgbJvQV62+tPuD9F3FuJrzjROBFQrbiZkHPX7djNejhN0MbnET0jgAACtgi0Xibd/fw3opSUNB2w60Bdcu5hGrzhQEWSEq+3f2OA5XxbY2OjJn/8ue58eIJemDRVLVHnk2PnYl+J2y/GN4nyS9eWJx59IoAAAqEXaH2PmTiWuO01Cp1bKju/05x/5rypdNbE35gmgi43qEocYRE/baj1z86i2O/GosIMnXr4UB1/5P5ap3eP0LPRAAIIrCwwe+4CPfz4C7rvmf+qpNQ5ldD5ancrcvfPiZ8pzuvoxO3YExe2de5iyOtonlsIIIAAAoYLJM5+ULIiSS06ZMS6OuP4PbTNVlsoJTXVs3nPI7ASj9DU3Kxvv/lOH332oz78ZJpmzy9TfUOjItGIoq2fFrX/xMlzfxYggAACCCAQMIE2J8e7ZwU6YZRzZ9pf/kTIvedt/NMkp6Hc7HRtNKiHhm01SNtts7l6dCtK3G4sYP1SDgII/DqBtkdOOd8Z1YKFJfpoymd6/+Op+vbHBapaXt/2POP4w6848mrl+1zHfsLE7pod+xu+EEAAAQQQMFUgIy1FvXt21vZb9NfWQ9fX4MEbKiV5zS6vscYBVuyk/Iiqq6tVWlau6upaNTXFPylyf9O2/2VuKjd9IYAAAggYIbC6y8y0Pbb5Z422uQ1x65FY7U4pdD/YiSgtNUn5HXKUX1Cg9HTnfP4VX/zGNOIZRBPWC6z8b3Jdfb0qyspVVlmtRueuhPFLbsRWtbk1uusWuzpe7P8lXke7MTgBlvXPKwAQQAABgwWiUnJKknJzMty7cufk5PziRdvbS/yKAOuXEXkxbvCTjNYQQAABBBBAAAEEEEAAAQQQQACBP1FgrQVYf2IPbI0AAggggMCfLJC4ts2fXAbbI4AAAggggAACCCBgqAABlqGDpS0EEEAAAQQQQAABBBBAAAEEEEDAFAECLFMmSR8IIIAAAggggAACCCCAAAIIIICAoQJrJcBqaGhQSwu3/jX0OUJbCCCAAAIeAtFI7HrNKSkp7n/4QgABBByBpqYm9z98IYAAAgggYLNAUlKS0tLSfjfBbwqwnLCqpKRE03+aoaqqKqWkpCvZve3h6m7p9Lvr5AEQQAABBBAIvIDzRjXaElXXos4aMGCAcnKyW+8xFvjiKRABBNaKQE1NjaZPn65FJSVKiiQRaq8VVR4EAQQQQCDMAs3NLWpqbFReXq4G9O+nLl26yAm1nK/29+n9pT5/VYDlBFelpaWaO3+hlJSsoq7dlJnpvDh3tiS8CvMTitoRQAABBNaGQEQtLc1aVlmpksUL1SEvR7169ozdIjgSWRsb8BgIIBBAgWg0qurqas2dN1/LqqrVpWt35XXo0PriPIAlUxICCCCAAAK+C9TW1qp48SKppUnr9Oyhwk6F7oc9a/q1xgGWk5jNnDVTVdXLVdilq7KdF+NrugvrEEAAAQQQsEygJRpVRVmpqpeVq3evXiooKLBMgHYRMFXA+dB25VfBZeVlmj1nnnI75Cu/oECRX/Fi3FQl+kIAAQQQQGBVAs5v0ZrqKpWWLFZubrb69ekbP6PP22uNA6yZM2epavlyde3ei0OhvV1ZgQACCCCAgKJRaXlNjebOnqHNNhmirKwsVBBAwDCB5cuX6/Mvv9I6fforK9s52tKwBmkHAQQQQACBP0CgsalJxQsWKDc7XX379l2jsxXWKMCqqKjQrDlz1a1nX6WkJbsXquULAQQQQAABBLwEIooqopqaZZrz0zQN2267Nfrl7PWo/D0CCARDwDl18P0PPlC/AYOUmZ0r5994vhBAAAEEEEBgzQSaGpu1aP4s9em9jjp27Oj5TZ4BlnPdq5mzZqk5kqzCTl04bdCTlAUIIIAAAgj8XGDu7Jkq6lyo7t26wYMAAoYILFi4UCVLy7ROn36GdEQbCCCAAAII+CtQuqREyWpR3759PK8d6Rlg1dfX64ep09WlWw+lp6f72wm7IYAAAgggYIiAc5pRxdLF2nCDDTx/ORvSMm0gYLSA8yHvN999r4LOXZWdlcWxV0ZPm+YQQAABBP4ogfr6Oi1ZtEDrDRromTl5BljOC+7vfpymvgMGcvTVHzUxHhcBBBBAwHiBxsZG95fzgP59lZmZaXy/NIiA6QLLa2s1Y+Zs946DKamp8dMHuQCW6XOnPwQQQACB3yfQ/lYozp9nTZ+qDdcf5Hm9WM8Aq7S0THMXLNI6ffr+vir5bgQQQAABBCwWaG5u1tLiReretcsaneNvMRWtIxAKAecasQsXl6hTUbc1vntSKBqjSAQQQAABBHwWmDt7lnr37OZ5127PAKu4uFglpeXq3nMdn1tgOwQQQAABBMwRaG5pUWnxInXt0kn5+fnmNEYnCFgqUFZWpuIlpSp0AqykJEsVaBsBBBBAAIHfL7Bg/lwVFearqKjoFx9sDQOsCnXv2ev3V8UjIIAAAgggYKkAAZalg6dtYwXcAGtpqTp16cZ17YydMo0hgAACCPghQIDlhzJ7IIAAAgggsIYCBFhrCMUyBEIiQIAVkkFRJgIIIIBA4AUIsAI/IgpEAAEEELBJgADLpmnTqw0CBFg2TJkeEUAAAQT8ECDA8kOZPRBAAAEEEFhDAQKsNYRiGQIhESDACsmgKBMBBBBAIPACBFiBHxEFIoAAAgjYJOAGWCWL1LUzF3G3ae70aq4AAZa5s6UzBBBAAAF/BQiw/PVmNwQQQAABBH5RwAmwlpYsUjcCLJ4pCBghQIBlxBhpAgEEEEAgAAIEWAEYAiUggAACCCCQECDA4rmAgFkCBFhmzZNuEEAAAQT+PAECrD/Pnp0RQAABBBD4mQABFk8KBMwSIMAya550gwACCCDw5wkQYP159uyMAAIIIIAAARbPAQQMFyDAMnzAtIcAAggg4JsAAZZv1GyEAAIIIICAtwBHYHkbsQKBMAkQYIVpWtSKAAIIIBBkAQKsIE+H2hBAAAEErBMgwLJu5DRsuAABluEDpj0EEEAAAd8ECLB8o2YjBBBAAAEEvAUIsLyNWIFAmAQIsMI0LWpFAAEEEAiyAAFWkKdDbQgggAAC1gkQYFk3cho2XIAAy/AB0x4CCCCAgG8CBFi+UbMRAggggAAC3gIEWN5GrEAgTAIEWGGaFrUigAACCARZgAAryNOhNgQQQAAB6wQIsKwbOQ0bLkCAZfiAaQ8BBBBAwDcBAizfqNkIAQQQQAABbwECLG8jViAQJgECrDBNi1oRQAABBIIsQIAV5OlQGwIIIICAdQIEWNaNnIYNFyDAMnzAtIcAAggg4JsAAZZv1GyEAAIIIICAtwABlrcRKxAIkwABVpimRa0IIIAAAkEWIMAK8nSoDQEEEEDAOgECLOtGTsOGCxBgGT5g2kMAAQQQ8E2AAMs3ajZCAAEEEEDAW4AAy9uIFQiESYAAK0zTolYEEEAAgSALEGAFeTrUhgACCCBgnQABlnUjp2HDBQiwDB8w7SGAAAII+CZAgOUbNRshgAACCCDgLUCA5W3ECgTCJECAFaZpUSsCCCCAQJAFCLCCPB1qQwABBBCwToAAy7qR07DhAgRYhg+Y9hBAAAEEfBMgwPKNmo0QQAABBBDwFiDA8jZiBQJhEiDACtO0qBUBBBBAIMgCBFhBng61IYAAAghYJ0CAZd3IadhwAQIswwdMewgggAACvgkQYPlGzUYIIIAAAgh4CxBgeRuxAoEwCRBghWla1IoAAgggEGQBAqwgT4faEEAAAQSsEyDAsm7kNGy4AAGW4QOmPQQQQAAB3wQIsHyjZiMEEEAAAQS8BQiwvI1YgUCYBAiwwjQtakUAAQQQCLIAAVaQp0NtCCCAAALWCRBgWTdyGjZcgADL8AHTHgIIIICAbwIEWL5RsxECCCCAAALeAgRY3kasQCBMAgRYYZoWtSKAAAIIBFmAACvI06E2BBBAAAHrBAiwrBs5DRsuQIBl+IBpDwEEEEDANwECLN+o2QgBBBBAAAFvAQIsbyNWIBAmAQKsME2LWhFAAAEEgixAgBXk6VAbAggggIB1AgRY1o2chg0XIMAyfMC0hwACCCDgmwABlm/UbIQAAggggIC3AAGWtxErEAiTAAFWmKZFrQgggAACQRYgwArydKgNAQQQQMA6AQIs60ZOw4YLEGAZPmDaQwABBBDwTYAAyzdqNkIAAQQQQMBbgADL24gVCIRJgAArTNOiVgQQQACBIAsQYAV5OtSGAAIIIGCdAAGWdSOnYcMFCLAMHzDtIYAAAgj4JkCA5Rs1GyGAAAIIIOAtQIDlbcQKBMIkQIAVpmlRKwIIIIBAkAUIsII8HWpDAAEEELBOgADLupHTsOECBFiGD5j2EEAAAQR8EyDA8o2ajRBAAAEEEPAWIMDyNmIFAmESIMAK07SoFQEEEEAgyAIEWEGeDrUhgAACCFgnQIBl3chp2HABAizDB0x7CCCAAAK+CRBg+UbNRggggAACCHgLEGB5G7ECgTAJEGCFaVrUigACCCAQZAECrCBPh9oQQAABBKwTIMCybuQ0bLgAAZbhA6Y9BBBAAAHfBAiwfKNmIwQQQAABBLwFCLC8jViBQJgECLDCNC1qRQABBBAIsgABVpCnQ20IIIAAAtYJEGBZN3IaNlyAAMvwAdMeAggggIBvAgRYvlGzEQIIIIAAAt4CBFjeRqxAIEwCBFhhmha1IoAAAggEWYAAK8jToTYEEEAAAesECLCsGzkNGy5AgGX4gGkPAQQQQMA3AQIs36jZCAEEEEAAAW8BAixvI1YgECYBAqwwTYtaEUAAAQSCLECAFeTpUBsCCCAwBzIRAAAgAElEQVSAgHUCBFjWjZyGDRcgwDJ8wLSHAAIIIOCbAAGWb9RshAACCCCAgLcAAZa3ESsQCJMAAVaYpkWtCCCAAAJBFiDACvJ0qA0BBBBAwDoBAizrRk7DhgsQYBk+YNpDAAEEEPBNgADLN2o2QgABBBBAwFuAAMvbiBUIhEmAACtM06JWBBBAAIEgCxBgBXk61IYAAgggYJ0AAZZ1I6dhwwUIsAwfMO0hgAACCPgmQIDlGzUbIYAAAggg4C1AgOVtxAoEwiRAgBWmaVErAggggECQBQiwgjwdakMAAQQQsE6AAMu6kdOw4QIEWIYPmPYQQAABBHwTIMDyjZqNEEAAAQQQ8BYgwPI2YgUCYRIgwArTtKgVAQQQQCDIAgRYQZ4OtSGAAAIIWCdAgGXdyGnYcAECLMMHTHsIIIAAAr4JEGD5Rs1GCCCAAAIIeAsQYHkbsQKBMAkQYIVpWtSKAAIIIBBkAQKsIE+H2hBAAAEErBMgwLJu5DRsuAABluEDpj0EEEAAAd8ECLB8o2YjBBBAAAEEvAUIsLyNWIFAmAQIsMI0LWpFAAEEEAiyAAFWkKdDbQgggAAC1gkQYFk3cho2XIAAy/AB0x4CCCCAgG8CBFi+UbMRAggggAAC3gIEWN5GrEAgTAIEWGGaFrUigAACCARZgAAryNOhNgQQQAAB6wQIsKwbOQ0bLkCAZfiAaQ8BBBBAwDcBAizfqNkIAQQQQAABbwECLG8jViAQJgECrDBNi1oRQAABBIIsQIAV5OlQGwIIIICAdQIEWNaNnIYNFyDAMnzAtIcAAggg4JsAAZZv1GyEAAIIIICAtwABlrcRKxAIkwABVpimRa0IIIAAAkEWIMAK8nSoDQEEEEDAOgECLOtGTsOGCxBgGT5g2kMAAQQQ8E2AAMs3ajZCAAEEEEDAW4AAy9uIFQiESYAAK0zTolYEEEAAgSALEGAFeTrUhgACCCBgnQABlnUjp2HDBQiwDB8w7SGAAAII+CZAgOUbNRshgAACCCDgLUCA5W3ECgTCJECAFaZpUSsCCCCAQJAFCLCCPB1qQwABBBCwToAAy7qR07DhAgRYhg+Y9hBAAAEEfBMgwPKNmo0QQAABBBDwFiDA8jZiBQJhEiDACtO0qBUBBBBAIMgCBFhBng61IYAAAghYJ0CAZd3IadhwAQIswwdMewgggAACvgkQYPlGzUYIIIAAAgh4CxBgeRuxAoEwCRBghWla1IoAAgggEGQBAqwgT4faEEAAAQSsEyDAsm7kNGy4AAGW4QOmPQQQQAAB3wQIsHyjZiMEEEAAAQS8BQiwvI1YgUCYBAiwwjQtakUAAQQQCLIAAVaQp0NtCCCAAALWCRBgWTdyGjZcgADL8AHTHgIIIICAbwIEWL5RsxECCCCAAALeAgRY3kasQCBMAgRYYZoWtSKAAAIIBFmAACvI06E2BBBAAAHrBAiwrBs5DRsuQIBl+IBpDwEEEEDANwECLN+o2QgBBBBAAAFvAQIsbyNWIBAmAQKsME2LWhFAAAEEgixAgBXk6VAbAggggIB1AgRY1o2chg0XIMAyfMC0hwACCCDgmwABlm/UbIQAAggggIC3AAGWtxErEAiTAAFWmKZFrQgggAACQRYgwArydKgNAQQQQMA6AQIs60ZOw4YLEGAZPmDaQwABBBDwTYAAyzdqNkIAAQQQQMBbgADL24gVCIRJgAArTNOiVgQQQACBIAsQYAV5OtSGAAIIIGCdAAGWdSOnYcMFCLAMHzDtIYAAAgj4JkCA5Rs1GyGAAAIIIOAtQIDlbcQKBMIkQIAVpmlRKwIIIIBAkAUIsII8HWpDAAEEELBOgADLupHTsOECBFiGD5j2EEAAAQR8EyDA8o2ajRBAAAEEEPAWIMDyNmIFAmESIMAK07SoFQEEEEAgyAIEWEGeDrUhgAACCFgnQIBl3chp2HABAizDB0x7CCCAAAK+CRBg+UbNRggggAACCHgLEGB5G7ECgTAJEGCFaVrUigACCCAQZAECrCBPh9oQQAABBKwTIMCybuQ0bLgAAZbhA6Y9BBBAAAHfBAiwfKNmIwQQQAABBLwFCLC8jViBQJgECLDCNC1qRQABBBAIsgABVpCnQ20IIIAAAtYJEGBZN3IaNlyAAMvwAdMeAggggIBvAgRYvlGzEQIIIIAAAt4CBFjeRqxAIEwCBFhhmha1IoAAAggEWYAAK8jToTYEEEAAAesECLCsGzkNGy5AgGX4gGkPAQQQQMA3AQIs36jZCAEEEEAAAW8BAixvI1YgECYBAqwwTYtaEUAAAQSCLECAFeTpUBsCCCCAgHUCBFjWjZyGDRcgwDJ8wLSHAAIIIOCbAAGWb9RshAACCCCAgLcAAZa3ESsQCJMAAVaYpkWtCCCAAAJBFiDACvJ0qA0BBBBAwDoBAizrRk7DhgsQYBk+YNpDAAEEEPBNgADLN2o2QgABBBBAwFuAAMvbiBUIhEmAACtM06JWBBBAAIEgCxBgBXk61IYAAgggYJ0AAZZ1I6dhwwUIsAwfMO0hgAACCPgmQIDlGzUbIYAAAggg4C1AgOVtxAoEwiRAgBWmaVErAggggECQBQiwgjwdakMAAQQQsE6AAMu6kdOw4QIEWIYPmPYQQAABBHwTIMDyjZqNEEAAAQQQ8BYgwPI2YgUCYRIgwArTtKgVAQQQQCDIAgRYQZ4OtSGAAAIIWCdAgGXdyGnYcAECLMMHTHsIIIAAAr4JEGD5Rs1GCCCAAAIIeAsQYHkbsQKBMAkQYIVpWtSKAAIIIBBkAQKsIE+H2hBAAAEErBMgwLJu5DRsuAABluEDpj0EEEAAAd8ECLB8o2YjBBBAAAEEvAUIsLyNWIFAmAQIsMI0LWpFAAEEEAiyAAFWkKdDbQgggAAC1gkQYFk3cho2XIAAy/AB0x4CCCCAgG8CBFi+UbMRAggggAAC3gIEWN5GrEAgTAIEWGGaFrUigAACCARZgAAryNOhNgQQQAAB6wQIsKwbOQ0bLkCAZfiAaQ8BBBBAwDcBAizfqNkIAQQQQAABbwECLG8jViAQJgECrDBNi1oRQAABBIIsQIAV5OlQGwIIIICAdQIEWNaNnIYNFyDAMnzAtIcAAggg4JsAAZZv1GyEAAIIIICAtwABlrcRKxAIkwABVpimRa0IIIAAAkEWIMAK8nSoDQEEEEDAOgECLOtGTsOGCxBgGT5g2kMAAQQQ8E2AAMs3ajZCAAEEEEDAW4AAy9uIFQiESYAAK0zTolYEEEAAgSALEGAFeTrUhgACCCBgnQABlnUjp2HDBQiwDB8w7SGAAAII+CZAgOUbNRshgAACCCDgLUCA5W3ECgTCJECAFaZpUSsCCCCAQJAFCLCCPB1qQwABBBCwToAAy7qR07DhAgRYhg+Y9hBAAAEEfBMgwPKNmo0QQAABBBDwFiDA8jZiBQJhEiDACtO0qBUBBBBAIMgCBFhBng61IYAAAghYJ0CAZd3IadhwAQIswwdMewgggAACvgkQYPlGzUYIIIAAAgh4CxBgeRuxAoEwCRBghWla1IoAAgggEGQBAqwgT4faEEAAAQSsEyDAsm7kNGy4AAGW4QOmPQQQQAAB3wQIsHyjZiMEEEAAAQS8BQiwvI1YgUCYBAiwwjQtakUAAQQQCLIAAVaQp0NtCCCAAALWCRBgWTdyGjZcgADL8AHTHgIIIICAbwIEWL5RsxECCCCAAALeAgRY3kasQCBMAgRYYZoWtSKAAAIIBFmAACvI06E2BBBAAAHrBAiwrBs5DRsuQIBl+IBpDwEEEEDANwECLN+o2QgBBBBAAAFvAQIsbyNWIBAmAQKsME2LWhFAAAEEgixAgBXk6VAbAggggIB1AgRY1o2chg0XIMAyfMC0hwACCCDgmwABlm/UbIQAAggggIC3AAGWtxErEAiTAAFWmKZFrQgggAACQRYgwArydKgNAQQQQMA6AQIs60ZOw4YLEGAZPmDaQwABBBDwTYAAyzdqNkIAAQQQQMBbgADL24gVCIRJgAArTNOiVgQQQACBIAsQYAV5OtSGAAIIIGCdAAGWdSOnYcMFCLAMHzDtIYAAAgj4JkCA5Rs1GyGAAAIIIOAtQIDlbcQKBMIkQIAVpmlRKwIIIIBAkAUIsII8HWpDAAEEELBOgADLupHTsOECBFiGD5j2EEAAAQR8EyDA8o2ajRBAAAEEEPAWIMDyNmIFAmESIMAK07SoFQEEEEAgyAIEWEGeDrUhgAACCFgnQIBl3chp2HABAizDB0x7CCCAAAK+CRBg+UbNRggggAACCHgLEGB5G7ECgTAJEGCFaVrUigACCCAQZAECrCBPh9oQQAABBKwTIMCybuQ0bLgAAZbhA6Y9BBBAAAHfBAiwfKNmIwQQQAABBLwFCLC8jViBQJgECLDCNC1qRQABBBAIsgABVpCnQ20IIIAAAtYJEGBZN3IaNlyAAMvwAdMeAggggIBvAgRYvlGzEQIIIIAAAt4CBFjeRqxAIEwCBFhhmha1IoAAAggEWYAAK8jToTYEEEAAAesECLCsGzkNGy5AgGX4gGkPAQQQQMA3AQIs36jZCAEEEEAAAW8BAixvI1YgECYBAqwwTYtaEUAAAQSCLECAFeTpUBsCCCCAgHUCBFjWjZyGDRcgwDJ8wLSHAAIIIOCbAAGWb9RshAACCCCAgLcAAZa3ESsQCJMAAVaYpkWtCCCAAAJBFiDACvJ0qA0BBBBAwDoBAizrRk7DhgsQYBk+YNpDAAEEEPBNgADLN2o2QgABBBBAwFuAAMvbiBUIhEmAACtM06JWBBBAAIEgCxBgBXk61IYAAgggYJ0AAZZ1I6dhwwUIsAwfMO0hgAACCPgmQIDlGzUbIYAAAggg4C1AgOVtxAoEwiRAgBWmaVErAggggECQBQiwgjwdakMAAQQQsE6AAMu6kdOw4QIEWIYPmPYQQAABBHwTIMDyjZqNEEAAAQQQ8BYgwPI2YgUCYRIgwArTtKgVAQQQQCDIAgRYQZ4OtSGAAAIIWCdAgGXdyGnYcAECLMMHTHsIIIAAAr4JEGD5Rs1GCCCAAAIIeAsQYHkbsQKBMAkQYIVpWtSKAAIIIBBkAQKsIE+H2hBAAAEErBMgwLJu5DRsuAABluEDpj0EEEAAAd8ECLB8o2YjBBBAAAEEvAUIsLyNWIFAmAQIsMI0LWpFAAEEEAiyAAFWkKdDbQgggAAC1gkQYFk3cho2XIAAy/AB0x4CCCCAgG8CBFi+UbMRAggggAAC3gIEWN5GrEAgTAIEWGGaFrUigAACCARZgAAryNOhNgQQQAAB6wQIsKwbOQ0bLkCAZfiAaQ8BBBBAwDcBAizfqNkIAQQQQAABbwECLG8jViAQJgECrDBNi1oRQAABBIIsQIAV5OlQGwIIIICAdQIEWNaNnIYNFyDAMnzAtIcAAggg4JsAAZZv1GyEAAIIIICAtwABlrcRKxAIkwABVpimRa0IIIAAAkEWIMAK8nSoDQEEEEDAOgECLOtGTsOGCxBgGT5g2kMAAQQQ8E2AAMs3ajZCAAEEEEDAW4AAy9uIFQiESYAAK0zTolYEEEAAgSALEGAFeTrUhgACCCBgnQABlnUjp2HDBQiwDB8w7SGAAAII+CZAgOUbNRshgAACCCDgLUCA5W3ECgTCJECAFaZpUSsCCCCAQJAFCLCCPB1qQwABBBCwToAAy7qR07DhAgRYhg+Y9hBAAAEEfBMgwPKNmo0QQAABBBDwFiDA8jZiBQJhEiDACtO0qBUBBBBAIMgCBFhBng61IYAAAghYJ0CAZd3IadhwAQIswwdMewgggAACvgkQYPlGzUYIIIAAAgh4CxBgeRuxAoEwCRBghWla1IoAAgggEGQBAqwgT4faEEAAAQSsEyDAsm7kNGy4AAGW4QOmPQQQQAAB3wQIsHyjZiMEEEAAAQS8BQiwvI1YgUCYBAiwwjQtakUAAQQQCLIAAVaQp0NtCCCAAALWCRBgWTdyGjZcgADL8AHTHgIIIICAbwIEWL5RsxECCCCAAALeAgRY3kasQCBMAgRYYZoWtSKAAAIIBFmAACvI06E2BBBAAAHrBAiwrBs5DRsuQIBl+IBpDwEEEEDANwECLN+o2QgBBBBAAAFvAQIsbyNWIBAmAQKsME2LWhFAAAEEgixAgBXk6VAbAggggIB1AgRY1o2chg0XIMAyfMC0hwACCCDgmwABlm/UbIQAAggggIC3AAGWtxErEAiTAAFWmKZFrQgggAACQRYgwArydKgNAQQQQMA6AQIs60ZOw4YLEGAZPmDaQwABBBDwTYAAyzdqNkIAAQQQQMBbgADL24gVCIRJgAArTNOiVgQQQACBIAsQYAV5OtSGAAIIIGCdAAGWdSOnYcMFCLAMHzDtIYAAAgj4JkCA5Rs1GyGAAAIIIOAtQIDlbcQKBMIkQIAVpmlRKwIIIIBAkAUIsII8HWpDAAEEELBOgADLupHTsOECBFiGD5j2EEAAAQR8EyDA8o2ajRBAAAEEEPAWIMDyNmIFAmESIMAK07SoFQEEEEAgyAIEWEGeDrUhgAACCFgnQIBl3chp2HABAizDB0x7CCCAAAK+CRBg+UbNRggggAACCHgLEGB5G7ECgTAJEGCFaVrUigACCCAQZAECrCBPh9oQQAABBKwTIMCybuQ0bLgAAZbhA6Y9BBBAAAHfBAiwfKNmIwQQQAABBLwFCLC8jViBQJgECLDCNC1qRQABBBAIsgABVpCnQ20IIIAAAtYJEGBZN3IaNlyAAMvwAdMeAggggIBvAgRYvlGzEQIIIIAAAt4CBFjeRqxAIEwCBFhhmha1IoAAAggEWYAAK8jToTYEEEAAAesECLCsGzkNGy5AgGX4gGkPAQQQQMA3AQIs36jZCAEEEEAAAW8BAixvI1YgECYBAqwwTYtaEUAAAQSCLECAFeTpUBsCCCCAgHUCBFjWjZyGDRcgwDJ8wLSHAAIIIOCbAAGWb9RshAACCCCAgLcAAZa3ESsQCJMAAVaYpkWtCCCAAAJBFiDACvJ0qA0BBBBAwDoBAizrRk7DhgsQYBk+YNpDAAEEEPBNgADLN2o2QgABBBBAwFuAAMvbiBUIhEmAACtM06JWBBBAAIEgCxBgBXk61IYAAgggYJ0AAZZ1I6dhwwUIsAwfMO0hgAACCPgmQIDlGzUbIYAAAggg4C1AgOVtxAoEwiRAgBWmaVErAggggECQBQiwgjwdakMAAQQQsE6AAMu6kdOw4QIEWIYPmPYQQAABBHwTIMDyjZqNEEAAAQQQ8BYgwPI2YgUCYRIgwArTtKgVAQQQQCDIAgRYQZ4OtSGAAAIIWCdAgGXdyGnYcAECLMMHTHsIIIAAAr4JEGD5Rs1GCCCAAAIIeAsQYHkbsQKBMAkQYIVpWtSKAAIIIBBkAQKsIE+H2hBAAAEErBMgwLJu5DRsuAABluEDpj0EEEAAAd8ECLB8o2YjBBBAAAEEvAUIsLyNWIFAmAQIsMI0LWpFAAEEEAiyAAFWkKdDbQgggAAC1gkQYFk3cho2XIAAy/AB0x4CCCCAgG8CBFi+UbMRAggggAAC3gIEWN5GrEAgTAIEWGGaFrUigAACCARZgAAryNOhNgQQQAAB6wQIsKwbOQ0bLkCAZfiAaQ8BBBBAwDcBAizfqNkIAQQQQAABbwECLG8jViAQJgECrDBNi1oRQAABBIIsQIAV5OlQGwIIIICAdQIEWNaNnIYNFyDAMnzAtIcAAggg4JsAAZZv1GyEAAIIIICAtwABlrcRKxAIkwABVpimRa0IIIAAAkEWIMAK8nSoDQEEEEDAOgECLOtGTsOGCxBgGT5g2kMAAQQQ8E2AAMs3ajZCAAEEEEDAW4AAy9uIFQiESYAAK0zTolYEEEAAgSALEGAFeTrUhgACCCBgnQABlnUjp2HDBQiwDB8w7SGAAAII+CZAgOUbNRshgAACCCDgLUCA5W3ECgTCJECAFaZpUSsCCCCAQJAFCLCCPB1qQwABBBCwToAAy7qR07DhAgRYhg+Y9hBAAAEEfBMgwPKNmo0QQAABBBDwFiDA8jZiBQJhEiDACtO0qBUBBBBAIMgCBFhBng61IYAAAghYJ0CAZd3IadhwAQIswwdMewgggAACvgkQYPlGzUYIIIAAAgh4CxBgeRuxAoEwCRBghWla1IoAAgggEGQBAqwgT4faEEAAAQSsEyDAsm7kNGy4AAGW4QOmPQQQQAAB3wQIsHyjZiMEEEAAAQS8BQiwvI1YgUCYBAiwwjQtakUAAQQQCLIAAVaQp0NtCCCAAALWCRBgWTdyGjZcgADL8AHTHgIIIICAbwIEWL5RsxECCCCAAALeAgRY3kasQCBMAgRYYZoWtSKAAAIIBFmAACvI06E2BBBAAAHrBAiwrBs5DRsuQIBl+IBpDwEEEEDANwECLN+o2QgBBBBAAAFvAQIsbyNWIBAmAQKsME2LWhFAAAEEgixAgBXk6VAbAggggIB1AgRY1o2chg0XIMAyfMC0hwACCCDgmwABlm/UbIQAAggggIC3AAGWtxErEAiTAAFWmKZFrQgggAACQRYgwArydKgNAQQQQMA6AQIs60ZOw4YLEGAZPmDaQwABBBDwTYAAyzdqNkIAAQQQQMBbgADL24gVCIRJgAArTNOiVgQQQACBIAsQYAV5OtSGAAIIIGCdAAGWdSOnYcMFCLAMHzDtIYAAAgj4JkCA5Rs1GyGAAAIIIOAtQIDlbcQKBMIkQIAVpmlRKwIIIIBAkAUIsII8HWpDAAEEELBOgADLupHTsOECBFiGD5j2EEAAAQR8EyDA8o2ajRBAAAEEEPAWIMDyNmIFAmESIMAK07SoFQEEEEAgyAIEWEGeDrUhgAACCFgnQIBl3chp2HABAizDB0x7CCCAAAK+CRBg+UbNRggggAACCHgLEGB5G7ECgTAJEGCFaVrUigACCCAQZAECrCBPh9oQQAABBKwTIMCybuQ0bLgAAZbhA6Y9BBBAAAHfBAiwfKNmIwQQQAABBLwFCLC8jViBQJgECLDCNC1qRQABBBAIsgABVpCnQ20IIIAAAtYJEGBZN3IaNlyAAMvwAdMeAggggIBvAgRYvlGzEQIIIIAAAt4CBFjeRqxAIEwCBFhhmha1IoAAAggEWYAAK8jToTYEEEAAAesECLCsGzkNGy5AgGX4gGkPAQQQQMA3AQIs36jZCAEEEEAAAW8BAixvI1YgECYBAqwwTYtaEUAAAQSCLECAFeTpUBsCCCCAgHUCBFjWjZyGDRcgwDJ8wLSHAAIIIOCbAAGWb9RshAACCCCAgLcAAZa3ESsQCJMAAVaYpkWtCCCAAAJBFiDACvJ0qA0BBBBAwDoBAizrRk7DhgsQYBk+YNpDAAEEEPBNgADLN2o2QgABBBBAwFuAAMvbiBUIhEmAACtM06JWBBBAAIEgCxBgBXk61IYAAgggYJ0AAZZ1I6dhwwUIsAwfMO0hgAACCPgmQIDlGzUbIYAAAggg4C1AgOVtxAoEwiRAgBWmaVErAggggECQBQiwgjwdakMAAQQQsE6AAMu6kdOw4QIEWIYPmPYQQAABBHwTIMDyjZqNEEAAAQQQ8BYgwPI2YgUCYRIgwArTtKgVAQQQQCDIAgRYQZ4OtSGAAAIIWCdAgGXdyGnYcAECLMMHTHsIIIAAAr4JEGD5Rs1GCCCAAAIIeAsQYHkbsQKBMAkQYIVpWtSKAAIIIBBkAQKsIE+H2hBAAAEErBMgwLJu5DRsuAABluEDpj0EEEAAAd8ECLB8o2YjBBBAAAEEvAUIsLyNWIFAmAQIsMI0LWpFAAEEEAiyAAFWkKdDbQgggAAC1gkQYFk3cho2XIAAy/AB0x4CCCCAgG8CBFi+UbMRAggggAAC3gIEWN5GrEAgTAIEWGGaFrUigAACCARZgAAryNOhNgQQQAAB6wQIsKwbOQ0bLkCAZfiAaQ8BBBBAwDcBAizfqNkIAQQQQAABbwECLG8jViAQJgECrDBNi1oRQAABBIIsQIAV5OlQGwIIIICAdQIEWNaNnIYNFyDAMnzAtIcAAggg4JsAAZZv1GyEAAIIIICAtwABlrcRKxAIkwABVpimRa0IIIAAAkEWIMAK8nSoDQEEEEDAOgECLOtGTsOGCxBgGT5g2kMAAQQQ8E2AAMs3ajZCAAEEEEDAW4AAy9uIFQiESYAAK0zTolYEEEAAgSALEGAFeTrUhgACCCBgnQABlnUjp2HDBQiwDB8w7SGAAAII+CZAgOUbNRshgAACCCDgLUCA5W3ECgTCJECAFaZpUSsCCCCAQJAFCLCCPB1qQwABBBCwToAAy7qR07DhAgRYhg+Y9hBAAAEEfBMgwPKNmo0QQAABBBDwFiDA8jZiBQJhEiDACtO0qBUBBBBAIMgCBFhBng61IYAAAghYJ0CAZd3IadhwAQIswwdMewgggAACvgkQYPlGzUYIIIAAAgh4CxBgeRuxAoEwCRBghWla1IoAAgggEGQBAqwgT4faEEAAAQSsEyDAsm7kNGy4AAGW4QOmPQQQQAAB3wQIsHyjZiMEEEAAAQS8BQiwvI1YgUCYBAiwwjQtakUAAQQQCLIAAVaQp0NtCCCAAALWCRBgWTdyGjZcgADL8AHTHgIIIICAbwIEWL5RsxECCCCAAALeAgRY3kasQCBMAgRYYZoWtSKAAAIIBFmAACvI06E2BBBAAAHrBAiwrBs5DRsuQIBl+IBpDwEEEEDANwECLN+o2QgBBBBAAAFvAQIsbyNWIBAmAQKsME2LWhFAAAEEgixAgBXk6VAbAggggIB1AgRY1o2chg0XIMAyfMC0hwACCCDgmwABlm/UbIQAAggggIC3AAGWtxErEAiTAAFWmKZFrQgggAACQRYgwArydKgNAQQQQMA6AQIs60ZOw4YLEGAZPmDaQwABBBDwTYAAyzdqNkIAAQQQQMBbgADL24gVCIRJgAArTNOiVgQQQACBIAsQYAV5OtSGAEL6krkAAAZnSURBVAIIIGCdAAGWdSOnYcMFCLAMHzDtIYAAAgj4JkCA5Rs1GyGAAAIIIOAtQIDlbcQKBMIkQIAVpmlRKwIIIIBAkAUIsII8HWpDAAEEELBOgADLupHTsOECBFiGD5j2EEAAAQR8EyDA8o2ajRBAAAEEEPAWcAKs0pJF6tq5k/Lz872/gRUIIBBogfKychUvXarCLt2UlJQU6FopDgEEEEAAgSALEGAFeTrUhgACCCBgnYAbYBXHA6wCAizrngA0bJyAE2AtXlqqwi5dlUyAZdx8aQgBBBBAwB+BqKSF8+eqqDBfRUVFv7hpJBqNOutX+1VcXKyS0gp179nLn+rZBQEEEEAAAQMFmpujKi1ZqK5dOALLwPHSkoUCzimEi5eUqVMRAZaF46dlBBBAAIG1JBBVJB5gdfz9AVZJyRItXFKqnr16K6JfzLrWUvk8DAIIIIAAAuYJNLVEVVZMgGXeZOnIVoHy8nItLFmqzl26KTmZUwhtfR7QNwIIIIDA7xNwAqz5c2erR1Ende7c+RcfzPMIrKqqKk2dMVN9+6/7+6riuxFAAAEEELBYoLGpWUsXzVef3r2Uk5NjsQStI2CGQHV1tWbPnafOXXsoJSXFjKboAgEEEEAAgT9BYNZP0zVoQD/l5ub+vgCrrq5O3/0wVT179+WX858wSLZEAAEEEDBDoKG+XiUL52nDDTfg96kZI6ULywWampr03Xffq0v3XkpLT7dcg/YRQAABBBD4bQLO79P5c2dpw/UGKiMj8/cFWM1NTZrx009KzcxRh45cdPa3jYTvQgABBBCwXWDJkmKlqkX9+/e3nYL+ETBG4KefflKjUjxPeTCmYRpBAAEEEEDgdwk4p9y3tD5CNCItKy9XQ12NBvTvq5Tk1N8XYDnfvdi5kPvScnXr0VNJSRFJzn/4QgABBBBAAIE1EWhsbNLU777S1lttqXT3SA3nmpL8Ll0TO9YgEGSB+vp6Tf74E6230cZKTVnxott5QR7h0rFBHh21IYAAAggEQKCppUXFC+apqFOB5wXcnXI9r4HlLHIO6Zo+fYaSUlJVWNSNl9wBGDQlIIAAAggEX8B5/9rY0KB5s2eqV49u6tatW/CLpkIEEPhVAgsXLtSCRYvUs/cApaWlxQPqX/UQLEYAAQQQQMAyAecWgVEtLVmsaGOD1l13wBpdYmONAixHsra2VtNm/CQlpai7eyQWd1ux7BlGuwgggAACqxVY9RFVznUkFy+cr075HdS7d2/8EEDAUIE5c2artLxSRd17KSMjw9AuaQsBBBBAAIHfJ5B4xdzSEtXCBXOV1NKiAQP6KTPzl699ldh1jQMs5xsaGxs1a/ZsLSktV+8+/ZSZlSXnEGnnTAhOhPh9g+S7EUAAAQTCL9D2d2J52VIVL1qofn16u4dE88FP+OdLBwisTqClRSouXqSZs+eoa9fu6ljYCSwEEEAAAQQQaE2eIlI0dm597fLlmjP7J3XuVKg+ffoo7VfcyfdXBVjOZtFoVGVlZZo6fZqUlKyOHQrcK8UnJ3NEFs9OBBBAAAF7BZzwqrGhSctrquSEVx3z8jRo0EBlZmbZi0LnCFgm4JyxMHXqVC1btkwdCjorOztbqakpXPPOsucB7SKAAAIIrCzQ3NKsuto6VVaUSdEWDRq4rvLzCxSJ/LpDoX51gNW2jKqqKlVWVrpHZjnB1q/dnKEigAACCCBghED8is3O70HnEOj8/Pz4tXCM6I4mEEDAU8C5kkek9YyEhoYGlZeXu5fgcF4j84UAAggggICtAomsyLlOZF5ernJzcqVfGVwl7H5XgGXrAOgbAQQQQAABBBBAAAEEEEAAAQQQQMA/AQIs/6zZCQEEEEAAAQQQQAABBBBAAAEEEEDgNwgQYP0GNL4FAQQQQAABBBBAAAEEEEAAAQQQQMA/AQIs/6zZCQEEEEAAAQQQQAABBBBAAAEEEEDgNwgQYP0GNL4FAQQQQAABBBBAAAEEEEAAAQQQQMA/AQIs/6zZCQEEEEAAAQQQQAABBBBAAAEEEEDgNwgQYP0GNL4FAQQQQAABBBBAAAEEEEAAAQQQQMA/AQIs/6zZCQEEEEAAAQQQQAABBBBAAAEEEEDgNwgQYP0GNL4FAQQQQAABBBBAAAEEEEAAAQQQQMA/AQIs/6zZCQEEEEAAAQQQQAABBBBAAAEEEEDgNwj8P1pyvJHGJbHuAAAAAElFTkSuQmCC;" vertex="1" parent="1">
          <mxGeometry x="-180" y="54" width="520" height="293" as="geometry" />
        </mxCell>
        <mxCell id="dBRUW4xj8wiHjo1s9nPw-2" value="" style="shape=curlyBracket;whiteSpace=wrap;html=1;rounded=1;flipH=1;labelPosition=right;verticalLabelPosition=middle;align=left;verticalAlign=middle;" vertex="1" parent="1">
          <mxGeometry x="343" y="54" width="20" height="293" as="geometry" />
        </mxCell>
        <mxCell id="dBRUW4xj8wiHjo1s9nPw-4" value="" style="shape=curlyBracket;whiteSpace=wrap;html=1;rounded=1;flipH=1;labelPosition=right;verticalLabelPosition=middle;align=left;verticalAlign=middle;" vertex="1" parent="1">
          <mxGeometry x="363" y="54" width="20" height="54" as="geometry" />
        </mxCell>
        <mxCell id="dBRUW4xj8wiHjo1s9nPw-5" value="" style="shape=curlyBracket;whiteSpace=wrap;html=1;rounded=1;flipH=1;labelPosition=right;verticalLabelPosition=middle;align=left;verticalAlign=middle;" vertex="1" parent="1">
          <mxGeometry x="389" y="54" width="20" height="26" as="geometry" />
        </mxCell>
        <mxCell id="dBRUW4xj8wiHjo1s9nPw-6" value="" style="shape=curlyBracket;whiteSpace=wrap;html=1;rounded=1;flipH=1;labelPosition=right;verticalLabelPosition=middle;align=left;verticalAlign=middle;" vertex="1" parent="1">
          <mxGeometry x="389" y="80" width="20" height="10" as="geometry" />
        </mxCell>
        <mxCell id="dBRUW4xj8wiHjo1s9nPw-7" value="" style="shape=curlyBracket;whiteSpace=wrap;html=1;rounded=1;flipH=1;labelPosition=right;verticalLabelPosition=middle;align=left;verticalAlign=middle;" vertex="1" parent="1">
          <mxGeometry x="389" y="90" width="20" height="12" as="geometry" />
        </mxCell>
        <mxCell id="dBRUW4xj8wiHjo1s9nPw-8" value="" style="shape=curlyBracket;whiteSpace=wrap;html=1;rounded=1;flipH=1;labelPosition=right;verticalLabelPosition=middle;align=left;verticalAlign=middle;" vertex="1" parent="1">
          <mxGeometry x="363" y="108" width="20" height="237" as="geometry" />
        </mxCell>
        <mxCell id="dBRUW4xj8wiHjo1s9nPw-9" value="" style="shape=curlyBracket;whiteSpace=wrap;html=1;rounded=1;flipH=1;labelPosition=right;verticalLabelPosition=middle;align=left;verticalAlign=middle;" vertex="1" parent="1">
          <mxGeometry x="363" y="345" width="20" height="54" as="geometry" />
        </mxCell>
        <mxCell id="dBRUW4xj8wiHjo1s9nPw-10" value="" style="shape=curlyBracket;whiteSpace=wrap;html=1;rounded=1;flipH=1;labelPosition=right;verticalLabelPosition=middle;align=left;verticalAlign=middle;" vertex="1" parent="1">
          <mxGeometry x="383" y="132" width="20" height="62" as="geometry" />
        </mxCell>
        <mxCell id="dBRUW4xj8wiHjo1s9nPw-12" value="" style="shape=crossbar;whiteSpace=wrap;html=1;rounded=1;fillColor=#008a00;strokeColor=#005700;fontColor=#ffffff;" vertex="1" parent="1">
          <mxGeometry x="-216" y="71" width="625" height="20" as="geometry" />
        </mxCell>
        <mxCell id="dBRUW4xj8wiHjo1s9nPw-13" value="" style="shape=crossbar;whiteSpace=wrap;html=1;rounded=1;fillColor=#008a00;strokeColor=#005700;fontColor=#ffffff;" vertex="1" parent="1">
          <mxGeometry x="-216" y="80" width="625" height="20" as="geometry" />
        </mxCell>
        <mxCell id="dBRUW4xj8wiHjo1s9nPw-14" value="" style="shape=crossbar;whiteSpace=wrap;html=1;rounded=1;fillColor=#008a00;strokeColor=#005700;fontColor=#ffffff;" vertex="1" parent="1">
          <mxGeometry x="-216" y="93" width="625" height="20" as="geometry" />
        </mxCell>
        <mxCell id="dBRUW4xj8wiHjo1s9nPw-15" value="" style="shape=crossbar;whiteSpace=wrap;html=1;rounded=1;fillColor=#008a00;strokeColor=#005700;fontColor=#ffffff;" vertex="1" parent="1">
          <mxGeometry x="-216" y="122" width="625" height="20" as="geometry" />
        </mxCell>
        <mxCell id="dBRUW4xj8wiHjo1s9nPw-16" value="" style="shape=crossbar;whiteSpace=wrap;html=1;rounded=1;fillColor=#008a00;strokeColor=#005700;fontColor=#ffffff;" vertex="1" parent="1">
          <mxGeometry x="-216" y="138" width="625" height="20" as="geometry" />
        </mxCell>
        <mxCell id="dBRUW4xj8wiHjo1s9nPw-17" value="" style="shape=crossbar;whiteSpace=wrap;html=1;rounded=1;fillColor=#008a00;strokeColor=#005700;fontColor=#ffffff;" vertex="1" parent="1">
          <mxGeometry x="-216" y="184" width="625" height="20" as="geometry" />
        </mxCell>
        <mxCell id="dBRUW4xj8wiHjo1s9nPw-19" value="" style="shape=crossbar;whiteSpace=wrap;html=1;rounded=1;fillColor=#008a00;strokeColor=#005700;fontColor=#ffffff;" vertex="1" parent="1">
          <mxGeometry x="-216" y="199" width="625" height="20" as="geometry" />
        </mxCell>
        <mxCell id="dBRUW4xj8wiHjo1s9nPw-20" value="" style="shape=crossbar;whiteSpace=wrap;html=1;rounded=1;fillColor=#008a00;strokeColor=#005700;fontColor=#ffffff;" vertex="1" parent="1">
          <mxGeometry x="-216" y="333" width="625" height="20" as="geometry" />
        </mxCell>
        <mxCell id="dBRUW4xj8wiHjo1s9nPw-21" value="" style="shape=crossbar;whiteSpace=wrap;html=1;rounded=1;direction=south;fillColor=#fa6800;fontColor=#000000;strokeColor=#C73500;" vertex="1" parent="1">
          <mxGeometry x="18" y="209" width="20" height="134" as="geometry" />
        </mxCell>
        <mxCell id="dBRUW4xj8wiHjo1s9nPw-22" value="" style="shape=crossbar;whiteSpace=wrap;html=1;rounded=1;direction=south;fillColor=#fa6800;fontColor=#000000;strokeColor=#C73500;" vertex="1" parent="1">
          <mxGeometry x="-187" y="209" width="20" height="135" as="geometry" />
        </mxCell>
        <mxCell id="dBRUW4xj8wiHjo1s9nPw-23" value="" style="shape=crossbar;whiteSpace=wrap;html=1;rounded=1;direction=south;fillColor=#fa6800;fontColor=#000000;strokeColor=#C73500;" vertex="1" parent="1">
          <mxGeometry x="123" y="209" width="20" height="134" as="geometry" />
        </mxCell>
        <mxCell id="dBRUW4xj8wiHjo1s9nPw-24" value="" style="shape=crossbar;whiteSpace=wrap;html=1;rounded=1;direction=south;fillColor=#fa6800;fontColor=#000000;strokeColor=#C73500;" vertex="1" parent="1">
          <mxGeometry x="-187" y="132" width="20" height="16" as="geometry" />
        </mxCell>
        <mxCell id="dBRUW4xj8wiHjo1s9nPw-26" value="" style="shape=crossbar;whiteSpace=wrap;html=1;rounded=1;direction=south;fillColor=#fa6800;fontColor=#000000;strokeColor=#C73500;" vertex="1" parent="1">
          <mxGeometry x="18" y="194" width="20" height="15" as="geometry" />
        </mxCell>
        <mxCell id="dBRUW4xj8wiHjo1s9nPw-27" value="" style="shape=crossbar;whiteSpace=wrap;html=1;rounded=1;direction=south;fillColor=#fa6800;fontColor=#000000;strokeColor=#C73500;" vertex="1" parent="1">
          <mxGeometry x="-187" y="194" width="20" height="15" as="geometry" />
        </mxCell>
        <mxCell id="dBRUW4xj8wiHjo1s9nPw-28" value="" style="shape=crossbar;whiteSpace=wrap;html=1;rounded=1;direction=south;fillColor=#fa6800;fontColor=#000000;strokeColor=#C73500;" vertex="1" parent="1">
          <mxGeometry x="123" y="194" width="20" height="15" as="geometry" />
        </mxCell>
        <mxCell id="dBRUW4xj8wiHjo1s9nPw-29" value="" style="shape=crossbar;whiteSpace=wrap;html=1;rounded=1;direction=south;fillColor=#fa6800;fontColor=#000000;strokeColor=#C73500;" vertex="1" parent="1">
          <mxGeometry x="330" y="42" width="20" height="326" as="geometry" />
        </mxCell>
        <mxCell id="dBRUW4xj8wiHjo1s9nPw-30" value="" style="shape=crossbar;whiteSpace=wrap;html=1;rounded=1;direction=south;fillColor=#fa6800;fontColor=#000000;strokeColor=#C73500;" vertex="1" parent="1">
          <mxGeometry x="-131" y="132" width="20" height="16" as="geometry" />
        </mxCell>
        <mxCell id="dBRUW4xj8wiHjo1s9nPw-32" value="" style="shape=crossbar;whiteSpace=wrap;html=1;rounded=1;direction=south;fillColor=#fa6800;fontColor=#000000;strokeColor=#C73500;" vertex="1" parent="1">
          <mxGeometry x="-183" y="90" width="20" height="13" as="geometry" />
        </mxCell>
        <mxCell id="dBRUW4xj8wiHjo1s9nPw-33" value="" style="shape=crossbar;whiteSpace=wrap;html=1;rounded=1;direction=south;fillColor=#fa6800;fontColor=#000000;strokeColor=#C73500;" vertex="1" parent="1">
          <mxGeometry x="323" y="89" width="20" height="13" as="geometry" />
        </mxCell>
        <mxCell id="dBRUW4xj8wiHjo1s9nPw-34" value="" style="shape=crossbar;whiteSpace=wrap;html=1;rounded=1;direction=south;fillColor=#fa6800;fontColor=#000000;strokeColor=#C73500;" vertex="1" parent="1">
          <mxGeometry x="-183" y="80" width="20" height="10" as="geometry" />
        </mxCell>
        <mxCell id="dBRUW4xj8wiHjo1s9nPw-35" value="" style="shape=crossbar;whiteSpace=wrap;html=1;rounded=1;direction=south;fillColor=#fa6800;fontColor=#000000;strokeColor=#C73500;" vertex="1" parent="1">
          <mxGeometry x="323" y="81" width="20" height="10" as="geometry" />
        </mxCell>
        <mxCell id="D3vF-VsckfaG1XO3PLGg-2" value="" style="rounded=0;whiteSpace=wrap;html=1;fillColor=none;strokeColor=#0066CC;" vertex="1" parent="1">
          <mxGeometry x="38" y="90" width="11" height="13" as="geometry" />
        </mxCell>
        <mxCell id="D3vF-VsckfaG1XO3PLGg-3" value="" style="rounded=0;whiteSpace=wrap;html=1;fillColor=none;strokeColor=#0066CC;" vertex="1" parent="1">
          <mxGeometry x="56" y="90" width="11" height="13" as="geometry" />
        </mxCell>
        <mxCell id="D3vF-VsckfaG1XO3PLGg-4" value="" style="rounded=0;whiteSpace=wrap;html=1;fillColor=none;strokeColor=#0066CC;" vertex="1" parent="1">
          <mxGeometry x="74.5" y="90" width="11" height="13" as="geometry" />
        </mxCell>
        <mxCell id="D3vF-VsckfaG1XO3PLGg-5" value="" style="rounded=0;whiteSpace=wrap;html=1;fillColor=none;strokeColor=#0066CC;" vertex="1" parent="1">
          <mxGeometry x="94" y="90" width="11" height="13" as="geometry" />
        </mxCell>
        <mxCell id="D3vF-VsckfaG1XO3PLGg-6" value="" style="rounded=0;whiteSpace=wrap;html=1;fillColor=none;strokeColor=#0066CC;" vertex="1" parent="1">
          <mxGeometry x="110" y="90" width="11" height="13" as="geometry" />
        </mxCell>
      </root>
    </mxGraphModel>
  </diagram>
  <diagram name="Copia de PÃ¡gina-1" id="VXNc1TRjdv6mfRgHbt-4">
    <mxGraphModel dx="974" dy="729" grid="0" gridSize="10" guides="1" tooltips="1" connect="1" arrows="1" fold="1" page="0" pageScale="1" pageWidth="827" pageHeight="1169" math="0" shadow="0">
      <root>
        <mxCell id="eR3O_3UB6di88ETe3x1X-0" />
        <mxCell id="eR3O_3UB6di88ETe3x1X-1" parent="eR3O_3UB6di88ETe3x1X-0" />
        <mxCell id="XNJbuU25YE3aVHzP_GjP-0" value="" style="shape=image;imageAspect=0;aspect=fixed;verticalLabelPosition=bottom;verticalAlign=top;image=data:image/png,iVBORw0KGgoAAAANSUhEUgAABLAAAAKjCAYAAAANs/bAAAAAAXNSR0IArs4c6QAAIABJREFUeF7snQV8leXbx39nBSNGd4coKCBgYAAqKoIJiggKgoIYGFhg/C2wUTFQsQtBFCREQlKQDgmlQ7oGg20MWJz3/d5nzzjgYMRKve7PyyvbnvPE93nO+e/+8ruu26fSN/llwwgYASNgBIyAETACRsAIGAEjYASMgBEwAkbACORCAqEhks8EVi68M3ZKRsAIGAEjYASMgBEwAkbACBgBI2AEjIARMAKOgAksexCMgBEwAkbACBgBI2AEjIARMAJGwAgYASNgBHI1ARNYufr22MkZASNgBIyAETACRsAIGAEjYASMgBEwAkbACJjAsmfACBgBI2AEjIARMAJGwAgYASNgBIyAETACRiBXEzCBlatvj52cETACRsAIGAEjYASMgBEwAkbACBgBI2AEjIAJLHsGjIARMAJGwAgYASNgBIyAETACRsAIGAEjYARyNQETWLn69tjJGQEjYASMgBEwAkbACBgBI2AEjIARMAJGwAiYwLJnwAgYASNgBIyAETACRsAIGAEjYASMgBEwAkYgVxMwgZWrb4+dnBEwAkbACBgBI2AEjIARMAJGwAgYASNgBIyACSx7BoyAETACRsAIGAEjYASMgBEwAkbACBgBI2AEcjUBE1i5+vbYyRkBI2AEjIARMAJGwAgYASNgBIyAETACRsAIpAqs1n5DYQSMgBEwAkbACBgBI2AEjIARMAJGwAgYASNgBHIjASew6l7ewwRWbrw7dk5GwAgYASNgBIyAETACRsAIGAEjYASMgBEwAvL5JN/CJStNYNnDYASMgBEwAkbACBgBI2AEjIARMAJGwAgYASOQawn4Uvx+E1i59vbYiRkBI2AEjIARMAJGwAgYASNgBIyAETACRsAI+Pz+FBNY9hwYASNgBIyAETACRsAIGAEjYASMgBEwAkbACORaAj7/iSSw/FJcfLziYuOUnJKcay/KTswIGAEjYASMgBEwAkbACBgBI2AEjIARMAJGIPcRCA0JVYGCBVQgf37Jd+zzC05cHbfASkpK0po1a5ScnKwCBQooNDQ091GwMzICRsAIGAEjYASMgBEwAkbACBgBI2AEjIARyLUE8EpxcXHOK1WtWlVhYWHHca5+HZfAQl4tXbpUhQsXVunSpd3OfbSAz5SBTzv6vo7900w5AduJETACRsAIGAEjYASMgBEwAkbACBgBI2AEjEA2EKAQEM+0detWxcTEqGbNmsclsTIUWOx448aNSkxMVOXKlRUSEpIdlxN0jMwSZdlw2nYII2AEjIARMAJGwAgYASNgBIyAETACRsAIGIEMCaSkpGjdunUKDw9X+fLlMwxKZSiwDh48qNWrV6tSpUrKly9fhieQ1RtYIiurCdv+jYARMAJGwAgYASNgBIyAETACRsAIGAEjkPUE4uPjtX79elWrVk0RERHHPGCGAoudYcRq1aqVoQ073kv7u4RKCXopiSufDt/GtNXxsrXtjIARMAJGwAgYASNgBIyAETACRsAIGAEj8E8gQNXfsmXLVKVKFeXNm/fUBNauXbvEn+rVq5/ytXvd431KcvvyK0x79+7Xlu0xik9IUHhYmIoXjVLJ4lEKC0Vq8YpQ+VN7ZFkx4SnfAtuBETACRsAIGAEjYASMgBEwAkbACBgBI2AEcg2BtWvXqmzZssqTJ8+pCawdO3YoNjbWdYY/lZHiT9G+uFhtjU7QxOl/atyE3zV97lJt3b47VVChp/yiN3xUgUjVPauqLru4tq654hxVKV9IUQULuKZe2LnMayB/KldkrzUCRsAIGAEjYASMgBEwAkbACBgBI2AEjIAROBUCf/31l8qUKXPqJYQ7d+7U3r17T15g+f3aHr1XU2b+qeFj5mvspPnauSvWLTwY4vOpYIFIFSyQV2HhYUpJTlFCwgHtid2ngweThc2KiAhVo/PO1A3NG6hZ4zo6rVqZY65aeCrQ7LVGwAgYASNgBIyAETACRsAIGAEjYASMgBEwAtlHIJcILL9+nf6H3v5snKbM+FPRu2MVGiLVqlFeF59fS/VqVVTJkoVVIF9eRYSHKikFgZWo6F2xWr56i2bMW+FSWvv3JysyMlx1z6yq9jc2VPvWl6pgfmojj+yVlX2AM+tIdN1fsWKFWzqyQYMGrvu+jeMjwOqYJUuWzNDSHt/ebCsjYASMgBEwAkbACBgBI2AEjIARMAJGILsJ5LjASk5KVp8PRujV93/Wnr175PdLF597hh7v1lIN61dS/nx5lCdPfoWEgMbrdxVo4J7i9ykp8aAS9u3TX5vj1PeTEfp+xEzt27dPefPl1w3NGui1p9qqbNkSJ6WwoqOjNW7cOFdf2apVq7/dmz179mjs2LGqU6eOzjjjjCy9d6zy+Oabb2rRokX64IMPVKhQoSw9XkY737Ztm0aNGqUrr7zSLWN55Jg/f75WrVrlfl64cOGMdpdlP+ccuHft27fXY489lmXHsR0bASNgBIyAETACRsAIGAEjYASMgBEwAllHIEcFVvTuvXr+je/1wdeT5U/er+pVKqrHvdfqthsvUngETdlDlJiUrJiYPVq9bqdmz1+lrTtinNSqXbOy6teuoOLFCilvnjzy+fxSSop+m7tSPXoP1LxFK7X/QJKuaFJXH7zcUdWqlDthin/++ac6deqkefPmacKECWrSpMlh+1i9erX7edeuXXXrrbee8P5P5AUIrJdfflkLFizQF198kaNSiPOeM2eObrnlFn3++edq3Ljx3y6lb9++GjJkiPt5ZjT2PxFWwdtu377dyavOnTurdevWJ7sbe50RMAJGwAgYASNgBIyAETACRsAIGAEjkIMEckxgxeyJ13N9BuvjARN1IClRLa9qqCe7Xat6tavI7wsRPmrbjmgNGTVbX/4wTXN/X6GUFGJYvsD/+fyqVL6Y2lx3kW6/6SLVrFHZfZ8G73v2xqnPB6P02aBJ2rx1ty46r6b6v9pJZ55RObBg4XEuU+gJLMr2ChYsqB9++EGVK1dOu10msHK/wDrae8ua/Ofgp44d2ggYASNgBIyAETACRsAIGAEjYASMwAkSyBmB5U/RUy8PUt9PxygpKVkPdrlKj9x1tUqVLJp2+jt2xuixXt9o6Og5io09oEJReXRu3eoqVbKw4hMOaPGfa7X6r50KDfWpfu1q6vP0LWp84Vmpdsqv/QcSNWDIr3r+zR+1YdN2Nbmojj59/U5Vq3L8zd09gXX33XfrmWeeUbt27fTss88qX7587jzTE1hbt27Vjz/+6Er9kCQ1a9ZUmzZtVLp0afcaShJnzpzpEkEDBgzQypUrFRkZqUsuuUTNmjXT7NmzNXr0aLGqY8WKFXXzzTe7fSQmJroE1sKFC9WzZ0+NGTNGGzZsUNGiRXX11VenpaDYP4mx7t27a+jQofr1119Vo0YNPfzww65/1s8//6zffvvN7a9evXpq2bJl2rmdyLNzogks+lANGjTI9fGin1eFChV06aWXumO//fbbLsF24YUXpp1CXFyc+/65556ryy+/3LH8/fffNX78eMedr2vXrq0bb7xR5cqVcwsIfPTRR65k8cCBA+5YrEJ5ww03aPDgwWrRooWuuuoqt/81a9Y4Gcl+6CUGBzgjKW0YASNgBIyAETACRsAIGAEjYASMgBEwArmPQI4IrG+HTlGnhz9TcmKCut1xlZ5/rLUKRQXLA79uvfdtDR45S8kpKbr9pgv11ENtVLxoPoWHhSglxa+9cQc1aNg0vdpvpHbsilH1KhU05OOHVKdWpVTKfiUmJuvzgeP1yAsDlXAgQZ3aXK43n2+vgvkjj+tOeALr9ddfd+KlV69e+uSTT3TFFVekK7DWrl2rhx56SIsXL3bCBIEyadIkJ0noF1W2bFknZRBRVatWVfHixXX66adr6tSp4rXnn3++k1JIm/z58+uXX35RsWLFXCleVFSUe93333+vhIQEV86I/Jk1a5aWLFmi9957z5XIsX9KDNu2basvv/xSdevWdfu76667nHz76aef3PnT14v+XWeddZbrqXWifapORGCVKlVKjRo1cqKO805OTnalkBybMsTrr7/e9fcKLsNkVUt6V3FN9957r2JjY91/+f55553n+pyNHDlSTZs2VZ8+fdzX7IvrRdLRkwy2/PyOO+7Qo48+6qQevPiae4MYQ5QhDM8++2x9/fXXTgjaMAJGwAgYASNgBIyAETACRsAIGAEjYARyF4HsE1ippXur1mxW0za9tWFztK5sUlf9X71TFSuUCqrq8+vr76eowwP9FRkZosfubaUn7r/G9bk6cpDC+X7EdHV7+mvt2hWtW29son4v36kCQYIK2fXwc1/p3U/HqEjhSH348p1qee2FCvX9vY7wyOpCT2C9+OKLOuecc1y/K8bHH3/s5FNwAgvRgkgZOHCghg8f7gQVA8DNmzd3KShSP/369dOTTz7p9vXOO+8oJCRE9LdC5pAi6t+/v6677jonWOi7xXZfffWVSychsDiX7777ziWnGLyWZBhN02fMmOGSR88995wTOGxHiovBvhBAyCqST+x/2rRpbv+9e/d2KbETGScisP744w8n0JB4cGRw70hikapC9mUksDhfxB0SDGa8/ttvv3VSbsqUKU4Ssp9NmzY5cUcSy+MPOwRWx44dXfKNBvTIOyQhAwGI6ILP//73P7d/G0bACBgBI2AEjIARMAJGwAgYASNgBIxA7iGQTQIroIYSEg7oyZcHqd8XY1S0cJS+fuceXXHJ2YfRoDfWpTc+p4VLN+j6Kxvo/Vc6qUyp4kcl5vcn6aW3R+jpVwepcoVS+uLtu9T4gtqHtbmKj4/T1R3e1JQZf+jyRmdq4PsPqXixqAzvgiewSF6RWiJNdc8994iSQtI8wQKL8jQkFgmjJ554QhEREWn7J8GFoEEikapCYCGAatWqlbYNcmX9+vUuPeVJp+XLlzvp0qVLF912221OYFGeSJlgyZIl016LwKFUjobp3FD2T/kgJYneQFTxM+SWVyq3a9cuJ4CqVavmpM+JjBMRWKScKHPkHEhZIfNCQ0Pd4Sh3PB6BxfZIKyQfKaz9+/c7AYd847+ILe7BxRdfrFdeeSWtzJNr9gTWBRdc4HgiGq+55prDLve+++5z9xOGZcpQZmrDCBgBI2AEjIARMAJGwAgYASNgBIyAEcgtBLJNYPnl09wFy3X7Q/21dOVGPdT5ar3+v3YKCw8PYuHXhKmL1brru0pMPKj3Xrxdt7e+NLXp+tE7ryO9al/6sLbs2Ks3n+ug+zpemSZIAjv367dZS3XDHW8oNi5BX77zgNpcf478CksVXel3dg8WWCR6KFNDIiF7SDchkbxVCC+77DKXbKI/1e233+4STt5AWpFwoucVpYgIJuQRZXzeQIpt2bLFCawiRYq4b69atSpN+lD2xrEpgWM/3jZsR6IICYUoI5HF/ll9z0sYsQ1ld5Qn0k+Lc/MSUHyPVBTX4w0EET2zvEH5IiWKweNEBFaVKlVcioxrS0pKUoMGDVzvKsoKKSU8HoEVHx+vTz/91Mkq9oGw4jw5D/qNeQKLpBd/vBRVsMCipBAZSF8weAUPUnX00EJgkYazYQSMgBEwAkbACBgBI2AEjIARMAJGwAjkHgLZJLCkxOREvfPxOPXo/ZUK5MujlTPeU4m/paD8+uCLMXq49yAVyR+uCUOeU83q5Y5j2cAktb2nnwYNm677OzfXq0+2VmRkoDyMVQf9PikhLl73P/OVPhs0UefVP0OzfnpOfoWmCSwE25GK7EiBxe5ork7vJBq5U4734IMPOmGCwCJ99fTTT6tDhw6H3WGSV6SzggUWPZ2CS9UQWIgoBIrXj+pUBNaR+0dSVa9e3SXBguUaJ0pajF5b3oiOjnYiztsOgUVqKXggjSh1RErRgP7I8dprr7leVFwPAou+Vwgn+n317dvXyTkkWePGjdPtgQVnemPRy4vSvkceecQl2Ei38RpKBhFR7CM4gXX//fenlXpyTsECi+QXJYSUWgavJsl2yLEPP/zQBFbu+WyyMzECRsAIGAEjYASMgBEwAkbACJwSAVt9/pTw5boXZ4PA8gs5FBOzx0mmsZN/V7fO1+rdF26RfMHpqwCb1/r9qP/1+VEli+TV3LF9VKpExqV+8ifroWe/0dsfj1Gntk30bq/2Ln10WK7KL/04aqY6PfyB9sTFa9HEt1T7jPLHlGPpCSzOEXFCDypWrlu6dKlL9dDniq8pYUOyBKer3njjDfGH0j8kDAmpkxVYlBCyAqG3qiHnw8p8CDKSYTSDT2//lCAiphBKwa892SeS5BYJKlJhNE8PlmLIKkoFSYMhhoLTYhyPDxHOERY0vacck/2QMvMG+0cI8jPKNhFsSL5XX33VbcI+KJPke3Pnzk1LYB1LYFFKSAkh+0C+BQ9eRzrus88+c6sa2jACRsAIGAEjYASMgBEwAkbACBiBfzYB5qa0n0lMTHQXEhYW5uaOXosaKn28n/Fz5rVskzdvXvdfbzD/ZA7P/vgZ+zjWoPUN2+IF2PbIEMnJUqUvNNfDONp5cFy2o3LJu+Yjrye943ONzOHZP/2qPQ6ER4IH+6c6jf9yXVwj+8+OkQ0CK3AZq9Zt1fnNeyouIVGThzyrCxpUl+Q1y0Y1ucdFH3411q0aWDBfuMZ//4zOOr3CcXBIVuvOffXDz7P1UJcWevmJ1sqTN19QoirFHWvZyvXq+FB/zVqwWs8+cqOe+/8/fD/9AkLpaAKLE6LZN+kjHnbkFAKJpuysGEj6CFnCA0CDcEoKSf/QdPz9998/JYFFfyeOQzIJSUfT8gceeEBr1qxxq+kNHjw43f3zM9Ji9HpCZrHaHg/1xo0bnRwKTmAdB3DXiwrpQ6niU089pTp16rgHF0lGyeRjjz2mF154QV27dnXb8oBTcskHBW8KZBsrOnI9pKLoT/Xuu+862bV7924nkhCBsEVSlS9f3pUdwrZAgQLueunnRdP6lStXHpfA4j4gxDZv3uya6ZNI4/5Rltm+fXt3Hog1rz/X8XCwbYyAETACRsAIGAEjYASMgBEwAkYgdxFArhA2oVqH6iHmrcgW5r0seEYYg57Ub7/9tqvQ8ZJayBrmpLTeIVDBPJfvMadlQbVly5bpoosu0uOPP37UC2a+yxyWuTG9oJmHBgdcToUUrXmGDRvmrgUHQZjEGxyXBdSmT5/uPARVTVwXc3+uFUdRt27ddGVTTEyMC+rQoofe0EgsOOAxYEBQB/8A04kTJ2rhwoXiNVxXpUqV3Da0CqJVT1YuipZNAitZQ0cv0I13vKpap5fXhO+fVekShdO5b35Nmr5EN3V5RwcOHtDbz3fQne0uD9QB/q3A79DLd++J0xkXP6jomDi93esO3d3+8r/1wOL1+xL2686H+2vQ8Blq0rCGJg994Zj7PpbAol8VDyKy5ptvvnGJI5qwI1V4g/DAc+PYR6lSpVzpHjefN8ipJLB4czEoYaTUkGOuW7fOleXRmPxo+8cscw70uuIB42FEYPFGfumll9wb+EQGbwT6VyHykGCUCVKKiHzigSfphODiODzgiCqSX5z3nj17tHjxYseMbSjF5Oe8KVjdkTca7CipZIVFSghppI8wpJcXTegRd7yBeOOQ5PJ6YB0rgYW84pwpR+QNedpppzmZxkqICDSOYemrE3kKbFsjYASMgBEwAkbACBgBI2AEjEDuI/D111+7uTHhhfr167v5KoO588yZM928nRADPa2ZrzLnZBw4cMDNbydPnqwKFSq4AAUtc5BRVPEw/2Q+iiBi7preoEKKCi3mx1QZUQHEPDgzBi6B9j7Ml/n7M88843bLvJbADNfMuXnpK++YhDTwEVQ3UUEWnJjienv06OHm1fgB5vreQJSxyNlvv/3mWgKxHW2BglNrbFuoUCH3M/78owVWQD0d0P9eHaHefYfopmsa6JM37lWhqNQeVUfcRVYqPL/Fk1qyYr2aN22gT1/votKlvP5MwSLL+7vfrUD44tvDVLVSKX35Vldd1PDMdHRX4Caw7ev9RqhsyUJaMPFNFY4i+pd+g3gECgkfVrejAXjw4KZiJyljw3xiG/keK+7xfW4q49xzz9X555+flnDCatIbipK54Bjh999/716LQfXiiDwgAwcOdPtmHzxQvAmwp7wpsL9IId4cSCkelKPtn3NB2rCyIW/QrVu3OrnUsGFDt++MIpDpvdmIFSKjKOHjQ4D9cx70A+PN7llmRBnniygiiYX1btq0qTPfHJcPCU9EsQ+ul/Ni1ceyZcs6w80+YIrAw4BjwznWTz/95NJofK9///5OxCG5vIFQI7HGhw6v4ZwxxeyLFRA5vmfWSXbZMAJGwAgYASNgBIyAETACRsAIGIF/LoGRI0e6sATChhAHqSPm0czXES/MBwmDMB9HYM2fP9/NrRneNkigm266Sc2aNXNSiDkrAov9sD3zeaqb0hu0GyIFRRqJuW12CKwpU6a4NkfMfxl4AhaZowyQFBqthhjMeQng0G+aQVlkq1atnCNgrkxIhPkx83AYEAAhXcV8nvAKi7uxHUKQOTaL0zG35ntUWR3Zqiezn6IsTWAdKgxM0m3dPtSAodP0UOdmeumJdoqMPLQC32EX5fdr0LBp6vDQR/IpWY/fe50evqu5ihQpFHiggjY+sH+/ho2eo65PfKH4+L3q1OZy9X2hg/LnS68eNfDKD78cr0df+EoFC+TTlKHPqEY1+h0dO+GV2dBtf0bACBgBI2AEjIARMAJGwAgYASNgBIxA5hIgBEJlD2KG9jqEIY42KAtEYCFpaFETPPgZaSWqixBiyC7kDNLmhx9+EAudIYaO7P1ECR9hDSqJZs+erXr16mW5wCJtRXkgQRpCLW3atNHHH3/sZBQDaffoo4+6dkZsi1jjPJFxLGRG+x8qtgjt0GoH8cV+kFIETQiTIAMRZFyz18qI1JW3fyQWVU0nE4w5kScgSwWWJ5wQUS1ufVWjJ/2uZ7rfqCcfbKU8EX9v4O6deMr/r1jX7enP9NnAKU4utbnuArW5vqFqVCmtqIL5dfBgov7atF1jJv+hzwZO1Oatu3Ve/Rr65PXOql2r8lGunz5YPn374zTd0+NjReTJozEDeqhBnWqp26efwjoRmLatETACRsAIGAEjYASMgBEwAkbACBgBI5AzBCijQzyRwELYHGscj8CiZQ8LqTEQWFQ/kdIilcWxSGileYz/TzC9/vrrrr3PqFGj3HlQHZTVCSwqnSiT5LyQUCweV7FixcMuneqya6+91kkuBttQLUYfaKrKqJ4iYUUJYHo9oSmhJJFGaSUpLlopnXPOOYc1us+OO55tAqtZm5c0bupiPf9oa/Xs1lIREYc6+qd3oTujd6tX36H6dOBkxe/br5LFC6tapVKKKpBXBxKTtWlLjP7asFWJiclqdEEtvfVsW9Wve3iZX2C/XroqWVKoBg+fri6P91dERB6N+uoxnVfvNLcNKyWawsqOR86OYQSMgBEwAkbACBgBI2AEjIARMAJGIPMJ0Fz9rbfecgucXX45/bSPPo4lsCgBZPEzFhJjcTISSggshFWHDh1caSA9tBBWJJkY9MlGCJUoUcJ9v0WLFq41TlYLLFJUyDIGvahpoUOfruBBKx8WX0OuMbgmhBTbkxTjnEeMGOHON71Bqx96RnMtNMinrRGlhyTNkGZZ2fcq+HyyWGAdkkc33PGmho+eq57drtOzj96svHmOnsCSkrRk6WY99sJXGj9tsZKSUljPMrVXVerKhX6EVGBUKldYLz7RQTdff57C3VKX3uqG/PRQrywSWF9+N1kPPPWZIiPzadx3T6hOrUqZ/66xPRoBI2AEjIARMAJGwAgYASNgBIyAETAC2UaABBJN01n8i55PlSsfrTorcEqewCJV9PTTT7sEE6KG8jp6PiFpWHAMQeM1cUdg9ezZU127dnX9pT///HPX25lBqokG6fTRZsX77BJYNHJHLjFo7E6S6sjSRsoI6QfGuTNYJZHySQQWKwvS8wqRdaxFzVatWuVeR78sWCHuEF/sBzl25DGz4sZnucAKJJsOqtuT36jfF+N0xy2N9XavTiqQ/+99qoCwKyZW7372i155+wcdSEpRZJ5wFS6UT8WLFlTNaqVVpEh+Jew/qDV/7dRfG6MVExuv2Pj9CvOF6porG6jX4zerVo2KCgl2WI5cQGS91m+4nu0zWMUKF9Cs0a+oXOkiWcHV9mkEjIARMAJGwAgYASNgBIyAETACRsAIZBMBfAIyhWbiJyKwSB7R9JzBan700UKEkaKi2TuD73kJrCeeeMKV4vE1PaPoOcXrXnzxRbeo2pAhQ1z/qGMJrB07drgF0bxBs3XkEYuTHWuktwohKyo+//zz7mWcG0IrPYH1xhtvuJ8HCyx4/fnnn+7Ys2bNOqbA8jjAhfJJmCD8GPQaGzBggFtoLStHlguswAp/iXr/yym6r+dHatLwDA359FEVKxrlriutfbrfrxWrN+uZ1wdr6OhZkt+nc86urmuvqKfml9VT7ZoVFRqKlQoU+vlT/Fq/OVoTpi3ST78s0PipixQbl6Bzzq6qV3reoqaN6/5tdcHk5BTd/+Sn+uib8ap5WlnNH/+GwsP+Zrqykrft2wgYASNgBIyAETACRsAIGAEjYASMgBHIAgKPPPKIK6EbO3asLrvssmMewUtgIaNYxY+xceNG3XnnnS5ZhIjyxNaRAovXUl542mmnubK8uLg4t7IfZXkPPfSQW+nwWAILEfXpp5+mnV/JkiU1bNgw12D9WCM9gUXD9rvuusu97Pbbb9e7776bbgkh8go2DBJbNGUngTV37lxxfMou6aV1PIM0FsJq4MCBWrlypeub9eCDD+qll17KUMIdz/6Ptk0WCyzvsCmat3C9Lrimp6IKRmr26FdVtVJJ90NPYNHz6q7HP9Wo8Qvc97vf1UIdb26s6lXLKiw0NG3LQ+sFHvrbjug9GjV+nl55b4SWr96k6lXK6+PX7tAlF9VO3X+gx9XRnyJVAAAgAElEQVS2bdHq+NCHGjt5sTq2aaTP+94bJLlsJcJTeZDstUbACBgBI2AEjIARMAJGwAgYASNgBHKSwCeffKLu3bu7XlT0wjrWSK8HFikuygZZtY9k08MPP+walR8psFiVkP2TwKIEkdX6EEQfffSRGjVqJBJWxxJYlO0hY7xBE3UavnsrBx7tvNMTWEuWLFGdOnVcWR+rBVLKeGQSauvWrbr66qs1f/58t2vKAGvXru0EFg3n8+XL5+TTAw884FZcPJ5B6uy7775Tt27dXDnmNddc40oqixcvfjwvP6ltskFgBeTR9u3RuuzmF/Xnio36+I171bntRUpRuMtT+ZSobk9+pQ+/nuBk1Xsv3aEOrRoqPG+kfE5B8efwpBQ3JwA2IJ6Sk/36dcYi3fvkl1q2aoPOOK2ia9JetRJRwGT5FappM5eo40P9tWb9dg3u312trz3vb/s9KYr2IiNgBIyAETACRsAIGAEjYASMgBEwAkYgRwmsW7dOF198sXMFP/30k+rWpTIr/XG0Ju4HDhxQ06ZNRePzzz77TGefffbfBBb9nygXpNTw/vvvd4kvJBDbR0VFZSiwThZSegKLpupNmjTRb7/95pqp01wdkcRqgQyuh3Pk3NiWnl6LFy92Yq53796u9BEZhQTr37+/E2mexOK1lBgixJCDN998s/u793MY09R+9+7drqSS4xYtWvRkLy/D12WbwNqfEK/Hew/We5+PcSv/TRv2P4WH53ECauzkhbqq7SvKkydEPe9vqSe6XaeIPHlS5dXh9u/oOamAKPt++DTd8+SXzgB27XCF+jzTXnnz5FFiUqLe/OhnPfnitypSKFLr5/ZXvnwc3xt/3zP1nDy03uBhwIhmVJeaIfUc3ADxxzXxIBLz402W09eTkJDgVmyoWrXqUcls3rzZ1R9zvsGD66F2uFChQmlvIr5HhDMpKcldG6/JrlUR0p4mv999yPHBxrnZMAJGwAgYASNgBIyAETACRsAIGIGsJ0BJH03FKYd75ZVXXJN1Ek4Mmpkz/yxWrJibE9MDasGCBVqzZs1hJ4YMIkF13333uZ5SzC+De2Axz9u1a5dLelGCSMnga6+9lrYaYEYJrJOlkJ7AYl+cL+Jq+/btbteUBNKXijn/jBkztGnTJvd95tSU/nFtjPXr17vSx99//919zdyVBFmpUqXca+bNm6cyZco4GYjggh1C76yzznL8Jk2a5LaDL+cGq6wc2SCwOH2//H6fho+dpS6PfqToXbEa/NEjuuma8xSzJ14tbntZM+et0uWNaqv/651VuWJp+ZQSlI7KqLzv0M+Tk5L1aK+v1fej0apetbS+eOsuXXjemdq0aYuu69RXCxavVY/7b9QrT7aSPzUBFtSJK401TdeoAR0+fLh7uDGM3ExqWjOqS83KG3Yq++ZNR7yR1QV44yJ66tWrpxtuuCHtDX0q+z/Z1xJ55M3+1VdfHXUXxB2Jgh65FCo1yn369HEN9pBVvIlGjhzp6ni5Z7xhuWe8ybJzYLBpHoidvvLKK7Pz0HYsI2AEjIARMAJGwAgYASNgBIzAf5YAQQbml8zHYmNj1aBBA1WoUMHNDxE89G8ijcS8/mgCi7kzZYSU133//fduVcEjBRaA6TfFyn4InwkTJqhKlSqOe3YLLOafnOfbb7/thBwMggdpqzPPPNMJORJTntBjGwQX4on/xsfHH/Y6mCG0WFmRlBfs8AjBAymGBCPJdaxVDDPjgcwmgRU41a3botX50Y/084QFql+nqoZ9/pjm/r5KHbu/r+Qkqe/zt6pTuyvSkjTHV3nJng8XXFu379I5Vz2lbTt267nH2ujxe5rrxbd/Uu++P6h8mSIaPeAp1axR7pj9r4jWUfvKDWrbtq0TIVhWHsiCBQtmBvts3QfCCtNKPSxmtnz58s6eIn2ICHJtOTWQTtTkHmvFgqMJLCKKvEG9ZnTTpk1zy4Y+/vjjzi4TZeSDiZhkdg7e1Bwbvv/E5yU7WdmxjIARMAJGwAgYASNgBIyAETACmUkAoUN6aObMma4EjoQUczP6M9WsWVO33HKLW6nvvffec+kr5v7Bg/kcoYgPP/xQ5557rtq1a+fSXAQjmE8jhBi8ljI85pvMQRE+vJaKMHpK0ZPqtttuy7TACHN6Vk3kODSRb926ddppM+dftmyZW01w0aJFTqJxLgRy6Hd1/vnnq1atWumeC2KIuTRzaxJVBHqKFCnizp/rxxlMnTrV9dCiaTvXh0OoWLGi+zllm1nZ+8q7yGwQWJ5cIoUlfTd8hrr26K+E/Ynq3qW5YmP36aMBE1WuTFHNG/uqiqeuTnjiD2+wxDqoHr1/1Gv9hqhZk9rq1qmpbrqnvxIPJOip7jfpqQdaKk/EsZen9AQWZYSsIuA9oJwX1pIbSTpr27Zt7sG58MILXSd/ytnuvfdet3IBxheJQYM0anGpFyVFRE0oPyeZg4BBsPDQE7kjgkccD5OLgGFlAlYVoOyPmF+PHj3c37G8JJdYFYH0EQ/NsQam+e6771aXLl101VVX/a0xGw/rs88+6x5WzCr7RCy9+eab7sFlmUzK8GjqRrkfbxzKKZFFzZs3dw84Vhbjy5uE8+R6aWqHmCL5RSyRNzFvCmpr2T8siXbSIG/MmDHuD8dcvXq1+3CAKW+y9AQWAu6ee+5xKy7An8F5cl9oJhc8vvnmG23YsCFt2VCWVcUQ03gPlhdccIFbQYHvX3vtte48ud6ff/5ZL7/8clo8tGvXrlq+fLm7roYNG7oPvMjISNfcj+v1PsRIfWHoSbgR3YQb0VJYwoZjDB482N1n3vwsvcoHHqWSnBcfcsReeU74V4Hg5+/E3xv2CiNgBIyAETACRsAIGAEjYASMwH+PAEkkZBbze69CB/FCQIV5K/N9fub1iwomxPf5OYO2NMw/eV1weol9kFpivoYQ84bXusfb/ngbo2d0h5hDcz0MriP4XLzXMjdnOy+Fxbl513ys/fM69o0IY3ghnuC5KD9jG7blmpCC7Duzri+j688GgXX4KQCxfbd3NGjEHBUqGCmfL0kxexLV9voG+vbDR93GGRUMZnRRUopmzF2ti67/nwoVyKuQ0BDtjolTwwan65M+nVXr9EoZ7sITWJSo0Zmfm8cDSTSQpSmRGEgSHmK67VeuXNkJK+pgic8hopBTWN/333/fvSEQJeecc46QIDSFoy4V8YEMY8UCZBRff/311/rxxx+d0EK8IHEoX6Q+lT5RxBk5PlFIjslymzSNO9ZYsWKFa9yGECN9FTyQRVwDdpkmdwgkJBOShnMlBkiZHsYVEcP1Pf/88y4iCQO2YxUFjDSvhRWptTfeeMPFEIkyIs8QOlzXDz/84BJTJJOQRDyEiCxsLlKONyERT2Kf3AfYIAmPLCFke0QY8o9lThlcCzLo1ltvdcuCwpgPG1aDwI5zjgysMSKJe8S5kbSDO/eJOmak0xVXXOHOAUkHM7Zv1qyZs8wcA7HEs4D8Q95Rusj1wAYRCDfqrWHAm9r7PtfHuSAJ+cMzxb3mv+yXPzwnPC9wyGgligwfZtvACBgBI2AEjIARMAJGwAgYASNgBIzAP5xAtgsseG3ZslM33vWOZsxd5npd+RWhPs+01iP33OAasQdWHjz+AsL07sHGLdGqd/lj2rkrzimxkiWL6N3eHXXTNRco5DiWhfQEFoKIiCFGkaQUCSYkE8kaEjMM+jIhHfgZgzTQ008/7RqpkT5CiCA2aHxGwoiEDVE/YojIMeKM1KMigpAjWE32R/IHEUZcj7QPsUSv4TpxQJqEI3xeeOEFt4oAgxpfUkSIQtI+iDXOnfgjAiW9ZS05H0SdF5vE1pLoQt6QMOK/pKDYL6KJ1BAskEAkp5BbiCGOQz0tg31x7dhaZBvHZb8wQm6R2vIGsU5SawgpzptyQphw7TygHAMewQKL+0PPLDg8+OCDh5lnmHDfSDNRq4xoonTyWAIr+H5yXGQf6S6WQ2VlCbhz/0i/kWDjeySqiEnC/JJLLnHHRDjxPJBE45gILBJWU6ZMcVKNtBmiimvh3FhylIFAQ1ghDNk30utI0fgP/6yx0zcCRsAIGAEjYASMgBEwAkbACBgBI3DSBLJVYB3SUn7NXbhKd/f4XPMWrZD84XrsnuZ66YlbFBbu9WIKbuJ+/NcXOEayps9dres7vqKd0XHKmzeP+r7QXp3aXKqIDEoHvSN5Aos4IDIDEYOEIl2EeCKJg3xiUNpHqRcpIQYyA8mFNEJgsD0DMULZGOVplIhRmkjKB7FCmgqp4fWiQighdUh4IT9IOJHU4jgkmqjjJY0VHR3tUlBIIgYJJJJEnDdShrI2zh1BgiwhDXbkan+cB3WxJI28QRkhyaQhQ4a4VBVijQTYY4895pJVyBWORbM3UkTsAz5es3TOC1nDa4gXkqKivBKZhEijBvdIgTV+/HgnutiO5BT1u+wTwUaNcrDAQgoh7ijDTK9JOiKMa0YKUuKHLAoWWOyb1JOXwEI6wZYBy8suu8yVJpJEo1YYOcd5nXbaaY4f1+ut1MBrKL8kJYfoI8lGiSVcuP+UC/7yyy/ueeC+wpX7gMRD5jGQbTwzfE3Si/OzYQSMgBEwAkbACBgBI2AEjIARMAJGwAgECGSrwAqG7k+Rps1e4iTW0pVrVTB/IXW8pZGe6d5KxYpGya8Ql8Hyp2ayMrphaZ22UpI1YOg0PdprgHbsiFGevHn1/kuddOtNFys87Nh9r4KPcaweWEgGUjiUjzEQWKSsaObG8AQWKRqWnCS1hPgaOnSok1gIrGAhQ10tKS96N3lyCWFCySKvo8YU8fHqq6860UXfJoQIPbJYUZAEkpfAQtyQEqLmltQQ5XMM0lqcI+IM0RZco4rkIS1G/ygG0owlMum9xc8QWCSLkFGkzkhcHSmwSGVREkiJoTc4PkuYcixex7mRwIJXcLM5L4FFiovyQno/kWyiOR0M0xNY9BRDiiHTypYte9THAwGH0KN8EUawY7DCJNfnCSyvDxk/oySTYyKakF6IJa+2mGsiKeaVPHoHZt+cP7wvvfRS9yx4S7Zyr70aaGQjzwCLAVCu6KX4PKEGP8QlgtKGETACRsAIGAEjYASMgBEwAkbACBgBIxAgkH0C629VgYGlF2fPX6F7en6phUvXKjkpxa1O+PwjrXV+g4oqUjBKYcezOl6KX3tj92jpqh3q88FIDRs3T8nJSapQrqR6PXqj2rW6SGEnIK84L09gUSaHgPAamCGYKPM6HoFF93/6I5E4IgWEPLnhhhtcKopUTnCiiD5XNBkn1UXqiHQTpYgIFGQRCR1EDK8j9URZH3KMnlaUtlHel95AnCCQSEEhZhBKHJ90FIkiJBipIs6L60Jc0VeK7UkVIVSOR2DR+4sSOBJWpJ0QbrBCynE9nqjha86B9BO9neBCWozj8H1KFhFyJNEQZZRBkmQ6MoGFWKMxPWyDB83i6T+FkKK0Dz70GyONxjE5D0Qbggop9cknnzhRReoK4cQ5IcZIY9GHiv5aJKVIlnFNlGTC7UiBxfWTyiIpB2cSbZ7A4u8ck4QWCTyul/uMqCPlRUkhIo4yURJ5yC8TWPYRbQSMgBEwAkbACBgBI2AEjIARMAJG4BCB7BNYR+1r5df6jTv1+vvDNXzcfG3YvEuhIX5ddF4tNbukjs6uVVEVyxVT8WKFVLBApEsVJSenaN++/doVs1ebtuzSyrXbNGHaHxo/dZGid8Upf94IXdb4LD1w51W69MKzFBoWesJdtRA4lO6xMp03kCkIGpqZs1IgK9cxaEjOspFIIQbihRK0UaNGpckjejXRGJxm6SRvSCxRtkbyikFqCrlBugfhxL5IclEuiJwi2YNIady4sSi1I0FEQou0DykspFZGg95aSDV6M3E+SBX22ahRI7dKItfK9ymDa9++vUtM0ZyctBQrJyJpSEjxNSzYFiHFinvsi30j01h5kf5XSCevFA7hx4ArfcBoAM/fSWOxLcmkRx55xDVCR/ohe2goDyuukbRUMC++pk+XV7LoXTtlfQgkVodEjiGFSF/BlAbyJLo4V1Y1pLE9Mo+eU/CmRxfXRM8xUnaIN5Yf5XX05aJRPL242C8lgsEll7Dl2hGNPCM8p9wjJCPCi7+zfwQYfcKQWh4vhBbPEhKR3l/0DztSzGV0b+3nRsAIGAEjYASMgBEwAkbACBgBI2AE/s0EslFgHRtjwr4DmjLzDw34cbqGjZ6luH0HFRriU/GihVSmTBEVL5xfBfLlUXhYqJL9fiUkHNSuPfu0bfsebdoarcSkJEWEh6lhgxq6o80luqLJWSpbuniO3TvKAoNLyHLsROzAGRI4siQ0wxfYBkbACBgBI2AEjIARMAJGwAgYASNgBIxAthLINQKLq07xS/sT4rV2w2599u1E/TDqN23ctEspvhCaYf19YUJXhehXZGSoWjQ9R3e0baoL6ldWoahCgZUGT20hw1O6ESawTglftr7YBFa24raDGQEjYASMgBEwAkbACBgBI2AEjIAROGECuUpgBXQU3on/n6yDB6XFyzZp1vwVWrF6g7Zuj1F8wn6XwipetLCqVS6terWr6sJzT1eByFBJIRLiyo30jNcJ8znpF9BDi1XnKLVj9UAbuZcAJY2U9rFioA0jYASMgBEwAkbACBgBI2AEjIARMAJGIPcRyHUCS0pxIuqQfuJrvgo5IoLF9wKN4AM/O3zkrL7KfTfazsgIGAEjYASMgBEwAkbACBgBI2AEjIARMAL/VAI5JLCORy8dzzb/VOx23kbACBgBI2AEjIARMAJGwAgYASNgBIyAETACx0sghwTW0U/v5LTVyb3qeCHZdkbACBgBI2AEjIARMAJGwAgYASNgBIyAETACOUcg1wmsnENhRzYCRsAIGAEjYASMgBEwAkbACBgBI2AEjIARyI0Ecr3A8vv98qU1Zs+NCAPnlNF5rl+/XikpKa5ZuA0jYASMgBEwAkbACBgBI2AEjIARMAJGwAgYgeMnkGMC68CBA5oxY4Z27drlzjY0NFRFixZ1K8EVL17cSas5c+bol19+Ubdu3RQVFXX8V5XNW86bN09ffvmlnn32WRUrVizdo/fu3Vv79+9Xr169/hFCLpsR2uGMgBEwAkbACBgBI2AEjIARMAJGwAgYASNwVAI5JrCio6PVtm1brVq1Svnz51diYqJ2796tAgUK6KWXXlKbNm00YsQIffLJJ/rss8+c1MqtY/To0erevbsmTJigcuXKpXua99xzjxISEvT555+bwMqtN9LOywgYASNgBIyAETACRsAIGAEjYASMgBHIlQRyTGDt3LlTrVu3VpcuXdSuXTsHh+/973//08CBA7V69WoVLFjQpZaQWiEhIW6bgwcPat++fe7v+fLlU0REhPs72yUnJysyMlLx8fFOiOXJk8dt472GFBdJL2+wDdvyffZPKox983eO7R1z7969bl9hYWFue46TN29edyzvnPh+oUKFDjtPvsfxOH9SZOzbE1iUHPI158Z+kXje8XLlk2InZQSMgBEwAkbACBgBI2AEjIARMAJGwAgYgRwikKsEFgwmT56sm266SSNHjnR9pUaNGqXHH3/cyaENGzZoyJAh+vPPPx2uWrVqOQlG6mn48OFaunSpTj/9dP3666/as2ePe82NN96oIkWK6OWXX9YTTzyhM888072Wff/2229uf88884y2b9+u77//XgBhXHjhhbrhhhvca3v27Kmzzz7bSTLKBdl3+fLlXUqsTp06rhTyo48+0htvvOFKCFesWKHvvvtOa9ascWKqQYMGbhtkFQILAfbzzz+7a42JiXESrlGjRrr66qtVuHDhHHoU7LBGwAgYASNgBIyAETACRsAIGIGcI8DcaNq0adq6dasLGZx//vmqVKlSzp1QJh6ZOSzzU+au/J3+yGedddZJHYG5ZsuWLfX777+rQoUKKlOmzEntJ7NfxP3btGmTTjvtNDfHXblypTsEX/9XRlxcnJv70wMbN8A8/2hthv4rTDLzOnOdwPr666/15JNPavbs2Zo+fbr69evnZBCJp6eeesqJJgQXPbJIalWrVs0JqP79++vNN99Uq1at1LhxY/eGQRItX75cX3zxhZNDHTt21KOPPur4kbaiL9XGjRtd7yqSYHyYIK1IRrEvShwffPBBNW3a1Emryy+/XBdddJFLSlHWiJzq27ev+5C9//77NWvWLJfU4jjIqq5du7p01bhx4zRmzBh3XgisAQMG6JVXXtHtt9+umjVrumv64IMPnIzjeOzDhhEwAkbACBgBI2AEjIARMAJG4L9EYMmSJXrvvfd0zjnnaNu2bW4OxhwQ8XMqY8GCBW7O1axZs1PZzSm9lrklMuPee+91cz+qgfgeAQnmiVQOHe9gDjl//nwX9qhdu7YLcWQ0aNczfvx4F/DIqsofgiTvv/++3nnnHZUsWVLffPONO63bbrtNffr0cW13giuiMjrn4/n50KFDHdcSJUocc3Pm/wRY8AdZJUUJvHD9CFjkJJw5t1M9HuzwBOHh4ceD5F+9TY4KLN48GON69eq5VBJlg3/88Yd7sBFRPIyewNqyZYs6dOigt99+273BGQgqUlW8cUlPIaromXXuueemNYFHTH311VcuabV48WJ9+umnLlW1Y8cOJ4zuvPNO9+HIg4YwK126tEtnIcf4YEE4edtgUnktY+HChe58OB7JME9gkari4eKDiAcV0YaFJS122WWXuTdzw4YNnSh7/vnn3UOIfadZPR/OnF/dunX/1Q+dXZwRMAJGwAgYASNgBIyAETACRuBIAosWLXJzQOZThAqoonnooYfcHI35HK1ZmFMRQiBMMGnSJFdhg/Cix/JPP/3k5peXXHKJa/0yc+ZMN+8bO3asaAvD3LBJkyZO5CDHrrzySpeOofqH7a+66qosSTOtW7fOzW8vuOAC1+/522+/dcfjugg3UP3DuTGHJLnDfNerHIJRbGysu36umVAF2zMfnTt3ripWrOiqgwhVUJHEtfP11KlTnSyC1fXXX+8qhugxTW9mzoVjedtXr179lPs0I+RY2Iz5OnNrxI0nsAh1UFXFfPfiiy92837O67zzznPVSsyZGdwr7g3zYxJmVDQhnaiGYls4sg3zegQZ502rHpJ6l156qUqVKuWCMKT3CL3wTHj7gzXnxmt4pgiNBD8vXmuiU3lXIhVxElwr4RiuA8ZcP66BZxcBQwKPv+MLOF/EbdWqVV1whmujtRLPJ75iypQpLvjywAMPuPtOUOZo28MgmB8JuGAeWSUuT4XZib42RwUWDyVvRu/mcpNYifCWW25xDxxiyhNYvGFJZ/EhxoPJ4MYjsJBMyCVuFn/3fk76ijTUa6+95prAY37fffddd+PZng/Gjz/+WD169HAPFz/zBmB4M7A/jsEHIR8u3kBaIaF4E2DzPYHFm5WHjDda8OCaSJHxgXHttde6kkc+wLyBoOODhR5g/NyGETACRsAIGAEjYASMgBEwAkbgv0QAgYX0YC6IDCDcwFyMOR2JFuaLpI+Y4CNskAAspEUwgO2YwCMMEFNIoM6dO+u6665zVTmEChABBA5IyjA/JCnDXBShgjCqUqWKS0Vl9nj66addEILzZq6HfELQlS1b1l0v0ol0GHNJygERXFwHwgHRxTyRlBUSpnnz5mrfvr3mzJmjDz/80Akh5sXsh6AE0oKV75EhVCHBjGtkPoscZI7LeTC/9rZnzo0QOpWBLGLezXUyVyZJx/yZcAjiDQHDeSFzuK/0nOYakVrcUwQjf0fQsD1Skqon5swsmkZbH1JkzM9btGjh5v6wIAhClRQhFvablJTk7jHMli1b5pJu7I8yRqqizjjjDMevU6dOjjvnAHvm86c6CNjwDOMZvH7Z3BdCKrgPro37RhsituV6EUyIWSQrYu3HH390boJzomURXoFnEmfB/UdecT1Hbg8nfsb1cxx41q9fP40H10wA558+clRgHdnEnYeLDyA+oCjhw4p6AoukE7II+3qkHX3hhRc0ceJE1/uKB9pLSfFBxYNJuR4PCR9gfKjdfffdaVafNxYffAikI5NPvIl5iO677z6XoCKRlZHAIt5HDyweyOBx1113uQeJD03PpAZbdVJgPNQPP/yw+8C2YQSMgBEwAkbACBgBI2AEjIAR+C8RYPLP3I15IP2dSPQgmxACzBFJ7SB+mOAzd+N7zBGZC5KkQniwD1rSkHTia1q+kIohdHDzzTc70cXEnkoYJvzIHSb7JHyQPqcqco68X4gdhBrng1jheEgd/lxxxRWukgh5QgqJIARyiVY3SCkkCG1qmGOynTcQPsECC0HG+ZPGov3OW2+9pTvuuMO9lv1w7Ndff92FQZj/IkeCt4czrz2VQdqNObzXtoc2OlwvgyAJ83jOedeuXS5MQq8sRB7zZGQVXz/33HPuXCkH5N4h36jOYj9UMiGueDbYH9e5efNml9Li+ahcubJLleEASJ/BjmfH2x/3mPk8CTbm/si84OeFNNapDkQb4pVz9kpCEViIN+4H95XnF7fglXMiUknd4TJ4/khq8fwiHL1BxRp8KYNEeKW3PbIT98GzxrF5X3BfPR4kz5CA//SRqwQWMCklROxgEK+55po0gYUQ8iQWkcjgQeNz3ojHElikrjDUPBCvvvqqE1mY+ltvvdVFKHlzYLq9+CL75yEgfshDjvHHiHvjaAkszpFoJg9u8KBcEstMDy72h2jDGHuDD2Oulw9soqs2jIARMAJGwAgYASNgBIyAETAC/yUCXgkhfaKYgFNihahi4o3oYDCxZ26IEEFIMbdDRDGPY8LO3xEAL774ovuahbYQWKStqIqh/zFzQ+Z5VP/QQ2rVqlVunsj8j/KvzBw//PCDm8cyv0XSEGqoUaOGS90gsAYPHuzSSVTocP2U1CGkOCdKAJFQzBERLt5clRQR5YNeAoue0MwxYcM1kEjy0jvsB2kHB2QO82ZEUPD2zENJ9ZzKIKGDBBwAACAASURBVIiBGOLcmJdzbd68HeHEfUS+ILmQd6SJmDPTrgdBAxuug3Okoor5MvKP+TMCi/MmUcac2qvWQs4hNODH90kpkapClCFxaCrv7Q+BxXye8yI8MmjQINdqiJI9nhfKSE91IOR4brkOhBoDgUX6jwQUzyq+A7dAKIfzIzWGUOUaEVgkrnjeg50HfHg+2YbEWfD2JBG5vzwbBHVIHPJscUxEHt4D7iTQuEf/9JHrBBYPITeOBuh8mHgJLB44bgYfRMQBg0UTN4E3wrEEFhFSTO9jjz3mhBUGlzc9xpNoI28MxBPRwyMHddJIteMRWLwJsavYV29fWGaMJ+dPySLXh1XGGhOhZHCdvImwwP+lVRr+6W8gO38jYASMgBEwAkbACBgBI2AEMoeAJ7CogmECTskZgoNSK+ZITMwpe2PORdoGEYCwQs4QTEBMIWyobOHvnsAaNmyYExkIL5JdiCHmZ97iWcw1EVykr9guswYVRqRxvMW7EhISnCBD0CBZKA0jicPXpIkoF6SMkVY6lDVynnyPxBTfJ72FxGGfJG1I8yDluGbSRcgZ5BApKKQRMsQTWCTR+B5zbBqZI87YnjQbYoNQyMkO2gJR1cR5I47oU0WAg3JFyvbYPwISuYTkQUxyzaSnkHUIGgIlbIfgY45OTyhSZyTFYETVFULLE1hITOQPiTUSTlwHaSOeD54NenAREvH2hw8gxYQoI0hCqi34eUH+nOqgfA/PQD9tjsH9hw3PKdcPc+b8eAJSVCTPEGfcE1wFfdDSE1hwQwASouEY7I9rCd6ehQ5oR8T7BjlIWott6A/G+wVJaQIr6A7z4PDG50E7nsH2XhN3LDMPHCaUhxOpwwNJhNITWNwQBBL2mjcHdpkPGR5W4pB8OGUksDCc3k2mjA87yuBNTtyONxNvYuKnPBy8+fiAQXgdbwKLDz0EFnKMD1H6XiGzeNBgg0nmQxYjTlkjJp4PJ66XB4661CPl3PHwtG2MgBEwAkbACBgBI2AEjIARMAL/ZAIICuZGTNYp8UM2MZ+ivI2JPukVRAQ9hZh7ksIibIAQoUSQsjUkD32h+Dk9kPg7czHkgZfoouSQ7ZEjSDGSKiSQSCadyGqAGbFGXiDlSMx4PZFYEZH5HnNCQhJILWQGQor5LKkw5qdIDu9cmMdS4sY5cv3ILiQNXChHQ1ggQAiDMG/lD3NQkkqIIdI7JK5I63gMeb23PfNxL1iR0TWl93POn/tG2scbHJ8UEj2mmPdyHmznlcMxv0dKck30/WJwT2jMDx+kHddJAg3BA0PuJ88F8pEkDs8LIow2RPwcWUUPMOQVDd/ZztsfVU74Bq4bFnAIfl4yo4m75xa4xxyH6yK4wjVyTxBapKEQbyTV4M694VlFpuFICL/wfZ5Lb9CiiPuLO+C62Z6UHaIweHt4kNJCevK+4OtgHhzjnz5yLIGFGcQS86B7gzc1cUqMuRcp5AYgnTCtGGakFh8wvInpdYVR5OHme9wc7Lb3RucBJS6KgPJSTUQzeVBJePFG8gY32Sv94zg8aJhOHgxEFw322rVrl7Y94gyhhojigwmTSnQPc821YV29umWkGG807Dc2nMFDSAwUA8x1kMrijfZvWBngn/6msPM3AkbACBgBI2AEjIARMAJGIPcSoAwQ+UOiyoYRMAL/HQI5IrD8SpFPIf8dynalRsAIGAEjYASMgBEwAkbACBgBI5ApBOhbRILnVBuPZ8rJ2E6MgBHIBAJ+Sb4M95MjAivDs8oFG/j9ki9jfrngTO0UjIARMAJGwAgYASNgBIyAETACRsAIGAEj8E8jcHziyruqnBdYh50vX9gwAkbACBgBI2AEjIARMAJGwAgYASNgBIyAEfh3E/BSQwExlJHOyhGB5WmqwKlmdIr/7ttlV2cEjIARMAJGwAgYASNgBIyAETACRsAIGAEjcGwCOSKwYmPjtfavjdq0ZbMSEhIlPyrLRJY9rEbACBgBI2AEjIARMAJGwAgYASNgBIyAEfi3E6BlU2RkhMqVKa3KlSqoYMHIDPtgZY/ACnJTq1ev0/jJ0zV09HzN+3OHDhxMSr0v1nDq3/6A2vUZASNgBIzAP4vAyf3TUoqU3Qu18A9hvvTaEKR3Ljlwfhne9sC5++U7jvalGe4sCzcI/INjcNg/Cw8WtGvvHzqDj3boexQc+Px+pbjmpQGGh56G9F6bPWdtRzECRsAIGAEjYASOTSBPRKjOObOkWl51ti6/5GJVq1bpmC/IHoHFLxL+FK1cvV6ff/uz+n87Q7v38AtkYurJWe8re7CNgBEwAkbACOQqAt5KJkf5n2ikQdqPstARsGoxqxc7QeVEVarq8Qf6JBxmfPyscMy2/OIR0Cw+pQSJIc45+B/MUrfPSfBOvIXwi9LhZ5H9luhwYeRLSWUII1a2CUiiANaQwN9T8Wel0jr6o3XoPoaGhqpAgfxK9qcobm9s4Drc+XqPQeq29utmTj7pdmwjYASMgBEwAukQ4He7UBWJCtfd7Rrq9rYtVKN6JfmOsqJetgms+H0H9PEXP+itT6do/ZYY+fyBXyhtGAEjYASMgBEwArmDQOB/lQPCiL+HhvkUEoLAOPZITvYrJZn/Xc+6ESwyQnw+FSlSQAn7DijhQJKiCuZVcnKK4uMPKKpgpHwhPsXs3afCUfnc+e/aHatCUfncL0Mxe+IPT+hkoXw7Oo30fv/JSnoncV8OE2g+lSgepSoVSmnpqo2KjU1IlVq+NJF1Ekc4zpccStc5IRV893w+hYaE6qJza+iqS85UeFiI+n87VavWbk7bd+A1NoyAETACRsAIGIFcScD7h0n5VKFsYXW/41J16dhS+fNRTvj3kW0Ca8HCpXr29YH6edJyJad4/zqaKxHaSRkBI2AEjIAR+E8ROOQqAuVX+QvkVetrzledWpUz6EVAMkdOHo0eP19TZixVUnJyprJLC1N5cSufX3VqVtWNzesqX/6C6vP+SD1+39WK3hWnb36crifvv1Zr1+/QlJkr1apFfSklRcN/WagLGlTVaZXL6Lk3h2jLtpjUdW5S5Odf+HLAcASuK0ShIX7liQjXvv20VAikng5Lt2UqzaPsLL20ly+QvCoSFan6darqikZnKX5frIoXK6FBw37T8tVbtCtmn7v//KMkw38o8pSJZx2SmqLzdsnJhkg+nyLCQnTdVefqqsana9KsDSpfMkL1alfXe5+N1pxF63XgIH1WeV3mPpOZeHG2KyNgBIyAETAC/3kCXmY+JNSnqy85Xc892lb1zq6ZEwLr0HqDI0dP0OMv/qhlq3ccFu8P/MNnDvzm+J9/TAyAETACRsAIGIG/E/D5/Lr2ynN1etUSGjB0lg4mer0q06eFbClerIC6dWqm3m8P15ZtuzMfa5BgKVa0oF7q2UZT56xRm+ubKGbneq3YkKBSJQqrYslQLV9/QJs2b1ObaxpoxIQ/tHtPvDq2bqhh435XaFheVSsjPd1nrDZv3Smllcll/ikfa4+B331C1LBBdfV/tYsKFMyvb3+YpJfe+0n7E/YFpFqgCi77f0PySfnyRqhcqfzauStB9915rc6sXlRTZ63Qtz8t1v0dGqrmaRU17tcl+uXXhSoQGap1m2J14ADPSUBoZuZJH7m7vHnzqGH9SsqbJ1yNzztL9c4qr5G/LNAPo2YrLDRF3bveoMrlimj6vDVavvIv7d2XqNkL1upgIhLLft/M3ifdjmYEjIARMAJGIAMCaf9DH/iHszOql9DrPVvpmqub5oTA4piBfhMDBg5Tj1dGaPP2uLQGoIf9GpHJv/DYg2IEjIARMAJGwAicAAEf5WApisiTX7fd0EDrt+3ThCkLlJKarvnbnlzyJvC/8fxP+FPdW2v0hJmat2hT4B+qMnm4VJIvQr0fv1YVy5XS9LlLdcNVjfTVoBGqf/ZZiggP05p1G1XzjKpavmqjKpUvqb2x+xQbG6dKFUprw6btKl68qPxJcUpWQT318jdKSUmWX6FZcr5Hv3zSQylOuI3+pqfuf/JTLV+zWW88014/jJqpkeMXS/7kTBdBGd4OH32tEpU3f2E9fX9znVmjsr76YZrq1a6smfNXa9KMZalSLUWXNa6vYlFSsWIldM5ZZbVlx1499dK3SjhwMLWBfybf/9TyAimPej1ync6rf7rWbdylujVLauSEpfpk8HSFpPZVzRseqXtuv0Rn1iitjVt2q1zpKI2d/Ife/XS0CawMHwLbwAgYASNgBIxADhBI7QfK75VlSxbQa0/eqHZtrslZgfXl10P1xGsjtTU6/u+NSnOAkR3SCBgBI2AEjIARCCLg8ykyIlQ339BEjc6tqujd+zRy/HxNm7X0KJgwWJS8BUq8et5/k8ZPnac5v6/PZCGUmkbyJcvvz6sPXr5NoycvVoM61RS9a6+Gj5un229urF274zRy/O/q0u4S1/9q3KRFanX1eQoLDdH3I2fq0ovOVJnSRTR45Ezd1OIcPfv69zqYlJQ1oZx0G7Af4oXxa1i/mh6/7zq1uvNdJ6w633qZShcNV+93J8nn2+cSWoGO6ek0d8+SIBH3MVFRRUrowQ4Xa8CwuVr912bd3eFKVa9YSBu3xrjOaKFKVpnSJTRr/ioNHztfhYsUVJe2jTV64hLt25egFeu2Zf7vea53Pz3WItXvhZs1fPwijZuyROfXr6autzbWrj370sou6Y+2/0CSvhj8m1as3aoWl9ZSw3Nq6ZnXvnPPcVhYqFJSUpRC0/xDXejto8AIGAEjYASMgBHIEQLBv0/6VbpEAb36RCu1b3ttTgmswO8HaQJr575M/sU2RyjbQY2AETACRsAI/LsI+HzKEx6iSxs10BUXnaZtu+I1euLvWvznutQlVwKdmfJFhmpfQqCnkFcKh8jqeX8rTfh1nuYs3CAdLbV10sRIeSEwIvRF3y6KCJOiYxK0a/eegLg4rI9VatPvoHRY4DeREJUqVVR5w0MUn5Cs7s99rsSDiakJrMw2QkcarEOrJ3oIShSL0sAPuuvzQRO1bsNO3Xt7M305eKLG/fqHJMrx6M11hMByK+vRZD+zz5fDwThJhQqV0AO3N9I3w2drzV9bVLRIYVWuWNq19ndSTT7Xy3Tdhm2KiYlRRHioqlcpq87tmqju6WX0av+JGjdp7knf6b+/MMAgcP/zql+vNho2YZF+mbzYISpdoohCw8IVws9Te3DFJ+xXTMw++f0hanHZ6Tq/QW09+/ogFSqUV08/eIP6ff6L1m3ckTP9xjKRjO3KCBgBI2AEjMC/hwD/kIbAym8C699zU+1KjIARMAJGwAhkHQGfkhUWEanbWp6rvzbv1cRpv0v+UCcKKpQtoXd7dVKRwgU0bfZSvdZvhPbExqedTM/7b9SEqXM15/eNWdA02xNY4er3cgdt3b5Xq9fvdr2PUhTmkkOBjE6YQpWUqncoDUxKTeaEu3O6u8Pl8iXvVVThkur1xoCAwPKFZYFwO8o9ci4GCZSiwoUK6MNX79DVTespbt9BxcbFq8OD/TVz7sqj/kNfms7KirYLqSWkhQsXU7eOF+ubYXN1Uf3Kuuby+lqzfrO+HjJDzRrVVMGC+VPXqQzVwBEztPqvaDVpeJqaXFBHd7ZtqiYtn9TaDdGZ+pAGilQp94zUe71aa8T4xRr3K6WWUsWyhZQ3T6hWro12ItPnT1aZUkXU8aZGuqxxXZUtXUjr1m9X9+e+1uWNz1W3DhdqxV979MTLA7V0+dpUKZepp2s7MwJGwAgYASNgBE6YgAmsE0ZmLzACRsAIGAEj8J8kkBoYCguRqlappJZX1tbG7XH6Zcrv2r4jRiEhUu8e7TRu0kxNm79V9912gdZu3KMRv8xx4ojgCwJrPAIrKxJYTkyQAArXey/epvWbtmnVup0u/VO+ZB5NX7BJRQvlV53TS+i3BRt18MABXdGoln6Z9qfiEw6q5ZX1NXnGMtU/+3QlHYhRiVIV1fut75R48GAWCSwvBRaQVWkjtZdTiaKF9HLPNtq2Y5f69B+r+H37ddnFtdTr8dZ65PmB+tWVbfI6b4XEoERXuuWJp/jUeks9+pJVqHBRPXB7Yw0YNl/3dWisXbHJKhyVRwOHz9G5tUoqX8EoMliK3r1XYyfOV0TewupxzxWKS0hWfGysXnhnlOQ/duP/EztbeoaRwKKENJ/e632jJs5YrT9XbFBScoj6v3yber0zSgkJ+1S+dBEVLRqlKxrV1vQ5yzRhxkolJSbp7LMq6taWjVSyeCHtT0jQnIVr9OI7P2r37tisyLKd2OXZ1kbACBgBI2AEjIBLylsCyx4EI2AEjIARMAJG4PgI+HzKHxmqHg+0Ub2a5RQTm6Bho+dqyKgZCg8LUa/Hb9GAH3/T0hUb1b51Y+3ZG68fR892xV1EYVwC61cSWBsyuVVAQAYdEljttX7TDq1cF63b2zRV3J7tWrR8h8qVKaHTKubX/D93avPWHerUpom+HTbDiZYH72yhb4dNky8kTAfjd6l4qQrq/dZAJSbul98fkcnne7ivClQBplonX6AIr+XVDXV2rfJ66b3R2r8vLjUFFKoLz62ql3q209UdXlF8/IGgHdGvKTV2lRXpK3ckck7JKlSkmB7oQAnhPDVrVEOnV6+gvbFxGjhirlpcVleFChWUPyXZ9R77Y9lm9XrseiWnhCgs1K/XPhytHTt3Hbre43vyMtgqUH55SGC10syFm3XWaWVcg/nPv5us4WN/V4umZ+u6K+rpjOrl9L/XvlOZUkVVvkyU6Im1Nz5RNaqUVt2a5TXil/nq+/FYt7pmoCg2y4BmytXbToyAETACRsAI/DcImMD6b9xnu0ojYASMgBEwAplCICAwwvNEqn3L81wJ4YSpC+VPlS9NG9VW5zYXKHpvsvzJ+9X3s4lavY4VB1m9LiCwsiaBFSSwfBHq1/s2/ZUqsBIS9qtEkTAtXr5DUQUjVa1SIS1atlOJiQfVsF4VzZq/VgkHEnXphadr7qK/dHHDOvIf3JMmsJIOHkwtQaS/UiYOn0+Nzq+pttc3VFhEHk2atliDhk11JW+hrJLX4RJt3bFXP4ycLnqJe93EfL5QjR7QU92f/UJLV25V/sgwJRxMVIprOeZPbZrvRbAy8XzdKZByS1KhwvTAulgDhs9RckqSKpQurtj4BK1Yu0U+n08hxPH8fse18y2XqNbpCK59+nXWMk34dZGSUzKVZOAivSbufkoIb9aI8Yu0bNVWVa1cQouX/qWIsBBt2R6nL97qosGjZqt86cKKKlhAK9dsVqFCUWrZvIGKF43SI89/recfuVFt733HNfr3VtHMmk7+mXx/bHdGwAgYASNgBP7VBExg/atvr12cETACRsAIGIHMJRDoMxUWkVftbzhP67bs1cSpC509qFWjnJ57tLVKlCiuxMQDisybV7Pn/qnn3hii2H0JbptAE/f5mrPwr8zvKeUcVqCEsN+L7Z3AooTw6isa6oxqRfT10JmqWK6EWlxypr4eOkt798bq4XuuU9+PflJ0TJxe7NFWH3wxRiHh4Ura5yWwBmVZCSEk77+juUoUy6slK3fo4z5dFLM3wfXcGjF6pr4YPFnrNu4O6iF2SEpVqVBce2L36dZWF+rBztdr1dqNanvfu9q9h0VwUlfOy9wbH/BnrhQ0SVFOYF2kAcPnqdNNDV1T/81bt+t/b/yo6O3bFRIS7s7vrJoV9Uz3m/XdiN9Us3pZ9Xp7qA4mJmf+CoRHCqzeN2n05KWaPOMPsYjkd+/fp4++nayVazbo074P65Yur+nhe67V9Hmr1LXtRapevbqG/zxVBQrkV5/+P6lru6YaOnqGfptDrzF+Waa3VhZJwcy+T7Y/I2AEjIARMAL/WgImsP61t9YuzAgYASNgBIxAphPw+RSVP0IvPd1RNauVVlx8goaNma8RY2frqQeu1ZDRczVj7jKlpIQoPDxEHW9uokpli+jpN0bI5z+ont0oIZyv2QvXZ35Jnkvg+OX30wPLKyHcoVYtLtSKFX9oT3yYShQvrKi8idq6O1mbNu/UdVfW07ipf2j3nli1vf5CjZm0UFFRhXTQCSx6YFFCeCC1hDCwqmLmDZ8e6NxcB/YnaMbv6/XoXc31wNOfKjIyrzq0bqRrLj9HMXvjlZREqiqwpuDGzdF666MxKlMyv7p1aq7Y2H168+MxeuGxm/TxgPEaP3VJatotSX5faOaKojSBlaKoIkVcD6xvhs3Tfbc11uoNO1WmZJR+nrREnds2UYF8kfr+p9lqckEtTZmxWJ3aXq6uj36gzVtjUlNsWZDACqx9KL/yq1/vllqyMkb1z6qoYsUK689lq/R6/3F6/O6r1PjCs9Xm7jfU457rtGLtNtWoVEg1atTQ7AXLXXLsp1/m6rKLztSCxWs0ZvIix1M+pJsJrMx79m1PRsAIGAEjYAROhoAJrJOhZq8xAkbACBgBI/AfJeBTiC9F1auWU8tmZ2vTtliNnbRAlcqXUNeOzdXv87FK8dOLKlDSFRFOGqqTLm/zrPbGHXAlhBOnzNPsReuzMIEV4Zq4b9i0QyvW7VS+fPlUt2YZjfxloSsRa3z+aRrxy0IlJSWqVYvzNWTULMXH71eHmy/RzxPm6cwzKiv5YIxKlCyv3m8OUlJioIRQvpTMrSLz+fTAnQGBNXPBX7r/jmbq/MgHAWESIpUvVVh1alVSnjwRLlkWEhqqO265TPv2xytmT4J+Gj9fMXv26+rL6ih//jx67s0fXTN9TjKwIl9AemXqSF3BL4oeWLc30oBhc3Vm9dJqdGFtbdq8Q4NGzNT27dEKDc+jttefryoVSqhGtfIaMPRXJadIU2cu1f79++X3BUoMM3UcWUI4YZH2xu7XJRfUUL8vJsvvT1JiUpLGfPs/3dH9XXVu11RzF63TeXUru1b4s+av0VWX1NEr/UY6Idjngx+1ZPnmwP2QCaxMvVe2MyNgBIyAETACJ0XABNZJYbMXGQEjYASMgBH4bxIIlBCGRBRQh5YNtG5zrCZN/V1nVC+rdi3PV3R0TGqfpFTX45MqlCulF976UXvjEg41cc+SVQhTSwh9EXqvN6sQBpq4N7v0bG1Yu1w7YsNUoliUihZI1MYdfm3ZukPXXF5Xv0xd6prN33JdQ5e4KVasuBITSGAFCSxfWBYIN58eRGAlJGjGwoDA6vLw++6x8vv8Oq1KBXW48QIVLcyKfikuABTi82vC9FVasHitWl9zjmpULaXRk/7U+GkLtTsm7tAjmZYWymRJ5NRYoAfW/R0RWHNUqlg+1T2zsnZG79XE35Zr955dKlK0pJ7u1kJ58ubRgkUrNGLCUj1056V6o/8Y1zA/cJGZ/A5KKyGNVL9erTVy0mJNmLpEKf4Q/e/BqzVp+nLNW/KXnu9+rXbG7Ne8RX+pVbN6+mPVFqWkJLtneMGS9fpr4051adtEHbp/qIMHEzP/PDP5sm13RsAIGAEjYAT+OwRMYP137rVdqREwAkbACBiBUybgU2SET+1uvEQXn1NN0TH7NHLcfE2ds9I1dg94Ca/UKiXtbwf375P8yerxwE2aOGWuZiOwXO4lE8cRJYQbNm7Xqr926OorL1TtM0rps0G/qmL5/2PvPuCjqvL3jz93Jr0HQu+9CUpHQEVFwI5l1bVhWd217/7WhmBZUdG1r66r69p2rYguKgKydhSQZqH3YoAkkN7bzP9/751JJjGQMhlkmM+81iUkc++c8z6X5OaZc76nlc4+ZbBeeucr5ecV6vabztNjf/+vMnPy9PC0K/X3l+fK4TBUWmLOwDJ3IXzbXkKo8OafhWNUB1iLf9ylW648RVff+rwkc8fDSmvHvpjoKGtXRLuulaHSyjAd0ydZT913uT5fvEHPvvY/padnyuUyA67as5q849CcSZEdYCUlpehGK8BaqWsvHiO3EaHocEP/fOtrbdi4Td26ddA3799n7f4389m5iokO1y2/m6DHXvhY2dl5crvNWU3N+bBnnFlBn+L09wfO1vrteerbo7W1nLVlUpj+b8ZsTb3xLE0YN0RhDpfue+wdLf1xt8aP7mHtrPnVsh0Kc7j11H2Xacotz2nzzozA1RNrzq5zLgQQQAABBEJGgAArZIaajiKAAAIIIOC/gKHoKKcuOmeMxg7rqazsIs393/f6atkGKzyomlVjLbfzhhRuux6T3Jp6k1kDa6WW/WDWwGrGYMWT1Vg1sOSpgZW6X9tS8/ThJ0vlcFfIZYZQhhlyVMhtLgm0Ao9Kud3mx576SYZD1195pipLMtXKnIFlBVhl9vPdzRy4yaGbrp6opIQIrd6QoX89do227EjXmnWb9emidVq5epcycwpVVFQsh9Ohtq2SdMnkYTr5hGG6/4l39cW36602WYGhtWbTS2qHOYF52DPwrBpYlx+vN+as0hXnD1Pr1i1UUV6uZ1/7Shs371SXzm113Ki+evfDpSopLVHrlBb64+8m6PEX5ikrKy8gBdHtEl0uud3mDKzz9cFnq5WYEKtLzxml397wooqK8z1Ghtq0StBfbrtQOdk5+mLpZmuW1rGDu2hA386a+cwc/bC21vUZKM7ADBJnRQABBBBA4AgVIMA6QgeWbiGAAAIIIBAIATvAMMKjddk5I5SRXaL5n660ZldZRa/qmvRjhkZuw5rZdO9tF2r2h1/rp/V7m3cGljezMYMcq4j7Jdq4dY/atW6prTv2yG0uqfNpm+EJfMw5YuanrcPdhszPDx/cS0uWr1XPnt014wkzwCqXW81cEN0TmY0b3V+/OWOkVTNq2cqNWvD5Kg0a0E3HDuulNikJSsvI1M7UTMVERapP7w7alZqtV9/5QvuzzOWCLmu5ZtVMNisw9BQfC2iAVaHE5BTd5KmBFe6UunZurby8Iq3e8LMKC4s9oZp3UFxqndJSf7r6FD32wnxl5uTa4gEIhQwzwFKUnp3xG32wcI3+t2iNwsMMlZdXeK7P6heNjYnWyME9dFS/rjqmX3sZhlO3zXhd+7MLSUt7SAAAIABJREFU7N0sa13LgYwFA/EvlXMigAACCCBw5AkcNgGW+Y6podf+876m/vUjpWUWNn9xzyNv9OgRAggggAACh1bAsxOdQy6NHt5P550+wloOWFRS7tMOb4hifsr+2JwZ1b5Nsnp1baEH/zbHqpdkp0ZVyZN/s4Y8p7EDjEjdfdMkxScmq6xCCnNWzwSzWmTWkjJzrqoWV0VYVZ/Jys5RbEyk/vL4LKsovfUIQOBihnrhYU7LoqLCpcpK+0UcDrdapSSrQ9sWigg3Z3+5lZ1XqO27MlRu1mUKTHMOfi1V7UJYqdiEJE27fqKKyhxK25/jmW1XvXi0+kRmf9yKj49Tl3aJuuuRt62dKwPSAW8NrP+/nPGRqecouWUrbdiy11PO3tsic0fH6plq5nVpFujv1z1JG7dm6PHnP7Rn6dW4Pg7tPzFeDQEEEEAAAQTqEPDuEOSW2raK1V+nnqfLfntmnVQ7d+5Uu3btFBFhlmU48MNwuw++pcz+/fuVl5en7t271zpLrQBrf+GvcWvGdYIAAggggAAC9QlYAYBDzjCHWiZGKdxZZs9YqXGcPTOoaj6QuYueI1z5pU7l5RdLLns5XnNmQt4qSGb60CIhXpNO6K2kBLsuV90P76t79+yrflZ+YYkWLNqkfZm5npCtPpRm/vrBpvtY6YqZ1nimCDX3bn513TP6Zo1mJGkY6tguST07J9rP9s5W8hnU6nzSIZfbpR27C7Rzd6aPp2dJZnNMbapxDkPx8ZFKiguT23OdVQep9t6MdqRqNtv8m9PqT3Z+RXW41szDyekQQAABBBBAwA8B6z7DvP+xZ5u3axWnR6ae+ysFWJ67W/OPqhlYBFh+jC6HIoAAAgggECgB33V43lTDrCHlqcNk3lgYnuWE3viqKicyZ7aY9afMKUaGDJdnmVazpVhVhbBkWLWhIs0X+iWE9x08b9hSR/hi1lKS23dWmc9SvQDQ2mGPd1mdOUvI5+bI9/Ws0MqeHlQV2DVrDHiAzvkaWW6eWWvW7oy1jqlKrsyAyqc+lyqqZ9fX1b9aS/Yay1xzGM2/ecfee114Z9J5p+v5pHLWU8zrtplT1cZ2gucjgAACCCCAQB0C5v2EeW/mtN58Mmdg/XoBlqd5VoD1+nua+shclhBy0SKAAAIIIHBYCtg1sKrClqoswA6jqmqJ++YWVsJhFnG3C45bs19qFB1vpo76BiDmTY75SlYO5LJqcNXIWaysyJ6HY83IqbErnp0Oub0BiGeZY3NMFKrR01pZoJ0L2fXCrLZ6X7B2eFQVsnjxzcY2WwpY52BUZVLer3pqipkz73wq99dKf7yO3s7Y41G1qNSbeXpGwp4b5c+jxgXgmWNlXwfW9eo5u+nrta7xaj6bDvjTCo5FAAEEEEAAgeYW8AZY9ptT7VrF6JHDYgmhGWD9da7S9hU1b3HX5vbjfAgggAACCISYgJkBjB97jI7q01rzvlyvTVvMndq8wYDLqtlk7uqXsT+/KvxxqEJdOrVRQUGh9meXeIIrM8gwQzBHs68hNCOpyy4Yp5gI6ePPflTqnkwlJ0bpjAnH6t+zv/SEWpWe0ltODR3YRQ6jUst/+tkTZjkUHSkNHtRbi5dvqi6UXlWrq7kH3Q4EnREROmVsf/Xs1k4lZdJXi5bKERGvDZtTPW2usNrcs2s7q08lpZ6i5Gb4Y+28V8dMs2ZsqjnK7dq11IVnHKtX3/1GOTlZSoiLVnx8lLp0bKXv1+xUUUmF+vRor8z9+1VQ5tRxQ7to1ertyswttmZsde7QUp3bt9B3P+6oquNlt90MN61IqVa9qsZ2oCoRsw40La+8aJw2bdmt12Z/IcPabdKnOLsla4aq9nV4KBwb2yOejwACCCCAAAJW7QJPPmT/zG7bOkaP3nm+Lv3tGXXyHLIaWP+dM0//N2OOdu41C4L69z4cA40AAggggAACzSeQmBCtay4ep3fmrVdSdInu/NMUfbXoO514/EiVlZUpNydLP6cVqLKyUgN6tdX8L7/XkGMGqE2LWBUXFyltX4FiY6MV6axQQVGpHv3HXOUXeAp6+91MO0hr3yZet994nqY9Mke9u7XUdVMm6j/vLNAfrztfBfnFWvDZEp1x6skqLyvS+i2pOn7U0Xr1rfnq36+HKsuKFREZZe1EmJzcUukZ+xQXE6WZz8xWTq75xloAHoYZ5lWqRYsUXf3b0Xpt9lL96dqztGTJIl143lkqLy3SS69/pNv/71pt27Zd7du01LzPV2ncsQO0YdM2JcTHaPOuPL30xicBaJzPKQ23Thx9tH5z2gDN+vgHDRnYS0MG9ZThMJSbl6cfVm9Ty5Yt1b93e7357gJdc9XF2rFtmzZu2aNxY47SUy++r2n/N0UrV/6g9u07KNJZosJS6f15K/TV4tWqqPQGoU2796trdlxYeJim33K+Xnv3a11xwVhrJ8KoiAiVVbrVs0trbdu5R6UlxVYh+s4dW2ndhm16479LVVJSGlhLzo4AAggggAACjRTwzJq3yi241bVDkh6bfp7Omzzp1wuwzPfBPv3iG937+BwtXmW+q8sWMI0cVZ6OAAIIIIBAwAQiIsN105UTtHrDbiXEuDVy6DHauWuHunXvqcXfrdHQQZ20Oy3Xmr3UOiVZCz/7RnszS9W+baKKC/OVktJKURFObd6WoQknHqM7H/yP9qbnetrbtOCiqrOeNW5xMeF64r4r9Oo7X2jwgM4649Tj9PzLs/T7K85VUUml3v/ocw0aOEA//rRWo4b1UlGpobTUHRp73HFK3Z2qPXsz9fGnK3XDVacrdc9+RUWE6e+vfaKMzMI6CtU3B7V5Q1apuIQk/e7CY7V+8x6NHnW0ln23RDdde7H27ivWm7Pe0/jxE/TjD6s05tih+vyr7/S7yybr40+XqbS0WH17ddH/3ftKczSm+hxVyxbNDyoVFhalS84eoeNGH63c/CJFhDm0eMVatWyRqE5tk/XOB9/q5t+dqZwCl1YuX6RBQ8Yoe/8etWndUv379dW/33hHAwceo8z9ezV29Eht2LTLCj03bN6ptz5cocpyM8g0Z2I1dRmhua22vWmA92G2/JZrTtd3q9br1uvP087d+7Rn734tXb5e02+9TNt2ZijMKFd5ZaW+XbldvTon68l/LVBeXoDCyuYdIc6GAAIIIIBASAnYZR/MWqtujRnSWff++VydcuKYQx9geXcoMm9a0jOyNOOx1/Ta+6usd2drPKx6C2bhrsBOkw+pq4DOIoAAAggg0AiBVimJGtS3vdZtTlfXTi2UujdT8XGxys4pVHJijCLCnUpMSlJeXrb2ZxapfVv7OT27tFH6vlw5w5wKC3coLjpKS1dttmZr/fJRV9Gnehrpc3/QpWOKenRprfT9eUpMjNP27bvVunUrxcWEaU9GlqKjopWTW6DkpFglxsdoT1q2undpq73pmaqocCl9X441I6e8okJhTqc2btmrCpdZgLwJ7aqv2Z7AxmEYateuhbp0aKWCwjKlZaSrfbu2SoiL1PqNO9W6TWvl5uTK9M/PL1SLFkmqrKiwds/LLyzVxi27GzGK9T3VEwP57HLoDAtXp7YJ2pdVqH69Oiljf5ZlZG7yV1xcqm0709S2dZLkcCojfZ/69++p/Lx8RUZEyukwtHl7qhW0mcaJCXFqkRSr4pIy7dq9T6l7syxb+8bUfDSfc8+ubZWRmaOhR/fQ3vRsVVRWamdqloYc1VVhYU6VlpSorEKKjHCouLhcazenyu3yM0ytj5evI4AAAggggEAjBbwVNF2KjYvWFecO1vQ/T7HeKKvrcQiWENovW1FRoS8XLddfn/tQny/docrKCusdNfum0QyuPFsuN+PNTSPleDoCCCCAAAIhK2DfPti/4NtF2+2/ecpiW++KWcXRzc9bFbvtYKK6VpaH7qAV0RsfYNjFz6vbVFUt3Nsyq61V2yHWqIVUvSGe2e5fPsfui/f4xrft4BdLrZpMPhvleevc+1pX13DyBfQUq2+mq7KqwL7vUFnj6C0y73Wu/rPqCjDHwS6LX3Wn5rMJZfV1Y3XK93jTwduP5ja2O+J7PdqvVX1dVr929dXcTJycBgEEEEAAAQT8FjCLVTrkdIbppGM767brz9a4sSOsN6PqehyyAMt88cLCIn256Du9Pvtrvfe/9Sq3drE21zp6C3f53XtOgAACCCCAAAJNEbBm5ZhvKJm/6HvfWKpjuzzP7n/Wc3yCAvslvQFFXbOvmtIo8xjfN7nMjz1/981CvIXYa3/Om2BVLUCzt2m2K3v7JC3W15trdo55Yl83e7c8u0ipz8N3a0cr8TGnztdqhpXced/ga6pf7eNqja3VLu9uh97x97S1emvBWhsSer9uttdj6d1escq1rvY2p7PPtVr1mvZNcPXDE1pZbTMdm2uMm2ssOA8CCCCAAAKhLGBv0hIZ7ta5EwbokvPGatxxx1p1VQ/0OKQBlnX7UOnW6jXrtPKn9Vqzca8yMgvkclXvThOY9+ZC+aKg7wgggAACCDRUwPwl3zfE8J214jOrxZqF452NU/s55ms1709z37lTtZIUn455X7N2taTq2kueuUY1jql57oY6Ne55vrPb6j6yOrmq3hSxeqZT417twM+uPV/ul/Fk9UK/asW6p9RVf9b3LN6jvNdG814HNXtWx+y/OvY6DKRnc40L50EAAQQQQCAUBRwOh9q0jNOAPu01+Og+GnhUPzkdBy8rtWPHDrVv314REREHJTPc7oNvHZiXl6c9e/aob9++dZyo+tbNe8Nr1sZI25uu0tIyn7KeB113EIpjSp8RQAABBBA4hAIHCiu8iwu9TTl0M1nsFh38/qDu5xzsmNrBSqD7U1e4Vtew+j4v0PdEjWlTU33M1/CGomZ/m3qeg/0T8HWqa5lgoB0P4T9PXgoBBBBAAIEjSMCcBB4VEam27VrL4QzzefvzwMv+N23apM6dOysqKsq/AKukpERbtmyxAqywsLAaJ6tZMcH35rf2jdoRNBp0BQEEEEAAAQQQQAABBBBAAAEEEECgEQJ1B1hmXfWNGzeqR48e/gdY5oyq7du3Kz4+Xm3atGlE43gqAggggAACCCCAAAIIIIAAAggggAACdQukp6crPz9f3bp1k9NZd5F375H1LiE0n5ibm6uff/7ZmtJlBlnmFtA8EEAAAQQQQAABBBBAAAEEEEAAAQQQaKyAWc3KDK527dqlTp06KTExsd5TNCjAMs+yf/9+mclYXFycFWJFRkbKLM7FAwEEEEAAAQQQQAABBBBAAAEEEEAAgfoEXC6XSktLZdZbLywstFb6paSk1HeY9fUGB1jmk4uLi5WTk2P9WV5ernrqvzeoATwJAQQQQAABBBBAAAEEEEAAAQQQQODIFzBX9IWHhys6OlpJSUnWnw19NCrA8p7UTMzM/3gggAACCCCAAAIIIIAAAggggAACCCDQUAFzNV9TVvQ1KcBqaKN4HgIIIIAAAggggAACCCCAAAIIIIAAAv4KEGD5K8jxCCCAAAIIIIAAAggggAACCCCAAAIBFSDACigvJ0cAAQQQQAABBBBAAAEEEEAAAQQQ8FeAAMtfQY5HAAEEEEAAAQQQQAABBBBAAAEEEAioAAFWQHk5OQIIIIAAAggggAACCCCAAAIIIICAvwIEWP4KcjwCCCCAAAIIIIAAAggggAACCCCAQEAFCLACysvJEUAAAQQQQAABBBBAAAEEEEAAAQT8FSDA8leQ4xFAAAEEEEAAAQQQQAABBBBAAAEEAipAgBVQXk6OAAIIIIAAAggggAACCCCAAAIIIOCvAAGWv4IcjwACCCCAAAIIIIAAAggggAACCCAQUAECrIDycnIEEEAAAQQQQAABBBBAAAEEEEAAAX8FCLD8FeR4BBBAAAEEEEAAAQQQQAABBBBAAIGAChBgBZSXkyOAAAIIIIAAAggggAACCCCAAAII+CtAgOWvIMcjgAACCCCAAAIIIIAAAggggAACCARUgAAroLycHAEEEEAAAQQQQAABBBBAAAEEEEDAXwECLH8FOR4BBBBAAAEEEEAAAQQQQAABBBBAIKACBFgB5eXkCCCAAAIIIIAAAggggAACCCCAAAL+ChBg+SvI8QgggAACCCCAAAIIIIAAAggggAACARUgwAooLydHAAEEEEAAAQQQQAABBBBAAAEEEPBXgADLX0GORwABBBBAAAEEEEAAAQQQQAABBBAIqAABVkB5OTkCCCCAAAIIIIAAAggggAACCCCAgL8CBFj+CnI8AggggAACCCCAAAIIIIAAAggggEBABQiwAsrLyRFAAAEEEEAAAQQQQAABBBBAAAEE/BUgwPJXkOMRQAABBBBAAAEEEEAAAQQQQAABBAIqQIAVUF5OjgACCCCAAAIIIIAAAggggAACCCDgrwABlr+CHI8AAggggAACCCCAAAIIIIAAAgggEFABAqyA8nJyBBBAAAEEEEAAAQQQQAABBBBAAAF/BQiw/BXkeAQQQAABBBBAAAEEEEAAAQQQQACBgAoQYAWUl5MjgAACCCCAAAIIIIAAAggggAACCPgrQIDlryDHI4AAAggggAACCCCAAAIIIIAAAggEVIAAK6C8nBwBBBBAAAEEEEAAAQQQQAABBBBAwF8BAix/BTkeAQQQQAABBBBAAAEEEEAAAQQQQCCgAgRYAeXl5AgggAACCCCAAAIIIIAAAggggAAC/goQYPkryPEIIIAAAggggAACCCCAAAIIIIAAAgEVIMAKKC8nRwABBBBAAAEEEEAAAQQQQAABBBDwV4AAy19BjkcAAQQQQAABBBBAAAEEEEAAAQQQCKgAAVZAeTk5AggggAACCCCAAAIIIIAAAggggIC/AgRY/gpyPAIIIIAAAggggAACCCCAAAIIIIBAQAUIsALKy8kRQAABBBBAAAEEEEAAAQQQQAABBPwVIMDyV5DjEUAAAQQQQAABBBBAAAEEEEAAAQQCKkCAFVBeTo4AAggggAACCCCAAAIIIIAAAggg4K8AAZa/ghyPAAIIIIAAAggggAACCCCAAAIIIBBQAQKsgPJycgQQQAABBBBAAAEEEEAAAQQQQAABfwUIsPwV5HgEEEAAAQQQQAABBBBAAAEEEEAAgYAKEGAFlJeTI4AAAggggAACCCCAAAIIIIAAAgj4K0CA5a8gxyOAAAIIIIAAAggggAACCCCAAAIIBFSAACugvJwcAQQQQAABBBBAAAEEEEAAAQQQQMBfAQIsfwU5HgEEEEAAAQQQQAABBBBAAAEEEEAgoAIEWAHl5eQIIIAAAggggAACCCCAAAIIIIAAAv4KEGD5K8jxCCCAAAIIIIAAAggggAACCCCAAAIBFSDACigvJ0cAAQQQQAABBBBAAAEEEEAAAQQQ8FeAAMtfQY5HAAEEEEAAAQQQQAABBBBAAAEEEAioAAFWQHk5OQIIIIAAAggggAACCCCAAAIIIICAvwIEWP4KcjwCCCCAAAIIIIAAAggggAACCCCAQEAFCLACysvJEUAAAQQQQAABBBBAAAEEEEAAAQT8FSDA8leQ4xFAAAEEEEAAAQQQQAABBBBAAAEEAipAgBVQXk6OAAIIIIAAAggggAACCCCAAAIIIOCvAAGWv4IcjwACCCCAAAIIIIAAAggggAACCCAQUAECrIDycnIEEEAAAQQQQAABBBBAAAEEEEAAAX8FCLD8FeR4BBBAAAEEEEAAAQQQQAABBBBAAIGACjQpwHJ7mmQEtGmcHAEEEEAAAQQQQAABBBBAAAEEEEAAAalJARZwR55AdShpfkQ0eeSNMD1CAAEEEEAAAQQQQAABBBBAIHgFmhhgeeMO346boUddnw9enNBsOeFVaI47vUYAAQQQQAABBBBAAAEEEEDg8BVoQoDllpsZOofviDayZbVjR8MKIQmxGsnI0xFAAAEEEEAAAQQQQAABBBBAIIACjQqwSspKlZdXqC1btmrfviy53YbchluG2w48zI95BJmA25AZWjkMQ+07tFWPbl0VFxet8PAwgqwgG0qaiwACCCCAAAIIIIAAAggggMCRKtDgAGt/Zpa+W/6jZn+8VBu3ZSozp0SVFZUsGjwsrwzvDKqagaKZM9aZMRpSRHiY2rSI0cC+bXXuaaM1bOhRio+LPSx7R6MQQAABBBBAAAEEEEAAAQQQQCC0BA4aYHkXk2Vl52jO3C/07Gtfac3mdJWXVYSWUtD11rMw0DD/9HzsdlevDLRyrTpqlhmGoqMjNHZIZ90w5SSdOuEERUQwEyvohp8GI4AAAggggAACCCCAAAIIIHCECdQ7A6uiolxff7NCU2e+qxWrU+V2u6iBdThfBOYUK7fTKqhvyCWnyq3/d5v/GQ7J7aqj9dUztgxVyuEM1+TxfXXfbRfpqAH9PMX5qYt1OA87bUMAAQQQQAABBBBAAAEEEEDgSBaoJ8Byq6CwVA88+rKee32JCgpLJMMpt7vySDY5Avpmh02RUVFKSkpSQX6eCguLrEDLLUcdu0V6Z2OZawzNL7vVIilWD/55gq69+mI5rHWHBFhHwIVBFxBAAAEEEEAAAQQQQAABBBAISoGDBFh2aLFz127dPO15ffjpRslwWTWU2IXwcB3r6mWBUVGRuvHKiUpJjtSe9Hy9/v63ysrJk+E2Z2J5ZmF5S2R5simzGL/9NcMcZF1/6Sg9cNdVSk5Otjps7z9JkHW4jj7tQgABBBBAAAEEEEAAAQQQQOBIFah3CeHS5d/rzgff0VfLtlqhBo/DWcAbYDk0/Jiu+ucjV+jTxdvUr3uyHvvnQn25eJ25VaQ9E8u3BJa3ZFaNuVkOnX/aUXrgtgvVu29vq9NEV4fz2NM2BBBAAAEEEEAAAQQQQAABBI5cgXqLuC9ZskJ3zpylRcu3S4Yhw23Ow+FxWAoYbkWEhevic47Vzb87XWs2pmnztt3q1qWNhg3qolfe+UxPvbCgYeNnGJo8ob8evP0i9e/f97DsLo1CAAEEEEAAAQQQQAABBBBAAIHQEKh3Bta3S8wC7rO0aMX2hs3AqjGzx1yK5om7amx6V8cOeHV4G4Yht/f4Wl8/8Bl8vlLXk6x6TubDuzufd/2cOf3IrAFlrZGsflh/r2PuUZ0NqC6GXnWChnW1Ga42w9ox8MYrJ2lA73aa8dQc7UjdV+XftnWy/vLnc1Thcmjaw28rJ6/A068DxZGGJk8coAduv9AKsJh91QxDxCkQQAABBBBAAAEEEEAAAQQQQKBJAn4EWLXXndWxDs2waynZeVF1MHSgLMtc3GY4JVelfZAdmrhlmLvnSXLJU5/J/JwnVPKWF6/+s2aAVf2y9ucdTodcruoaUFXPtl7sl4Gb/fWqIlHV3bBOXLsguo+B3XS7356aUk0aoUYcdN7po/Sb04boxnve1P6s3Orw0HOO8PAI3fens7Q/p0TPvDxfFRWmAwFWI4h5KgIIIIAAAggggAACCCCAAAII/AoCTQ+wvMmP4VbL5CQNHdRN3y7fqMLCYk/yZOiYAV1UVFKuTVv3esIU8yAzNHF4dsSzAx6reLgM9e/dXtddMVE3T3tFLZLjdfPVE9W3d1eVFJfolbc/05dL1vqERp4d88zzmUGS1R63tcyxetaXT4AmQwN6t9V1Uybpxukve1M1z3M9QVRV2lW9G1/N83lDruoJXGZhe7M/dtZmhkG+oZYnvKo9q6u5B9owFB0ZpgVv3a0/3Pac1m9Nrw6mqmaV2bWvOnVqpzv+MEmPvbBA239OO8isOmZgNfcwcT4EEEAAAQQQQAABBBBAAAEEEGiaQBMDLDMMcctt1cSq1LDB/fTqo5fpjQ++00PPzPOEU049MvVMpWUU6smXPpOhCiu8chtO6xi3NavK0DmnjlB5RaXmLvxBKS3jdMb4o/XqO1/rj9ecrkF9Wum2mR9q+MB22rU7V+s275ahSjsrMoMiz/I+wzA/Zy43NIOxSrnltJ5jGBXVH7ulVi3jdNr4Ydb57SjK/nrV8d4gyprhZdb6Ms9n9tN8ttlecxdG8/P2MW63+Tpm9GaGWPbuflb73GENqzPVtDHzhHVmyOYJz9xuHd2/s+679Xyd87unzSlsNc/smS1m9jcqroVuvfoEfbVsm75eurru5ZEeHZYQNnWAOA4BBBBAAAEEEEAAAQQQQAABBJpToGkBlreYu+GQw12hYUMH6M/XTNKIwd114bVPatlP263A59Fp52tvRoGe+Od8JSbGqmPbZEVEOJSVW6q9aZlqnRKnZx+8Sl8vWav5n/+g3fsK1KlNktIzc/X4vZdp09ZUzVnwk4qKC5WTV6zs3HzFx8WpU7sW1nly80u14+c0JSclql3rBEWEO5SXX6ZduzNUXlGhVikpatsqVk7D0N59uSouLFH7DinasPlnRYSHq2O7VkpMiFBJaaVS07KUn1+s5IQoJSTEyeFwKjkhQoXFbu3avU/FJcWKioxUl05tFG31oUSpezOsGKx925ZKSY62QqvMnBKl7jZnQPksIayrhpY/o2jNNvPsJqgwyajUuNEDdNEZw/WHu96UoRIrzLNXPnpreJl/r1RUZIxunHKiVm/aq0+++P4grWAGlj9DxLEIIIAAAggggAACCCCAAAIIINB8Av4FWHLKoVINH3KUzj11sFLT8nX2KUfpslte1N6MHD06/TylpRfo9Tnf6bpLx6lFi0RVVFQqNjpMH3/2k1Xv6oHbL9K6Tbu1aNkmbdy8U4/ee4X+cPvzemT6ZcrMzNbyNWnq0CpK3yzfpA8XrtL9t56rxIQ4FZWUKXX3Pj35r4U6dVx/jR01QE5nmHp3TdGTLy6wXv/WP5ym4tJKuV3SZ4tWKyunQE/PuEojTrtTvzljpE4c3U/5RRWKiYrQ7r0ZevKlL3TaCX30u8sm6rtVmxQTE6tuHRKstr45Z7FuuXqCenVrr7yCUiUnRukf//5UmdmFmnbL2crOLZbhMLQrNV1Pv2ju9FerGHzzjVnVDCxz5pfbE2CdOHqAfnO7NTXHAAAgAElEQVT6UF1/19syjFK7bpcVYnnrfZmBV6UiouJ10xUnaPVGAqzmHBLOhQACCCCAAAIIIIAAAggggAACgRNoWoBlhiNmMOIOl2GUaMTggbrgjKH66/PzrCLhezLyNfPZuZp5xzlK25evbanZGn9sL/3lmXnKycrQ+BNG6LxTB+v2B97SMw9dqdkfLtb781dq1NBeeu7hqzTklDv19ANXatnKtXp3/lpNv/FUrduSofLyIl0/5VRddvOzys4pUEREuPIKipUQF62KCreKyyp123WnKTEu2qqFVVxcoqde+kSu8gprkd8x/bvquZlX6rxr/6YZt56jv728UCt/2qo2rZL02D2X6oX/fKE2rRN11QXH6drbX9TutCwdP6q/rrt8gv711he6+49n67fXP6+0fTm65uJxGjqws97871L94fKTdO3t/1JxSZliYyKVmZUfuBGrOrN3DJzWWPwiwPLM+qouaW/IMFyKiIz1BFhpzMA6BKPESyCAAAIIIIAAAggggAACCCCAgP8CTQywvLsKhskwyjRiSH9deMZwzXh6juJio/X8zCl64JmF+s2k3tqbVSmnIRUUFOnv//5ccpWpY6d2+ttfLtHNd7+iR6ZfqtkfLvEEWD31j5lXa/CEO/T0jCu1bNU6zZq/RtNvnKR1W/Zr7JD22pcn3f/4256C7Q6Z06uSk+I0ZlhPdevS3lrGWFpaoeSkGM148n39sGaXvYzOMDRqSC/9Y+YVuuWe13XpuaN0x8zZys7OlSGH7r/9AuUUFOrn1GydOKavrr/zX9Ysqs4d2uipv0zR96u36/STB2nOpz/K4Xare+fWGj28u8ZMflDPPTRFbVKS9LeX5mnOAnNZXq0aVP6PU60z+BawN5cQujRu9FG68PQhum7aWzLcZZ6dE30KyltJlkuRUd4AK0MLv1hpzxSr88ESwmYfNk6IAAIIIIAAAggggAACCCCAAAJNEmhigOUp4m4tISzT8CEDdOGZZoD1X+UXFOmqi07WwH5drK/t2J2jcjPPqSzTM698pkpXibp1bq/H7r5Ut9zzqv569yWa/ZFnBpYVMJkB1p16esYVWrZyg2bPX61pN03S2i0ZGnl0OxWXhWn6zDes2MUssN6nV0c9df8Uffvdeq3b9LOOG9FbsfEJSk6I0aPPfaDvfthqF1p3Gxo5tLf+MfNKXT/tNV114VhNffBd7TcDLEN66K6LtCc9V2npuTphVB/dNO0VC7RTxxQrwFr+43aNH9tXr836sqrUe36xW+/NW6Lw8HCNHdpdt1xzukpKK3TFH/+hkrJye0AOlA81abg8B9WogWXPwDppTH+df+pQXW8GWCrzbJNoPr9qu0irCH1EVKxuvGKc1m7cqwVffm/XwbeLZdV6EGD5M0QciwACCCCAAAIIIIAAAggggAACzSfQtADLnABkBR/eGlgDdeGZQzXj6Q+Uk5urtm1S9PBdl6hPt2TNmrtK6zbv1bmTjtGDz8xXWlqqzj7teI0f3Ud3zJylx+69TCtWbdSLb32l4Ud313NmgDXRMwNr5TrPEkJzBla68vNzNfWW8zXl5ueUlp6pxKRknTCyu844Zbiuue1FRUZG6/F7LlFeQb5ycgsVHxOth575QGVlpXKGR6h/r3b6+4NX6Ywpj+qhOy/Qm3OW6LNFP6lrp9Z6+K6L9NgLC9WlXYKOGzVAN017SW7DnIHVSk/dN0UvvPGZ7rr5bN1yz9tav3mXYqLCFRMdqfyCYkVESFnZRerWuZUWvjVdYyffrb3puV6k5hst75k8uy96/xoTE6XfX3aSEqKc+svfFshQqVX/yg75PBmaNWnLpbCwKF1zyfGKjIrSP175RCWlnqDN97nWiQmwmn/gOCMCCCCAAAIIIIAAAggggAACCDRFwI8Ay1x8FiaHSjRs6CBdeMYwPfD0+8rOKbJmNI0dOUCzX7hOM59bqFfe+kyXnjtaY0b0U2RklLKzs/Wf97/Vou826IzxQ/THa0/V+k0ZmrtwqR6ceomGTLxVT9//Oy1btUbvzlunaTdN1PotezVnwUr93zUTNHxwbxkOp9au36FXZ32tR+++WG4jTPv352pveoZi45P09Isf6vY/nKGO7Vtby+Tem7tUO/dk6en7p2jYpDt1wrF9dck5Y5SUlKxKV7m+WbpW/3xrsSaPH6CxowbqpukvWjv9demQoifvv1I3Tn9F447tozPHD1N0TKzKykr0/ryl2rAlTXfccKbCI6NUWV6iVau364kX5qm8wpx2FqBC7p4ZWOaAR0VF6veXjbdCOLOm1/Yd5s6I3mlf9tLJqiTLc4V069JWN191ijVWDz/7nsrKK2S4ay8mJMBqyj8ojkEAAQQQQAABBBBAAAEEEEAAgeYXaFqA5W2HZ3qP0+lQeJhDpWWVcrvN0MTMTQzFRYertLxSZWWVcoZFKCrCIafDpbIK87llcrtccjgdio4Kt+ozlZa5FBnhVGFRmaIiw1TpqlR5hRQZ7pTL5bZCIWdYuKIjnDKs8xgqK61QZFS4IhwuVbrdKitzy+l0q6SsUuHhkYoMt5c7lpS75HJVKMo6f4UMh0OREZEKD6uQy+Wwnl9ZWakIp0MOp1RSatexcjgM6xhzN0M5HNZrhztdcrnNY9xWu6KiwhVmVKjCOo9LlZXl9g6AVun4AD2s3QXD9ftLj9cNlx6vl9/5Vvsyc6zwyvyK2Wuz3+byQGuBoNuQ2zrG/ntMbIxuvXaiPvl6nW6+521rGaLhNnc1tJckmu2fPLG/Hrj9QvXv37fORYYB6hmnRQABBBBAAAEEEEAAAQQQQAABBGoI+BdgHQDTDE7sR/VH1ppDT5Bif+ypu9SQGlG+JZrsfMxTt8lzcK0ldVXNqvPz1fvyVT/P89GB65l72u4tXu8pju49v0/77JlMddWUas4rr7oG2ejhvXX6yUN8Zl3Zrx0bG6WSkjKVu1yKDAtTWJhDxSVmsGaGVHaIZf654sfNmjN/WR3LHQ1NnjBAD9xBgNWcI8e5EEAAAQQQQAABBBBAAAEEEECg8QINDrC+Wb5Nbjk8s3oa/0IccQgEPNmcOfvt3NNGKDoqTN+vSdXQQV2UlZ2nBV+uU2VFqdzeZYUHbZKhcyYM0IwaAZZP8HgIusNLIIAAAggggAACCCCAAAIIIIAAAqZAvQHW4iUrdOfMWfpm+Q57ZpG1vAy8w1KgasNBQz26ttPFZw9X65QEpWfkaPb877Vpy26ZKzzN4vT1j6FDkyf01wN3XKD+/ftZ3Q30vLLD0pRGIYAAAggggAACCCCAAAIIIIDAry5wkADLnm2zeOlKTZ05S4uWbfcsjQtgXadfnSPIG+CzZNIwXHKExSrM4VSFq1yuihK5zbpcnjpYVk8PFkQa0nkTB2nG7ReoX78+noL01laGPBBAAAEEEEAAAQQQQAABBBBAAIFDKlDvDKzNm7fpj/e8rPlfbmrgzJ1D2n5e7IACZp0ruxC9XYusscs/DV19wVDNuPNytWvXznMelhBywSGAAAIIIIAAAggggAACCCCAwKEXqDfAyi8o0rQHXtCL7yxXSalZBPzQN5JXbIqAp9B71bLCemZc1XqJ+NhI3XvzyfrTTVfKwayrpgwAxyCAAAIIIIAAAggggAACCCCAQDMJ1BtglZdXaN4nX2n6o+9p7eZ9VoBFhtVM+gE6TY19Fg+w6aJdB8uzm2KtdhgOh04a1U0P3nGBRo4wdzjkgQACCCCAAAIIIIAAAggggAACCPx6AgcNsKwFY24pI2O/3pz9iWY8+6mycoskt8v+gtuQHYG4zQ+tv/MILoHqCMscQ6fV+P49W+vO35+i88+dpOjocMq3B9eQ0loEEEAAAQQQQAABBBBAAAEEjjiBemdgeXucmrpbCz9fqtfeX6ZN2/artNwtl9stw23YtbFkL1njEVwCdg5pWMsEoyINDR3QXpefN1onjRutFi0Sg6sztBYBBBBAAAEEEEAAAQQQQAABBI5IgQYHWGbv8/LytX3HLm3Ztls7d+9TWXmFJ8Cybawci0dwCXjCx6jICPXo1kY9unVUl04dFBMTzcyr4BpJWosAAggggAACCCCAAAIIIIDAESvQgACr9s5zbpWWVqikpNiagWUFV42rD37EYgZnx+yZc2bdq9iYaIWFhQVnN2g1AggggAACCCCAAAIIIIAAAggcsQL1BFh2eGXHVG5rkaD9MD/DdKsj56rwjqs91tVLQalpduSMMT1BAAEEEEAAAQQQQAABBBBAIHgFmjADK3g7S8sPLFB7nh1WCCCAAAIIIIAAAggggAACCCCAwOEi0IAA63BpKu1AAAEEEEAAAQQQQAABBBBAAAEEEAhFAQKsUBx1+owAAggggAACCCCAAAIIIIAAAggEkQABVhANFk1FAAEEEEAAAQQQQAABBBBAAAEEQlGgSQFWZWWlzP/cnl0IQxGOPiOAAAIIIIAAAggggAACCCCAAAIINFzAMAw5nU7rv8Y+DhJg/bKsd2lpqTIyMlRcUqZKV2VjX4vnI4AAAggggAACCCCAAAIIIIAAAgiEoIBh9dmQw2EoOipSbdq0UURERIMlGjwDKzsnR1u2bFVcQqIio2MVFhYmMzmzG8ADAQQQQAABBBBAAAEEEEAAAQQQQACBAwu43G5VVlSopLhQBXm56tWzh5KSkhpE1qAZWPkF+Vq3YZPad+yiqJgYORp0ap6EAAIIIIAAAggggAACCCCAAAIIIIBATQFzzV9xUZHSUneqb5/eio+Pr5eo3hlYZq2rrdu2Sc4ItUxpVe8JeQICCCCAAAIIIIAAAggggAACCCCAAAL1CWTtz5AqKtS9R3c5nQefLlVvgFVSUqq16zeoY5du1rJBHggggAACCCCAAAIIIIAAAggggAACCPgrUFFert27dqh/vz6Kioo66OnqDbBycnK1dcdOde3e0992cTwCCCCAAAIIIIAAAggggAACCCCAAAJVArt2bFPfXj0UHR3tX4CVnp6u9P3Z6tCpM7wIIIAAAggggAACCCCAAAIIIIAAAgg0m0DanlT16NrZ/xlYVoCVma0OHQmwmm10OBECCCCAAAIIIIAAAggggAACCCAQsgJmvSuX1XsCrJC9COg4AggggAACCCCAAAIIIIAAAgggcPgKmLsQGp7m7TVnYHXrrOhIP2tgMQPr8B1wWoYAAggggAACCCCAAAIIIIAAAggEm4BvgMUMrGAbPdqLAAIIIIAAAggggAACCCCAAAIIhJgAAVaIDTjdRQABBBBAAAEEEEAAAQQQQAABBIJNgAAr2EaM9iKAAAIIIIAAAggggAACCCCAAAIhJkCAFWIDTncRQAABBBBAAAEEEEAAAQQQQACBYBMgwAq2EaO9CCCAAAIIIIAAAggggAACCCCAQIgJEGCF2IDTXQQQQAABBBBAAAEEEEAAAQQQQCDYBAiwgm3EaC8CCCCAAAIIIIAAAggggAACCCAQYgIEWCE24HQXAQQQQAABBBBAAAEEEEAAAQQQCDYBAqxgGzHaiwACCCCAAAIIIIAAAggggAACCISYAAFWiA043UUAAQQQQAABBBBAAAEEEEAAAQSCTYAAK9hGjPYigAACCCCAAAIIIIAAAggggAACISZAgBViA053EUAAAQQQQAABBBBAAAEEEEAAgWATIMAKthGjvQgggAACCCCAAAIIIIAAAggggECICRBghdiA010EEEAAAQQQQAABBBBAAAEEEEAg2AQIsIJtxGgvAggggAACCCCAAAIIIIAAAgggEGICBFghNuB0FwEEEEAAAQQQQAABBBBAAAEEEAg2AQKsYBsx2osAAggggAACCCCAAAIIIIAAAgiEmAABVogNON1FAAEEEEAAAQQQQAABBBBAAAEEgk2AACvYRoz2IoAAAggggAACCCCAAAIIIIAAAiEmQIAVYgNOdxFAAAEEEEAAAQQQQAABBBBAAIFgEyDACrYRo70IIIAAAggggAACCCCAAAIIIIBAiAkQYIXYgNNdBBBAAAEEEEAAAQQQQAABBBBAINgECLCCbcRoLwIIIIAAAggggAACCCCAAAIIIBBiAgRYITbgdBcBBBBAAAEEEEAAAQQQQAABBBAINgECrGAbMdqLAAIIIIAAAggggAACCCCAAAIIhJgAAVaIDTjdRQABBBBAAAEEEEAAAQQQQAABBIJNgAAr2EaM9iKAAAIIIIAAAggggAACCCCAAAIhJkCAFWIDTncRQAABBBBAAAEEEEAAAQQQQACBYBMgwAq2EaO9CCCAAAIIIIAAAggggAACCCCAQIgJEGCF2IDTXQQQQAABBBBAAAEEEEAAAQQQQCDYBAiwgm3EaC8CCCCAAAIIIIAAAggggAACCCAQYgIEWCE24HQXAQQQQAABBBBAAAEEEEAAAQQQCDYBAqxgGzHaiwACCCCAAAIIIIAAAggggAACCISYAAFWiA043UUAAQQQQAABBBBAAAEEEEAAAQSCTYAAK9hGjPYigAACCCCAAAIIIIAAAggggAACISZAgBViA053EUAAAQQQQAABBBBAAAEEEEAAgWATIMAKthGjvQgggAACCCCAAAIIIIAAAggggECICRBghdiA010EEEAAAQQQQAABBBBAAAEEEEAg2AQIsIJtxGgvAggggAACCCCAAAIIIIAAAgggEGICBFghNuB0FwEEEEAAAQQQQAABBBBAAAEEEAg2AQKsYBsx2osAAggggAACCCCAAAIIIIAAAgiEmAABVogNON1FAAEEEEAAAQQQQAABBBBAAAEEgk2AACvYRoz2IoAAAggggAACCCCAAAIIIIAAAiEmQIAVYgNOdxFAAAEEEEAAAQQQQAABBBBAAIFgEyDACrYRo70IIIAAAggggAACCCCAAAIIIIBAiAkQYIXYgNNdBBBAAAEEEEAAAQQQQAABBBBAINgECLCCbcRoLwIIIIAAAggggAACCCCAAAIIIBBiAgRYITbgdBcBBBBAAAEEEEAAAQQQQAABBBAINgECrGAbMdqLAAIIIIAAAggggAACCCCAAAIIhJgAAVaIDTjdRQABBBBAAAEEEEAAAQQQQAABBIJNgAAr2EaM9iKAAAIIIIAAAggggAACCCCAAAIhJkCAFWIDTncRQAABBBBAAAEEEEAAAQQQQACBYBMgwAq2EaO9CCCAAAIIIIAAAggggAACCCCAQIgJEGCF2IDTXQQQQAABBBBAAAEEEEAAAQQQQCDYBAiwgm3EaC8CCCCAAAIIIIAAAggggAACCCAQYgIEWCE24HQXAQQQQAABBBBAAAEEEEAAAQQQCDYBAqxgGzHaiwACCCCAAAIIIIAAAggggAACCISYAAFWiA043UUAAQQQQAABBBBAAAEEEEAAAQSCTYAAK9hGjPYigAACCCCAAAIIIIAAAggggAACISZAgBViA053EUAAAQQQQAABBBBAAAEEEEAAgWATIMAKthGjvQgggAACCCCAAAIIIIAAAggggECICRBghdiA010EEEAAAQQQQAABBBBAAAEEEEAg2AQIsIJtxGgvAggggAACCCCAAAIIIIAAAgggEGICBFghNuB0FwEEEEAAAQQQQAABBBBAAAEEEAg2AQKsYBsx2osAAggggAACCCCAAAIIIIAAAgiEmAABVogNON1FAAEEEEAAAQQQQAABBBBAAAEEgk2AACvYRoz2IoAAAggggAACCCCAAAIIIIAAAiEmQIAVYgNOdxFAAAEEEEAAAQQQQAABBBBAAIFgEyDACrYRo70IIIAAAggggAACCCCAAAIIIIBAiAkQYIXYgNNdBBBAAAEEEEAAAQQQQAABBBBAINgECLCCbcRoLwIIIIAAAggggAACCCCAAAIIIBBiAgRYITbgdBcBBBBAAAEEEEAAAQQQQAABBBAINgECrGAbMdqLAAIIIIAAAggggAACCCCAAAIIhJgAAVaIDTjdRQABBBBAAAEEEEAAAQQQQAABBIJNgAAr2EaM9iKAAAIIIIAAAggggAACCCCAAAIhJkCAFWIDTncRQAABBBBAAAEEEEAAAQQQQACBYBMgwAq2EaO9CCCAAAIIIIAAAggggAACCCCAQIgJEGCF2IDTXQQQQAABBBBAAAEEEEAAAQQQQCDYBAiwgm3EaC8CCCCAAAIIIIAAAggggAACCCAQYgIEWCE24HQXAQQQQAABBBBAAAEEEEAAAQQQCDYBAqxgGzHaiwACCCCAAAIIIIAAAggggAACCISYAAFWiA043UUAAQQQQAABBBBAAAEEEEAAAQSCTaAZA6wMpWdmqUPHzsFmQHsRQAABBBBAAAEEEEAAAQQQQAABBA47AUOSW5KhvXtS1aNbJ0VHRh20lYbb7TaPOOAjI2Of9mbsV8fOXQ677tIgBBBAAAEEEEAAAQQQQAABBBBAAIFgEjDDK8ltuGW4pT2pqerRo7Nimh5g2UlYQUGB1m/crO69+gSTBm1FAAEEEEAAAQQQQAABBBBAAAEEEDjMBbZv3az+/XorJir6oC2tdwZWaWmp1m7YqDbtOyoyMkp2TsYDAQQQQAABBBBAAAEEEEAAAQQQQACBpgm4DamspFTpe3arf99eioyM9C/Acrlc+jk1VflFJWrdrr0chlOGtU6RBwIIIIAAAggggAACCCCAAAIIIIAAAo0XMPOm9LQ9io+JUqeOneRwHHzKVL0zsMwmlJWVadPmzap0O9S+U2c5DOZhNX5oOAIBBBBAAAEEEEAAAQQQQAABBBBAwOWWdv+8U07Drd69eioyIqJelAYFWOZZzFrvmzdv1rYdO9S+YxclJibI6Qyr9wV4AgIIIIAAAggggAACCCCAAAIIIIAAApWuSuVmZ2vP7lR179pFvXr1ktHASVINDrC8zKVlZUpLS1N+QYFclZW1FhMyM4vLEQEEEEAAAQQQQAABBBBAAAEEEECgpoBDbjmdTsXFxalt27aKaMCsK98zNDrAYgAQQAABBBBAAAEEEEAAAQQQQAABBBA4lAIEWIdSm9dCAAEEEEAAAQQQQAABBBBAAAEEEGi0AAFWo8k4AAEEEEAAAQQQQAABBBBAAAEEEEDgUAoQYB1KbV4LAQQQQAABBBBAAAEEEEAAAQQQQKDRAgRYjSbjAAQQQAABBBBAAAEEEEAAAQQQQACBQylAgHUotXktBBBAAIHDUsAtqbn30bXPWX3mQLzGYYlJoxBAAAEEEEAAAQQQCIBAgwKs6ptulyRz40PvTbn5EQ8EEEAAAQSCWMBtSIb355lvzOSQZP7ck+R2SIbn4wZ31Ty+5sP7Ks0dljW4STwRAQT8F6g3jTafwD2y/9CcAQEEEEDgyBQw74SbdjfcoADLRKuoqFBmVo6+WbxSP6zZpvT9eap08QP6yLyg6BUCCCAQWgJmfmXmWObDm2VZf/cJt9xyyDADLetzZphlyHAbchtuua2PPQdbB7oUHh6u7p1baczIgRrQr5eSkuKb/MM6tEaD3iIQfAI5uXlas26zFi9bre0701VW7vbcmxNkBd9o0mIEEEAAgYAJuN1yOp1qk5KgwUf10JgxQ9QiOVHhYeENeskGBVjl5WVas3azXn3rE326ZLu27dqnkrIKz424920on7v/Br00T0IAAQQQQOBXFPANqKwfZYbk9pkjZSdSighzyOVyqaLSE1xZv5faoZX9G6rnmKpZXPbnDBlKjI/SUb3a6uLJI3TmacepY/s2hFi/4pDz0gg0v4BbqbvT9NH8r/XGB8u1dlO6cvNLqudfkV81PzlnRAABBBAIcgG3oiLD1KNzK510bDddcfFEDezf23rzt75HvQGW2+3Stu2peuRv7+jteatVUFBkvfvsfafaegGfDKu+F+TrCCCAAAIIHBYC1owrb2gVpratoq2ZxfuyiiVVKiI8UheeNVK/OXO0IiPC9d7HS/XKrC9VXl4uucPUIilCkeFOpWcWy+WqtLtkTeXynNczrctwGOrQJkF333iKzj9nglokJx0W3acRCCDgv0Bmdq7ee3+e7v/759qbliuXN7ryfh9gKaH/yJwBAQQQQODIE/BU8IiPj9GFpw/QHTf/Vt27dbTeAK4OmH7Z7XoCLJdKSiv02hsf6IFn/6fde7PkltNzk24uozjyHOkRAggggEAICRhuxcbF6l8zp+jkE0eqqLBIL721UI/843+aOLaHrrl0vG6++xUVFpbr+Ueu1JdLt+gfry3UQ1Mv0O8umaC8gjJ9vHCpbn9wlgoLC+uAM38Mm7O1HBrQs4VeeOQKjRk98mA/l0MIn64iEGwCvyx+tfjbZbrmjpe1bmuODFVa/9araucFW/doLwIIIIAAAgEWqLkAwimHytS+fYqm3zhBl198pqIjIw/agnpnYGVl5ermu57R23N/UmWlZz1/jTof5vl9llD40+EGncZ3uUatF6svUPOtE1bfc/3pR2OOrd3nBhk05gV4LgIIIIDAgQQcDoem33KOzNnGDz3zgVomx+vhaZfojfe/1tW/PVn//PdCfbl0g7WBSdfOLXX3H8/Txq1p6t4pUX+6f7bCneW699aLtHrtVr367lJJ5T5LBM3ZWGbxd/Mbe6XiYmI148+TdOXFpysxkXpYXJUIBLeAWzm5+Xrlrfm657GPVFhY6vO+rudt5dr3mt679jrfAa7jBtB733q43LMG94DRegQQCFUB3wk9fD/95VVQ2+dXyCOcTod+e8ZAPT3zJqseVvXjl28cHTTAMp++du1G/fm+17Twmy32eczCtTXWD9YysH7Yem7aDzRFy+cHco2fzVVVdGv9xPYg2p+1C+baj1r7OR3wgvStzOuDcDhcwL+4YPysJVbnP9Bf4SoM1W+Q9BsBBIJHwJBio6L07Myrdf8Ts7Rj1z7r58tVF41Xq+RwDRl8jJ5+frYWr9wqGU517thC0286W4mJifrbP9/Tt6tSJZVq4rihOmfi0frD1Desv5thl2+hd6vYuyoVFhGtGy4dqWl/ulgpLVsGjxMtRQCBGntXd+8AACAASURBVAL2naRb+zOz9cCTb+j51xertNSsDVvXww6z7Ftczz1oVc0973vAZs08t9xWHT6fcxBgceUhgAACTRTwDRzq+P3fenPRjBPqfKfB85remqb1Lzzz/W07aH7z/sVKPZ+fUU1U9+ewCcf11pP3Xq5+A/ocdH/CemdgLV66UnfNnKWvlm+rf+SsfMm34w38yWtdQN66IbW6bX3N/IHus3151UyqgxxX5z2E98bgcEiufBtYK3UyzF9+zDY2oZ3WTZINVH100Pwz8uea51gEEECgcQKGZL7j8/C0y7Xyh416+4MVioxy6ME7LtKSFRsUFR2r8aN76d7HZqmkXJp+81nanZ4nhyNMrspiPfL3hXI4Xfrz70+3lgw9+twCGSrz/BJqzrzyLrW3i7+Hh0XqmouG6/47L1PLFgRYjRssno3A4SLg2XXUCrCydM/D/9ZL73ynsnJPHbxfNNP7Jqq9c6lZP8/8PtGyZZwS42JUWFSifZkFqnSZJTpcMgyX3G5zx1Mz0GrareDhIkU7EEAAgV9X4ADfRGtsN11z4rz1fbqqnqkVbjTgG7F5z2c+13Pf15BDfl2YX7561Rsov15x8+NHdtfDd/5Go0YNa3qAZTZ/8dIVVoD19fLtDcxTPNuM15gf5Q1UPJGK9Vfzh7ghh1Xu0uW54a9KpqpQzUoC1tet7ctr1ou3ag1YYc8vj6vr/sGwQiHzXM4GXYqH5Lqq6pQZPNl1UgzDrKHgbKB37cDP9PDcJDUlADskneZFEEAAgcNAwAqwwnTDlPFWTav/fb1G8bGR6t+7o2655w1dP2W82rdNUXJygiLCwrRmwzYVl1boi29W684bTtWyH3appKRMY0b00e9vf0GzPvpeMswlhHXc6xhuO8C60BNgMQPrMLgAaAICTRGoDrAyM7M0febrennWkgMHWNYbsebsrEh1aJOkP1w6Thedf5KKCkuUkZmj5MR4tW6ZpI//t1jPvLxA67ZkSCqTFC7Dbd6zBuNvQk1x5RgEEECg+QTqnUZjZgjWBJq6Jox4ahl6d6e28gafyTS+zTQkhzUPx/49vmm/wDdfvxt9Jiusc0pGhf3Gifmx9Tj0P3uOG2EGWOfr2GOHW22pbkfNXtU/A2vJCk19uIEBVu1paFV5lf0F+68+U/HMXx4cTqsWSF5+gSrKK3y2Mbcvu+joSEVFRSg7O6+q5dacLMNQ23ZtlJGxXxUV5rte9c1WMhSfGKswh1PZObk+O081epgDckBsTLSioyKVnZuvpMQ45eYX2h6NfHi3dj/0l1wjG8rTEUAAgV9ZwPzZcv2UU9SvZ3s9//pnatMyQaVlZRrQt7tumnK87n7sA82au8S6uTFrZDmdETr31KGaevNkzXhqjnLyChTuNFRS5tKNU07RTxt26vEX5quoqKTWz33fGVjDdP8dU9SyZYtfufe8PAIINE3AN8DK1vSHX9PLB5qB5XlHOyUlWedOOkajhvTW59+s0dxPVygnv8S6FzV/d4iOdOik4wbqzFOGa8uOPXrno5XatXtv1Zu91mxO643fprWYoxBAAIHQFvDMqrIWi1UvJ6yaA2N9b/WNvOzfpMOcDg0Z2E27dmcqbV/OAQgdio6OsH6Pz8o2M4ZfJftp/PBWhQX2B1HRUYqKiFBufoHcLp/JMIcwVDh+RHfNrBFg1T1JqVkDrLi4aP3+spP1xnuLlZaR7RlAu2aWb9+Tk+OtVC0rp0AtEuN1zcXH640Plmv37nTP7CgTzbxBcOqEkb00aEBXPfvKJ3J75lKb5woLd+j1Z2/WH6e/or37zXDrAEsQq64hpy45d4RaJMbomVe+sJd2mI/D4mbA0Imj+2vM0E565vXluu63IyyPn3fvb+TFaKhf707asHmn/Y7dYdG3RnaBpyOAAAKHSGD08L664oKxuu+J/2pPWpb1s8p80+Qvt56vVT9t1tsfrvAUZa+uaRUeFqHrppyipLgI3f/UXM/MCkMJCTF68p7fav5XqzV77lJPDSzfejfeJYQEWIdoeHkZBAIm4K2BlZlZf4DVrVNr3XjFSdq1J1dvfbBYGeY9q/lOvqfuq3efUvOXp8T4GJ01caiOHdxVz7z2hdZvTvXMzveU6GjIioOA9ZoTI4AAAsEoYL+J2KFdK50zaYhSWiSpvLxSO3fvs95Q2JNu3/+Zvzhb/299bzaXBLo1/OgeevDO3+jWGe/qp7VbDxhgnTCql47u31V/e2VB9f3f4fz92ruy3YpPzFVuFRp+TG8NOaqDXn1vhUqL8834zl4SWVWjPPBj38wB1rtatGxbvXnIRZOP00O3n6V7n5qv/8z6whNAemdeefIsw9CZE4ZaIB998r3CI5zq3rm1du3OUlGx/W5U9bpTQ61T4pUQH6MtO9I8QZh9vsgIpzZ9+3eNO3e6tqdmHjTAsgNVp6beeLratorXLfe+be0IZYdeDVh+GPDxcuiCs0bqzJMH6orb3lDvzvHauTtbRcVmMeCGP5wO6b+v3qHJVzwst8tRNeet4WfgmQgggEDoCMycdol+XLtd73yw2PpB7XCXqmfPrrrh8hP04N8WaN/+DM8PcHMHXs87Am5D7dokau5/7tKIU+9QpbfsjSENGdhVv7tkvP7v3ldVUupdSui9SzADrChdc+Ew3X/n5czACp3LjJ4egQI1AqyZ/9bLs5bWuYSwRVKcbr/hDC1dtV0ff7pK5RUV1ozOmm9oe39xspefhIU5NHp4H9105QTdcve/tcd6Q9j7/ecIxKRLCCCAQIAE7O+uThlGuUYMHqA7rp+otz5croryco0b0896g2DaX99XQX6+Vc6ouvSVIYfD0BmnDNPejEwt/8GsBX6gmSG18wpvZw7h1CW//Ox2mj+vkpKitTM1W5XmzyrvT6pD2I1fBlhmx36Z1dQ7A+tbqwbWu/raKuLuXQ/qUfIZR3NJ31dzZujfb87V2LGjdN3t/1BJcYl10bRpnajTThpqBVG79mTopqsmKTevWN+v+1mzPvhKfbp3VlxcjDZt3WVfIKpQZHi4rrvyLK34cYPiYmO14PPl1nLD35w1Ri1bJOjzRd9r/pt368Rzpmtveq6OHdZLw4b0VUZ6rv67YIny84usG4GB/Tpr/HGD9OP6XRoztLtSkmN0y31vKSEuUpMnjVBSUoLmfbrCmrJt9u/Y4b01dng/ZWbnad5nK5WWYU4XNEM16ZzTR2vVT1t1VJ+O6tG1veZ/ulybt6dbqW58XLTOmTTKGvyPPl2prTv2qlPbZA0f2l9r1m/VpBOHKCunSLM+WKQyz0XRpX1LTT5jjPbuzbSOHzeym66ZNksTjuulb5dtUmZWvrp2StFZpwzXrj2Zmvf593JVVmjooF7WEsN+3duqZ69O+mbpeq3duFNTbzpX111+sp54aaEWL1unL75dr87tE3TGKaP085791vFlZSVqmZSoiScOVucOKVqzfoc++3aNikvKDvIP069/FRyMAAIIHD4CVbMe3Prvy7fqvsdm6cf1O+V2h8mhUo0YOlATj+ulx1/6WkX5mXIZYXYdGuu9FXMXXHtHwe//97gm/fYvSttfaBdedktt2rbUvTefrfuenKP0fZmSEV5VM8GcdRwWbhZxH6a/3DlFKS1YQnj4XBS0BIHGCFQXuLVmYPkEWN71BtYzDEPnn3msOrdL0DOvfKnyskK5jbCqe62Y2FidfcogLV6xTbtS98ptfr8wa2VZb6w6dd6pR2vwMX11z8NvyWV97gD1VxrTdJ6LAAIIhIyAZ36r4ZDDXabhQ47SNRcfpzseeleZWbnq0a2tnp1xua654xWNHtZbS1dt1vCju8vtduv9eUvVJiVJp548VInxsfpowTJtT83QhBMHq7CoWN8s3WjdC44be4ycDkO703PUpWNLrfhho04aO1RLVqzW5IkjrdVm789bps4dWmjSyUOsCTtm7mCWq2iTkqCTTxiszu1aadF3G/TtsjVW3jCgT2crNyguLdcX3/ygjVv2yOWyU6TRIwZYm4c4nGE6fnhfzf/iBxWVlOrCM8eosLRE8z5dqX378zX06G5KSozXZ4t+sEa7ZVK8Tjp+sD5asFSnjx+uVas3q1f39jqqXxd9uXitVv24RT26tVO3zq311ZKNclWWaVD/rjph9EClZWTqvblLrFlrY0YepYzMLCXFxeq4Y/tr9dqd+nrxWpVWlikqMkonjT5K/ft11meLftL3P9kz1vr36aTTThxqvbH7mdmfrWlyuere9KRmgHXgC7VpAZY3CbOW4dm7powZ3ld3//FsXXzji7r/z6frtdnfacX3G9W7Z2c9ce/FWrNxp3Kyc+UIi1L/Xh2UnZurLxat1vpt+3TnDadr265MDerbWuf+/hUZ7iKNP36I7rnlNP39tc81dkQfTX9ktv79txu0PyvbDpH6dtPF55+oo0+8WSkpKZo8YbB27NqjEUN6yuGM1C33/FvnTBqqW64+VW+8/5Vat0rRSaP7aPGqLXrqXwv14O3na2dqujIzczR25FF64sWFGtSvnc4/baRmz12itq0TtXLNLn2w4AfrAjXfL5v1jxsUFx+jlT9uU3FJiS6YfJymPvSm1m1Ot8636+c07csq0HEj++nxFz+Vu6JQbz3/J3208Htt2pqq0UO7KTahhc676lGNHdlXM++6RO999LXCwiJ00tijlJ2To+vvnq0npp2hB59dqJ5dW2vazZP13txv1adnBzkcEfrjva/p1t9P0gnHDtRni1aqoNilU08cpDfnLFW4060Hp16m625/Vhu37lOPbu019cYzNXvuYut4p8OhWx98Xw/efpaKi8u1ZdvP6tSpnd54/1ut2fCzXYvBZ54dKxBD5js8HUUgBARqzu5NTorTlAtO1jfL1ignr8T61dCctxoREa6IcKcKiko9v2jaG45Yy9q9k6nk1oWTj9eced+qtMxe8m7+LzYmUkMHddfHn61Sxr6sqmXv9vtHBFghcJHRxZAQqC/AMv/BVyg+oaVuvfYkzZ7/o1av3SR3raLsCQnxuu6ysfrgf+u0afNWuRTpWZLssELzxKQWuu33J+utD5ZrzcYdnjeRuTMLiUuMTiKAQDMKmJu3mQHWAF178Vjd+dAs7c/KswKbJ++7VNdPfU2vPnGVUvdm/b/27gM8qjJt4/g96R2SAKFKFWyIBbuIHV17Xwv2tnb9VFaxu/a6dlGxF1wLFhC766qgrr1SpLcE0khCeubbc2YmhAgeVDye877/XNcW5M28z/N7xmTmnlPcU7wnfzZV388o1Y2XHKqvvpupysrl+stuQ3XfY+9o5qz5+ufVx+nkUQ8qNT1Do04doctvelabDR6gYVuvp7sffkOvPHa+myFM+eQ77bjdxurcKVcLipfrwymfa7fhQzTly3m64a7x+uu+W2ud7h1VVl6low8drn8+9LaWVdXqwlNHaNzLH6tDbpqKS2v01PhPVVe33PX4+xn7a71+HRRJK9BHk/+rpeUNOuekv2ji258qNydLfXp21tlXPa+Ddx+oPn16aNQ1T7uvYQf266QbLxmpY865Xw/ccKxysrPcA4kqKyt1/F931YXXPKX6xhbtsf0Ajb79LR174CbaY6ct9M4HX7qh1rr9euvkC+/TkQdtr922HahvZ5Rpzpy52mfE1nphwmQ99OwnuvSsPdWlU54+/2qW9hkxRONe/UKlZcv0fyfH+8lJV3FZtZ4eP0V1das+y+yPD7AiibvmJSslJaKrLjhMU6fP0pMvfa7Tjxmu+oZmjXlyii49a2dFUrJ09W0vuIejpaSladTf9tbC/yWVD497T107d9ANow/Tg898qLuuPkKHnHKnfpqzWNf+/XDNmrtYSysateNW/TXpvS91zkl76S8jb1BDQ5M2GtRLbz97ibba6yLNnl8Wv21lRD27F+jmS4/Qlbe/pGfuPk3/d9XTeus/3yopKUnP3HO6FpWU6ZOv5mqT9bvr8lteUEN9g045ehd17JDn3n2qMD9LV98xUfPmF7sX7Y3dAcY58iyicfeepnnF1brgysfcWxwffci2OvGInfTgU+9po/V66spbnlN9faNOOXpX5XfI0fsfT9OTd56mrfa6RAtLKpWXm6av375Fuxx8pS44fV99/MVMPfz0u4okRXTRmftrk/W66PTLx+vm0fvp1jFvaMxNJ+nKW57SxLe/U8e8DH084R866qx7deCeW6qqqkY33TdRTS3NOuXIXVRYkKOXJn2uVx4fpf5bnq7ktFR9+OJluuKWf2niO1+pY26mpky4SqeMelRHH7SN3p0yQy9M+EjLlzunuazu1s9r8WcHD4UAAgj8qQLO9Qya428CkzR8q77ab8RQ9e/XXd//OE8tzjVp4u8Nu3Tu6P7MnTqzxP0AY0Vy5XyUEdGG6/XRrDmLVOOEXO43OfFUROsP6Kal5dV66On39MnXzhvO2DUgCbD+1MGzOQJrWWB1AdbKR0gN7Fekk0fupktuGKf6uoZ4Dh47ot85FSUvL0+njRyml978VlPdACtNkajzgalzPZKokpJTdfTB22lZTZ1emPBx/OwVAqy1PEweDgEEjBVIXGEwSUlq0tDN19eFp+yhx56foqamRvdgkvSUiC6/7VW98vCZmvTeN7rl/glyTpS6/Jx9paQkXXP7eDn3ittuaH+decIeOuOSx7T7DuvryIN20tQZ8/TV9/P0xIsf6KA9NtewrTfU3Y9M0lvPXqrt9h2tOfMqtcO2G+ipO0/UJntcoaVLKzRix431f6fsrd3/ek38xnXO741UnTJye/Xr3d09oGSvXTbUFf98S9Onz1SzczF198d+7Gf/3884QDtuO0gHnnSnGurrdOuVx+j7H2bpvic/UFaGdP8NJ+jpV75Qr67Z6rNOd1107ROxAKtvka6/9Ggdd849uv+GE1W8pExnX/GU1BLR6LP2dIOv5177UiOGDdL1972pd5+9QEedeZ+++GaWezbB3f84XNNmL1FGRro237CnDj1tjBRt1GH7bqND9t5cF13/om4cfYjOvfwJzZ63VFsM6a0LzzhAH3w6Tdtt0kuX3RHvpzn+oe9qnnN/cICVuJik80u2WX1699Ajt56knNw8VVbVqqhznptQHnH2I7r/H/vplXem6+kX/+P+wk5JS9eo0/6ihYucAOt9FXXJ042jD9O1d03SSX/dWsvrGvXAUx/o+osO1qW3vKjNB6+jHbbaQN9Pm+3e2vzMS55yw6rszBR9//4/tdOBlyotPUNHHTRcvboXKSMjWR1yknTNna/q6XvO0IbDz1VllXM74iRdce7e6tSpo3shzeMP21Ez55WrJSp17ZStDz/9Trc/9JaO2HeoNh08UD/OmKtb75+gsgrn2gPOUWZJGnfv3/T6+9M09ql33Cfd+v0L9ca//qGxT07SofsP1yzn8Vpa3EMCP/r0e738+me67cqR2niX/2u9e8z0yXfq8FNv08VnH+ieuvL1DwvcER5+wDbaa8dBOvcfE3TL6H01dtyHeuKuMzR9Volq6pwLqEW05cbdddpFj2nwet017acF7pFTztdRB26vAf266YWJn+qlRy5Q363OVJfOHfTZ69dp+sxiLa9rcd90DR3SQydf+IBKy2piqe863TTu+Xc17hXnX2TnDpBtLjhs7A8zGkMAATsFEkdgxU7ycU5bHzSgl+6/6ST3w4QHnnxDxUuq3L87bL9tVZAT1R1PfaE0LXc/sIh9V+xn8ZXnH6KXJn2s/347TxG1uKdjjzx4uHbYcl1dfP2/9NZ/vtTy5bUrXZuRI7DsfNbRtYkCqwuwnH8eVSTSomg0XfvvPlA9evXR3WNfjb/3WHG5duf1Vl5uB502cge99ObX+nHaLEUjaVLU+UAxFnI5H6DuOnwz91IQjz3vnL7hHBUahOu2mjhTekIAAXMF4hcp32wDXXvhAfpu2jxVVFbrpzlL9e7kHzRv0TK99vi5+ueDb7oHzDjv+5+44yRNfOcbPTXeuRN1RD2KcnXrlSN16c0vatachXp2zIVKVp1O+fujWlRcocP22VLbb72R7nl4osY/epEGbX+G+zjOtVEfvuUkDdntEvc1pHOq4nUXH67dDrtGI3Yaoj132VJZWVnq0yNbn38zR1ff9rwO329bDd92Q5VV1ujOhyboh2kL3NManZ/+o87Y3w3drvznq8rLSdUjt5+m7l0LtaSiQZFIVIP6FLpnlbU01arvOkX6u3MEliIa1K9Q111yrI51AqwbT9A773+lB57+wP27Uw7fTsO221CPPzdFuw9bT488P0UTHj1X6w07381lnD5O/OvWGrxBf7fX1ORGXX3HW/+L0+q0x46b6PRjR+iWMRP1zL1n6asfFqmxKaqM9GQ1Ntbp4uue1Tab9tLwbTZR2bIa3fXQBH3v9rPqU+L/2ADLPfrKmadzSF6T9tljG+2wxbq6d+xEVdU2KL9jtm6+bKRGXTte5500TJO/WKCHn5zohl3JqVm68PT9tHDxUj067k116dxZ148+XNfdNVEtjcv18hNX6u/XPKZhWwzQZbdN0D47DtR2W2+sz7/5SdtvuYFOPO9uJalBOR3y9e3bt2q/E2/W30/bSy9N+I+ef/UjFXTu5u59+4Ov67kHztVWe12skuJFaomm6R8XHaW87BTNmF3mvAfRPWPHq7mlUdGoE1Alq8U90koq7JCmqy881L0ewekXP+amti2RZP3rnlP1/ueLdPcDz7qvIbbaZD09ce95umfsq2qJJruPF21pVLNS1KJUbbtZP9113anafMT5rbfsnPbR3Tr4pFt08VkH6bYHJuiTz79xP6QfeeieGrF9X53tBlh76Z7H3tez95+nLfa8QEuXlMQ/4U9WWkaWLjpjf/0wY6HGjf+3ez2Wow7YQQP6ddeLEyfrxUdHa92tjleHnGx98e6d2mKPUSpd6ny/kx+mukcJxI4hiGqD/vkae8d5unXMJI17abIb0nE0lrk/vukMAQRiAom7zCRFW1SYn6PRZ+yplqRUnXfVs+51Eo4/Yjd1zE7WzQ+++7/bf9S7AVbrVySq264+Uc+99K4+/HS2klJa9ODNf9PcOfN04/1vqMa9+UZS6/ckrn1JgMWzDwFTBFYfYMUuw9CsaCRbZx2zheaVNOjF15y7kra7Dm1Uck4hdI7AevHNqZox7Qc1K9N9TR17mxJ7wzV0k/U0sG++nn3tSzWu5pQLU1TpAwEEEFi7AokPDZKVpEb3CKyTD99B51/7sirKKt27TMd+5qbqtcfP0c0PvOEGO85Nfe659mh9/v18jX3yNffDhK7de+jOq47W/131lDLTmvTGczfq08++0n2Pv6fX//2FDtt7Gw3begPd/fAkPf/QBdpo+LnuzdQ2HdxXY24+WUP3uMy9UdDWQwfp+tFH6ZIb/6UrztlPp466QzPmVOjow3bVxuv30XlXPOwGZulpLTr5iJ21zZYb6bSLH1dlRbmikSRddPp+bvhz/T2vKSsjqrG3n6Xb73tFn3z5vZKizWpxM4hsnTpyG/XrvY5GXeNcmilJm28yUBedtb+OO+dejbnheL32zhd69F8fuR+6nHjEDtppu8F69LnJ7hFYt499Rx+8dIU2HzFK5UsXq0nZOvvEEepaVKDKyhpFoo267u63lKQa95pgpx+3h6687UVdcOq+Ov6cf6qhrtrNRZrd68DGPnRJT2uO9zNYp41+TBXly1Y56j84wIq/CfgfYEZmni45+y/64rt5ev7Vj+MHuEV1/ql7uRdb/+9Xs3TQnpvppvveVPXyOjl3yttth/VV1LnAPcpILY264rz9de1dr+rHGfP1/EPnK1nNenHS53rsuQ90yN5DNWyrjXTf42/o0VtP0pmXP+VeNHebzXrrzquO1F9G3qYL/ranHnp2in6YvlDDh/bRUQdvq9MuflKXnL2nFixepgfHTVFOVrLuvOpwffHtXD0/8TMdf+i2euCZj7SopMo9mmvJ0lL3IvNKSpZz86g9dxqiLQd30Qn/94QizhsYJevpe89Wfl6Gzv/HODU0yj3kbuGiJZr47g867rDt9OAzH2hhSZVyMpO1pKRC/XoX6q7rT9bmu18QezESbdHUj+7R3kf9Q3vvvqkG9u2uW8a8oZTkZJ134q7q2DFdp13yvG4Zvb+uuWuC/nb0zmpurNcDz3ziHupYkJem76bN1QWn7a8fZyzQMy996D4xjjxwe63br5t7SuZ7z12ug0+5Q7PmLtEV5+2rxoZGPfDMZDU1NSs/L13f/DBTfXp3VV1DVJEkZ9899MU3P2rsM++7p9a41/uKOLeM5zD1tftDlEdDAIFACLQeaRo7NTwpOaK9dhuqg/YYomPPHStFm7TlJuvqojP20JHnPKra6sr4aeSxN6A9u3XS1RcepNE3PK9Fi0qUm5erW6840v3Q4fMvf2xzoeV4dNX6P1wDKxDzpwgEfrfAL51C6MRPzuuoHJ117Baat7hR41+bvMq7eKelp+q4Q4arS2GOHnlusuYtcE5Zdl7WOaeMOHfNatJmQ9bXen076l8Tv1JDQy1HYP3u2fEACCBgnYB7wE2DtnSugXW4cw2scVpaXhk/ut6JmZwA61zdMuZ197JDzou9PXbaSEfsv61uGfOmqmqb9Ne9BruXG7rrkbf0wE0n6J5HJrnXoT5s76G64taXtP0WzjWwNtA9D7+m58ZeqI12ONvNDjbduI8euukEbTbicvfDjW2HrqvrRx+pux5+QwfsuYUuuekFpaWm6/KzdtWipct1870vKyc3173g+eD1+2vfXQbp7zc8r7Kycvd9+qgz9nM/aL3u7relSJ1OOWp3bTGkl2576D+q+98phXnZafphxgLtvPUgnXDUbrrs5hfU2NCsU47aXn16Fem488ZozA0naNK7n+mRf01xnwqOyfDtNtSjz01xb2J06W2v654rDtSXPxbr5be+Vm52mm66+ADddN/r2mzj/kpyAqx73lQk2qAROw7RGcftqmPOG6vbLjtEwkhNbQAAIABJREFUr7z9vT77ZrbSUlLU1FTr3iQuJydHdXWN2miD/tpvl0G66HrnIvp+BVifOHcHdK4hsuKQL+fUiY55+frb0dtr3KvOnfcWt15DZMOBPXXOSbvqgmue08gDt3cvUtbU1KAfZy7R51/P1TGHbKuamhq9/OZXGjF8iJ58cYrmLlysvXffRgeOGKyb7n9D30+br522GaiNN+irO8a+roP32krDtuzv3jlgSVmttttyfY2+/mntvP3G2mBAZy2rrFZdc5rUXKenXv6vUpKlM47bQ3W11VpeH1VjY4Pq6hr04NMfap/dNtXQIb3cgMcJcsZP+lx9ehdp40FFbtiTkZ6u5yd9oU+/mBH/9zxJz9x3hkpKa7R0SamyMlPUrCTdPuYNVdXUar/dNtNmQ3qrqaFeSUkpenHSl6qprdY5J+6tky58IP7pW1RP3nmmRl37tBoaW/S3o3dSRkpENbWNbiCWltqsOx+fojOO3EaPj/9Ey2vrdOoxuyrX2aupSdFIuq674wUdss/Wmrug1L17oPOqaLdhg9Wje4GefvEjnXfq3uqSn6HX3vtK3/xYopOP2CFWa3OTokmpuuXeVzXy4GEq7JDuvhlraU7WmKff08ListbZWfeDjYYRQMA+gUjUvbOtc7v6ow7YWm/+53s9N+ET92jZ1NRUXXvxX1VfV6c7H3lbi0vK3KOOnWsNnnr07u5NPO5+5G33xUJaapoO2XtLjdhhI40d94Hem/xd3DJ+yqLzp6jzKWBL610Irxp1jAoLuQuhfU86OjZDYDUBVlPs2h6xu5Zm6pA911NBp666/7HXW9tecauc2IeEOdmZ2n/E5tpiSB8988qnmvzZNPdnkHsUVqRZO2+/qfp0z9PjL37ino7BKYRmPIPoAgEE/BBoexfCRq03sI/23mUj3f/k+6pcVhO7BpVzaYhoqm4cfYDGvfyZPvt2tvszOCMzVYfvv5369ypQS0uTmqNpeuRf72voxr3Vv3eRbrhnorIyUnTKyF3ca2Etr4tqyPo9NH7Sf3XVhYfpmHPucs/uWrdvV1146p46adSj7jUONxzUQycftbOuu2uCzj1xdzU1NqimrkmVy+rcn/vf/DhXu263rpxLRaWnpWryF7M16d2v1djknMonHbn/tu6p5k+O/0wRNSovL0fHHrqTenbLVKNzU6FIqm5/8FU3VzjrxN3dg3Sqly3X0soGdczL1D/HvqHzTxmhTz+fodfe+8F9zH122UibDF5Hr//7R20xuIcefO4z9eqcqSMOHKaUpBZlZqbq66klemb8h+7rXSdAe+KlLxWJ1muLTQe4N80bfeN4bT90gEbsNNjt07kL7xffLVBx6TLtvM0AOZfySktL0cdfzHHvnNjY2LTKJ8BaPwLrP5/MjH8K7eCs2DMlKUUd8/PcQ8Gamp3rKMUu+5GcnKyios5aXFyslORU5ed3cP9ZRUWle+V5J8XMzMpUaVmZsjIz3YuSNzY1KD09Ux065Kq8rFyNTc3Kzkx3r3FVXl6hpKSICgvzlZqSqvLyZcrNy3YTyaTkZBXk57tbl5WXKz09Xctrl6u5sVlZ2VnubSRramrV0Ngo5xOvivIq9458Tk2ZGemqra9XReUyJScnqaBjvpKSk1RdXaNlVdVOwhPvO0nj7jtFE96Zqlff+swNuMoqKlRX2xA7KS85WfkdOygzM1319fUqr1jm1luQX6DFxU6wF0Pr3rVIJaWl7jWnMtLSVViQr/rGBvd6KRkZae45ufkd8ty9nSdrWmqqCgry3Xqdf+bU5TxZnVtZLl8euyNBdlaWUlKTtWxZtdLT09z1zjrHNC01RQUFHd2L2LvfX1Ot3Jxc5ebkyLk8fUVZhftmzP1qe5MuP36usAcCCCDwJwo4QdVZJ+ymppZk91Mz5+ey+8YxKuXn5+rUI3fQ1kPX16x5S9TcHNWGA3vo3x99rbHPfqiSJeWtF1tOSU3RqDMPUpcOUZ112fPup2xOYOUezereoZAA608cM1sjsJYFVhdgJW6I4/x9kjYYUKTjjxihUdc84X6I6L7Ian9we0RKSUnRJhv20+kjh2nS+9/r+QmfuK+nI5Fk982KcxHfZ16eErtmCAfHr+VZ8nAIIGC8gHvdIyktPd29+155ZaWiTqKSCDSiEXXqXKDqqpqV7o6XmurkCx2VnJyi8vJy1dU3uH+uq69XjfMePCrl5uYoPTVNNXW1ykhPU3X1cnUqLNCi4mJFohH3fXx+QQcVF5e4l/3JSEtThw55KllSqpzcbOXl5rgZQHXVcmXnZLkH9xR07KDU9HTV1daqvHKZmptX3GwtLzfX3XdZdVXr7wPnTK6CwgKlpqZoeU2tKpdVqiUadXMWJ1NobGhSeUWFW2tlZZWbf9TX1bvZiPMg2dnZSstIc7/XyTeWVVW5lzfKyspQh465amhoVFlp7LrhTgbh/BqqXlbl/q9zUXcnU1haWuZeoCg3L0e5OdluzWXllWppaVZ+x45u/lJbW+/e9bDJ6Wc1v8v+0ACr/SdIzmHOzvmibYtx76DiXDvKvS2wcxHx+EXCoymxQCjSFLtmeDzxcr4//plT/HxU58/OX7coKeo8QnL8IuPOcU9O9JKspGg0ft2qSPw6Vc4TNFVR505Tzh5OaOR+v/NGIn7tJ+eTrYhzzSvn4RKP5V6dRNFI1F3rprHuLs4hh05VzpuQJD177yma8O6PevzZN92BO+eZtg3zYolj7K6F7l1k3Nc4zpBS3P3clzQR55pbzp8TqbDjENOKRJoVjaa5iWpLJO7pXsvTWeN8d+w6Xc4bIyfZdFSdB3X+X+zxY9dpSXLn4QRmqe4LHmcOsd3j3x9xvtO5w2JUze4+8bvitP0Jxosk43+e0yACCES0y7BNdelZuyunQ5F6dE7XMeeO0Rv//ir+eyBDhQXp2naTdZScHNH7n8xUWUWjFIndGGTj9XrqxUcuVGlZlXuBz7+MvMm9I03sE722ugRYPNcQMEdgdQGW81ordmpyJNqkjgWdNeqUnfXws1M0deYc97VgLNiOS7T+jHB+PjQpp0MXnTlya7301rf6bups5eR01HknDNfE937QZ19OXXEqszmQdIIAAgj4I+D+3I29z3czhbZfSRFFWpwznWI/vxPXLHTexyfyi9h1pGPvud2f4e5ld5wv5z11VC3/u8GPew1E9587B/ukuBded7KF5GiTmpUaP1DEebfe4lwV3E0LYteedr7TyRycDCHinj4ee2Mfzyfc0CIROTS7uUEsg2jzWjPSGEsBorH8IvYtiVPaY//PzU3c0ylX3JE7tk1TvPZY7uE8dixbcHqLZSpuJuIeseYc2OPU7VzfKpZ4OP+sdc9I7ANcx64l4vyt8/sw1rNj1D4vaj/8PzTAat0sdrJ+awgV1479j9Ok+3exuza1vQ157PpKsYtUtv69O/T4P289pM95oMTFcxOnLjrhV+wWxCv+N1GD88/bJKqtV81MnMoRf/zW6zslHjvxKsJ5zPgri3i4tuLFRpIuP2c/Tf5ijt5w71AQ+xdh5dSuTZ+t717iBq1o8U/k3Sed00viX5S2tbWp1/3HThiXCIrj37fS3on+470nHtO1b2Po9t2mR7cFkip/fnKyCwIIBE4gIvco3yEb9HaP2s3KytaZx+2uUdc+o7nzSxVp/cDB+QDF+XnpfEjh/OJPdl/ovP/CZbrzoYmaPmuROhfm6833v47//ovf6KTNL8vWUwgPG6qr/s4phIF7LlAQAmss8AsBlvuBYOx1X3Jymo7Yf2tlZaZp7Lj346dMxI4E+PnraOfuhdH4TYViC3bfcbCGb7OBrr7tBdXXNXDw1RrPh4UIIIDAqgTi75fbBj+J04/cA1/ava93X/glkqNEWBR/H9+aciUigfi6tvmE+1dt36O3+7P7fr1tzpG4aGqbTznav09fKV9J5DDx9/atn44kMpNE/YnfO/HHbz3lKv7LyP2d5dSSeJz235/IV+KZxEqZTaL/eC6TyG3cX5PxbCeRY6wqO2k3Jh8DrNazBlf970q7T5rcI5paQ6L4X8YOxVrxSz3hu8rnXvwv3VMyYhngz77aPWzrQ8dundjmdUNrKhRPU2NppfvfrafTrSgmVrszj9iqlV+BJL63bX9r8OOjzXNplc3EE+PY0Y+JfznW4HHbLYlljSv6b/2z+/xq38+vf3y+AwEEEAinQOwXtxMw9epZpEvO3k+X3Pise9j3Ot3z9d30BbFrJSjqXq9mUP8eWlxSoQXFyzT+wbN03V2v6OPPf4p/UhX/NRY/XL3t74hEgHXiYUN1NQFWOJ8qVI1A64vV2Iu30tJyXXLdYxr77BQ1NK44zSMB1aNboc46ble9/dHU2JGdP3szEl/pvm+IvYFwXutttem6Ov3YnWM3OJo+P/5hJx848gREAAEEfrNA/D31z07nbn2rn8gW2r73X9VnDu3eTycKWlV+0e7yPO3fj8cONElcaqLNa0g3UGoXorRJMOKnYLUWl8gvYmlEu98V8ff/bctbOY9pF2m0/5ClNUhJHEwT7781w0h4OH6xvKE1t1jp9LzEafSr/13mT4DVHrL9MyoRmMS6WXHElLPOnUmb6wG0fcHf7gmw0h/d8CueJK4USLV5hrRZE1u98sgS017xd20nkzhEL/YiYpX50iqfT4lTAtukoa3nF7YZVPwFygq6tsNcTZr1s/JX82/ISkd9/dKzL2a/2gDwN/9k4BsRQACBEAms9KM0SX/ZeWMde8gw/fPhN3TR6XtpfnHs2gM33TdJ8xcUa/zDo9xrDTbU1+nKO17TFWeP0H+/XaQ7H5rU5lTuVf985gisED0vKBWBXxRYcQSWc92Py65/XA+NSwRYK79AdEKpgf176LJz99Okdz7Xk+P/qxb3elhtXxfG/+icghJJ1ogdNtAJfx2ua++eqC+//YkD5Xk2IoAAAmtLoN3BLCsetu3P7nZvvFf6ULL9a7xEVpA4Myxx5FHi8dr+uc3aVSYMiSwh8fshEWKt5j39SiXHTl+MfbVb31r/yjnDSjGde1TaygfKrOrV7M8PW2ofUrQ7MS9+YFDsjLZVXAey3VzXWoD1yWdf6e/XjNN7k6evuIj72noSeQVga32f+AOuLtBss1/rONo8/9bO8dvx0yb/qN54XAQQQACBXy8QiSonK0vXXXykDtp7Sx13zt3695SZOu+knfTZNwtVVVGii//vaO0z8loddciOuvOqI/T8pK90/hWPqLyiyt3vZ7/s2/wicQOstAydesRWuuKCI1VQwF0If/2Q+A4EgiDQ5hTC/93a/Iobn9KYpz9UQ0P8Qu0/ewMhpWek6YEbTlZLS6Muu/l5zVtY6h61mfig1HnDkZudoQtP21eDBvTS6Zc+oiXFZa1nB8R+vjjXE1lxJ/AgSFADAggggAACMYE1CFg8qHbaZl3dOPowbb75kLaXGf/Zd0WizhXGfuGrZOlSnX3RPXp24rdqcS4/zxcCCCCAAAJGCcR/6UZa5NyZMCc7VZXLGtxrXh26z7baadgQ5Wa06J3JM/Xgk2+7F87s26OTZi1Ysoa3tY+dopiZla1LTt9Zpx67n/ILOholSDMI2CcQVVlZpe595GVdd/frqlnu3NzB+Vni/KfNHbtjV/x1T0vec6eNtf8eW2ppRY1+mrVQFctq3FOT+/TqogF9uuqNf3/p3oWwsip2l2m+EEAAAQQQsEEgKSlJh/5lI91x3Wnq1Kmw9bJOq+rdI8CKqra2QXePGaebH3xPJUuXxU/HW/FQqz68zAZmekQAAQQQCL2A+0us7SnobS+KKRV1ytemg/soPS1VH3w8VaXly+Ln+Le9bmPi/P/EBTDjKvFfkIm72Q7qV+geubXT8G2UktLuLjihh6QBBOwTaGps1rv/nqwzL39CU2dVxO4otdIlMxLheOJarxFlpKeo7zpFKizoEANzboleVa3psxaqtr4pfvYHHxjb92yiYwQQQMAWgRUXcnLuUejcIKlLYQedd/JwnXXioUrPTI9fyGnVHp5HYLVEW/TNt9N1zW1P68W3pqmp0bmFeOKOefHzOm2xpk8EEEAAASMF3CsPtN41JXEn2FirsV95zuk+iesLtL17bBuORBDmvimN30rZ/QwpSblZabrglB100jEHqGtRJyMNaQoBGwUWFy/RA4++oBvHfKDqmgbJvQV62+tPuD9F3FuJrzjROBFQrbiZkHPX7djNejhN0MbnET0jgAACtgi0Xibd/fw3opSUNB2w60Bdcu5hGrzhQEWSEq+3f2OA5XxbY2OjJn/8ue58eIJemDRVLVHnk2PnYl+J2y/GN4nyS9eWJx59IoAAAqEXaH2PmTiWuO01Cp1bKju/05x/5rypdNbE35gmgi43qEocYRE/baj1z86i2O/GosIMnXr4UB1/5P5ap3eP0LPRAAIIrCwwe+4CPfz4C7rvmf+qpNQ5ldD5ancrcvfPiZ8pzuvoxO3YExe2de5iyOtonlsIIIAAAoYLJM5+ULIiSS06ZMS6OuP4PbTNVlsoJTXVs3nPI7ASj9DU3Kxvv/lOH332oz78ZJpmzy9TfUOjItGIoq2fFrX/xMlzfxYggAACCCAQMIE2J8e7ZwU6YZRzZ9pf/kTIvedt/NMkp6Hc7HRtNKiHhm01SNtts7l6dCtK3G4sYP1SDgII/DqBtkdOOd8Z1YKFJfpoymd6/+Op+vbHBapaXt/2POP4w6848mrl+1zHfsLE7pod+xu+EEAAAQQQMFUgIy1FvXt21vZb9NfWQ9fX4MEbKiV5zS6vscYBVuyk/Iiqq6tVWlau6upaNTXFPylyf9O2/2VuKjd9IYAAAggYIbC6y8y0Pbb5Z422uQ1x65FY7U4pdD/YiSgtNUn5HXKUX1Cg9HTnfP4VX/zGNOIZRBPWC6z8b3Jdfb0qyspVVlmtRueuhPFLbsRWtbk1uusWuzpe7P8lXke7MTgBlvXPKwAQQAABgwWiUnJKknJzMty7cufk5PziRdvbS/yKAOuXEXkxbvCTjNYQQAABBBBAAAEEEEAAAQQQQACBP1FgrQVYf2IPbI0AAggggMCfLJC4ts2fXAbbI4AAAggggAACCCBgqAABlqGDpS0EEEAAAQQQQAABBBBAAAEEEEDAFAECLFMmSR8IIIAAAggggAACCCCAAAIIIICAoQJrJcBqaGhQSwu3/jX0OUJbCCCAAAIeAtFI7HrNKSkp7n/4QgABBByBpqYm9z98IYAAAgggYLNAUlKS0tLSfjfBbwqwnLCqpKRE03+aoaqqKqWkpCvZve3h6m7p9Lvr5AEQQAABBBAIvIDzRjXaElXXos4aMGCAcnKyW+8xFvjiKRABBNaKQE1NjaZPn65FJSVKiiQRaq8VVR4EAQQQQCDMAs3NLWpqbFReXq4G9O+nLl26yAm1nK/29+n9pT5/VYDlBFelpaWaO3+hlJSsoq7dlJnpvDh3tiS8CvMTitoRQAABBNaGQEQtLc1aVlmpksUL1SEvR7169ozdIjgSWRsb8BgIIBBAgWg0qurqas2dN1/LqqrVpWt35XXo0PriPIAlUxICCCCAAAK+C9TW1qp48SKppUnr9Oyhwk6F7oc9a/q1xgGWk5jNnDVTVdXLVdilq7KdF+NrugvrEEAAAQQQsEygJRpVRVmpqpeVq3evXiooKLBMgHYRMFXA+dB25VfBZeVlmj1nnnI75Cu/oECRX/Fi3FQl+kIAAQQQQGBVAs5v0ZrqKpWWLFZubrb69ekbP6PP22uNA6yZM2epavlyde3ei0OhvV1ZgQACCCCAgKJRaXlNjebOnqHNNhmirKwsVBBAwDCB5cuX6/Mvv9I6fforK9s52tKwBmkHAQQQQACBP0CgsalJxQsWKDc7XX379l2jsxXWKMCqqKjQrDlz1a1nX6WkJbsXquULAQQQQAABBLwEIooqopqaZZrz0zQN2267Nfrl7PWo/D0CCARDwDl18P0PPlC/AYOUmZ0r5994vhBAAAEEEEBgzQSaGpu1aP4s9em9jjp27Oj5TZ4BlnPdq5mzZqk5kqzCTl04bdCTlAUIIIAAAgj8XGDu7Jkq6lyo7t26wYMAAoYILFi4UCVLy7ROn36GdEQbCCCAAAII+CtQuqREyWpR3759PK8d6Rlg1dfX64ep09WlWw+lp6f72wm7IYAAAgggYIiAc5pRxdLF2nCDDTx/ORvSMm0gYLSA8yHvN999r4LOXZWdlcWxV0ZPm+YQQAABBP4ogfr6Oi1ZtEDrDRromTl5BljOC+7vfpymvgMGcvTVHzUxHhcBBBBAwHiBxsZG95fzgP59lZmZaXy/NIiA6QLLa2s1Y+Zs946DKamp8dMHuQCW6XOnPwQQQACB3yfQ/lYozp9nTZ+qDdcf5Hm9WM8Aq7S0THMXLNI6ffr+vir5bgQQQAABBCwWaG5u1tLiReretcsaneNvMRWtIxAKAecasQsXl6hTUbc1vntSKBqjSAQQQAABBHwWmDt7lnr37OZ5127PAKu4uFglpeXq3nMdn1tgOwQQQAABBMwRaG5pUWnxInXt0kn5+fnmNEYnCFgqUFZWpuIlpSp0AqykJEsVaBsBBBBAAIHfL7Bg/lwVFearqKjoFx9sDQOsCnXv2ev3V8UjIIAAAgggYKkAAZalg6dtYwXcAGtpqTp16cZ17YydMo0hgAACCPghQIDlhzJ7IIAAAgggsIYCBFhrCMUyBEIiQIAVkkFRJgIIIIBA4AUIsAI/IgpEAAEEELBJgADLpmnTqw0CBFg2TJkeEUAAAQT8ECDA8kOZPRBAAAEEEFhDAQKsNYRiGQIhESDACsmgKBMBBBBAIPACBFiBHxEFIoAAAgjYJOAGWCWL1LUzF3G3ae70aq4AAZa5s6UzBBBAAAF/BQiw/PVmNwQQQAABBH5RwAmwlpYsUjcCLJ4pCBghQIBlxBhpAgEEEEAgAAIEWAEYAiUggAACCCCQECDA4rmAgFkCBFhmzZNuEEAAAQT+PAECrD/Pnp0RQAABBBD4mQABFk8KBMwSIMAya550gwACCCDw5wkQYP159uyMAAIIIIAAARbPAQQMFyDAMnzAtIcAAggg4JsAAZZv1GyEAAIIIICAtwBHYHkbsQKBMAkQYIVpWtSKAAIIIBBkAQKsIE+H2hBAAAEErBMgwLJu5DRsuAABluEDpj0EEEAAAd8ECLB8o2YjBBBAAAEEvAUIsLyNWIFAmAQIsMI0LWpFAAEEEAiyAAFWkKdDbQgggAAC1gkQYFk3cho2XIAAy/AB0x4CCCCAgG8CBFi+UbMRAggggAAC3gIEWN5GrEAgTAIEWGGaFrUigAACCARZgAAryNOhNgQQQAAB6wQIsKwbOQ0bLkCAZfiAaQ8BBBBAwDcBAizfqNkIAQQQQAABbwECLG8jViAQJgECrDBNi1oRQAABBIIsQIAV5OlQGwIIIICAdQIEWNaNnIYNFyDAMnzAtIcAAggg4JsAAZZv1GyEAAIIIICAtwABlrcRKxAIkwABVpimRa0IIIAAAkEWIMAK8nSoDQEEEEDAOgECLOtGTsOGCxBgGT5g2kMAAQQQ8E2AAMs3ajZCAAEEEEDAW4AAy9uIFQiESYAAK0zTolYEEEAAgSALEGAFeTrUhgACCCBgnQABlnUjp2HDBQiwDB8w7SGAAAII+CZAgOUbNRshgAACCCDgLUCA5W3ECgTCJECAFaZpUSsCCCCAQJAFCLCCPB1qQwABBBCwToAAy7qR07DhAgRYhg+Y9hBAAAEEfBMgwPKNmo0QQAABBBDwFiDA8jZiBQJhEiDACtO0qBUBBBBAIMgCBFhBng61IYAAAghYJ0CAZd3IadhwAQIswwdMewgggAACvgkQYPlGzUYIIIAAAgh4CxBgeRuxAoEwCRBghWla1IoAAgggEGQBAqwgT4faEEAAAQSsEyDAsm7kNGy4AAGW4QOmPQQQQAAB3wQIsHyjZiMEEEAAAQS8BQiwvI1YgUCYBAiwwjQtakUAAQQQCLIAAVaQp0NtCCCAAALWCRBgWTdyGjZcgADL8AHTHgIIIICAbwIEWL5RsxECCCCAAALeAgRY3kasQCBMAgRYYZoWtSKAAAIIBFmAACvI06E2BBBAAAHrBAiwrBs5DRsuQIBl+IBpDwEEEEDANwECLN+o2QgBBBBAAAFvAQIsbyNWIBAmAQKsME2LWhFAAAEEgixAgBXk6VAbAggggIB1AgRY1o2chg0XIMAyfMC0hwACCCDgmwABlm/UbIQAAggggIC3AAGWtxErEAiTAAFWmKZFrQgggAACQRYgwArydKgNAQQQQMA6AQIs60ZOw4YLEGAZPmDaQwABBBDwTYAAyzdqNkIAAQQQQMBbgADL24gVCIRJgAArTNOiVgQQQACBIAsQYAV5OtSGAAIIIGCdAAGWdSOnYcMFCLAMHzDtIYAAAgj4JkCA5Rs1GyGAAAIIIOAtQIDlbcQKBMIkQIAVpmlRKwIIIIBAkAUIsII8HWpDAAEEELBOgADLupHTsOECBFiGD5j2EEAAAQR8EyDA8o2ajRBAAAEEEPAWIMDyNmIFAmESIMAK07SoFQEEEEAgyAIEWEGeDrUhgAACCFgnQIBl3chp2HABAizDB0x7CCCAAAK+CRBg+UbNRggggAACCHgLEGB5G7ECgTAJEGCFaVrUigACCCAQZAECrCBPh9oQQAABBKwTIMCybuQ0bLgAAZbhA6Y9BBBAAAHfBAiwfKNmIwQQQAABBLwFCLC8jViBQJgECLDCNC1qRQABBBAIsgABVpCnQ20IIIAAAtYJEGBZN3IaNlyAAMvwAdMeAggggIBvAgRYvlGzEQIIIIAAAt4CBFjeRqxAIEwCBFhhmha1IoAAAggEWYAAK8jToTYEEEAAAesECLCsGzkNGy5AgGX4gGkPAQQQQMA3AQIs36jZCAEEEEAAAW8BAixvI1YgECYBAqwwTYtaEUAAAQSCLECAFeTpUBsCCCAwBzIRAAAgAElEQVSAgHUCBFjWjZyGDRcgwDJ8wLSHAAIIIOCbAAGWb9RshAACCCCAgLcAAZa3ESsQCJMAAVaYpkWtCCCAAAJBFiDACvJ0qA0BBBBAwDoBAizrRk7DhgsQYBk+YNpDAAEEEPBNgADLN2o2QgABBBBAwFuAAMvbiBUIhEmAACtM06JWBBBAAIEgCxBgBXk61IYAAgggYJ0AAZZ1I6dhwwUIsAwfMO0hgAACCPgmQIDlGzUbIYAAAggg4C1AgOVtxAoEwiRAgBWmaVErAggggECQBQiwgjwdakMAAQQQsE6AAMu6kdOw4QIEWIYPmPYQQAABBHwTIMDyjZqNEEAAAQQQ8BYgwPI2YgUCYRIgwArTtKgVAQQQQCDIAgRYQZ4OtSGAAAIIWCdAgGXdyGnYcAECLMMHTHsIIIAAAr4JEGD5Rs1GCCCAAAIIeAsQYHkbsQKBMAkQYIVpWtSKAAIIIBBkAQKsIE+H2hBAAAEErBMgwLJu5DRsuAABluEDpj0EEEAAAd8ECLB8o2YjBBBAAAEEvAUIsLyNWIFAmAQIsMI0LWpFAAEEEAiyAAFWkKdDbQgggAAC1gkQYFk3cho2XIAAy/AB0x4CCCCAgG8CBFi+UbMRAggggAAC3gIEWN5GrEAgTAIEWGGaFrUigAACCARZgAAryNOhNgQQQAAB6wQIsKwbOQ0bLkCAZfiAaQ8BBBBAwDcBAizfqNkIAQQQQAABbwECLG8jViAQJgECrDBNi1oRQAABBIIsQIAV5OlQGwIIIICAdQIEWNaNnIYNFyDAMnzAtIcAAggg4JsAAZZv1GyEAAIIIICAtwABlrcRKxAIkwABVpimRa0IIIAAAkEWIMAK8nSoDQEEEEDAOgECLOtGTsOGCxBgGT5g2kMAAQQQ8E2AAMs3ajZCAAEEEEDAW4AAy9uIFQiESYAAK0zTolYEEEAAgSALEGAFeTrUhgACCCBgnQABlnUjp2HDBQiwDB8w7SGAAAII+CZAgOUbNRshgAACCCDgLUCA5W3ECgTCJECAFaZpUSsCCCCAQJAFCLCCPB1qQwABBBCwToAAy7qR07DhAgRYhg+Y9hBAAAEEfBMgwPKNmo0QQAABBBDwFiDA8jZiBQJhEiDACtO0qBUBBBBAIMgCBFhBng61IYAAAghYJ0CAZd3IadhwAQIswwdMewgggAACvgkQYPlGzUYIIIAAAgh4CxBgeRuxAoEwCRBghWla1IoAAgggEGQBAqwgT4faEEAAAQSsEyDAsm7kNGy4AAGW4QOmPQQQQAAB3wQIsHyjZiMEEEAAAQS8BQiwvI1YgUCYBAiwwjQtakUAAQQQCLIAAVaQp0NtCCCAAALWCRBgWTdyGjZcgADL8AHTHgIIIICAbwIEWL5RsxECCCCAAALeAgRY3kasQCBMAgRYYZoWtSKAAAIIBFmAACvI06E2BBBAAAHrBAiwrBs5DRsuQIBl+IBpDwEEEEDANwECLN+o2QgBBBBAAAFvAQIsbyNWIBAmAQKsME2LWhFAAAEEgixAgBXk6VAbAggggIB1AgRY1o2chg0XIMAyfMC0hwACCCDgmwABlm/UbIQAAggggIC3AAGWtxErEAiTAAFWmKZFrQgggAACQRYgwArydKgNAQQQQMA6AQIs60ZOw4YLEGAZPmDaQwABBBDwTYAAyzdqNkIAAQQQQMBbgADL24gVCIRJgAArTNOiVgQQQACBIAsQYAV5OtSGAAIIIGCdAAGWdSOnYcMFCLAMHzDtIYAAAgj4JkCA5Rs1GyGAAAIIIOAtQIDlbcQKBMIkQIAVpmlRKwIIIIBAkAUIsII8HWpDAAEEELBOgADLupHTsOECBFiGD5j2EEAAAQR8EyDA8o2ajRBAAAEEEPAWIMDyNmIFAmESIMAK07SoFQEEEEAgyAIEWEGeDrUhgAACCFgnQIBl3chp2HABAizDB0x7CCCAAAK+CRBg+UbNRggggAACCHgLEGB5G7ECgTAJEGCFaVrUigACCCAQZAECrCBPh9oQQAABBKwTIMCybuQ0bLgAAZbhA6Y9BBBAAAHfBAiwfKNmIwQQQAABBLwFCLC8jViBQJgECLDCNC1qRQABBBAIsgABVpCnQ20IIIAAAtYJEGBZN3IaNlyAAMvwAdMeAggggIBvAgRYvlGzEQIIIIAAAt4CBFjeRqxAIEwCBFhhmha1IoAAAggEWYAAK8jToTYEEEAAAesECLCsGzkNGy5AgGX4gGkPAQQQQMA3AQIs36jZCAEEEEAAAW8BAixvI1YgECYBAqwwTYtaEUAAAQSCLECAFeTpUBsCCCCAgHUCBFjWjZyGDRcgwDJ8wLSHAAIIIOCbAAGWb9RshAACCCCAgLcAAZa3ESsQCJMAAVaYpkWtCCCAAAJBFiDACvJ0qA0BBBBAwDoBAizrRk7DhgsQYBk+YNpDAAEEEPBNgADLN2o2QgABBBBAwFuAAMvbiBUIhEmAACtM06JWBBBAAIEgCxBgBXk61IYAAgggYJ0AAZZ1I6dhwwUIsAwfMO0hgAACCPgmQIDlGzUbIYAAAggg4C1AgOVtxAoEwiRAgBWmaVErAggggECQBQiwgjwdakMAAQQQsE6AAMu6kdOw4QIEWIYPmPYQQAABBHwTIMDyjZqNEEAAAQQQ8BYgwPI2YgUCYRIgwArTtKgVAQQQQCDIAgRYQZ4OtSGAAAIIWCdAgGXdyGnYcAECLMMHTHsIIIAAAr4JEGD5Rs1GCCCAAAIIeAsQYHkbsQKBMAkQYIVpWtSKAAIIIBBkAQKsIE+H2hBAAAEErBMgwLJu5DRsuAABluEDpj0EEEAAAd8ECLB8o2YjBBBAAAEEvAUIsLyNWIFAmAQIsMI0LWpFAAEEEAiyAAFWkKdDbQgggAAC1gkQYFk3cho2XIAAy/AB0x4CCCCAgG8CBFi+UbMRAggggAAC3gIEWN5GrEAgTAIEWGGaFrUigAACCARZgAAryNOhNgQQQAAB6wQIsKwbOQ0bLkCAZfiAaQ8BBBBAwDcBAizfqNkIAQQQQAABbwECLG8jViAQJgECrDBNi1oRQAABBIIsQIAV5OlQGwIIIICAdQIEWNaNnIYNFyDAMnzAtIcAAggg4JsAAZZv1GyEAAIIIICAtwABlrcRKxAIkwABVpimRa0IIIAAAkEWIMAK8nSoDQEEEEDAOgECLOtGTsOGCxBgGT5g2kMAAQQQ8E2AAMs3ajZCAAEEEEDAW4AAy9uIFQiESYAAK0zTolYEEEAAgSALEGAFeTrUhgACCCBgnQABlnUjp2HDBQiwDB8w7SGAAAII+CZAgOUbNRshgAACCCDgLUCA5W3ECgTCJECAFaZpUSsCCCCAQJAFCLCCPB1qQwABBBCwToAAy7qR07DhAgRYhg+Y9hBAAAEEfBMgwPKNmo0QQAABBBDwFiDA8jZiBQJhEiDACtO0qBUBBBBAIMgCBFhBng61IYAAAghYJ0CAZd3IadhwAQIswwdMewgggAACvgkQYPlGzUYIIIAAAgh4CxBgeRuxAoEwCRBghWla1IoAAgggEGQBAqwgT4faEEAAAQSsEyDAsm7kNGy4AAGW4QOmPQQQQAAB3wQIsHyjZiMEEEAAAQS8BQiwvI1YgUCYBAiwwjQtakUAAQQQCLIAAVaQp0NtCCCAAALWCRBgWTdyGjZcgADL8AHTHgIIIICAbwIEWL5RsxECCCCAAALeAgRY3kasQCBMAgRYYZoWtSKAAAIIBFmAACvI06E2BBBAAAHrBAiwrBs5DRsuQIBl+IBpDwEEEEDANwECLN+o2QgBBBBAAAFvAQIsbyNWIBAmAQKsME2LWhFAAAEEgixAgBXk6VAbAggggIB1AgRY1o2chg0XIMAyfMC0hwACCCDgmwABlm/UbIQAAggggIC3AAGWtxErEAiTAAFWmKZFrQgggAACQRYgwArydKgNAQQQQMA6AQIs60ZOw4YLEGAZPmDaQwABBBDwTYAAyzdqNkIAAQQQQMBbgADL24gVCIRJgAArTNOiVgQQQACBIAsQYAV5OtSGAAIIIGCdAAGWdSOnYcMFCLAMHzDtIYAAAgj4JkCA5Rs1GyGAAAIIIOAtQIDlbcQKBMIkQIAVpmlRKwIIIIBAkAUIsII8HWpDAAEEELBOgADLupHTsOECBFiGD5j2EEAAAQR8EyDA8o2ajRBAAAEEEPAWIMDyNmIFAmESIMAK07SoFQEEEEAgyAIEWEGeDrUhgAACCFgnQIBl3chp2HABAizDB0x7CCCAAAK+CRBg+UbNRggggAACCHgLEGB5G7ECgTAJEGCFaVrUigACCCAQZAECrCBPh9oQQAABBKwTIMCybuQ0bLgAAZbhA6Y9BBBAAAHfBAiwfKNmIwQQQAABBLwFCLC8jViBQJgECLDCNC1qRQABBBAIsgABVpCnQ20IIIAAAtYJEGBZN3IaNlyAAMvwAdMeAggggIBvAgRYvlGzEQIIIIAAAt4CBFjeRqxAIEwCBFhhmha1IoAAAggEWYAAK8jToTYEEEAAAesECLCsGzkNGy5AgGX4gGkPAQQQQMA3AQIs36jZCAEEEEAAAW8BAixvI1YgECYBAqwwTYtaEUAAAQSCLECAFeTpUBsCCCCAgHUCBFjWjZyGDRcgwDJ8wLSHAAIIIOCbAAGWb9RshAACCCCAgLcAAZa3ESsQCJMAAVaYpkWtCCCAAAJBFiDACvJ0qA0BBBBAwDoBAizrRk7DhgsQYBk+YNpDAAEEEPBNgADLN2o2QgABBBBAwFuAAMvbiBUIhEmAACtM06JWBBBAAIEgCxBgBXk61IYAAgggYJ0AAZZ1I6dhwwUIsAwfMO0hgAACCPgmQIDlGzUbIYAAAggg4C1AgOVtxAoEwiRAgBWmaVErAggggECQBQiwgjwdakMAAQQQsE6AAMu6kdOw4QIEWIYPmPYQQAABBHwTIMDyjZqNEEAAAQQQ8BYgwPI2YgUCYRIgwArTtKgVAQQQQCDIAgRYQZ4OtSGAAAIIWCdAgGXdyGnYcAECLMMHTHsIIIAAAr4JEGD5Rs1GCCCAAAIIeAsQYHkbsQKBMAkQYIVpWtSKAAIIIBBkAQKsIE+H2hBAAAEErBMgwLJu5DRsuAABluEDpj0EEEAAAd8ECLB8o2YjBBBAAAEEvAUIsLyNWIFAmAQIsMI0LWpFAAEEEAiyAAFWkKdDbQgggAAC1gkQYFk3cho2XIAAy/AB0x4CCCCAgG8CBFi+UbMRAggggAAC3gIEWN5GrEAgTAIEWGGaFrUigAACCARZgAAryNOhNgQQQAAB6wQIsKwbOQ0bLkCAZfiAaQ8BBBBAwDcBAizfqNkIAQQQQAABbwECLG8jViAQJgECrDBNi1oRQAABBIIsQIAV5OlQGwIIIICAdQIEWNaNnIYNFyDAMnzAtIcAAggg4JsAAZZv1GyEAAIIIICAtwABlrcRKxAIkwABVpimRa0IIIAAAkEWIMAK8nSoDQEEEEDAOgECLOtGTsOGCxBgGT5g2kMAAQQQ8E2AAMs3ajZCAAEEEEDAW4AAy9uIFQiESYAAK0zTolYEEEAAgSALEGAFeTrUhgACCCBgnQABlnUjp2HDBQiwDB8w7SGAAAII+CZAgOUbNRshgAACCCDgLUCA5W3ECgTCJECAFaZpUSsCCCCAQJAFCLCCPB1qQwABBBCwToAAy7qR07DhAgRYhg+Y9hBAAAEEfBMgwPKNmo0QQAABBBDwFiDA8jZiBQJhEiDACtO0qBUBBBBAIMgCBFhBng61IYAAAghYJ0CAZd3IadhwAQIswwdMewgggAACvgkQYPlGzUYIIIAAAgh4CxBgeRuxAoEwCRBghWla1IoAAgggEGQBAqwgT4faEEAAAQSsEyDAsm7kNGy4AAGW4QOmPQQQQAAB3wQIsHyjZiMEEEAAAQS8BQiwvI1YgUCYBAiwwjQtakUAAQQQCLIAAVaQp0NtCCCAAALWCRBgWTdyGjZcgADL8AHTHgIIIICAbwIEWL5RsxECCCCAAALeAgRY3kasQCBMAgRYYZoWtSKAAAIIBFmAACvI06E2BBBAAAHrBAiwrBs5DRsuQIBl+IBpDwEEEEDANwECLN+o2QgBBBBAAAFvAQIsbyNWIBAmAQKsME2LWhFAAAEEgixAgBXk6VAbAggggIB1AgRY1o2chg0XIMAyfMC0hwACCCDgmwABlm/UbIQAAggggIC3AAGWtxErEAiTAAFWmKZFrQgggAACQRYgwArydKgNAQQQQMA6AQIs60ZOw4YLEGAZPmDaQwABBBDwTYAAyzdqNkIAAQQQQMBbgADL24gVCIRJgAArTNOiVgQQQACBIAsQYAV5OtSGAAIIIGCdAAGWdSOnYcMFCLAMHzDtIYAAAgj4JkCA5Rs1GyGAAAIIIOAtQIDlbcQKBMIkQIAVpmlRKwIIIIBAkAUIsII8HWpDAAEEELBOgADLupHTsOECBFiGD5j2EEAAAQR8EyDA8o2ajRBAAAEEEPAWIMDyNmIFAmESIMAK07SoFQEEEEAgyAIEWEGeDrUhgAACCFgnQIBl3chp2HABAizDB0x7CCCAAAK+CRBg+UbNRggggAACCHgLEGB5G7ECgTAJEGCFaVrUigACCCAQZAECrCBPh9oQQAABBKwTIMCybuQ0bLgAAZbhA6Y9BBBAAAHfBAiwfKNmIwQQQAABBLwFCLC8jViBQJgECLDCNC1qRQABBBAIsgABVpCnQ20IIIAAAtYJEGBZN3IaNlyAAMvwAdMeAggggIBvAgRYvlGzEQIIIIAAAt4CBFjeRqxAIEwCBFhhmha1IoAAAggEWYAAK8jToTYEEEAAAesECLCsGzkNGy5AgGX4gGkPAQQQQMA3AQIs36jZCAEEEEAAAW8BAixvI1YgECYBAqwwTYtaEUAAAQSCLECAFeTpUBsCCCCAgHUCBFjWjZyGDRcgwDJ8wLSHAAIIIOCbAAGWb9RshAACCCCAgLcAAZa3ESsQCJMAAVaYpkWtCCCAAAJBFiDACvJ0qA0BBBBAwDoBAizrRk7DhgsQYBk+YNpDAAEEEPBNgADLN2o2QgABBBBAwFuAAMvbiBUIhEmAACtM06JWBBBAAIEgCxBgBXk61IYAAgggYJ0AAZZ1I6dhwwUIsAwfMO0hgAACCPgmQIDlGzUbIYAAAggg4C1AgOVtxAoEwiRAgBWmaVErAggggECQBQiwgjwdakMAAQQQsE6AAMu6kdOw4QIEWIYPmPYQQAABBHwTIMDyjZqNEEAAAQQQ8BYgwPI2YgUCYRIgwArTtKgVAQQQQCDIAgRYQZ4OtSGAAAIIWCdAgGXdyGnYcAECLMMHTHsIIIAAAr4JEGD5Rs1GCCCAAAIIeAsQYHkbsQKBMAkQYIVpWtSKAAIIIBBkAQKsIE+H2hBAAAEErBMgwLJu5DRsuAABluEDpj0EEEAAAd8ECLB8o2YjBBBAAAEEvAUIsLyNWIFAmAQIsMI0LWpFAAEEEAiyAAFWkKdDbQgggAAC1gkQYFk3cho2XIAAy/AB0x4CCCCAgG8CBFi+UbMRAggggAAC3gIEWN5GrEAgTAIEWGGaFrUigAACCARZgAAryNOhNgQQQAAB6wQIsKwbOQ0bLkCAZfiAaQ8BBBBAwDcBAizfqNkIAQQQQAABbwECLG8jViAQJgECrDBNi1oRQAABBIIsQIAV5OlQGwIIIICAdQIEWNaNnIYNFyDAMnzAtIcAAggg4JsAAZZv1GyEAAIIIICAtwABlrcRKxAIkwABVpimRa0IIIAAAkEWIMAK8nSoDQEEEEDAOgECLOtGTsOGCxBgGT5g2kMAAQQQ8E2AAMs3ajZCAAEEEEDAW4AAy9uIFQiESYAAK0zTolYEEEAAgSALEGAFeTrUhgACCCBgnQABlnUjp2HDBQiwDB8w7SGAAAII+CZAgOUbNRshgAACCCDgLUCA5W3ECgTCJECAFaZpUSsCCCCAQJAFCLCCPB1qQwABBBCwToAAy7qR07DhAgRYhg+Y9hBAAAEEfBMgwPKNmo0QQAABBBDwFiDA8jZiBQJhEiDACtO0qBUBBBBAIMgCBFhBng61IYAAAghYJ0CAZd3IadhwAQIswwdMewgggAACvgkQYPlGzUYIIIAAAgh4CxBgeRuxAoEwCRBghWla1IoAAgggEGQBAqwgT4faEEAAAQSsEyDAsm7kNGy4AAGW4QOmPQQQQAAB3wQIsHyjZiMEEEAAAQS8BQiwvI1YgUCYBAiwwjQtakUAAQQQCLIAAVaQp0NtCCCAAALWCRBgWTdyGjZcgADL8AHTHgIIIICAbwIEWL5RsxECCCCAAALeAgRY3kasQCBMAgRYYZoWtSKAAAIIBFmAACvI06E2BBBAAAHrBAiwrBs5DRsuQIBl+IBpDwEEEEDANwECLN+o2QgBBBBAAAFvAQIsbyNWIBAmAQKsME2LWhFAAAEEgixAgBXk6VAbAggggIB1AgRY1o2chg0XIMAyfMC0hwACCCDgmwABlm/UbIQAAggggIC3AAGWtxErEAiTAAFWmKZFrQgggAACQRYgwArydKgNAQQQQMA6AQIs60ZOw4YLEGAZPmDaQwABBBDwTYAAyzdqNkIAAQQQQMBbgADL24gVCIRJgAArTNOiVgQQQACBIAsQYAV5OtSGAAIIIGCdAAGWdSOnYcMFCLAMHzDtIYAAAgj4JkCA5Rs1GyGAAAIIIOAtQIDlbcQKBMIkQIAVpmlRKwIIIIBAkAUIsII8HWpDAAEEELBOgADLupHTsOECBFiGD5j2EEAAAQR8EyDA8o2ajRBAAAEEEPAWIMDyNmIFAmESIMAK07SoFQEEEEAgyAIEWEGeDrUhgAACCFgnQIBl3chp2HABAizDB0x7CCCAAAK+CRBg+UbNRggggAACCHgLEGB5G7ECgTAJEGCFaVrUigACCCAQZAECrCBPh9oQQAABBKwTIMCybuQ0bLgAAZbhA6Y9BBBAAAHfBAiwfKNmIwQQQAABBLwFCLC8jViBQJgECLDCNC1qRQABBBAIsgABVpCnQ20IIIAAAtYJEGBZN3IaNlyAAMvwAdMeAggggIBvAgRYvlGzEQIIIIAAAt4CBFjeRqxAIEwCBFhhmha1IoAAAggEWYAAK8jToTYEEEAAAesECLCsGzkNGy5AgGX4gGkPAQQQQMA3AQIs36jZCAEEEEAAAW8BAixvI1YgECYBAqwwTYtaEUAAAQSCLECAFeTpUBsCCCCAgHUCBFjWjZyGDRcgwDJ8wLSHAAIIIOCbAAGWb9RshAACCCCAgLcAAZa3ESsQCJMAAVaYpkWtCCCAAAJBFiDACvJ0qA0BBBBAwDoBAizrRk7DhgsQYBk+YNpDAAEEEPBNgADLN2o2QgABBBBAwFuAAMvbiBUIhEmAACtM06JWBBBAAIEgCxBgBXk61IYAAgggYJ0AAZZ1I6dhwwUIsAwfMO0hgAACCPgmQIDlGzUbIYAAAggg4C1AgOVtxAoEwiRAgBWmaVErAggggECQBQiwgjwdakMAAQQQsE6AAMu6kdOw4QIEWIYPmPYQQAABBHwTIMDyjZqNEEAAAQQQ8BYgwPI2YgUCYRIgwArTtKgVAQQQQCDIAgRYQZ4OtSGAAAIIWCdAgGXdyGnYcAECLMMHTHsIIIAAAr4JEGD5Rs1GCCCAAAIIeAsQYHkbsQKBMAkQYIVpWtSKAAIIIBBkAQKsIE+H2hBAAAEErBMgwLJu5DRsuAABluEDpj0EEEAAAd8ECLB8o2YjBBBAAAEEvAUIsLyNWIFAmAQIsMI0LWpFAAEEEAiyAAFWkKdDbQgggAAC1gkQYFk3cho2XIAAy/AB0x4CCCCAgG8CBFi+UbMRAggggAAC3gIEWN5GrEAgTAIEWGGaFrUigAACCARZgAAryNOhNgQQQAAB6wQIsKwbOQ0bLkCAZfiAaQ8BBBBAwDcBAizfqNkIAQQQQAABbwECLG8jViAQJgECrDBNi1oRQAABBIIsQIAV5OlQGwIIIICAdQIEWNaNnIYNFyDAMnzAtIcAAggg4JsAAZZv1GyEAAIIIICAtwABlrcRKxAIkwABVpimRa0IIIAAAkEWIMAK8nSoDQEEEEDAOgECLOtGTsOGCxBgGT5g2kMAAQQQ8E2AAMs3ajZCAAEEEEDAW4AAy9uIFQiESYAAK0zTolYEEEAAgSALEGAFeTrUhgACCCBgnQABlnUjp2HDBQiwDB8w7SGAAAII+CZAgOUbNRshgAACCCDgLUCA5W3ECgTCJECAFaZpUSsCCCCAQJAFCLCCPB1qQwABBBCwToAAy7qR07DhAgRYhg+Y9hBAAAEEfBMgwPKNmo0QQAABBBDwFiDA8jZiBQJhEiDACtO0qBUBBBBAIMgCBFhBng61IYAAAghYJ0CAZd3IadhwAQIswwdMewgggAACvgkQYPlGzUYIIIAAAgh4CxBgeRuxAoEwCRBghWla1IoAAgggEGQBAqwgT4faEEAAAQSsEyDAsm7kNGy4AAGW4QOmPQQQQAAB3wQIsHyjZiMEEEAAAQS8BQiwvI1YgUCYBAiwwjQtakUAAQQQCLIAAVaQp0NtCCCAAALWCRBgWTdyGjZcgADL8AHTHgIIIICAbwIEWL5RsxECCCCAAALeAgRY3kasQCBMAgRYYZoWtSKAAAIIBFmAACvI06E2BBBAAAHrBAiwrBs5DRsuQIBl+IBpDwEEEEDANwECLN+o2QgBBBBAAAFvAQIsbyNWIBAmAQKsME2LWhFAAAEEgixAgBXk6VAbAggggIB1AgRY1o2chg0XIMAyfMC0hwACCCDgmwABlm/UbIQAAggggIC3AAGWtxErEAiTAAFWmKZFrQgggAACQRYgwArydKgNAQQQQMA6AQIs60ZOw4YLEGAZPmDaQwABBBDwTYAAyzdqNkIAAQQQQMBbgADL24gVCIRJgAArTNOiVgQQQACBIAsQYAV5OtSGAEL6krkAAAZnSURBVAIIIGCdAAGWdSOnYcMFCLAMHzDtIYAAAgj4JkCA5Rs1GyGAAAIIIOAtQIDlbcQKBMIkQIAVpmlRKwIIIIBAkAUIsII8HWpDAAEEELBOgADLupHTsOECBFiGD5j2EEAAAQR8EyDA8o2ajRBAAAEEEPAWcAKs0pJF6tq5k/Lz872/gRUIIBBogfKychUvXarCLt2UlJQU6FopDgEEEEAAgSALEGAFeTrUhgACCCBgnYAbYBXHA6wCAizrngA0bJyAE2AtXlqqwi5dlUyAZdx8aQgBBBBAwB+BqKSF8+eqqDBfRUVFv7hpJBqNOutX+1VcXKyS0gp179nLn+rZBQEEEEAAAQMFmpujKi1ZqK5dOALLwPHSkoUCzimEi5eUqVMRAZaF46dlBBBAAIG1JBBVJB5gdfz9AVZJyRItXFKqnr16K6JfzLrWUvk8DAIIIIAAAuYJNLVEVVZMgGXeZOnIVoHy8nItLFmqzl26KTmZUwhtfR7QNwIIIIDA7xNwAqz5c2erR1Ende7c+RcfzPMIrKqqKk2dMVN9+6/7+6riuxFAAAEEELBYoLGpWUsXzVef3r2Uk5NjsQStI2CGQHV1tWbPnafOXXsoJSXFjKboAgEEEEAAgT9BYNZP0zVoQD/l5ub+vgCrrq5O3/0wVT179+WX858wSLZEAAEEEDBDoKG+XiUL52nDDTfg96kZI6ULywWampr03Xffq0v3XkpLT7dcg/YRQAABBBD4bQLO79P5c2dpw/UGKiMj8/cFWM1NTZrx009KzcxRh45cdPa3jYTvQgABBBCwXWDJkmKlqkX9+/e3nYL+ETBG4KefflKjUjxPeTCmYRpBAAEEEEDgdwk4p9y3tD5CNCItKy9XQ12NBvTvq5Tk1N8XYDnfvdi5kPvScnXr0VNJSRFJzn/4QgABBBBAAIE1EWhsbNLU777S1lttqXT3SA3nmpL8Ll0TO9YgEGSB+vp6Tf74E6230cZKTVnxott5QR7h0rFBHh21IYAAAggEQKCppUXFC+apqFOB5wXcnXI9r4HlLHIO6Zo+fYaSUlJVWNSNl9wBGDQlIIAAAggEX8B5/9rY0KB5s2eqV49u6tatW/CLpkIEEPhVAgsXLtSCRYvUs/cApaWlxQPqX/UQLEYAAQQQQMAyAecWgVEtLVmsaGOD1l13wBpdYmONAixHsra2VtNm/CQlpai7eyQWd1ux7BlGuwgggAACqxVY9RFVznUkFy+cr075HdS7d2/8EEDAUIE5c2artLxSRd17KSMjw9AuaQsBBBBAAIHfJ5B4xdzSEtXCBXOV1NKiAQP6KTPzl699ldh1jQMs5xsaGxs1a/ZsLSktV+8+/ZSZlSXnEGnnTAhOhPh9g+S7EUAAAQTCL9D2d2J52VIVL1qofn16u4dE88FP+OdLBwisTqClRSouXqSZs+eoa9fu6ljYCSwEEEAAAQQQaE2eIlI0dm597fLlmjP7J3XuVKg+ffoo7VfcyfdXBVjOZtFoVGVlZZo6fZqUlKyOHQrcK8UnJ3NEFs9OBBBAAAF7BZzwqrGhSctrquSEVx3z8jRo0EBlZmbZi0LnCFgm4JyxMHXqVC1btkwdCjorOztbqakpXPPOsucB7SKAAAIIrCzQ3NKsuto6VVaUSdEWDRq4rvLzCxSJ/LpDoX51gNW2jKqqKlVWVrpHZjnB1q/dnKEigAACCCBghED8is3O70HnEOj8/Pz4tXCM6I4mEEDAU8C5kkek9YyEhoYGlZeXu5fgcF4j84UAAggggICtAomsyLlOZF5ernJzcqVfGVwl7H5XgGXrAOgbAQQQQAABBBBAAAEEEEAAAQQQQMA/AQIs/6zZCQEEEEAAAQQQQAABBBBAAAEEEEDgNwgQYP0GNL4FAQQQQAABBBBAAAEEEEAAAQQQQMA/AQIs/6zZCQEEEEAAAQQQQAABBBBAAAEEEEDgNwgQYP0GNL4FAQQQQAABBBBAAAEEEEAAAQQQQMA/AQIs/6zZCQEEEEAAAQQQQAABBBBAAAEEEEDgNwgQYP0GNL4FAQQQQAABBBBAAAEEEEAAAQQQQMA/AQIs/6zZCQEEEEAAAQQQQAABBBBAAAEEEEDgNwgQYP0GNL4FAQQQQAABBBBAAAEEEEAAAQQQQMA/AQIs/6zZCQEEEEAAAQQQQAABBBBAAAEEEEDgNwj8P1pyvJHGJbHuAAAAAElFTkSuQmCC;" vertex="1" parent="eR3O_3UB6di88ETe3x1X-1">
          <mxGeometry x="-210" y="-9" width="520" height="293" as="geometry" />
        </mxCell>
        <mxCell id="XNJbuU25YE3aVHzP_GjP-1" value="" style="rounded=0;whiteSpace=wrap;html=1;fillColor=none;fontColor=#000000;strokeColor=#F06F0C;" vertex="1" parent="eR3O_3UB6di88ETe3x1X-1">
          <mxGeometry x="-210" y="-99" width="120" height="60" as="geometry" />
        </mxCell>
        <mxCell id="XNJbuU25YE3aVHzP_GjP-2" value="" style="rounded=0;whiteSpace=wrap;html=1;fillColor=none;fontColor=#ffffff;strokeColor=#007AC2;" vertex="1" parent="eR3O_3UB6di88ETe3x1X-1">
          <mxGeometry x="-70" y="-99" width="120" height="60" as="geometry" />
        </mxCell>
        <mxCell id="XNJbuU25YE3aVHzP_GjP-3" value="" style="rounded=0;whiteSpace=wrap;html=1;fillColor=none;fontColor=#ffffff;strokeColor=#00DE00;" vertex="1" parent="eR3O_3UB6di88ETe3x1X-1">
          <mxGeometry x="74" y="-99" width="120" height="60" as="geometry" />
        </mxCell>
        <mxCell id="XNJbuU25YE3aVHzP_GjP-4" value="" style="rounded=0;whiteSpace=wrap;html=1;fillColor=none;fontColor=#000000;strokeColor=#F06F0C;" vertex="1" parent="eR3O_3UB6di88ETe3x1X-1">
          <mxGeometry x="-206" y="-2" width="513" height="45" as="geometry" />
        </mxCell>
        <mxCell id="XNJbuU25YE3aVHzP_GjP-5" value="" style="rounded=0;whiteSpace=wrap;html=1;fillColor=none;fontColor=#000000;strokeColor=#F06F0C;" vertex="1" parent="eR3O_3UB6di88ETe3x1X-1">
          <mxGeometry x="-203" y="27" width="506" height="13.5" as="geometry" />
        </mxCell>
        <mxCell id="XNJbuU25YE3aVHzP_GjP-6" value="" style="rounded=0;whiteSpace=wrap;html=1;fillColor=none;fontColor=#000000;strokeColor=#F06F0C;" vertex="1" parent="eR3O_3UB6di88ETe3x1X-1">
          <mxGeometry x="-203" y="18" width="506" height="9" as="geometry" />
        </mxCell>
        <mxCell id="XNJbuU25YE3aVHzP_GjP-7" value="" style="rounded=0;whiteSpace=wrap;html=1;fillColor=none;fontColor=#000000;strokeColor=#F06F0C;" vertex="1" parent="eR3O_3UB6di88ETe3x1X-1">
          <mxGeometry x="-203" width="506" height="18" as="geometry" />
        </mxCell>
        <mxCell id="XNJbuU25YE3aVHzP_GjP-8" value="" style="rounded=0;whiteSpace=wrap;html=1;fillColor=none;fontColor=#ffffff;strokeColor=#007AC2;" vertex="1" parent="eR3O_3UB6di88ETe3x1X-1">
          <mxGeometry x="-202" y="1" width="16" height="16" as="geometry" />
        </mxCell>
        <mxCell id="XNJbuU25YE3aVHzP_GjP-9" value="" style="rounded=0;whiteSpace=wrap;html=1;fillColor=none;fontColor=#ffffff;strokeColor=#00DE00;" vertex="1" parent="eR3O_3UB6di88ETe3x1X-1">
          <mxGeometry x="-185" y="1" width="72" height="9" as="geometry" />
        </mxCell>
        <mxCell id="XNJbuU25YE3aVHzP_GjP-10" value="" style="rounded=0;whiteSpace=wrap;html=1;fillColor=none;fontColor=#ffffff;strokeColor=#00DE00;" vertex="1" parent="eR3O_3UB6di88ETe3x1X-1">
          <mxGeometry x="-185" y="10" width="72" height="7" as="geometry" />
        </mxCell>
        <mxCell id="XNJbuU25YE3aVHzP_GjP-11" value="" style="rounded=0;whiteSpace=wrap;html=1;fillColor=none;fontColor=#ffffff;strokeColor=#00DE00;" vertex="1" parent="eR3O_3UB6di88ETe3x1X-1">
          <mxGeometry x="-202" y="19" width="33" height="7" as="geometry" />
        </mxCell>
        <mxCell id="XNJbuU25YE3aVHzP_GjP-12" value="" style="rounded=0;whiteSpace=wrap;html=1;fillColor=none;fontColor=#ffffff;strokeColor=#00DE00;" vertex="1" parent="eR3O_3UB6di88ETe3x1X-1">
          <mxGeometry x="190" y="19" width="19" height="7" as="geometry" />
        </mxCell>
        <mxCell id="XNJbuU25YE3aVHzP_GjP-13" value="" style="rounded=0;whiteSpace=wrap;html=1;fillColor=none;fontColor=#ffffff;strokeColor=#00DE00;" vertex="1" parent="eR3O_3UB6di88ETe3x1X-1">
          <mxGeometry x="209" y="19" width="27" height="7" as="geometry" />
        </mxCell>
        <mxCell id="XNJbuU25YE3aVHzP_GjP-14" value="" style="rounded=0;whiteSpace=wrap;html=1;fillColor=none;fontColor=#ffffff;strokeColor=#00DE00;" vertex="1" parent="eR3O_3UB6di88ETe3x1X-1">
          <mxGeometry x="236" y="19" width="27" height="7" as="geometry" />
        </mxCell>
        <mxCell id="XNJbuU25YE3aVHzP_GjP-15" value="" style="rounded=0;whiteSpace=wrap;html=1;fillColor=none;fontColor=#ffffff;strokeColor=#00DE00;" vertex="1" parent="eR3O_3UB6di88ETe3x1X-1">
          <mxGeometry x="263" y="19" width="27" height="7" as="geometry" />
        </mxCell>
        <mxCell id="XNJbuU25YE3aVHzP_GjP-16" value="" style="rounded=0;whiteSpace=wrap;html=1;fillColor=none;fontColor=#ffffff;strokeColor=#00DE00;" vertex="1" parent="eR3O_3UB6di88ETe3x1X-1">
          <mxGeometry x="253" y="5" width="44" height="10" as="geometry" />
        </mxCell>
        <mxCell id="XNJbuU25YE3aVHzP_GjP-17" value="" style="rounded=0;whiteSpace=wrap;html=1;fillColor=none;fontColor=#ffffff;strokeColor=#007AC2;" vertex="1" parent="eR3O_3UB6di88ETe3x1X-1">
          <mxGeometry x="6" y="28" width="16" height="11" as="geometry" />
        </mxCell>
        <mxCell id="XNJbuU25YE3aVHzP_GjP-18" value="" style="rounded=0;whiteSpace=wrap;html=1;fillColor=none;fontColor=#ffffff;strokeColor=#007AC2;" vertex="1" parent="eR3O_3UB6di88ETe3x1X-1">
          <mxGeometry x="22" y="28" width="19" height="11" as="geometry" />
        </mxCell>
        <mxCell id="XNJbuU25YE3aVHzP_GjP-19" value="" style="rounded=0;whiteSpace=wrap;html=1;fillColor=none;fontColor=#ffffff;strokeColor=#007AC2;" vertex="1" parent="eR3O_3UB6di88ETe3x1X-1">
          <mxGeometry x="41" y="28" width="19" height="11" as="geometry" />
        </mxCell>
        <mxCell id="XNJbuU25YE3aVHzP_GjP-20" value="" style="rounded=0;whiteSpace=wrap;html=1;fillColor=none;fontColor=#ffffff;strokeColor=#007AC2;" vertex="1" parent="eR3O_3UB6di88ETe3x1X-1">
          <mxGeometry x="60" y="28" width="19" height="11" as="geometry" />
        </mxCell>
        <mxCell id="XNJbuU25YE3aVHzP_GjP-21" value="" style="rounded=0;whiteSpace=wrap;html=1;fillColor=none;fontColor=#ffffff;strokeColor=#007AC2;" vertex="1" parent="eR3O_3UB6di88ETe3x1X-1">
          <mxGeometry x="79" y="28" width="19" height="11" as="geometry" />
        </mxCell>
      </root>
    </mxGraphModel>
  </diagram>
</mxfile>
